<?xml version="1.0" encoding="UTF-8" standalone="no"?>
<!DOCTYPE svg PUBLIC "-//W3C//DTD SVG 1.1//EN"
 "http://www.w3.org/Graphics/SVG/1.1/DTD/svg11.dtd">
<!-- Generated by graphviz version 2.50.0 (0)
 -->
<!-- Title: test Pages: 1 -->
<svg width="490pt" height="290pt"
 viewBox="0.00 0.00 490.44 290.43" xmlns="http://www.w3.org/2000/svg" xmlns:xlink="http://www.w3.org/1999/xlink">
<g id="graph0" class="graph" transform="scale(1 1) rotate(0) translate(4 286.43)">
<title>test</title>
<polygon fill="#151515" stroke="transparent" points="-4,4 -4,-286.43 486.44,-286.43 486.44,4 -4,4"/>
<!-- aerodrome -->
<g id="node1" class="node">
<title>aerodrome</title>
<g id="a_node1"><a xlink:href="tech_aerodrome_full.html" xlink:title="Aerodrome">
<polygon fill="none" stroke="red" points="152.46,-38.78 76.32,-51.21 0.18,-38.78 0.25,-18.65 152.39,-18.65 152.46,-38.78"/>
<text text-anchor="middle" x="76.32" y="-29.51" font-family="Times,serif" font-size="14.00" fill="#ebc72d">Aerodrome</text>
</a>
</g>
</g>
<!-- castle -->
<g id="node2" class="node">
<title>castle</title>
<g id="a_node2"><a xlink:href="tech_castle_full.html" xlink:title="Castle">
<polygon fill="none" stroke="red" points="245.94,-269.99 196.32,-282.43 146.7,-269.99 146.75,-249.86 245.89,-249.86 245.94,-269.99"/>
<text text-anchor="middle" x="196.32" y="-260.73" font-family="Times,serif" font-size="14.00" fill="#ebc72d">Castle</text>
</a>
</g>
</g>
<!-- castle&#45;&gt;aerodrome -->
<g id="edge3" class="edge">
<title>castle&#45;&gt;aerodrome</title>
<path fill="none" stroke="#ebc72d" stroke-dasharray="1,5" d="M146.62,-262.26C108.26,-258.42 57.47,-246.29 31.32,-210.43 -2.63,-163.86 34.71,-94.11 58.94,-57.92"/>
<polygon fill="#ebc72d" stroke="#ebc72d" points="61.97,-59.69 64.77,-49.47 56.21,-55.71 61.97,-59.69"/>
</g>
<!-- barracks -->
<g id="node4" class="node">
<title>barracks</title>
<g id="a_node4"><a xlink:href="tech_barracks_full.html" xlink:title="Barracks">
<polygon fill="none" stroke="red" points="168.36,-197.99 104.32,-210.43 40.28,-197.99 40.34,-177.86 168.3,-177.86 168.36,-197.99"/>
<text text-anchor="middle" x="104.32" y="-188.73" font-family="Times,serif" font-size="14.00" fill="#ebc72d">Barracks</text>
</a>
</g>
</g>
<!-- castle&#45;&gt;barracks -->
<g id="edge4" class="edge">
<title>castle&#45;&gt;barracks</title>
<path fill="none" stroke="#ebc72d" stroke-dasharray="1,5" d="M178.14,-249.6C164.45,-239.17 145.48,-224.74 130.2,-213.12"/>
<polygon fill="#ebc72d" stroke="#ebc72d" points="132.22,-210.26 122.15,-206.99 127.98,-215.83 132.22,-210.26"/>
</g>
<!-- technodrome -->
<g id="node5" class="node">
<title>technodrome</title>
<g id="a_node5"><a xlink:href="tech_technodrome_full.html" xlink:title="Technodrome">
<polygon fill="none" stroke="red" points="308.88,-125.99 218.32,-138.43 127.76,-125.99 127.84,-105.86 308.8,-105.86 308.88,-125.99"/>
<text text-anchor="middle" x="218.32" y="-116.73" font-family="Times,serif" font-size="14.00" fill="#ebc72d">Technodrome</text>
</a>
</g>
</g>
<!-- castle&#45;&gt;technodrome -->
<g id="edge7" class="edge">
<title>castle&#45;&gt;technodrome</title>
<path fill="none" stroke="#ebc72d" stroke-dasharray="1,5" d="M198.43,-249.81C202.05,-226.46 209.5,-178.39 214.18,-148.15"/>
<polygon fill="#ebc72d" stroke="#ebc72d" points="217.64,-148.68 215.71,-138.26 210.72,-147.61 217.64,-148.68"/>
</g>
<!-- farm -->
<g id="node6" class="node">
<title>farm</title>
<g id="a_node6"><a xlink:href="tech_farm_full.html" xlink:title="Farm">
<polygon fill="none" stroke="red" points="309.98,-197.99 267.32,-210.43 224.66,-197.99 224.7,-177.86 309.94,-177.86 309.98,-197.99"/>
<text text-anchor="middle" x="267.32" y="-188.73" font-family="Times,serif" font-size="14.00" fill="#ebc72d">Farm</text>
</a>
</g>
</g>
<!-- castle&#45;&gt;farm -->
<g id="edge6" class="edge">
<title>castle&#45;&gt;farm</title>
<path fill="none" stroke="#ebc72d" stroke-dasharray="1,5" d="M210.35,-249.6C220.69,-239.4 234.93,-225.36 246.58,-213.87"/>
<polygon fill="#ebc72d" stroke="#ebc72d" points="249.14,-216.27 253.8,-206.75 244.23,-211.28 249.14,-216.27"/>
</g>
<!-- blacksmith -->
<g id="node7" class="node">
<title>blacksmith</title>
<g id="a_node7"><a xlink:href="tech_blacksmith_full.html" xlink:title="Blacksmith">
<polygon fill="none" stroke="red" points="482.57,-197.99 405.32,-210.43 328.07,-197.99 328.14,-177.86 482.5,-177.86 482.57,-197.99"/>
<text text-anchor="middle" x="405.32" y="-188.73" font-family="Times,serif" font-size="14.00" fill="#ebc72d">Blacksmith</text>
</a>
</g>
</g>
<!-- castle&#45;&gt;blacksmith -->
<g id="edge5" class="edge">
<title>castle&#45;&gt;blacksmith</title>
<path fill="none" stroke="#ebc72d" stroke-dasharray="1,5" d="M237.11,-249.76C272.73,-237.83 324.31,-220.56 360.95,-208.29"/>
<polygon fill="#ebc72d" stroke="#ebc72d" points="362.49,-211.46 370.86,-204.97 360.27,-204.83 362.49,-211.46"/>
</g>
<!-- defense_tower -->
<g id="node3" class="node">
<title>defense_tower</title>
<g id="a_node3"><a xlink:href="tech_defense_tower_full.html" xlink:title="Defense\nTower">
<polygon fill="none" stroke="red" points="342.18,-43.54 277.32,-66.64 212.46,-43.54 212.52,-6.17 342.12,-6.17 342.18,-43.54"/>
<text text-anchor="middle" x="277.32" y="-37.01" font-family="Times,serif" font-size="14.00" fill="#ebc72d">Defense</text>
<text text-anchor="middle" x="277.32" y="-22.01" font-family="Times,serif" font-size="14.00" fill="#ebc72d">Tower</text>
</a>
</g>
</g>
<!-- technodrome&#45;&gt;aerodrome -->
<g id="edge8" class="edge">
<title>technodrome&#45;&gt;aerodrome</title>
<path fill="none" stroke="#ebc72d" stroke-dasharray="1,5" d="M195.51,-105.74C171.66,-91.43 134.09,-68.88 107.51,-52.93"/>
<polygon fill="#ebc72d" stroke="#ebc72d" points="108.99,-49.73 98.61,-47.59 105.38,-55.74 108.99,-49.73"/>
</g>
<!-- technodrome&#45;&gt;defense_tower -->
<g id="edge9" class="edge">
<title>technodrome&#45;&gt;defense_tower</title>
<path fill="none" stroke="#ebc72d" stroke-dasharray="1,5" d="M227.8,-105.74C234.75,-95.7 244.5,-81.62 253.51,-68.6"/>
<polygon fill="#ebc72d" stroke="#ebc72d" points="256.48,-70.46 259.3,-60.25 250.73,-66.48 256.48,-70.46"/>
</g>
<!-- blacksmith&#45;&gt;defense_tower -->
<g id="edge1" class="edge">
<title>blacksmith&#45;&gt;defense_tower</title>
<path fill="none" stroke="#ebc72d" stroke-dasharray="1,5" d="M394.19,-177.75C374.31,-153.34 332.19,-101.61 304.33,-67.38"/>
<polygon fill="#ebc72d" stroke="#ebc72d" points="306.95,-65.06 297.92,-59.51 301.52,-69.48 306.95,-65.06"/>
</g>
<!-- blacksmith&#45;&gt;technodrome -->
<g id="edge2" class="edge">
<title>blacksmith&#45;&gt;technodrome</title>
<path fill="none" stroke="#ebc72d" stroke-dasharray="1,5" d="M368.82,-177.76C338,-166.23 293.81,-149.68 261.28,-137.51"/>
<polygon fill="#ebc72d" stroke="#ebc72d" points="262.18,-134.11 251.59,-133.88 259.73,-140.66 262.18,-134.11"/>
</g>
</g>
</svg>
