<?xml version="1.0" encoding="UTF-8" standalone="no"?>
<!DOCTYPE svg PUBLIC "-//W3C//DTD SVG 1.1//EN"
 "http://www.w3.org/Graphics/SVG/1.1/DTD/svg11.dtd">
<!-- Generated by graphviz version 2.50.0 (0)
 -->
<!-- Title: test Pages: 1 -->
<svg width="1244pt" height="380pt"
 viewBox="0.00 0.00 1244.18 380.17" xmlns="http://www.w3.org/2000/svg" xmlns:xlink="http://www.w3.org/1999/xlink">
<g id="graph0" class="graph" transform="scale(1 1) rotate(0) translate(4 376.17)">
<title>test</title>
<polygon fill="#151515" stroke="transparent" points="-4,4 -4,-376.17 1240.18,-376.17 1240.18,4 -4,4"/>
<!-- battle_machine -->
<g id="node1" class="node">
<title>battle_machine</title>
<g id="a_node1"><a xlink:href="tech_battle_machine_full.html" xlink:title="Battle\nMachine">
<ellipse fill="none" stroke="magenta" cx="506.64" cy="-98.87" rx="54.39" ry="26.74"/>
<text text-anchor="middle" x="506.64" y="-102.67" font-family="Times,serif" font-size="14.00" fill="#ebc72d">Battle</text>
<text text-anchor="middle" x="506.64" y="-87.67" font-family="Times,serif" font-size="14.00" fill="#ebc72d">Machine</text>
</a>
</g>
</g>
<!-- pig -->
<g id="node2" class="node">
<title>pig</title>
<g id="a_node2"><a xlink:href="tech_pig_full.html" xlink:title="Pig">
<ellipse fill="none" stroke="magenta" cx="1129.64" cy="-98.87" rx="27" ry="18"/>
<text text-anchor="middle" x="1129.64" y="-95.17" font-family="Times,serif" font-size="14.00" fill="#ebc72d">Pig</text>
</a>
</g>
</g>
<!-- aerodrome -->
<g id="node3" class="node">
<title>aerodrome</title>
<g id="a_node3"><a xlink:href="tech_aerodrome_full.html" xlink:title="Aerodrome">
<polygon fill="none" stroke="red" points="314.78,-104.43 238.64,-116.87 162.5,-104.43 162.57,-84.31 314.71,-84.31 314.78,-104.43"/>
<text text-anchor="middle" x="238.64" y="-95.17" font-family="Times,serif" font-size="14.00" fill="#ebc72d">Aerodrome</text>
</a>
</g>
</g>
<!-- airship -->
<g id="node10" class="node">
<title>airship</title>
<g id="a_node10"><a xlink:href="tech_airship_full.html" xlink:title="Airship">
<ellipse fill="none" stroke="magenta" cx="238.64" cy="-18" rx="44.39" ry="18"/>
<text text-anchor="middle" x="238.64" y="-14.3" font-family="Times,serif" font-size="14.00" fill="#ebc72d">Airship</text>
</a>
</g>
</g>
<!-- aerodrome&#45;&gt;airship -->
<g id="edge1" class="edge">
<title>aerodrome&#45;&gt;airship</title>
<path fill="none" stroke="#ebc72d" d="M238.64,-84.13C238.64,-73.72 238.64,-59.07 238.64,-46.3"/>
<polygon fill="#ebc72d" stroke="#ebc72d" points="242.14,-46.16 238.64,-36.16 235.14,-46.16 242.14,-46.16"/>
</g>
<!-- ornithopter -->
<g id="node17" class="node">
<title>ornithopter</title>
<g id="a_node17"><a xlink:href="tech_ornithopter_full.html" xlink:title="Ornithopter">
<ellipse fill="none" stroke="magenta" cx="496.64" cy="-18" rx="65.79" ry="18"/>
<text text-anchor="middle" x="496.64" y="-14.3" font-family="Times,serif" font-size="14.00" fill="#ebc72d">Ornithopter</text>
</a>
</g>
</g>
<!-- aerodrome&#45;&gt;ornithopter -->
<g id="edge2" class="edge">
<title>aerodrome&#45;&gt;ornithopter</title>
<path fill="none" stroke="#ebc72d" d="M283.28,-84.22C328.12,-70.52 397.17,-49.41 444.5,-34.94"/>
<polygon fill="#ebc72d" stroke="#ebc72d" points="445.71,-38.23 454.25,-31.96 443.66,-31.53 445.71,-38.23"/>
</g>
<!-- swordman -->
<g id="node4" class="node">
<title>swordman</title>
<g id="a_node4"><a xlink:href="tech_swordman_full.html" xlink:title="Swordman">
<ellipse fill="none" stroke="magenta" cx="938.64" cy="-194.95" rx="60.39" ry="18"/>
<text text-anchor="middle" x="938.64" y="-191.25" font-family="Times,serif" font-size="14.00" fill="#ebc72d">Swordman</text>
</a>
</g>
</g>
<!-- guard -->
<g id="node9" class="node">
<title>guard</title>
<g id="a_node9"><a xlink:href="tech_guard_full.html" xlink:title="Guard">
<ellipse fill="none" stroke="magenta" cx="910.64" cy="-98.87" rx="39.79" ry="18"/>
<text text-anchor="middle" x="910.64" y="-95.17" font-family="Times,serif" font-size="14.00" fill="#ebc72d">Guard</text>
</a>
</g>
</g>
<!-- swordman&#45;&gt;guard -->
<g id="edge17" class="edge">
<title>swordman&#45;&gt;guard</title>
<path fill="none" stroke="#ebc72d" stroke-dasharray="5,2" d="M933.5,-176.7C929.36,-162.77 923.45,-142.93 918.68,-126.9"/>
<polygon fill="#ebc72d" stroke="#ebc72d" points="921.95,-125.6 915.74,-117.02 915.24,-127.6 921.95,-125.6"/>
</g>
<!-- castle -->
<g id="node5" class="node">
<title>castle</title>
<g id="a_node5"><a xlink:href="tech_castle_full.html" xlink:title="Castle">
<polygon fill="none" stroke="red" points="1024.26,-287.73 974.64,-300.17 925.02,-287.73 925.06,-267.6 1024.21,-267.6 1024.26,-287.73"/>
<text text-anchor="middle" x="974.64" y="-278.47" font-family="Times,serif" font-size="14.00" fill="#ebc72d">Castle</text>
</a>
</g>
</g>
<!-- worker -->
<g id="node15" class="node">
<title>worker</title>
<g id="a_node15"><a xlink:href="tech_worker_full.html" xlink:title="Worker">
<ellipse fill="none" stroke="magenta" cx="842.64" cy="-354.17" rx="44.69" ry="18"/>
<text text-anchor="middle" x="842.64" y="-350.47" font-family="Times,serif" font-size="14.00" fill="#ebc72d">Worker</text>
</a>
</g>
</g>
<!-- catapult -->
<g id="node6" class="node">
<title>catapult</title>
<g id="a_node6"><a xlink:href="tech_catapult_full.html" xlink:title="Catapult">
<ellipse fill="none" stroke="magenta" cx="383.64" cy="-98.87" rx="50.89" ry="18"/>
<text text-anchor="middle" x="383.64" y="-95.17" font-family="Times,serif" font-size="14.00" fill="#ebc72d">Catapult</text>
</a>
</g>
</g>
<!-- air_ballista -->
<g id="node7" class="node">
<title>air_ballista</title>
<g id="a_node7"><a xlink:href="tech_air_ballista_full.html" xlink:title="Air\nBallista">
<ellipse fill="none" stroke="magenta" cx="93.64" cy="-98.87" rx="50.41" ry="26.74"/>
<text text-anchor="middle" x="93.64" y="-102.67" font-family="Times,serif" font-size="14.00" fill="#ebc72d">Air</text>
<text text-anchor="middle" x="93.64" y="-87.67" font-family="Times,serif" font-size="14.00" fill="#ebc72d">Ballista</text>
</a>
</g>
</g>
<!-- technician -->
<g id="node8" class="node">
<title>technician</title>
<g id="a_node8"><a xlink:href="tech_technician_full.html" xlink:title="Technician">
<ellipse fill="none" stroke="magenta" cx="339.64" cy="-194.95" rx="59.59" ry="18"/>
<text text-anchor="middle" x="339.64" y="-191.25" font-family="Times,serif" font-size="14.00" fill="#ebc72d">Technician</text>
</a>
</g>
</g>
<!-- technician&#45;&gt;battle_machine -->
<g id="edge20" class="edge">
<title>technician&#45;&gt;battle_machine</title>
<path fill="none" stroke="#ebc72d" stroke-dasharray="5,2" d="M366.47,-178.84C392.48,-164.18 432.39,-141.7 462.98,-124.46"/>
<polygon fill="#ebc72d" stroke="#ebc72d" points="464.75,-127.48 471.75,-119.53 461.32,-121.39 464.75,-127.48"/>
</g>
<!-- technician&#45;&gt;aerodrome -->
<g id="edge18" class="edge">
<title>technician&#45;&gt;aerodrome</title>
<path fill="none" stroke="#ebc72d" stroke-width="2" d="M322.04,-177.57C305.33,-161.99 280.09,-138.49 261.76,-121.41"/>
<polygon fill="#ebc72d" stroke="#ebc72d" stroke-width="2" points="264.07,-118.78 254.37,-114.53 259.3,-123.9 264.07,-118.78"/>
</g>
<!-- technician&#45;&gt;catapult -->
<g id="edge21" class="edge">
<title>technician&#45;&gt;catapult</title>
<path fill="none" stroke="#ebc72d" stroke-dasharray="5,2" d="M347.71,-176.7C354.32,-162.55 363.79,-142.3 371.35,-126.14"/>
<polygon fill="#ebc72d" stroke="#ebc72d" points="374.7,-127.24 375.77,-116.7 368.36,-124.28 374.7,-127.24"/>
</g>
<!-- technician&#45;&gt;air_ballista -->
<g id="edge19" class="edge">
<title>technician&#45;&gt;air_ballista</title>
<path fill="none" stroke="#ebc72d" stroke-dasharray="5,2" d="M302,-180.84C264.26,-167.53 204.6,-146.05 153.64,-125.74 149.49,-124.09 145.21,-122.33 140.92,-120.55"/>
<polygon fill="#ebc72d" stroke="#ebc72d" points="142.17,-117.27 131.59,-116.61 139.45,-123.72 142.17,-117.27"/>
</g>
<!-- defense_tower -->
<g id="node11" class="node">
<title>defense_tower</title>
<g id="a_node11"><a xlink:href="tech_defense_tower_full.html" xlink:title="Defense\nTower">
<polygon fill="none" stroke="red" points="585.49,-205.28 520.64,-228.38 455.78,-205.28 455.84,-167.91 585.43,-167.91 585.49,-205.28"/>
<text text-anchor="middle" x="520.64" y="-198.75" font-family="Times,serif" font-size="14.00" fill="#ebc72d">Defense</text>
<text text-anchor="middle" x="520.64" y="-183.75" font-family="Times,serif" font-size="14.00" fill="#ebc72d">Tower</text>
</a>
</g>
</g>
<!-- barracks -->
<g id="node12" class="node">
<title>barracks</title>
<g id="a_node12"><a xlink:href="tech_barracks_full.html" xlink:title="Barracks">
<polygon fill="none" stroke="red" points="906.68,-287.73 842.64,-300.17 778.6,-287.73 778.66,-267.6 906.62,-267.6 906.68,-287.73"/>
<text text-anchor="middle" x="842.64" y="-278.47" font-family="Times,serif" font-size="14.00" fill="#ebc72d">Barracks</text>
</a>
</g>
</g>
<!-- barracks&#45;&gt;swordman -->
<g id="edge6" class="edge">
<title>barracks&#45;&gt;swordman</title>
<path fill="none" stroke="#ebc72d" d="M858.06,-267.48C872.77,-254.42 895.2,-234.51 912.67,-219"/>
<polygon fill="#ebc72d" stroke="#ebc72d" points="915.14,-221.49 920.3,-212.23 910.49,-216.25 915.14,-221.49"/>
</g>
<!-- barracks&#45;&gt;guard -->
<g id="edge4" class="edge">
<title>barracks&#45;&gt;guard</title>
<path fill="none" stroke="#ebc72d" d="M899.19,-267.6C939.93,-256.98 990.6,-241.79 1007.64,-228.17 1020.62,-217.79 1021.84,-211.87 1026.64,-195.95"/>
<path fill="none" stroke="#ebc72d" d="M1026.64,-193.95C1032.93,-173.07 980.85,-139 944.4,-118.1"/>
<polygon fill="#ebc72d" stroke="#ebc72d" points="945.95,-114.95 935.52,-113.08 942.51,-121.04 945.95,-114.95"/>
</g>
<!-- archer -->
<g id="node14" class="node">
<title>archer</title>
<g id="a_node14"><a xlink:href="tech_archer_full.html" xlink:title="Archer">
<ellipse fill="none" stroke="magenta" cx="817.64" cy="-194.95" rx="42.49" ry="18"/>
<text text-anchor="middle" x="817.64" y="-191.25" font-family="Times,serif" font-size="14.00" fill="#ebc72d">Archer</text>
</a>
</g>
</g>
<!-- barracks&#45;&gt;archer -->
<g id="edge3" class="edge">
<title>barracks&#45;&gt;archer</title>
<path fill="none" stroke="#ebc72d" d="M838.62,-267.48C835.08,-255.4 829.81,-237.45 825.44,-222.55"/>
<polygon fill="#ebc72d" stroke="#ebc72d" points="828.76,-221.45 822.59,-212.84 822.05,-223.42 828.76,-221.45"/>
</g>
<!-- horseman -->
<g id="node20" class="node">
<title>horseman</title>
<g id="a_node20"><a xlink:href="tech_horseman_full.html" xlink:title="Horseman">
<ellipse fill="none" stroke="magenta" cx="1026.64" cy="-98.87" rx="58.49" ry="18"/>
<text text-anchor="middle" x="1026.64" y="-95.17" font-family="Times,serif" font-size="14.00" fill="#ebc72d">Horseman</text>
</a>
</g>
</g>
<!-- barracks&#45;&gt;horseman -->
<g id="edge5" class="edge">
<title>barracks&#45;&gt;horseman</title>
<path fill="none" stroke="#ebc72d" d="M1026.64,-193.95C1033.2,-172.15 1032.62,-146.19 1030.72,-127.07"/>
<polygon fill="#ebc72d" stroke="#ebc72d" points="1034.18,-126.48 1029.54,-116.95 1027.22,-127.29 1034.18,-126.48"/>
</g>
<!-- technodrome -->
<g id="node13" class="node">
<title>technodrome</title>
<g id="a_node13"><a xlink:href="tech_technodrome_full.html" xlink:title="Technodrome">
<polygon fill="none" stroke="red" points="518.2,-287.73 427.64,-300.17 337.07,-287.73 337.16,-267.6 518.11,-267.6 518.2,-287.73"/>
<text text-anchor="middle" x="427.64" y="-278.47" font-family="Times,serif" font-size="14.00" fill="#ebc72d">Technodrome</text>
</a>
</g>
</g>
<!-- technodrome&#45;&gt;battle_machine -->
<g id="edge24" class="edge">
<title>technodrome&#45;&gt;battle_machine</title>
<path fill="none" stroke="#ebc72d" stroke-dasharray="1,5" d="M427.64,-193.95C436.42,-169.2 455.03,-146.49 471.98,-129.59"/>
<polygon fill="#ebc72d" stroke="#ebc72d" points="474.84,-131.7 479.62,-122.24 469.98,-126.66 474.84,-131.7"/>
</g>
<!-- technodrome&#45;&gt;catapult -->
<g id="edge25" class="edge">
<title>technodrome&#45;&gt;catapult</title>
<path fill="none" stroke="#ebc72d" stroke-dasharray="1,5" d="M424.89,-267.41C422.05,-250.16 419.13,-219.93 427.64,-195.95"/>
<path fill="none" stroke="#ebc72d" stroke-dasharray="1,5" d="M427.64,-193.95C436.36,-169.38 421.19,-142.55 406.33,-123.85"/>
<polygon fill="#ebc72d" stroke="#ebc72d" points="408.95,-121.53 399.84,-116.12 403.59,-126.03 408.95,-121.53"/>
</g>
<!-- technodrome&#45;&gt;air_ballista -->
<g id="edge22" class="edge">
<title>technodrome&#45;&gt;air_ballista</title>
<path fill="none" stroke="#ebc72d" stroke-dasharray="1,5" d="M15.64,-193.95C1.78,-167.86 26.08,-142.31 51.12,-124.44"/>
<polygon fill="#ebc72d" stroke="#ebc72d" points="53.29,-127.2 59.59,-118.69 49.35,-121.41 53.29,-127.2"/>
</g>
<!-- technodrome&#45;&gt;technician -->
<g id="edge28" class="edge">
<title>technodrome&#45;&gt;technician</title>
<path fill="none" stroke="#ebc72d" d="M413.5,-267.48C400.14,-254.54 379.82,-234.86 363.87,-219.42"/>
<polygon fill="#ebc72d" stroke="#ebc72d" points="366.07,-216.67 356.45,-212.23 361.2,-221.7 366.07,-216.67"/>
</g>
<!-- technodrome&#45;&gt;airship -->
<g id="edge23" class="edge">
<title>technodrome&#45;&gt;airship</title>
<path fill="none" stroke="#ebc72d" stroke-dasharray="1,5" d="M337.08,-277.81C225.07,-271.27 45.45,-252.07 15.64,-195.95"/>
<path fill="none" stroke="#ebc72d" stroke-dasharray="1,5" d="M15.64,-193.95C-10.1,-145.51 -2.17,-112.67 34.64,-72 54.88,-49.63 133.66,-34.09 187.19,-25.86"/>
<polygon fill="#ebc72d" stroke="#ebc72d" points="187.83,-29.31 197.2,-24.36 186.79,-22.38 187.83,-29.31"/>
</g>
<!-- technodrome&#45;&gt;defense_tower -->
<g id="edge26" class="edge">
<title>technodrome&#45;&gt;defense_tower</title>
<path fill="none" stroke="#ebc72d" stroke-dasharray="1,5" d="M442.58,-267.48C454.56,-256.5 471.83,-240.67 487.08,-226.7"/>
<polygon fill="#ebc72d" stroke="#ebc72d" points="489.83,-228.93 494.84,-219.59 485.1,-223.77 489.83,-228.93"/>
</g>
<!-- technodrome&#45;&gt;ornithopter -->
<g id="edge27" class="edge">
<title>technodrome&#45;&gt;ornithopter</title>
<path fill="none" stroke="#ebc72d" stroke-dasharray="1,5" d="M427.64,-193.95C433.19,-178.29 433.52,-171.95 446.64,-161.74 491.59,-126.76 516.24,-145.56 569.64,-125.74 595.72,-116.06 631.73,-127.22 626.64,-99.87"/>
<path fill="none" stroke="#ebc72d" stroke-dasharray="1,5" d="M626.64,-97.87C620.38,-64.24 587.14,-44.44 555.85,-33.1"/>
<polygon fill="#ebc72d" stroke="#ebc72d" points="556.82,-29.73 546.23,-29.84 554.58,-36.36 556.82,-29.73"/>
</g>
<!-- worker&#45;&gt;castle -->
<g id="edge31" class="edge">
<title>worker&#45;&gt;castle</title>
<path fill="none" stroke="#ebc72d" stroke-width="2" d="M877.77,-334.53C898.28,-323.66 923.91,-310.07 943.66,-299.59"/>
<polygon fill="#ebc72d" stroke="#ebc72d" stroke-width="2" points="875.91,-331.56 868.72,-339.34 879.19,-337.74 875.91,-331.56"/>
<polygon fill="#ebc72d" stroke="#ebc72d" stroke-width="2" points="945.36,-302.65 952.55,-294.88 942.08,-296.47 945.36,-302.65"/>
</g>
<!-- worker&#45;&gt;defense_tower -->
<g id="edge32" class="edge">
<title>worker&#45;&gt;defense_tower</title>
<path fill="none" stroke="#ebc72d" stroke-width="2" d="M807.52,-342.88C773.1,-331.72 720.19,-311.6 680.64,-283.17"/>
<path fill="none" stroke="#ebc72d" stroke-width="2" d="M680.64,-281.17C646.1,-256.33 603.43,-233.97 570.85,-218.39"/>
<polygon fill="#ebc72d" stroke="#ebc72d" stroke-width="2" points="572.05,-215.09 561.51,-213.98 569.06,-221.42 572.05,-215.09"/>
</g>
<!-- worker&#45;&gt;barracks -->
<g id="edge29" class="edge">
<title>worker&#45;&gt;barracks</title>
<path fill="none" stroke="#ebc72d" stroke-width="2" d="M842.64,-335.86C842.64,-328.15 842.64,-318.88 842.64,-310.28"/>
<polygon fill="#ebc72d" stroke="#ebc72d" stroke-width="2" points="846.14,-310.27 842.64,-300.27 839.14,-310.27 846.14,-310.27"/>
</g>
<!-- worker&#45;&gt;technodrome -->
<g id="edge34" class="edge">
<title>worker&#45;&gt;technodrome</title>
<path fill="none" stroke="#ebc72d" stroke-width="2" d="M802.09,-346.33C730.28,-334.22 580.18,-308.9 493.41,-294.26"/>
<polygon fill="#ebc72d" stroke="#ebc72d" stroke-width="2" points="493.85,-290.79 483.41,-292.57 492.69,-297.69 493.85,-290.79"/>
</g>
<!-- farm -->
<g id="node16" class="node">
<title>farm</title>
<g id="a_node16"><a xlink:href="tech_farm_full.html" xlink:title="Farm">
<polygon fill="none" stroke="red" points="1156.29,-200.52 1113.64,-212.95 1070.98,-200.52 1071.02,-180.39 1156.25,-180.39 1156.29,-200.52"/>
<text text-anchor="middle" x="1113.64" y="-191.25" font-family="Times,serif" font-size="14.00" fill="#ebc72d">Farm</text>
</a>
</g>
</g>
<!-- worker&#45;&gt;farm -->
<g id="edge33" class="edge">
<title>worker&#45;&gt;farm</title>
<path fill="none" stroke="#ebc72d" stroke-width="2" d="M885.75,-349.13C926.76,-343.55 988.7,-330.47 1033.64,-300.17 1064.19,-279.56 1088.04,-243.46 1101.48,-219.63"/>
<polygon fill="#ebc72d" stroke="#ebc72d" stroke-width="2" points="1104.55,-221.3 1106.27,-210.85 1098.41,-217.95 1104.55,-221.3"/>
</g>
<!-- blacksmith -->
<g id="node18" class="node">
<title>blacksmith</title>
<g id="a_node18"><a xlink:href="tech_blacksmith_full.html" xlink:title="Blacksmith">
<polygon fill="none" stroke="red" points="757.88,-200.52 680.64,-212.95 603.39,-200.52 603.46,-180.39 757.81,-180.39 757.88,-200.52"/>
<text text-anchor="middle" x="680.64" y="-191.25" font-family="Times,serif" font-size="14.00" fill="#ebc72d">Blacksmith</text>
</a>
</g>
</g>
<!-- worker&#45;&gt;blacksmith -->
<g id="edge30" class="edge">
<title>worker&#45;&gt;blacksmith</title>
<path fill="none" stroke="#ebc72d" stroke-width="2" d="M680.64,-281.17C662.84,-268.37 665.64,-241.84 671.16,-221.76"/>
<polygon fill="#ebc72d" stroke="#ebc72d" stroke-width="2" points="674.59,-222.54 674.2,-211.96 667.9,-220.47 674.59,-222.54"/>
</g>
<!-- farm&#45;&gt;pig -->
<g id="edge16" class="edge">
<title>farm&#45;&gt;pig</title>
<path fill="none" stroke="#ebc72d" d="M1116,-180.07C1118.36,-166.19 1122.05,-144.46 1125,-127.12"/>
<polygon fill="#ebc72d" stroke="#ebc72d" points="1128.5,-127.45 1126.72,-117 1121.6,-126.27 1128.5,-127.45"/>
</g>
<!-- cow -->
<g id="node19" class="node">
<title>cow</title>
<g id="a_node19"><a xlink:href="tech_cow_full.html" xlink:title="Cow">
<ellipse fill="none" stroke="magenta" cx="1205.64" cy="-98.87" rx="30.59" ry="18"/>
<text text-anchor="middle" x="1205.64" y="-95.17" font-family="Times,serif" font-size="14.00" fill="#ebc72d">Cow</text>
</a>
</g>
</g>
<!-- farm&#45;&gt;cow -->
<g id="edge14" class="edge">
<title>farm&#45;&gt;cow</title>
<path fill="none" stroke="#ebc72d" d="M1127.21,-180.07C1142.17,-164.77 1166.43,-139.96 1184.01,-121.98"/>
<polygon fill="#ebc72d" stroke="#ebc72d" points="1186.6,-124.34 1191.09,-114.74 1181.6,-119.44 1186.6,-124.34"/>
</g>
<!-- farm&#45;&gt;horseman -->
<g id="edge15" class="edge">
<title>farm&#45;&gt;horseman</title>
<path fill="none" stroke="#ebc72d" stroke-dasharray="1,5" d="M1100.8,-180.07C1087.19,-165.35 1065.44,-141.83 1049,-124.06"/>
<polygon fill="#ebc72d" stroke="#ebc72d" points="1051.23,-121.31 1041.87,-116.35 1046.09,-126.06 1051.23,-121.31"/>
</g>
<!-- blacksmith&#45;&gt;battle_machine -->
<g id="edge8" class="edge">
<title>blacksmith&#45;&gt;battle_machine</title>
<path fill="none" stroke="#ebc72d" stroke-dasharray="1,5" d="M655.34,-180.27C628.2,-165.6 584.56,-142 551.55,-124.16"/>
<polygon fill="#ebc72d" stroke="#ebc72d" points="553.01,-120.97 542.55,-119.29 549.68,-127.12 553.01,-120.97"/>
</g>
<!-- blacksmith&#45;&gt;catapult -->
<g id="edge9" class="edge">
<title>blacksmith&#45;&gt;catapult</title>
<path fill="none" stroke="#ebc72d" stroke-dasharray="1,5" d="M647.07,-180.27C631.31,-174.14 612.17,-167.09 594.64,-161.74 528.65,-141.6 509.11,-147.48 443.64,-125.74 436.61,-123.41 429.26,-120.58 422.21,-117.66"/>
<polygon fill="#ebc72d" stroke="#ebc72d" points="423.42,-114.37 412.85,-113.67 420.67,-120.81 423.42,-114.37"/>
</g>
<!-- blacksmith&#45;&gt;guard -->
<g id="edge10" class="edge">
<title>blacksmith&#45;&gt;guard</title>
<path fill="none" stroke="#ebc72d" stroke-dasharray="1,5" d="M714.08,-180.27C756.24,-163.03 828.54,-133.45 872.71,-115.38"/>
<polygon fill="#ebc72d" stroke="#ebc72d" points="874.3,-118.52 882.23,-111.49 871.65,-112.04 874.3,-118.52"/>
</g>
<!-- blacksmith&#45;&gt;airship -->
<g id="edge7" class="edge">
<title>blacksmith&#45;&gt;airship</title>
<path fill="none" stroke="#ebc72d" stroke-dasharray="1,5" d="M666.11,-180.28C652.02,-166.81 630.24,-145.44 612.64,-125.74 592.25,-102.93 596.07,-87.39 569.64,-72 523.46,-45.11 373.2,-29.52 291.95,-22.86"/>
<polygon fill="#ebc72d" stroke="#ebc72d" points="292.16,-19.37 281.91,-22.06 291.6,-26.35 292.16,-19.37"/>
</g>
<!-- blacksmith&#45;&gt;ornithopter -->
<g id="edge12" class="edge">
<title>blacksmith&#45;&gt;ornithopter</title>
<path fill="none" stroke="#ebc72d" stroke-dasharray="1,5" d="M668.68,-180.2C654.64,-162.87 632.53,-131.53 626.64,-99.87"/>
</g>
<!-- blacksmith&#45;&gt;horseman -->
<g id="edge11" class="edge">
<title>blacksmith&#45;&gt;horseman</title>
<path fill="none" stroke="#ebc72d" stroke-dasharray="1,5" d="M712.86,-180.36C728.82,-174.02 748.51,-166.78 766.64,-161.74 850.7,-138.35 875.69,-149.56 959.64,-125.74 967.83,-123.42 976.42,-120.49 984.61,-117.45"/>
<polygon fill="#ebc72d" stroke="#ebc72d" points="985.9,-120.7 993.99,-113.86 983.4,-114.17 985.9,-120.7"/>
</g>
</g>
</svg>
