<?xml version="1.0" encoding="UTF-8" standalone="no"?>
<!DOCTYPE svg PUBLIC "-//W3C//DTD SVG 1.1//EN"
 "http://www.w3.org/Graphics/SVG/1.1/DTD/svg11.dtd">
<!-- Generated by graphviz version 2.50.0 (0)
 -->
<!-- Title: test Pages: 1 -->
<svg width="1690pt" height="777pt"
 viewBox="0.00 0.00 1690.24 777.02" xmlns="http://www.w3.org/2000/svg" xmlns:xlink="http://www.w3.org/1999/xlink">
<g id="graph0" class="graph" transform="scale(1 1) rotate(0) translate(4 773.02)">
<title>test</title>
<polygon fill="#151515" stroke="transparent" points="-4,4 -4,-773.02 1686.24,-773.02 1686.24,4 -4,4"/>
<!-- mage_tower -->
<g id="node1" class="node">
<title>mage_tower</title>
<g id="a_node1"><a xlink:href="magic_mage_tower_full.html" xlink:title="Mage\nTower">
<polygon fill="none" stroke="red" points="305.57,-746.14 252.43,-769.23 199.3,-746.14 199.35,-708.76 305.52,-708.76 305.57,-746.14"/>
<text text-anchor="middle" x="252.43" y="-739.61" font-family="Times,serif" font-size="14.00" fill="#ebc72d">Mage</text>
<text text-anchor="middle" x="252.43" y="-724.61" font-family="Times,serif" font-size="14.00" fill="#ebc72d">Tower</text>
</a>
</g>
</g>
<!-- initiate -->
<g id="node8" class="node">
<title>initiate</title>
<g id="a_node8"><a xlink:href="magic_initiate_full.html" xlink:title="Initiate">
<ellipse fill="none" stroke="magenta" cx="252.43" cy="-648.59" rx="44.39" ry="18"/>
<text text-anchor="middle" x="252.43" y="-644.89" font-family="Times,serif" font-size="14.00" fill="#ebc72d">Initiate</text>
</a>
</g>
</g>
<!-- mage_tower&#45;&gt;initiate -->
<g id="edge30" class="edge">
<title>mage_tower&#45;&gt;initiate</title>
<path fill="none" stroke="#ebc72d" d="M252.43,-698.09C252.43,-690.91 252.43,-683.51 252.43,-676.72"/>
<polygon fill="#ebc72d" stroke="#ebc72d" points="248.93,-698.31 252.43,-708.31 255.93,-698.31 248.93,-698.31"/>
<polygon fill="#ebc72d" stroke="#ebc72d" points="255.93,-676.67 252.43,-666.67 248.93,-676.67 255.93,-676.67"/>
</g>
<!-- wicker_behemoth -->
<g id="node2" class="node">
<title>wicker_behemoth</title>
<g id="a_node2"><a xlink:href="magic_wicker_behemoth_full.html" xlink:title="Wicker\nBehemoth">
<polygon fill="none" stroke="red" points="1179.01,-464.5 1101.43,-487.59 1023.86,-464.5 1023.93,-427.12 1178.94,-427.12 1179.01,-464.5"/>
<text text-anchor="middle" x="1101.43" y="-457.97" font-family="Times,serif" font-size="14.00" fill="#ebc72d">Wicker</text>
<text text-anchor="middle" x="1101.43" y="-442.97" font-family="Times,serif" font-size="14.00" fill="#ebc72d">Behemoth</text>
</a>
</g>
</g>
<!-- behemoth -->
<g id="node13" class="node">
<title>behemoth</title>
<g id="a_node13"><a xlink:href="magic_behemoth_full.html" xlink:title="Behemoth">
<ellipse fill="none" stroke="magenta" cx="1004.43" cy="-230.17" rx="57.69" ry="18"/>
<text text-anchor="middle" x="1004.43" y="-226.47" font-family="Times,serif" font-size="14.00" fill="#ebc72d">Behemoth</text>
</a>
</g>
</g>
<!-- wicker_behemoth&#45;&gt;behemoth -->
<g id="edge44" class="edge">
<title>wicker_behemoth&#45;&gt;behemoth</title>
<path fill="none" stroke="#ebc72d" stroke-dasharray="5,2" d="M1159.52,-426.99C1170.6,-422.81 1182.24,-418.95 1193.43,-416.17 1267.6,-397.73 1484.3,-436.96 1535.43,-380.17 1558.03,-355.06 1557.63,-329.63 1535.43,-304.17 1520.2,-286.7 1206.97,-252.19 1068.87,-237.76"/>
<polygon fill="#ebc72d" stroke="#ebc72d" points="1069.15,-234.27 1058.84,-236.71 1068.43,-241.23 1069.15,-234.27"/>
</g>
<!-- ghost_armor -->
<g id="node3" class="node">
<title>ghost_armor</title>
<g id="a_node3"><a xlink:href="magic_ghost_armor_full.html" xlink:title="Ghost\nArmor">
<ellipse fill="none" stroke="magenta" cx="430.43" cy="-342.17" rx="43.68" ry="26.74"/>
<text text-anchor="middle" x="430.43" y="-345.97" font-family="Times,serif" font-size="14.00" fill="#ebc72d">Ghost</text>
<text text-anchor="middle" x="430.43" y="-330.97" font-family="Times,serif" font-size="14.00" fill="#ebc72d">Armor</text>
</a>
</g>
</g>
<!-- battlemage -->
<g id="node4" class="node">
<title>battlemage</title>
<g id="a_node4"><a xlink:href="magic_battlemage_full.html" xlink:title="Battlemage">
<ellipse fill="none" stroke="magenta" cx="158.43" cy="-561.38" rx="64.19" ry="18"/>
<text text-anchor="middle" x="158.43" y="-557.68" font-family="Times,serif" font-size="14.00" fill="#ebc72d">Battlemage</text>
</a>
</g>
</g>
<!-- archmage -->
<g id="node17" class="node">
<title>archmage</title>
<g id="a_node17"><a xlink:href="magic_archmage_full.html" xlink:title="Archmage">
<ellipse fill="none" stroke="magenta" cx="109.43" cy="-230.17" rx="57.69" ry="18"/>
<text text-anchor="middle" x="109.43" y="-226.47" font-family="Times,serif" font-size="14.00" fill="#ebc72d">Archmage</text>
</a>
</g>
</g>
<!-- battlemage&#45;&gt;archmage -->
<g id="edge5" class="edge">
<title>battlemage&#45;&gt;archmage</title>
<path fill="none" stroke="#ebc72d" stroke-dasharray="5,2" d="M157.08,-543.18C153.66,-501.78 143.77,-393.41 127.43,-304.17 124.61,-288.72 120.46,-271.66 116.86,-257.93"/>
<polygon fill="#ebc72d" stroke="#ebc72d" points="120.21,-256.91 114.24,-248.15 113.45,-258.71 120.21,-256.91"/>
</g>
<!-- evil_dragon -->
<g id="node5" class="node">
<title>evil_dragon</title>
<g id="a_node5"><a xlink:href="magic_evil_dragon_full.html" xlink:title="Evil\nDragon">
<ellipse fill="none" stroke="magenta" cx="139.43" cy="-26.87" rx="48.58" ry="26.74"/>
<text text-anchor="middle" x="139.43" y="-30.67" font-family="Times,serif" font-size="14.00" fill="#ebc72d">Evil</text>
<text text-anchor="middle" x="139.43" y="-15.67" font-family="Times,serif" font-size="14.00" fill="#ebc72d">Dragon</text>
</a>
</g>
</g>
<!-- power_golem -->
<g id="node6" class="node">
<title>power_golem</title>
<g id="a_node6"><a xlink:href="magic_power_golem_full.html" xlink:title="Power\nGolem">
<polygon fill="none" stroke="red" points="939.81,-133.28 885.43,-156.38 831.05,-133.28 831.1,-95.91 939.76,-95.91 939.81,-133.28"/>
<text text-anchor="middle" x="885.43" y="-126.75" font-family="Times,serif" font-size="14.00" fill="#ebc72d">Power</text>
<text text-anchor="middle" x="885.43" y="-111.75" font-family="Times,serif" font-size="14.00" fill="#ebc72d">Golem</text>
</a>
</g>
</g>
<!-- dragon -->
<g id="node7" class="node">
<title>dragon</title>
<g id="a_node7"><a xlink:href="magic_dragon_full.html" xlink:title="Dragon">
<ellipse fill="none" stroke="magenta" cx="256.43" cy="-122.95" rx="44.69" ry="18"/>
<text text-anchor="middle" x="256.43" y="-119.25" font-family="Times,serif" font-size="14.00" fill="#ebc72d">Dragon</text>
</a>
</g>
</g>
<!-- dragon&#45;&gt;evil_dragon -->
<g id="edge6" class="edge">
<title>dragon&#45;&gt;evil_dragon</title>
<path fill="none" stroke="#ebc72d" stroke-dasharray="5,2" d="M237.38,-106.63C220.34,-92.93 194.95,-72.51 174.29,-55.9"/>
<polygon fill="#ebc72d" stroke="#ebc72d" points="176.33,-53.05 166.35,-49.51 171.95,-58.51 176.33,-53.05"/>
</g>
<!-- initiate&#45;&gt;wicker_behemoth -->
<g id="edge22" class="edge">
<title>initiate&#45;&gt;wicker_behemoth</title>
<path fill="none" stroke="#ebc72d" stroke-width="2" d="M1025.43,-560.38C1045.59,-539.1 1064.89,-512.28 1078.99,-491.05"/>
<polygon fill="#ebc72d" stroke="#ebc72d" stroke-width="2" points="1081.96,-492.9 1084.51,-482.62 1076.11,-489.06 1081.96,-492.9"/>
</g>
<!-- initiate&#45;&gt;battlemage -->
<g id="edge15" class="edge">
<title>initiate&#45;&gt;battlemage</title>
<path fill="none" stroke="#ebc72d" stroke-dasharray="5,2" d="M235.19,-631.96C220.89,-619 200.34,-600.37 184.11,-585.65"/>
<polygon fill="#ebc72d" stroke="#ebc72d" points="186.29,-582.9 176.53,-578.78 181.59,-588.09 186.29,-582.9"/>
</g>
<!-- archmage_tower -->
<g id="node10" class="node">
<title>archmage_tower</title>
<g id="a_node10"><a xlink:href="magic_archmage_tower_full.html" xlink:title="Archmage\nTower">
<polygon fill="none" stroke="red" points="330.01,-352.5 252.43,-375.59 174.86,-352.5 174.93,-315.12 329.94,-315.12 330.01,-352.5"/>
<text text-anchor="middle" x="252.43" y="-345.97" font-family="Times,serif" font-size="14.00" fill="#ebc72d">Archmage</text>
<text text-anchor="middle" x="252.43" y="-330.97" font-family="Times,serif" font-size="14.00" fill="#ebc72d">Tower</text>
</a>
</g>
</g>
<!-- initiate&#45;&gt;archmage_tower -->
<g id="edge14" class="edge">
<title>initiate&#45;&gt;archmage_tower</title>
<path fill="none" stroke="#ebc72d" stroke-width="2" d="M252.43,-630.35C252.43,-583.67 252.43,-453.76 252.43,-385.81"/>
<polygon fill="#ebc72d" stroke="#ebc72d" stroke-width="2" points="255.93,-385.46 252.43,-375.46 248.93,-385.46 255.93,-385.46"/>
</g>
<!-- summoner_guild -->
<g id="node11" class="node">
<title>summoner_guild</title>
<g id="a_node11"><a xlink:href="magic_summoner_guild_full.html" xlink:title="Summoner\nGuild">
<polygon fill="none" stroke="red" points="668.5,-571.71 585.43,-594.81 502.37,-571.71 502.45,-534.34 668.42,-534.34 668.5,-571.71"/>
<text text-anchor="middle" x="585.43" y="-565.18" font-family="Times,serif" font-size="14.00" fill="#ebc72d">Summoner</text>
<text text-anchor="middle" x="585.43" y="-550.18" font-family="Times,serif" font-size="14.00" fill="#ebc72d">Guild</text>
</a>
</g>
</g>
<!-- initiate&#45;&gt;summoner_guild -->
<g id="edge20" class="edge">
<title>initiate&#45;&gt;summoner_guild</title>
<path fill="none" stroke="#ebc72d" stroke-width="2" d="M289.02,-638.23C343.13,-624.38 445.52,-598.18 514.62,-580.5"/>
<polygon fill="#ebc72d" stroke="#ebc72d" stroke-width="2" points="515.74,-583.83 524.56,-577.96 514.01,-577.04 515.74,-583.83"/>
</g>
<!-- golem -->
<g id="node12" class="node">
<title>golem</title>
<g id="a_node12"><a xlink:href="magic_golem_full.html" xlink:title="Golem">
<polygon fill="none" stroke="red" points="1682.05,-347.73 1632.43,-360.17 1582.82,-347.73 1582.86,-327.6 1682.01,-327.6 1682.05,-347.73"/>
<text text-anchor="middle" x="1632.43" y="-338.47" font-family="Times,serif" font-size="14.00" fill="#ebc72d">Golem</text>
</a>
</g>
</g>
<!-- initiate&#45;&gt;golem -->
<g id="edge17" class="edge">
<title>initiate&#45;&gt;golem</title>
<path fill="none" stroke="#ebc72d" stroke-width="2" d="M1025.43,-560.38C1068.72,-515.42 1499.77,-404.04 1557.43,-380.17 1572.22,-374.04 1588.18,-366.33 1601.56,-359.54"/>
<polygon fill="#ebc72d" stroke="#ebc72d" stroke-width="2" points="1603.51,-362.47 1610.8,-354.79 1600.3,-356.25 1603.51,-362.47"/>
</g>
<!-- library -->
<g id="node14" class="node">
<title>library</title>
<g id="a_node14"><a xlink:href="magic_library_full.html" xlink:title="Library">
<polygon fill="none" stroke="red" points="1005.8,-459.73 950.43,-472.17 895.07,-459.73 895.12,-439.6 1005.75,-439.6 1005.8,-459.73"/>
<text text-anchor="middle" x="950.43" y="-450.47" font-family="Times,serif" font-size="14.00" fill="#ebc72d">Library</text>
</a>
</g>
</g>
<!-- initiate&#45;&gt;library -->
<g id="edge18" class="edge">
<title>initiate&#45;&gt;library</title>
<path fill="none" stroke="#ebc72d" stroke-width="2" d="M1025.43,-560.38C1051.66,-532.69 1009.97,-495.38 979.01,-473.43"/>
<polygon fill="#ebc72d" stroke="#ebc72d" stroke-width="2" points="980.85,-470.45 970.63,-467.67 976.89,-476.22 980.85,-470.45"/>
</g>
<!-- tower_of_souls -->
<g id="node16" class="node">
<title>tower_of_souls</title>
<g id="a_node16"><a xlink:href="magic_tower_of_souls_full.html" xlink:title="Tower\nOf Souls">
<polygon fill="none" stroke="red" points="934.54,-352.5 867.43,-375.59 800.33,-352.5 800.4,-315.12 934.47,-315.12 934.54,-352.5"/>
<text text-anchor="middle" x="867.43" y="-345.97" font-family="Times,serif" font-size="14.00" fill="#ebc72d">Tower</text>
<text text-anchor="middle" x="867.43" y="-330.97" font-family="Times,serif" font-size="14.00" fill="#ebc72d">Of Souls</text>
</a>
</g>
</g>
<!-- initiate&#45;&gt;tower_of_souls -->
<g id="edge21" class="edge">
<title>initiate&#45;&gt;tower_of_souls</title>
<path fill="none" stroke="#ebc72d" stroke-width="2" d="M296.2,-646.01C452.27,-639.92 974.95,-615.68 1025.43,-562.38"/>
<path fill="none" stroke="#ebc72d" stroke-width="2" d="M1025.43,-560.38C1072.76,-510.42 926.46,-548.15 886.43,-492.17 864.19,-461.06 861.2,-416.71 862.7,-384.48"/>
<polygon fill="#ebc72d" stroke="#ebc72d" stroke-width="2" points="866.19,-384.68 863.32,-374.48 859.21,-384.24 866.19,-384.68"/>
</g>
<!-- energy_source -->
<g id="node18" class="node">
<title>energy_source</title>
<g id="a_node18"><a xlink:href="magic_energy_source_full.html" xlink:title="Energy\nSource">
<polygon fill="none" stroke="red" points="118.8,-352.5 59.43,-375.59 0.07,-352.5 0.12,-315.12 118.75,-315.12 118.8,-352.5"/>
<text text-anchor="middle" x="59.43" y="-345.97" font-family="Times,serif" font-size="14.00" fill="#ebc72d">Energy</text>
<text text-anchor="middle" x="59.43" y="-330.97" font-family="Times,serif" font-size="14.00" fill="#ebc72d">Source</text>
</a>
</g>
</g>
<!-- initiate&#45;&gt;energy_source -->
<g id="edge16" class="edge">
<title>initiate&#45;&gt;energy_source</title>
<path fill="none" stroke="#ebc72d" stroke-width="2" d="M208.49,-646.39C169.79,-642.8 115.1,-631.04 85.43,-594.59 36.5,-534.49 42.71,-437.64 51.27,-383.36"/>
<polygon fill="#ebc72d" stroke="#ebc72d" stroke-width="2" points="54.73,-383.86 52.94,-373.42 47.83,-382.7 54.73,-383.86"/>
</g>
<!-- daemon -->
<g id="node9" class="node">
<title>daemon</title>
<g id="a_node9"><a xlink:href="magic_daemon_full.html" xlink:title="Daemon">
<ellipse fill="none" stroke="magenta" cx="579.43" cy="-342.17" rx="48.99" ry="18"/>
<text text-anchor="middle" x="579.43" y="-338.47" font-family="Times,serif" font-size="14.00" fill="#ebc72d">Daemon</text>
</a>
</g>
</g>
<!-- archmage_tower&#45;&gt;archmage -->
<g id="edge2" class="edge">
<title>archmage_tower&#45;&gt;archmage</title>
<path fill="none" stroke="#ebc72d" stroke-dasharray="1,5" d="M218.55,-315.1C194.12,-296.31 161.52,-271.23 138.33,-253.39"/>
<polygon fill="#ebc72d" stroke="#ebc72d" points="140.3,-250.5 130.24,-247.17 136.03,-256.04 140.3,-250.5"/>
</g>
<!-- golem_power -->
<g id="node21" class="node">
<title>golem_power</title>
<g id="a_node21"><a xlink:href="magic_golem_power_full.html" xlink:title="Golem\nPower">
<polygon fill="none" stroke="green" points="474.49,-268.17 372.59,-268.17 346.38,-192.17 448.28,-192.17 474.49,-268.17"/>
<text text-anchor="middle" x="410.43" y="-233.97" font-family="Times,serif" font-size="14.00" fill="#ebc72d">Golem</text>
<text text-anchor="middle" x="410.43" y="-218.97" font-family="Times,serif" font-size="14.00" fill="#ebc72d">Power</text>
</a>
</g>
</g>
<!-- archmage_tower&#45;&gt;golem_power -->
<g id="edge4" class="edge">
<title>archmage_tower&#45;&gt;golem_power</title>
<path fill="none" stroke="#ebc72d" d="M289.88,-315.1C311.17,-300.27 338.1,-281.53 361.1,-265.52"/>
<polygon fill="#ebc72d" stroke="#ebc72d" points="363.17,-268.34 369.38,-259.75 359.17,-262.59 363.17,-268.34"/>
</g>
<!-- dragon_call -->
<g id="node26" class="node">
<title>dragon_call</title>
<g id="a_node26"><a xlink:href="magic_dragon_call_full.html" xlink:title="Dragon\nCall">
<polygon fill="none" stroke="green" points="328.01,-268.17 214.15,-268.17 184.86,-192.17 298.72,-192.17 328.01,-268.17"/>
<text text-anchor="middle" x="256.43" y="-233.97" font-family="Times,serif" font-size="14.00" fill="#ebc72d">Dragon</text>
<text text-anchor="middle" x="256.43" y="-218.97" font-family="Times,serif" font-size="14.00" fill="#ebc72d">Call</text>
</a>
</g>
</g>
<!-- archmage_tower&#45;&gt;dragon_call -->
<g id="edge3" class="edge">
<title>archmage_tower&#45;&gt;dragon_call</title>
<path fill="none" stroke="#ebc72d" d="M253.38,-315.1C253.78,-304.18 254.25,-291.13 254.71,-278.62"/>
<polygon fill="#ebc72d" stroke="#ebc72d" points="258.22,-278.41 255.08,-268.29 251.22,-278.15 258.22,-278.41"/>
</g>
<!-- summoner_guild&#45;&gt;wicker_behemoth -->
<g id="edge43" class="edge">
<title>summoner_guild&#45;&gt;wicker_behemoth</title>
<path fill="none" stroke="#ebc72d" stroke-dasharray="1,5" d="M668.58,-553.24C755.98,-544.33 896.84,-525.97 1014.43,-492.17 1026.27,-488.77 1038.63,-484.18 1050.2,-479.4"/>
<polygon fill="#ebc72d" stroke="#ebc72d" points="1051.88,-482.49 1059.71,-475.36 1049.14,-476.05 1051.88,-482.49"/>
</g>
<!-- summoner_guild&#45;&gt;library -->
<g id="edge41" class="edge">
<title>summoner_guild&#45;&gt;library</title>
<path fill="none" stroke="#ebc72d" stroke-dasharray="1,5" d="M668.72,-536.37C743.1,-514.93 849.09,-484.38 907.56,-467.52"/>
<polygon fill="#ebc72d" stroke="#ebc72d" points="908.58,-470.87 917.22,-464.74 906.64,-464.15 908.58,-470.87"/>
</g>
<!-- summoner -->
<g id="node19" class="node">
<title>summoner</title>
<g id="a_node19"><a xlink:href="magic_summoner_full.html" xlink:title="Summoner">
<ellipse fill="none" stroke="magenta" cx="677.43" cy="-454.17" rx="61.99" ry="18"/>
<text text-anchor="middle" x="677.43" y="-450.47" font-family="Times,serif" font-size="14.00" fill="#ebc72d">Summoner</text>
</a>
</g>
</g>
<!-- summoner_guild&#45;&gt;summoner -->
<g id="edge42" class="edge">
<title>summoner_guild&#45;&gt;summoner</title>
<path fill="none" stroke="#ebc72d" d="M608.41,-534.1C623.05,-517.36 641.87,-495.83 656.17,-479.49"/>
<polygon fill="#ebc72d" stroke="#ebc72d" points="658.83,-481.76 662.78,-471.93 653.56,-477.15 658.83,-481.76"/>
</g>
<!-- faster_movement -->
<g id="node20" class="node">
<title>faster_movement</title>
<g id="a_node20"><a xlink:href="magic_faster_movement_full.html" xlink:title="Faster\nMovement">
<polygon fill="none" stroke="green" points="720.7,-268.17 569.16,-268.17 530.17,-192.17 681.71,-192.17 720.7,-268.17"/>
<text text-anchor="middle" x="625.43" y="-233.97" font-family="Times,serif" font-size="14.00" fill="#ebc72d">Faster</text>
<text text-anchor="middle" x="625.43" y="-218.97" font-family="Times,serif" font-size="14.00" fill="#ebc72d">Movement</text>
</a>
</g>
</g>
<!-- summoner_guild&#45;&gt;faster_movement -->
<g id="edge40" class="edge">
<title>summoner_guild&#45;&gt;faster_movement</title>
<path fill="none" stroke="#ebc72d" d="M502.31,-555.73C457.57,-548.48 405.86,-531.41 377.43,-492.17 328.41,-424.5 327.38,-371.07 377.43,-304.17 382.81,-296.98 478.31,-270.27 549.2,-251.24"/>
<polygon fill="#ebc72d" stroke="#ebc72d" points="550.27,-254.58 559.03,-248.61 548.46,-247.81 550.27,-254.58"/>
</g>
<!-- ancient_summoning -->
<g id="node25" class="node">
<title>ancient_summoning</title>
<g id="a_node25"><a xlink:href="magic_ancient_summoning_full.html" xlink:title="Ancient\nSummoning">
<polygon fill="none" stroke="green" points="598.43,-492.17 429.81,-492.17 386.44,-416.17 555.06,-416.17 598.43,-492.17"/>
<text text-anchor="middle" x="492.43" y="-457.97" font-family="Times,serif" font-size="14.00" fill="#ebc72d">Ancient</text>
<text text-anchor="middle" x="492.43" y="-442.97" font-family="Times,serif" font-size="14.00" fill="#ebc72d">Summoning</text>
</a>
</g>
</g>
<!-- summoner_guild&#45;&gt;ancient_summoning -->
<g id="edge39" class="edge">
<title>summoner_guild&#45;&gt;ancient_summoning</title>
<path fill="none" stroke="#ebc72d" d="M562.21,-534.1C553.03,-523.72 542.22,-511.49 531.88,-499.79"/>
<polygon fill="#ebc72d" stroke="#ebc72d" points="534.43,-497.39 525.18,-492.21 529.18,-502.03 534.43,-497.39"/>
</g>
<!-- golem&#45;&gt;power_golem -->
<g id="edge10" class="edge">
<title>golem&#45;&gt;power_golem</title>
<path fill="none" stroke="#ebc72d" stroke-dasharray="5,2" d="M1607.98,-327.58C1593.58,-319.97 1574.83,-310.72 1557.43,-304.17 1339.13,-221.96 1067.77,-161.22 947.63,-136.35"/>
<polygon fill="#ebc72d" stroke="#ebc72d" points="948.02,-132.86 937.52,-134.27 946.61,-139.71 948.02,-132.86"/>
</g>
<!-- library&#45;&gt;archmage_tower -->
<g id="edge23" class="edge">
<title>library&#45;&gt;archmage_tower</title>
<path fill="none" stroke="#ebc72d" stroke-dasharray="1,5" d="M894.91,-441.69C854.44,-433.65 798.22,-423.13 748.43,-416.17 584.37,-393.22 540.05,-411.82 377.43,-380.17 356.15,-376.02 333.28,-369.8 313.01,-363.63"/>
<polygon fill="#ebc72d" stroke="#ebc72d" points="313.86,-360.23 303.28,-360.62 311.79,-366.92 313.86,-360.23"/>
</g>
<!-- library&#45;&gt;golem -->
<g id="edge27" class="edge">
<title>library&#45;&gt;golem</title>
<path fill="none" stroke="#ebc72d" stroke-dasharray="1,5" d="M968.71,-439.58C980.97,-431.24 997.86,-421.23 1014.43,-416.17 1236.41,-348.33 1308.75,-430.07 1535.43,-380.17 1557.37,-375.34 1580.93,-366.44 1599.34,-358.59"/>
<polygon fill="#ebc72d" stroke="#ebc72d" points="1600.97,-361.69 1608.73,-354.48 1598.16,-355.28 1600.97,-361.69"/>
</g>
<!-- dragon_rider -->
<g id="node15" class="node">
<title>dragon_rider</title>
<g id="a_node15"><a xlink:href="magic_dragon_rider_full.html" xlink:title="Dragon\nRider">
<ellipse fill="none" stroke="magenta" cx="733.43" cy="-342.17" rx="48.58" ry="26.74"/>
<text text-anchor="middle" x="733.43" y="-345.97" font-family="Times,serif" font-size="14.00" fill="#ebc72d">Dragon</text>
<text text-anchor="middle" x="733.43" y="-330.97" font-family="Times,serif" font-size="14.00" fill="#ebc72d">Rider</text>
</a>
</g>
</g>
<!-- library&#45;&gt;dragon_rider -->
<g id="edge24" class="edge">
<title>library&#45;&gt;dragon_rider</title>
<path fill="none" stroke="#ebc72d" stroke-dasharray="1,5" d="M917.21,-439.49C884.58,-425.7 833.7,-403.21 791.43,-380.17 785.09,-376.71 778.5,-372.82 772.15,-368.89"/>
<polygon fill="#ebc72d" stroke="#ebc72d" points="773.99,-365.92 763.66,-363.56 770.26,-371.84 773.99,-365.92"/>
</g>
<!-- library&#45;&gt;tower_of_souls -->
<g id="edge29" class="edge">
<title>library&#45;&gt;tower_of_souls</title>
<path fill="none" stroke="#ebc72d" stroke-dasharray="1,5" d="M939.92,-439.23C928.22,-423.72 908.86,-398.07 893.1,-377.18"/>
<polygon fill="#ebc72d" stroke="#ebc72d" points="895.86,-375.02 887.04,-369.15 890.27,-379.24 895.86,-375.02"/>
</g>
<!-- hell_gate -->
<g id="node22" class="node">
<title>hell_gate</title>
<g id="a_node22"><a xlink:href="magic_hell_gate_full.html" xlink:title="Hell\nGate">
<polygon fill="none" stroke="green" points="1056.11,-380.17 973.91,-380.17 952.76,-304.17 1034.96,-304.17 1056.11,-380.17"/>
<text text-anchor="middle" x="1004.43" y="-345.97" font-family="Times,serif" font-size="14.00" fill="#ebc72d">Hell</text>
<text text-anchor="middle" x="1004.43" y="-330.97" font-family="Times,serif" font-size="14.00" fill="#ebc72d">Gate</text>
</a>
</g>
</g>
<!-- library&#45;&gt;hell_gate -->
<g id="edge28" class="edge">
<title>library&#45;&gt;hell_gate</title>
<path fill="none" stroke="#ebc72d" d="M957.27,-439.23C963.41,-426.73 972.78,-407.65 981.55,-389.77"/>
<polygon fill="#ebc72d" stroke="#ebc72d" points="984.8,-391.1 986.07,-380.58 978.52,-388.01 984.8,-391.1"/>
</g>
<!-- energy_compression -->
<g id="node23" class="node">
<title>energy_compression</title>
<g id="a_node23"><a xlink:href="magic_energy_compression_full.html" xlink:title="Energy\nCompression">
<polygon fill="none" stroke="green" points="1302.52,-380.17 1121.04,-380.17 1074.35,-304.17 1255.83,-304.17 1302.52,-380.17"/>
<text text-anchor="middle" x="1188.43" y="-345.97" font-family="Times,serif" font-size="14.00" fill="#ebc72d">Energy</text>
<text text-anchor="middle" x="1188.43" y="-330.97" font-family="Times,serif" font-size="14.00" fill="#ebc72d">Compression</text>
</a>
</g>
</g>
<!-- library&#45;&gt;energy_compression -->
<g id="edge25" class="edge">
<title>library&#45;&gt;energy_compression</title>
<path fill="none" stroke="#ebc72d" d="M972.56,-439.44C984.72,-432.14 1000.18,-423.24 1014.43,-416.17 1043.82,-401.58 1076.85,-387.23 1106.17,-375.17"/>
<polygon fill="#ebc72d" stroke="#ebc72d" points="1107.62,-378.36 1115.55,-371.34 1104.97,-371.88 1107.62,-378.36"/>
</g>
<!-- energy_sharpening -->
<g id="node24" class="node">
<title>energy_sharpening</title>
<g id="a_node24"><a xlink:href="magic_energy_sharpening_full.html" xlink:title="Energy\nSharpening">
<polygon fill="none" stroke="green" points="1526.21,-380.17 1362.72,-380.17 1320.66,-304.17 1484.15,-304.17 1526.21,-380.17"/>
<text text-anchor="middle" x="1423.43" y="-345.97" font-family="Times,serif" font-size="14.00" fill="#ebc72d">Energy</text>
<text text-anchor="middle" x="1423.43" y="-330.97" font-family="Times,serif" font-size="14.00" fill="#ebc72d">Sharpening</text>
</a>
</g>
</g>
<!-- library&#45;&gt;energy_sharpening -->
<g id="edge26" class="edge">
<title>library&#45;&gt;energy_sharpening</title>
<path fill="none" stroke="#ebc72d" d="M969.35,-439.5C981.6,-431.35 998.24,-421.57 1014.43,-416.17 1140.55,-374.04 1181.67,-409.16 1311.43,-380.17 1322.75,-377.64 1334.55,-374.42 1346.05,-370.93"/>
<polygon fill="#ebc72d" stroke="#ebc72d" points="1347.12,-374.27 1355.63,-367.95 1345.04,-367.58 1347.12,-374.27"/>
</g>
<!-- energy_source&#45;&gt;evil_dragon -->
<g id="edge9" class="edge">
<title>energy_source&#45;&gt;evil_dragon</title>
<path fill="none" stroke="#ebc72d" stroke-dasharray="1,5" d="M50.54,-314.87C41.7,-284.74 30.98,-234.11 42.43,-192.17 56.22,-141.72 89.9,-91 113.69,-59.54"/>
<polygon fill="#ebc72d" stroke="#ebc72d" points="116.49,-61.64 119.81,-51.58 110.94,-57.37 116.49,-61.64"/>
</g>
<!-- energy_source&#45;&gt;archmage -->
<g id="edge8" class="edge">
<title>energy_source&#45;&gt;archmage</title>
<path fill="none" stroke="#ebc72d" stroke-dasharray="1,5" d="M71.28,-315.1C79.15,-297.78 89.45,-275.12 97.37,-257.71"/>
<polygon fill="#ebc72d" stroke="#ebc72d" points="100.76,-258.7 101.72,-248.15 94.39,-255.8 100.76,-258.7"/>
</g>
<!-- summoner&#45;&gt;ghost_armor -->
<g id="edge36" class="edge">
<title>summoner&#45;&gt;ghost_armor</title>
<path fill="none" stroke="#ebc72d" d="M651.09,-437.7C638.21,-430.54 622.31,-422.28 607.43,-416.17 556.33,-395.16 538.64,-403.24 488.43,-380.17 481.19,-376.83 473.77,-372.72 466.77,-368.46"/>
<polygon fill="#ebc72d" stroke="#ebc72d" points="468.49,-365.41 458.17,-363.04 464.76,-371.33 468.49,-365.41"/>
</g>
<!-- summoner&#45;&gt;dragon -->
<g id="edge33" class="edge">
<title>summoner&#45;&gt;dragon</title>
<path fill="none" stroke="#ebc72d" d="M650.13,-438C637.3,-431.07 621.73,-422.92 607.43,-416.17 569.97,-398.47 551.85,-408.3 521.43,-380.17 507.86,-367.61 507,-361.08 502.43,-343.17"/>
<path fill="none" stroke="#ebc72d" d="M502.43,-341.17C485.94,-276.48 526.59,-243.1 483.43,-192.17 441.29,-142.42 364.36,-128.12 311.85,-124.45"/>
<polygon fill="#ebc72d" stroke="#ebc72d" points="311.88,-120.94 301.69,-123.85 311.47,-127.93 311.88,-120.94"/>
</g>
<!-- summoner&#45;&gt;daemon -->
<g id="edge32" class="edge">
<title>summoner&#45;&gt;daemon</title>
<path fill="none" stroke="#ebc72d" d="M662.55,-436.46C646.12,-418.02 619.54,-388.18 600.87,-367.22"/>
<polygon fill="#ebc72d" stroke="#ebc72d" points="603.4,-364.81 594.14,-359.67 598.18,-369.46 603.4,-364.81"/>
</g>
<!-- summoner&#45;&gt;golem -->
<g id="edge37" class="edge">
<title>summoner&#45;&gt;golem</title>
<path fill="none" stroke="#ebc72d" stroke-dasharray="1,5" d="M725.76,-442.92C767.96,-434.37 830.98,-422.59 886.43,-416.17 1173.4,-382.93 1252.89,-440.36 1535.43,-380.17 1557.55,-375.45 1581.28,-366.48 1599.74,-358.54"/>
<polygon fill="#ebc72d" stroke="#ebc72d" points="1601.4,-361.64 1609.14,-354.4 1598.58,-355.23 1601.4,-361.64"/>
</g>
<!-- summoner&#45;&gt;behemoth -->
<g id="edge31" class="edge">
<title>summoner&#45;&gt;behemoth</title>
<path fill="none" stroke="#ebc72d" stroke-dasharray="1,5" d="M670.97,-436.21C660.67,-406.01 644.67,-342.5 675.43,-304.17 707.79,-263.84 852.3,-244.4 938.67,-236.23"/>
<polygon fill="#ebc72d" stroke="#ebc72d" points="939.01,-239.71 948.65,-235.31 938.37,-232.74 939.01,-239.71"/>
</g>
<!-- summoner&#45;&gt;dragon_rider -->
<g id="edge34" class="edge">
<title>summoner&#45;&gt;dragon_rider</title>
<path fill="none" stroke="#ebc72d" stroke-dasharray="5,2" d="M686.18,-435.98C694.11,-420.4 706.04,-396.98 715.92,-377.56"/>
<polygon fill="#ebc72d" stroke="#ebc72d" points="719.17,-378.9 720.59,-368.4 712.93,-375.73 719.17,-378.9"/>
</g>
<!-- summoner&#45;&gt;tower_of_souls -->
<g id="edge38" class="edge">
<title>summoner&#45;&gt;tower_of_souls</title>
<path fill="none" stroke="#ebc72d" stroke-dasharray="1,5" d="M703.85,-437.87C734.68,-420.02 786.15,-390.22 823.13,-368.82"/>
<polygon fill="#ebc72d" stroke="#ebc72d" points="825.3,-371.61 832.2,-363.57 821.79,-365.55 825.3,-371.61"/>
</g>
<!-- summoner&#45;&gt;faster_movement -->
<g id="edge35" class="edge">
<title>summoner&#45;&gt;faster_movement</title>
<path fill="none" stroke="#ebc72d" stroke-dasharray="1,5" d="M502.43,-341.17C493.67,-306.78 522.17,-279.92 553.94,-261.35"/>
<polygon fill="#ebc72d" stroke="#ebc72d" points="555.92,-264.26 562.96,-256.34 552.52,-258.14 555.92,-264.26"/>
</g>
<!-- golem_power&#45;&gt;power_golem -->
<g id="edge11" class="edge">
<title>golem_power&#45;&gt;power_golem</title>
<path fill="none" stroke="#ebc72d" stroke-dasharray="1,5" d="M455.38,-212.63C475.41,-205.67 499.41,-197.87 521.43,-192.17 625.01,-165.33 747.75,-144.56 820.97,-133.31"/>
<polygon fill="#ebc72d" stroke="#ebc72d" points="821.6,-136.75 830.96,-131.78 820.55,-129.83 821.6,-136.75"/>
</g>
<!-- hell_gate&#45;&gt;behemoth -->
<g id="edge12" class="edge">
<title>hell_gate&#45;&gt;behemoth</title>
<path fill="none" stroke="#ebc72d" stroke-dasharray="1,5" d="M1004.43,-303.93C1004.43,-289.07 1004.43,-272.28 1004.43,-258.58"/>
<polygon fill="#ebc72d" stroke="#ebc72d" points="1007.93,-258.35 1004.43,-248.35 1000.93,-258.35 1007.93,-258.35"/>
</g>
<!-- hell_gate&#45;&gt;faster_movement -->
<g id="edge13" class="edge">
<title>hell_gate&#45;&gt;faster_movement</title>
<path fill="none" stroke="#ebc72d" stroke-dasharray="1,5" d="M953.8,-308.84C950.35,-307.14 946.88,-305.56 943.43,-304.17 870.32,-274.5 782.62,-255.51 717.85,-244.35"/>
<polygon fill="#ebc72d" stroke="#ebc72d" points="718.11,-240.84 707.66,-242.63 716.94,-247.75 718.11,-240.84"/>
</g>
<!-- ancient_summoning&#45;&gt;ghost_armor -->
<g id="edge1" class="edge">
<title>ancient_summoning&#45;&gt;ghost_armor</title>
<path fill="none" stroke="#ebc72d" stroke-dasharray="1,5" d="M471.44,-415.93C464.33,-403.31 456.44,-389.3 449.48,-376.97"/>
<polygon fill="#ebc72d" stroke="#ebc72d" points="452.34,-374.91 444.38,-367.91 446.24,-378.34 452.34,-374.91"/>
</g>
<!-- dragon_call&#45;&gt;dragon -->
<g id="edge7" class="edge">
<title>dragon_call&#45;&gt;dragon</title>
<path fill="none" stroke="#ebc72d" stroke-dasharray="1,5" d="M256.43,-192.07C256.43,-178.62 256.43,-163.68 256.43,-151.23"/>
<polygon fill="#ebc72d" stroke="#ebc72d" points="259.93,-151.02 256.43,-141.02 252.93,-151.02 259.93,-151.02"/>
</g>
</g>
</svg>
