<?xml version="1.0" encoding="UTF-8" standalone="no"?>
<!DOCTYPE svg PUBLIC "-//W3C//DTD SVG 1.1//EN"
 "http://www.w3.org/Graphics/SVG/1.1/DTD/svg11.dtd">
<!-- Generated by graphviz version 2.50.0 (0)
 -->
<!-- Title: test Pages: 1 -->
<svg width="287pt" height="526pt"
 viewBox="0.00 0.00 287.31 525.71" xmlns="http://www.w3.org/2000/svg" xmlns:xlink="http://www.w3.org/1999/xlink">
<g id="graph0" class="graph" transform="scale(1 1) rotate(0) translate(4 521.71)">
<title>test</title>
<polygon fill="#151515" stroke="transparent" points="-4,4 -4,-521.71 283.31,-521.71 283.31,4 -4,4"/>
<!-- castle -->
<g id="node1" class="node">
<title>castle</title>
<g id="a_node1"><a xlink:href="norsemen_castle_full.html" xlink:title="Castle">
<polygon fill="none" stroke="red" points="152.74,-490.05 103.12,-502.49 53.5,-490.05 53.55,-469.93 152.7,-469.93 152.74,-490.05"/>
<text text-anchor="middle" x="103.12" y="-480.79" font-family="Times,serif" font-size="14.00" fill="#ebc72d">Castle</text>
</a>
</g>
</g>
<!-- farm -->
<g id="node6" class="node">
<title>farm</title>
<g id="a_node6"><a xlink:href="norsemen_farm_full.html" xlink:title="Farm">
<polygon fill="none" stroke="red" points="90.78,-402.84 48.12,-415.28 5.47,-402.84 5.51,-382.72 90.74,-382.72 90.78,-402.84"/>
<text text-anchor="middle" x="48.12" y="-393.58" font-family="Times,serif" font-size="14.00" fill="#ebc72d">Farm</text>
</a>
</g>
</g>
<!-- castle&#45;&gt;farm -->
<g id="edge4" class="edge">
<title>castle&#45;&gt;farm</title>
<path fill="none" stroke="#ebc72d" stroke-dasharray="1,5" d="M94.29,-469.8C85.86,-456.74 73,-436.83 63,-421.32"/>
<polygon fill="#ebc72d" stroke="#ebc72d" points="65.85,-419.3 57.49,-412.79 59.97,-423.09 65.85,-419.3"/>
</g>
<!-- house -->
<g id="node7" class="node">
<title>house</title>
<g id="a_node7"><a xlink:href="norsemen_house_full.html" xlink:title="House">
<polygon fill="none" stroke="red" points="207.74,-402.84 158.12,-415.28 108.5,-402.84 108.55,-382.72 207.7,-382.72 207.74,-402.84"/>
<text text-anchor="middle" x="158.12" y="-393.58" font-family="Times,serif" font-size="14.00" fill="#ebc72d">House</text>
</a>
</g>
</g>
<!-- castle&#45;&gt;house -->
<g id="edge5" class="edge">
<title>castle&#45;&gt;house</title>
<path fill="none" stroke="#ebc72d" stroke-dasharray="1,5" d="M111.96,-469.8C120.34,-456.82 133.09,-437.07 143.07,-421.61"/>
<polygon fill="#ebc72d" stroke="#ebc72d" points="146.09,-423.38 148.57,-413.08 140.21,-419.59 146.09,-423.38"/>
</g>
<!-- bone_tent -->
<g id="node2" class="node">
<title>bone_tent</title>
<g id="a_node2"><a xlink:href="norsemen_bone_tent_full.html" xlink:title="Bone\nTent">
<polygon fill="none" stroke="red" points="158.27,-320.4 112.12,-343.49 65.98,-320.4 66.02,-283.02 158.23,-283.02 158.27,-320.4"/>
<text text-anchor="middle" x="112.12" y="-313.87" font-family="Times,serif" font-size="14.00" fill="#ebc72d">Bone</text>
<text text-anchor="middle" x="112.12" y="-298.87" font-family="Times,serif" font-size="14.00" fill="#ebc72d">Tent</text>
</a>
</g>
</g>
<!-- blacksmith -->
<g id="node8" class="node">
<title>blacksmith</title>
<g id="a_node8"><a xlink:href="norsemen_blacksmith_full.html" xlink:title="Blacksmith">
<polygon fill="none" stroke="red" points="154.37,-213.2 77.12,-225.64 -0.12,-213.2 -0.05,-193.08 154.3,-193.08 154.37,-213.2"/>
<text text-anchor="middle" x="77.12" y="-203.94" font-family="Times,serif" font-size="14.00" fill="#ebc72d">Blacksmith</text>
</a>
</g>
</g>
<!-- bone_tent&#45;&gt;blacksmith -->
<g id="edge3" class="edge">
<title>bone_tent&#45;&gt;blacksmith</title>
<path fill="none" stroke="#ebc72d" stroke-dasharray="1,5" d="M103.02,-282.94C97.82,-268.02 91.32,-249.38 86.14,-234.5"/>
<polygon fill="#ebc72d" stroke="#ebc72d" points="89.39,-233.19 82.79,-224.9 82.78,-235.49 89.39,-233.19"/>
</g>
<!-- thor_totem -->
<g id="node3" class="node">
<title>thor_totem</title>
<g id="a_node3"><a xlink:href="norsemen_thor_totem_full.html" xlink:title="Thor\nTotem">
<polygon fill="none" stroke="red" points="279.5,-494.82 225.12,-517.92 170.74,-494.82 170.79,-457.45 279.45,-457.45 279.5,-494.82"/>
<text text-anchor="middle" x="225.12" y="-488.29" font-family="Times,serif" font-size="14.00" fill="#ebc72d">Thor</text>
<text text-anchor="middle" x="225.12" y="-473.29" font-family="Times,serif" font-size="14.00" fill="#ebc72d">Totem</text>
</a>
</g>
</g>
<!-- mead_bar -->
<g id="node4" class="node">
<title>mead_bar</title>
<g id="a_node4"><a xlink:href="norsemen_mead_bar_full.html" xlink:title="Mead\nBar">
<polygon fill="none" stroke="red" points="270.02,-217.97 221.12,-241.07 172.23,-217.97 172.28,-180.6 269.97,-180.6 270.02,-217.97"/>
<text text-anchor="middle" x="221.12" y="-211.44" font-family="Times,serif" font-size="14.00" fill="#ebc72d">Mead</text>
<text text-anchor="middle" x="221.12" y="-196.44" font-family="Times,serif" font-size="14.00" fill="#ebc72d">Bar</text>
</a>
</g>
</g>
<!-- valhalla -->
<g id="node5" class="node">
<title>valhalla</title>
<g id="a_node5"><a xlink:href="norsemen_valhalla_full.html" xlink:title="Valhalla">
<polygon fill="none" stroke="red" points="207.92,-23.56 149.12,-36 90.33,-23.56 90.39,-3.44 207.86,-3.44 207.92,-23.56"/>
<text text-anchor="middle" x="149.12" y="-14.3" font-family="Times,serif" font-size="14.00" fill="#ebc72d">Valhalla</text>
</a>
</g>
</g>
<!-- mead_bar&#45;&gt;valhalla -->
<g id="edge10" class="edge">
<title>mead_bar&#45;&gt;valhalla</title>
<path fill="none" stroke="#ebc72d" stroke-dasharray="1,5" d="M231.03,-180.57C240.12,-152.08 249.61,-105.97 231.12,-72 221.98,-55.2 204.96,-42.91 188.79,-34.42"/>
<polygon fill="#ebc72d" stroke="#ebc72d" points="189.95,-31.1 179.43,-29.86 186.88,-37.39 189.95,-31.1"/>
</g>
<!-- mistletoe_tree -->
<g id="node9" class="node">
<title>mistletoe_tree</title>
<g id="a_node9"><a xlink:href="norsemen_mistletoe_tree_full.html" xlink:title="Mistletoe\nTree">
<polygon fill="none" stroke="red" points="222.46,-115.54 149.12,-138.64 75.79,-115.54 75.85,-78.17 222.39,-78.17 222.46,-115.54"/>
<text text-anchor="middle" x="149.12" y="-109.01" font-family="Times,serif" font-size="14.00" fill="#ebc72d">Mistletoe</text>
<text text-anchor="middle" x="149.12" y="-94.01" font-family="Times,serif" font-size="14.00" fill="#ebc72d">Tree</text>
</a>
</g>
</g>
<!-- mead_bar&#45;&gt;mistletoe_tree -->
<g id="edge9" class="edge">
<title>mead_bar&#45;&gt;mistletoe_tree</title>
<path fill="none" stroke="#ebc72d" stroke-dasharray="1,5" d="M202.39,-180.52C193.78,-168.5 183.44,-154.08 174.17,-141.15"/>
<polygon fill="#ebc72d" stroke="#ebc72d" points="176.93,-138.99 168.26,-132.91 171.24,-143.07 176.93,-138.99"/>
</g>
<!-- house&#45;&gt;bone_tent -->
<g id="edge7" class="edge">
<title>house&#45;&gt;bone_tent</title>
<path fill="none" stroke="#ebc72d" stroke-dasharray="1,5" d="M150.73,-382.59C145.38,-372.67 137.89,-358.79 130.93,-345.9"/>
<polygon fill="#ebc72d" stroke="#ebc72d" points="133.82,-343.89 125.99,-336.75 127.66,-347.22 133.82,-343.89"/>
</g>
<!-- house&#45;&gt;mead_bar -->
<g id="edge8" class="edge">
<title>house&#45;&gt;mead_bar</title>
<path fill="none" stroke="#ebc72d" stroke-dasharray="1,5" d="M203.12,-309.07C203.03,-288.44 206.75,-265.8 210.83,-247.25"/>
<polygon fill="#ebc72d" stroke="#ebc72d" points="214.26,-247.93 213.11,-237.4 207.44,-246.35 214.26,-247.93"/>
</g>
<!-- house&#45;&gt;blacksmith -->
<g id="edge6" class="edge">
<title>house&#45;&gt;blacksmith</title>
<path fill="none" stroke="#ebc72d" stroke-dasharray="1,5" d="M170.7,-382.67C184.06,-366.76 203.25,-339.01 203.12,-311.07"/>
<path fill="none" stroke="#ebc72d" stroke-dasharray="1,5" d="M203.12,-309.07C202.94,-266.44 158.33,-238.98 122.25,-223.73"/>
<polygon fill="#ebc72d" stroke="#ebc72d" points="123.4,-220.42 112.82,-219.93 120.79,-226.91 123.4,-220.42"/>
</g>
<!-- blacksmith&#45;&gt;valhalla -->
<g id="edge2" class="edge">
<title>blacksmith&#45;&gt;valhalla</title>
<path fill="none" stroke="#ebc72d" stroke-dasharray="1,5" d="M71.53,-193.01C61.99,-167.5 45.61,-111.53 67.12,-72 76.27,-55.2 93.29,-42.91 109.46,-34.42"/>
<polygon fill="#ebc72d" stroke="#ebc72d" points="111.36,-37.39 118.82,-29.86 108.29,-31.1 111.36,-37.39"/>
</g>
<!-- blacksmith&#45;&gt;mistletoe_tree -->
<g id="edge1" class="edge">
<title>blacksmith&#45;&gt;mistletoe_tree</title>
<path fill="none" stroke="#ebc72d" stroke-dasharray="1,5" d="M87.14,-192.68C96.63,-179.43 111.3,-158.98 123.98,-141.29"/>
<polygon fill="#ebc72d" stroke="#ebc72d" points="127.03,-143.04 130.01,-132.87 121.34,-138.96 127.03,-143.04"/>
</g>
<!-- mistletoe_tree&#45;&gt;valhalla -->
<g id="edge11" class="edge">
<title>mistletoe_tree&#45;&gt;valhalla</title>
<path fill="none" stroke="#ebc72d" stroke-dasharray="1,5" d="M149.12,-77.72C149.12,-67.74 149.12,-56.39 149.12,-46.34"/>
<polygon fill="#ebc72d" stroke="#ebc72d" points="152.62,-46.07 149.12,-36.07 145.62,-46.07 152.62,-46.07"/>
</g>
</g>
</svg>
