<?xml version="1.0" encoding="UTF-8" standalone="no"?>
<!DOCTYPE svg PUBLIC "-//W3C//DTD SVG 1.1//EN"
 "http://www.w3.org/Graphics/SVG/1.1/DTD/svg11.dtd">
<!-- Generated by graphviz version 2.50.0 (0)
 -->
<!-- Title: test Pages: 1 -->
<svg width="1267pt" height="742pt"
 viewBox="0.00 0.00 1267.44 742.07" xmlns="http://www.w3.org/2000/svg" xmlns:xlink="http://www.w3.org/1999/xlink">
<g id="graph0" class="graph" transform="scale(1 1) rotate(0) translate(4 738.07)">
<title>test</title>
<polygon fill="#151515" stroke="transparent" points="-4,4 -4,-738.07 1263.44,-738.07 1263.44,4 -4,4"/>
<!-- swordman -->
<g id="node1" class="node">
<title>swordman</title>
<g id="a_node1"><a xlink:href="norsemen_swordman_full.html" xlink:title="Swordman">
<ellipse fill="none" stroke="magenta" cx="321.38" cy="-228.61" rx="60.39" ry="18"/>
<text text-anchor="middle" x="321.38" y="-224.91" font-family="Times,serif" font-size="14.00" fill="#ebc72d">Swordman</text>
</a>
</g>
</g>
<!-- swordman_berserk -->
<g id="node8" class="node">
<title>swordman_berserk</title>
<g id="a_node8"><a xlink:href="norsemen_swordman_berserk_full.html" xlink:title="Swordman\nBerserk">
<ellipse fill="none" stroke="magenta" cx="321.38" cy="-127.74" rx="65.52" ry="26.74"/>
<text text-anchor="middle" x="321.38" y="-131.54" font-family="Times,serif" font-size="14.00" fill="#ebc72d">Swordman</text>
<text text-anchor="middle" x="321.38" y="-116.54" font-family="Times,serif" font-size="14.00" fill="#ebc72d">Berserk</text>
</a>
</g>
</g>
<!-- swordman&#45;&gt;swordman_berserk -->
<g id="edge40" class="edge">
<title>swordman&#45;&gt;swordman_berserk</title>
<path fill="none" stroke="#ebc72d" stroke-dasharray="5,2" d="M321.38,-210.39C321.38,-197.89 321.38,-180.53 321.38,-165.03"/>
<polygon fill="#ebc72d" stroke="#ebc72d" points="324.88,-164.68 321.38,-154.68 317.88,-164.68 324.88,-164.68"/>
</g>
<!-- castle -->
<g id="node2" class="node">
<title>castle</title>
<g id="a_node2"><a xlink:href="norsemen_castle_full.html" xlink:title="Castle">
<polygon fill="none" stroke="red" points="882,-634.42 832.38,-646.86 782.76,-634.42 782.8,-614.3 881.95,-614.3 882,-634.42"/>
<text text-anchor="middle" x="832.38" y="-625.16" font-family="Times,serif" font-size="14.00" fill="#ebc72d">Castle</text>
</a>
</g>
</g>
<!-- thrall -->
<g id="node13" class="node">
<title>thrall</title>
<g id="a_node13"><a xlink:href="norsemen_thrall_full.html" xlink:title="Thrall">
<ellipse fill="none" stroke="magenta" cx="832.38" cy="-716.07" rx="38.19" ry="18"/>
<text text-anchor="middle" x="832.38" y="-712.37" font-family="Times,serif" font-size="14.00" fill="#ebc72d">Thrall</text>
</a>
</g>
</g>
<!-- crossbow -->
<g id="node3" class="node">
<title>crossbow</title>
<g id="a_node3"><a xlink:href="norsemen_crossbow_full.html" xlink:title="Crossbow">
<ellipse fill="none" stroke="magenta" cx="759.38" cy="-228.61" rx="55.79" ry="18"/>
<text text-anchor="middle" x="759.38" y="-224.91" font-family="Times,serif" font-size="14.00" fill="#ebc72d">Crossbow</text>
</a>
</g>
</g>
<!-- flying_valkyrie -->
<g id="node4" class="node">
<title>flying_valkyrie</title>
<g id="a_node4"><a xlink:href="norsemen_flying_valkyrie_full.html" xlink:title="Flying\nValkyrie">
<ellipse fill="none" stroke="magenta" cx="1141.38" cy="-26.87" rx="52.15" ry="26.74"/>
<text text-anchor="middle" x="1141.38" y="-30.67" font-family="Times,serif" font-size="14.00" fill="#ebc72d">Flying</text>
<text text-anchor="middle" x="1141.38" y="-15.67" font-family="Times,serif" font-size="14.00" fill="#ebc72d">Valkyrie</text>
</a>
</g>
</g>
<!-- bone_tent -->
<g id="node5" class="node">
<title>bone_tent</title>
<g id="a_node5"><a xlink:href="norsemen_bone_tent_full.html" xlink:title="Bone\nTent">
<polygon fill="none" stroke="red" points="623.52,-536.76 577.38,-559.86 531.23,-536.76 531.27,-499.39 623.48,-499.39 623.52,-536.76"/>
<text text-anchor="middle" x="577.38" y="-530.23" font-family="Times,serif" font-size="14.00" fill="#ebc72d">Bone</text>
<text text-anchor="middle" x="577.38" y="-515.23" font-family="Times,serif" font-size="14.00" fill="#ebc72d">Tent</text>
</a>
</g>
</g>
<!-- bone_tent&#45;&gt;swordman -->
<g id="edge15" class="edge">
<title>bone_tent&#45;&gt;swordman</title>
<path fill="none" stroke="#ebc72d" d="M573.31,-498.99C569.03,-478.62 560.58,-450.74 544.38,-431.35"/>
<path fill="none" stroke="#ebc72d" d="M544.38,-429.35C535.23,-418.4 537.42,-411.12 525.38,-403.48 455.01,-358.85 398.83,-427.83 341.38,-367.48 313.33,-338.02 313.5,-287.77 316.92,-256.76"/>
<polygon fill="#ebc72d" stroke="#ebc72d" points="320.41,-257.02 318.22,-246.65 313.47,-256.12 320.41,-257.02"/>
</g>
<!-- axe_thrower -->
<g id="node11" class="node">
<title>axe_thrower</title>
<g id="a_node11"><a xlink:href="norsemen_axe_thrower_full.html" xlink:title="Axe\nThrower">
<ellipse fill="none" stroke="magenta" cx="462.38" cy="-430.35" rx="54.39" ry="26.74"/>
<text text-anchor="middle" x="462.38" y="-434.15" font-family="Times,serif" font-size="14.00" fill="#ebc72d">Axe</text>
<text text-anchor="middle" x="462.38" y="-419.15" font-family="Times,serif" font-size="14.00" fill="#ebc72d">Thrower</text>
</a>
</g>
</g>
<!-- bone_tent&#45;&gt;axe_thrower -->
<g id="edge11" class="edge">
<title>bone_tent&#45;&gt;axe_thrower</title>
<path fill="none" stroke="#ebc72d" d="M545.34,-499.23C530.65,-487.21 513.18,-472.91 498.07,-460.55"/>
<polygon fill="#ebc72d" stroke="#ebc72d" points="499.9,-457.53 489.95,-453.91 495.47,-462.95 499.9,-457.53"/>
</g>
<!-- archer -->
<g id="node16" class="node">
<title>archer</title>
<g id="a_node16"><a xlink:href="norsemen_archer_full.html" xlink:title="Archer">
<ellipse fill="none" stroke="magenta" cx="867.38" cy="-430.35" rx="42.49" ry="18"/>
<text text-anchor="middle" x="867.38" y="-426.65" font-family="Times,serif" font-size="14.00" fill="#ebc72d">Archer</text>
</a>
</g>
</g>
<!-- bone_tent&#45;&gt;archer -->
<g id="edge10" class="edge">
<title>bone_tent&#45;&gt;archer</title>
<path fill="none" stroke="#ebc72d" d="M623.59,-500.05C628.84,-497.58 634.18,-495.24 639.38,-493.22 696.85,-470.87 713.87,-473.4 773.38,-457.22 789.59,-452.81 807.36,-447.93 823.04,-443.61"/>
<polygon fill="#ebc72d" stroke="#ebc72d" points="824.3,-446.89 833.01,-440.86 822.44,-440.15 824.3,-446.89"/>
</g>
<!-- spearman -->
<g id="node17" class="node">
<title>spearman</title>
<g id="a_node17"><a xlink:href="norsemen_spearman_full.html" xlink:title="Spearman">
<ellipse fill="none" stroke="magenta" cx="170.38" cy="-430.35" rx="57.69" ry="18"/>
<text text-anchor="middle" x="170.38" y="-426.65" font-family="Times,serif" font-size="14.00" fill="#ebc72d">Spearman</text>
</a>
</g>
</g>
<!-- bone_tent&#45;&gt;spearman -->
<g id="edge14" class="edge">
<title>bone_tent&#45;&gt;spearman</title>
<path fill="none" stroke="#ebc72d" stroke-dasharray="1,5" d="M531.17,-514.11C504.19,-507.65 469.44,-499.6 438.38,-493.22 349.48,-474.97 324.77,-481.68 237.38,-457.22 229.18,-454.93 220.59,-452.02 212.39,-448.98"/>
<polygon fill="#ebc72d" stroke="#ebc72d" points="213.6,-445.69 203.01,-445.39 211.1,-452.23 213.6,-445.69"/>
</g>
<!-- battleaxe -->
<g id="node18" class="node">
<title>battleaxe</title>
<g id="a_node18"><a xlink:href="norsemen_battleaxe_full.html" xlink:title="Battleaxe">
<ellipse fill="none" stroke="magenta" cx="405.38" cy="-329.48" rx="55.49" ry="18"/>
<text text-anchor="middle" x="405.38" y="-325.78" font-family="Times,serif" font-size="14.00" fill="#ebc72d">Battleaxe</text>
</a>
</g>
</g>
<!-- bone_tent&#45;&gt;battleaxe -->
<g id="edge12" class="edge">
<title>bone_tent&#45;&gt;battleaxe</title>
<path fill="none" stroke="#ebc72d" d="M544.38,-429.35C535.23,-418.4 535.89,-413.12 525.38,-403.48 518.17,-396.87 472.87,-369.88 440.05,-350.65"/>
<polygon fill="#ebc72d" stroke="#ebc72d" points="441.57,-347.48 431.17,-345.45 438.04,-353.52 441.57,-347.48"/>
</g>
<!-- blacksmith -->
<g id="node22" class="node">
<title>blacksmith</title>
<g id="a_node22"><a xlink:href="norsemen_blacksmith_full.html" xlink:title="Blacksmith">
<polygon fill="none" stroke="red" points="764.62,-435.91 687.38,-448.35 610.13,-435.91 610.2,-415.79 764.55,-415.79 764.62,-435.91"/>
<text text-anchor="middle" x="687.38" y="-426.65" font-family="Times,serif" font-size="14.00" fill="#ebc72d">Blacksmith</text>
</a>
</g>
</g>
<!-- bone_tent&#45;&gt;blacksmith -->
<g id="edge13" class="edge">
<title>bone_tent&#45;&gt;blacksmith</title>
<path fill="none" stroke="#ebc72d" stroke-dasharray="1,5" d="M608.02,-499.23C625.23,-484.5 646.44,-466.37 662.59,-452.55"/>
<polygon fill="#ebc72d" stroke="#ebc72d" points="665.21,-454.91 670.54,-445.75 660.66,-449.59 665.21,-454.91"/>
</g>
<!-- thor_totem -->
<g id="node6" class="node">
<title>thor_totem</title>
<g id="a_node6"><a xlink:href="norsemen_thor_totem_full.html" xlink:title="Thor\nTotem">
<polygon fill="none" stroke="red" points="1043.76,-639.19 989.38,-662.29 935,-639.19 935.05,-601.82 1043.71,-601.82 1043.76,-639.19"/>
<text text-anchor="middle" x="989.38" y="-632.66" font-family="Times,serif" font-size="14.00" fill="#ebc72d">Thor</text>
<text text-anchor="middle" x="989.38" y="-617.66" font-family="Times,serif" font-size="14.00" fill="#ebc72d">Totem</text>
</a>
</g>
</g>
<!-- thor -->
<g id="node15" class="node">
<title>thor</title>
<g id="a_node15"><a xlink:href="norsemen_thor_full.html" xlink:title="Thor">
<ellipse fill="none" stroke="magenta" cx="1148.38" cy="-329.48" rx="32.49" ry="18"/>
<text text-anchor="middle" x="1148.38" y="-325.78" font-family="Times,serif" font-size="14.00" fill="#ebc72d">Thor</text>
</a>
</g>
</g>
<!-- thor_totem&#45;&gt;thor -->
<g id="edge41" class="edge">
<title>thor_totem&#45;&gt;thor</title>
<path fill="none" stroke="#ebc72d" stroke-dasharray="5,2" d="M1000.37,-601.59C1018.58,-558.95 1057,-472.52 1097.38,-403.48 1107.33,-386.46 1120.02,-368.28 1130.26,-354.32"/>
<polygon fill="#ebc72d" stroke="#ebc72d" points="1133.12,-356.34 1136.26,-346.22 1127.49,-352.17 1133.12,-356.34"/>
</g>
<!-- cudgel_lady -->
<g id="node7" class="node">
<title>cudgel_lady</title>
<g id="a_node7"><a xlink:href="norsemen_cudgel_lady_full.html" xlink:title="Cudgel\nLady">
<ellipse fill="none" stroke="magenta" cx="47.38" cy="-430.35" rx="47.25" ry="26.74"/>
<text text-anchor="middle" x="47.38" y="-434.15" font-family="Times,serif" font-size="14.00" fill="#ebc72d">Cudgel</text>
<text text-anchor="middle" x="47.38" y="-419.15" font-family="Times,serif" font-size="14.00" fill="#ebc72d">Lady</text>
</a>
</g>
</g>
<!-- valkyrie -->
<g id="node9" class="node">
<title>valkyrie</title>
<g id="a_node9"><a xlink:href="norsemen_valkyrie_full.html" xlink:title="Valkyrie">
<ellipse fill="none" stroke="magenta" cx="960.38" cy="-127.74" rx="48.19" ry="18"/>
<text text-anchor="middle" x="960.38" y="-124.04" font-family="Times,serif" font-size="14.00" fill="#ebc72d">Valkyrie</text>
</a>
</g>
</g>
<!-- mead_bar -->
<g id="node10" class="node">
<title>mead_bar</title>
<g id="a_node10"><a xlink:href="norsemen_mead_bar_full.html" xlink:title="Mead\nBar">
<polygon fill="none" stroke="red" points="429.27,-536.76 380.38,-559.86 331.48,-536.76 331.53,-499.39 429.22,-499.39 429.27,-536.76"/>
<text text-anchor="middle" x="380.38" y="-530.23" font-family="Times,serif" font-size="14.00" fill="#ebc72d">Mead</text>
<text text-anchor="middle" x="380.38" y="-515.23" font-family="Times,serif" font-size="14.00" fill="#ebc72d">Bar</text>
</a>
</g>
</g>
<!-- mead_bar&#45;&gt;cudgel_lady -->
<g id="edge29" class="edge">
<title>mead_bar&#45;&gt;cudgel_lady</title>
<path fill="none" stroke="#ebc72d" d="M331.27,-516.3C275.24,-505.21 181.31,-484.54 103.38,-457.22 99.45,-455.85 95.43,-454.29 91.43,-452.65"/>
<polygon fill="#ebc72d" stroke="#ebc72d" points="92.77,-449.41 82.2,-448.68 90.01,-455.84 92.77,-449.41"/>
</g>
<!-- mead_bar&#45;&gt;axe_thrower -->
<g id="edge28" class="edge">
<title>mead_bar&#45;&gt;axe_thrower</title>
<path fill="none" stroke="#ebc72d" stroke-dasharray="1,5" d="M403.22,-499.23C412.92,-488.09 424.32,-475.01 434.52,-463.32"/>
<polygon fill="#ebc72d" stroke="#ebc72d" points="437.41,-465.32 441.34,-455.48 432.13,-460.72 437.41,-465.32"/>
</g>
<!-- mead_bar&#45;&gt;spearman -->
<g id="edge32" class="edge">
<title>mead_bar&#45;&gt;spearman</title>
<path fill="none" stroke="#ebc72d" d="M331.41,-503.49C294.96,-487.16 245.77,-465.13 211.39,-449.72"/>
<polygon fill="#ebc72d" stroke="#ebc72d" points="212.66,-446.46 202.1,-445.56 209.8,-452.85 212.66,-446.46"/>
</g>
<!-- mistletoe_tree -->
<g id="node25" class="node">
<title>mistletoe_tree</title>
<g id="a_node25"><a xlink:href="norsemen_mistletoe_tree_full.html" xlink:title="Mistletoe\nTree">
<polygon fill="none" stroke="red" points="625.71,-339.81 552.38,-362.91 479.04,-339.81 479.11,-302.44 625.65,-302.44 625.71,-339.81"/>
<text text-anchor="middle" x="552.38" y="-333.28" font-family="Times,serif" font-size="14.00" fill="#ebc72d">Mistletoe</text>
<text text-anchor="middle" x="552.38" y="-318.28" font-family="Times,serif" font-size="14.00" fill="#ebc72d">Tree</text>
</a>
</g>
</g>
<!-- mead_bar&#45;&gt;mistletoe_tree -->
<g id="edge31" class="edge">
<title>mead_bar&#45;&gt;mistletoe_tree</title>
<path fill="none" stroke="#ebc72d" stroke-dasharray="1,5" d="M377.77,-498.95C376.57,-472.25 378.77,-431.15 399.38,-403.48 402.76,-398.93 457.57,-373.38 500.63,-353.78"/>
<polygon fill="#ebc72d" stroke="#ebc72d" points="502.24,-356.89 509.9,-349.57 499.34,-350.52 502.24,-356.89"/>
</g>
<!-- mead -->
<g id="node27" class="node">
<title>mead</title>
<g id="a_node27"><a xlink:href="norsemen_mead_full.html" xlink:title="Mead">
<polygon fill="none" stroke="green" points="352.61,-448.35 267.93,-448.35 246.15,-412.35 330.82,-412.35 352.61,-448.35"/>
<text text-anchor="middle" x="299.38" y="-426.65" font-family="Times,serif" font-size="14.00" fill="#ebc72d">Mead</text>
</a>
</g>
</g>
<!-- mead_bar&#45;&gt;mead -->
<g id="edge30" class="edge">
<title>mead_bar&#45;&gt;mead</title>
<path fill="none" stroke="#ebc72d" d="M357.81,-499.23C346.26,-485.81 332.27,-469.56 320.87,-456.32"/>
<polygon fill="#ebc72d" stroke="#ebc72d" points="323.33,-453.81 314.16,-448.52 318.03,-458.38 323.33,-453.81"/>
</g>
<!-- valhalla -->
<g id="node12" class="node">
<title>valhalla</title>
<g id="a_node12"><a xlink:href="norsemen_valhalla_full.html" xlink:title="Valhalla">
<polygon fill="none" stroke="red" points="1095.17,-234.17 1036.38,-246.61 977.58,-234.17 977.64,-214.05 1095.11,-214.05 1095.17,-234.17"/>
<text text-anchor="middle" x="1036.38" y="-224.91" font-family="Times,serif" font-size="14.00" fill="#ebc72d">Valhalla</text>
</a>
</g>
</g>
<!-- valhalla&#45;&gt;flying_valkyrie -->
<g id="edge51" class="edge">
<title>valhalla&#45;&gt;flying_valkyrie</title>
<path fill="none" stroke="#ebc72d" d="M1034.89,-213.93C1032.74,-187.76 1031.32,-129.69 1055.38,-89.74 1064.89,-73.93 1080.16,-61.02 1095.2,-51.15"/>
<polygon fill="#ebc72d" stroke="#ebc72d" points="1097.34,-53.94 1103.99,-45.69 1093.65,-47.99 1097.34,-53.94"/>
</g>
<!-- valhalla&#45;&gt;valkyrie -->
<g id="edge53" class="edge">
<title>valhalla&#45;&gt;valkyrie</title>
<path fill="none" stroke="#ebc72d" d="M1025.81,-213.86C1013.8,-198.24 993.96,-172.44 979.28,-153.33"/>
<polygon fill="#ebc72d" stroke="#ebc72d" points="982,-151.13 973.13,-145.34 976.45,-155.4 982,-151.13"/>
</g>
<!-- holy_valkyrie -->
<g id="node26" class="node">
<title>holy_valkyrie</title>
<g id="a_node26"><a xlink:href="norsemen_holy_valkyrie_full.html" xlink:title="Holy\nValkyrie">
<polygon fill="none" stroke="green" points="1218.32,-165.74 1095.92,-165.74 1064.44,-89.74 1186.83,-89.74 1218.32,-165.74"/>
<text text-anchor="middle" x="1141.38" y="-131.54" font-family="Times,serif" font-size="14.00" fill="#ebc72d">Holy</text>
<text text-anchor="middle" x="1141.38" y="-116.54" font-family="Times,serif" font-size="14.00" fill="#ebc72d">Valkyrie</text>
</a>
</g>
</g>
<!-- valhalla&#45;&gt;holy_valkyrie -->
<g id="edge52" class="edge">
<title>valhalla&#45;&gt;holy_valkyrie</title>
<path fill="none" stroke="#ebc72d" d="M1050.98,-213.86C1062.31,-203.19 1078.68,-187.77 1094.39,-172.98"/>
<polygon fill="#ebc72d" stroke="#ebc72d" points="1097.14,-175.2 1102.03,-165.79 1092.35,-170.1 1097.14,-175.2"/>
</g>
<!-- thrall&#45;&gt;castle -->
<g id="edge44" class="edge">
<title>thrall&#45;&gt;castle</title>
<path fill="none" stroke="#ebc72d" stroke-width="2" d="M832.38,-687.74C832.38,-677.94 832.38,-666.89 832.38,-657.1"/>
<polygon fill="#ebc72d" stroke="#ebc72d" stroke-width="2" points="828.88,-687.83 832.38,-697.83 835.88,-687.83 828.88,-687.83"/>
<polygon fill="#ebc72d" stroke="#ebc72d" stroke-width="2" points="835.88,-657.08 832.38,-647.08 828.88,-657.08 835.88,-657.08"/>
</g>
<!-- thrall&#45;&gt;bone_tent -->
<g id="edge43" class="edge">
<title>thrall&#45;&gt;bone_tent</title>
<path fill="none" stroke="#ebc72d" stroke-width="2" d="M653.38,-627.86C628.75,-611.45 608.92,-584.32 595.69,-562.39"/>
<polygon fill="#ebc72d" stroke="#ebc72d" stroke-width="2" points="598.67,-560.55 590.61,-553.67 592.62,-564.07 598.67,-560.55"/>
</g>
<!-- thrall&#45;&gt;thor_totem -->
<g id="edge49" class="edge">
<title>thrall&#45;&gt;thor_totem</title>
<path fill="none" stroke="#ebc72d" stroke-width="2" d="M856.56,-701.95C880.55,-688.93 917.8,-668.71 946.75,-653"/>
<polygon fill="#ebc72d" stroke="#ebc72d" stroke-width="2" points="948.71,-655.91 955.83,-648.07 945.37,-649.76 948.71,-655.91"/>
</g>
<!-- thrall&#45;&gt;mead_bar -->
<g id="edge47" class="edge">
<title>thrall&#45;&gt;mead_bar</title>
<path fill="none" stroke="#ebc72d" stroke-width="2" d="M803.12,-704.17C766.51,-689.86 702.64,-662.68 653.38,-629.86"/>
<path fill="none" stroke="#ebc72d" stroke-width="2" d="M653.38,-627.86C585.73,-582.8 495.24,-554.7 437.37,-540.05"/>
<polygon fill="#ebc72d" stroke="#ebc72d" stroke-width="2" points="438.21,-536.66 427.66,-537.64 436.52,-543.45 438.21,-536.66"/>
</g>
<!-- thrall&#45;&gt;valhalla -->
<g id="edge50" class="edge">
<title>thrall&#45;&gt;valhalla</title>
<path fill="none" stroke="#ebc72d" stroke-width="2" d="M1208.38,-627.86C1280.77,-496.78 1276.56,-413.22 1189.38,-291.48 1168.06,-261.71 1129.9,-246.25 1097.03,-238.22"/>
<polygon fill="#ebc72d" stroke="#ebc72d" stroke-width="2" points="1097.55,-234.75 1087.02,-235.96 1096.01,-241.58 1097.55,-234.75"/>
</g>
<!-- farm -->
<g id="node20" class="node">
<title>farm</title>
<g id="a_node20"><a xlink:href="norsemen_farm_full.html" xlink:title="Farm">
<polygon fill="none" stroke="red" points="1180.03,-532 1137.38,-544.43 1094.72,-532 1094.76,-511.87 1179.99,-511.87 1180.03,-532"/>
<text text-anchor="middle" x="1137.38" y="-522.73" font-family="Times,serif" font-size="14.00" fill="#ebc72d">Farm</text>
</a>
</g>
</g>
<!-- thrall&#45;&gt;farm -->
<g id="edge45" class="edge">
<title>thrall&#45;&gt;farm</title>
<path fill="none" stroke="#ebc72d" stroke-width="2" d="M870.48,-713.24C959.42,-707.97 1175.61,-689.18 1208.38,-629.86"/>
<path fill="none" stroke="#ebc72d" stroke-width="2" d="M1208.38,-627.86C1225.33,-597.16 1191.31,-564.52 1164.74,-545.06"/>
<polygon fill="#ebc72d" stroke="#ebc72d" stroke-width="2" points="1166.65,-542.12 1156.45,-539.23 1162.62,-547.85 1166.65,-542.12"/>
</g>
<!-- house -->
<g id="node21" class="node">
<title>house</title>
<g id="a_node21"><a xlink:href="norsemen_house_full.html" xlink:title="House">
<polygon fill="none" stroke="red" points="544,-634.42 494.38,-646.86 444.76,-634.42 444.8,-614.3 543.95,-614.3 544,-634.42"/>
<text text-anchor="middle" x="494.38" y="-625.16" font-family="Times,serif" font-size="14.00" fill="#ebc72d">House</text>
</a>
</g>
</g>
<!-- thrall&#45;&gt;house -->
<g id="edge46" class="edge">
<title>thrall&#45;&gt;house</title>
<path fill="none" stroke="#ebc72d" stroke-width="2" d="M799.35,-706.75C738.13,-691.31 607,-658.25 538.35,-640.95"/>
<polygon fill="#ebc72d" stroke="#ebc72d" stroke-width="2" points="538.84,-637.46 528.29,-638.41 537.13,-644.25 538.84,-637.46"/>
</g>
<!-- thrall&#45;&gt;blacksmith -->
<g id="edge42" class="edge">
<title>thrall&#45;&gt;blacksmith</title>
<path fill="none" stroke="#ebc72d" stroke-width="2" d="M653.38,-525.43C651.02,-500.7 661.91,-474.23 671.99,-455.68"/>
<polygon fill="#ebc72d" stroke="#ebc72d" stroke-width="2" points="675.16,-457.18 677.1,-446.76 669.09,-453.7 675.16,-457.18"/>
</g>
<!-- thrall&#45;&gt;mistletoe_tree -->
<g id="edge48" class="edge">
<title>thrall&#45;&gt;mistletoe_tree</title>
<path fill="none" stroke="#ebc72d" stroke-width="2" d="M653.38,-627.86C616.23,-603.11 657.61,-571.87 653.38,-527.43"/>
<path fill="none" stroke="#ebc72d" stroke-width="2" d="M653.38,-525.43C649.76,-487.48 620.97,-489.92 601.38,-457.22 585,-429.89 572.26,-396.12 563.88,-370.31"/>
<polygon fill="#ebc72d" stroke="#ebc72d" stroke-width="2" points="567.13,-368.97 560.78,-360.49 560.45,-371.08 567.13,-368.97"/>
</g>
<!-- spearman_berserk -->
<g id="node14" class="node">
<title>spearman_berserk</title>
<g id="a_node14"><a xlink:href="norsemen_spearman_berserk_full.html" xlink:title="Spearman\nBerserk">
<ellipse fill="none" stroke="magenta" cx="173.38" cy="-127.74" rx="62.87" ry="26.74"/>
<text text-anchor="middle" x="173.38" y="-131.54" font-family="Times,serif" font-size="14.00" fill="#ebc72d">Spearman</text>
<text text-anchor="middle" x="173.38" y="-116.54" font-family="Times,serif" font-size="14.00" fill="#ebc72d">Berserk</text>
</a>
</g>
</g>
<!-- spearman&#45;&gt;spearman_berserk -->
<g id="edge39" class="edge">
<title>spearman&#45;&gt;spearman_berserk</title>
<path fill="none" stroke="#ebc72d" stroke-dasharray="5,2" d="M170.55,-412.33C171.02,-364.91 172.36,-230.55 173.01,-165.26"/>
<polygon fill="#ebc72d" stroke="#ebc72d" points="176.51,-165.05 173.11,-155.02 169.51,-164.98 176.51,-165.05"/>
</g>
<!-- battleaxe_berserk -->
<g id="node19" class="node">
<title>battleaxe_berserk</title>
<g id="a_node19"><a xlink:href="norsemen_battleaxe_berserk_full.html" xlink:title="Battleaxe\nBerserk">
<ellipse fill="none" stroke="magenta" cx="494.38" cy="-127.74" rx="60.21" ry="26.74"/>
<text text-anchor="middle" x="494.38" y="-131.54" font-family="Times,serif" font-size="14.00" fill="#ebc72d">Battleaxe</text>
<text text-anchor="middle" x="494.38" y="-116.54" font-family="Times,serif" font-size="14.00" fill="#ebc72d">Berserk</text>
</a>
</g>
</g>
<!-- battleaxe&#45;&gt;battleaxe_berserk -->
<g id="edge2" class="edge">
<title>battleaxe&#45;&gt;battleaxe_berserk</title>
<path fill="none" stroke="#ebc72d" stroke-dasharray="5,2" d="M431,-313.33C457.6,-296.99 496.43,-271.21 504.38,-255.48 518.67,-227.18 513.77,-190.73 506.72,-164.19"/>
<polygon fill="#ebc72d" stroke="#ebc72d" points="510.08,-163.19 503.95,-154.55 503.35,-165.12 510.08,-163.19"/>
</g>
<!-- farm&#45;&gt;flying_valkyrie -->
<g id="edge19" class="edge">
<title>farm&#45;&gt;flying_valkyrie</title>
<path fill="none" stroke="#ebc72d" stroke-dasharray="1,5" d="M1151.63,-511.77C1181.17,-481.89 1246.38,-407.26 1246.38,-330.48 1246.38,-330.48 1246.38,-330.48 1246.38,-227.61 1246.38,-165.76 1259.29,-142.73 1227.38,-89.74 1217.86,-73.93 1202.59,-61.02 1187.55,-51.15"/>
<polygon fill="#ebc72d" stroke="#ebc72d" points="1189.1,-47.99 1178.76,-45.69 1185.41,-53.94 1189.1,-47.99"/>
</g>
<!-- farm&#45;&gt;archer -->
<g id="edge17" class="edge">
<title>farm&#45;&gt;archer</title>
<path fill="none" stroke="#ebc72d" stroke-dasharray="1,5" d="M1098.4,-511.85C1047.92,-494.26 960.28,-463.72 908.68,-445.74"/>
<polygon fill="#ebc72d" stroke="#ebc72d" points="909.76,-442.41 899.17,-442.43 907.46,-449.02 909.76,-442.41"/>
</g>
<!-- cow -->
<g id="node24" class="node">
<title>cow</title>
<g id="a_node24"><a xlink:href="norsemen_cow_full.html" xlink:title="Cow">
<ellipse fill="none" stroke="magenta" cx="1137.38" cy="-430.35" rx="30.59" ry="18"/>
<text text-anchor="middle" x="1137.38" y="-426.65" font-family="Times,serif" font-size="14.00" fill="#ebc72d">Cow</text>
</a>
</g>
</g>
<!-- farm&#45;&gt;cow -->
<g id="edge18" class="edge">
<title>farm&#45;&gt;cow</title>
<path fill="none" stroke="#ebc72d" d="M1137.38,-511.55C1137.38,-497.67 1137.38,-475.94 1137.38,-458.6"/>
<polygon fill="#ebc72d" stroke="#ebc72d" points="1140.88,-458.48 1137.38,-448.48 1133.88,-458.48 1140.88,-458.48"/>
</g>
<!-- house&#45;&gt;bone_tent -->
<g id="edge21" class="edge">
<title>house&#45;&gt;bone_tent</title>
<path fill="none" stroke="#ebc72d" stroke-dasharray="1,5" d="M505.92,-613.9C517.71,-599.62 536.42,-576.99 551.74,-558.45"/>
<polygon fill="#ebc72d" stroke="#ebc72d" points="554.61,-560.47 558.28,-550.54 549.21,-556.01 554.61,-560.47"/>
</g>
<!-- house&#45;&gt;cudgel_lady -->
<g id="edge22" class="edge">
<title>house&#45;&gt;cudgel_lady</title>
<path fill="none" stroke="#ebc72d" d="M444.78,-623.22C376.68,-614.64 253.23,-590.92 170.38,-527.43"/>
<path fill="none" stroke="#ebc72d" d="M170.38,-525.43C141.04,-502.96 107.75,-477.49 83.2,-458.73"/>
<polygon fill="#ebc72d" stroke="#ebc72d" points="85.3,-455.93 75.23,-452.64 81.05,-461.49 85.3,-455.93"/>
</g>
<!-- house&#45;&gt;mead_bar -->
<g id="edge23" class="edge">
<title>house&#45;&gt;mead_bar</title>
<path fill="none" stroke="#ebc72d" stroke-dasharray="1,5" d="M478.52,-613.9C461.42,-598.82 433.72,-574.42 412.1,-555.38"/>
<polygon fill="#ebc72d" stroke="#ebc72d" points="414.26,-552.62 404.44,-548.63 409.63,-557.87 414.26,-552.62"/>
</g>
<!-- house&#45;&gt;spearman -->
<g id="edge24" class="edge">
<title>house&#45;&gt;spearman</title>
<path fill="none" stroke="#ebc72d" d="M170.38,-525.43C150.79,-510.43 154.32,-480.37 160.5,-458.25"/>
<polygon fill="#ebc72d" stroke="#ebc72d" points="163.93,-459.01 163.56,-448.43 157.25,-456.93 163.93,-459.01"/>
</g>
<!-- blacksmith&#45;&gt;crossbow -->
<g id="edge6" class="edge">
<title>blacksmith&#45;&gt;crossbow</title>
<path fill="none" stroke="#ebc72d" d="M703.38,-415.57C715.64,-404.03 731.85,-386.44 740.38,-367.48 756.46,-331.72 759.79,-285.9 760.07,-257.14"/>
<polygon fill="#ebc72d" stroke="#ebc72d" points="763.57,-257 760.05,-247.01 756.57,-257.02 763.57,-257"/>
</g>
<!-- blacksmith&#45;&gt;thor -->
<g id="edge9" class="edge">
<title>blacksmith&#45;&gt;thor</title>
<path fill="none" stroke="#ebc72d" stroke-dasharray="1,5" d="M750.19,-415.78C771.18,-411.5 794.73,-406.99 816.38,-403.48 944.58,-382.7 987.94,-420.78 1106.38,-367.48 1113.98,-364.06 1121.2,-358.78 1127.45,-353.26"/>
<polygon fill="#ebc72d" stroke="#ebc72d" points="1129.95,-355.71 1134.79,-346.28 1125.13,-350.64 1129.95,-355.71"/>
</g>
<!-- blacksmith&#45;&gt;battleaxe -->
<g id="edge5" class="edge">
<title>blacksmith&#45;&gt;battleaxe</title>
<path fill="none" stroke="#ebc72d" stroke-dasharray="1,5" d="M624.76,-415.72C580.67,-405.11 520.76,-388.64 470.38,-367.48 459.47,-362.9 448.09,-356.89 437.96,-351.05"/>
<polygon fill="#ebc72d" stroke="#ebc72d" points="439.45,-347.87 429.06,-345.79 435.88,-353.89 439.45,-347.87"/>
</g>
<!-- blacksmith&#45;&gt;mistletoe_tree -->
<g id="edge8" class="edge">
<title>blacksmith&#45;&gt;mistletoe_tree</title>
<path fill="none" stroke="#ebc72d" stroke-dasharray="1,5" d="M668.6,-415.6C648.82,-401.11 617.07,-377.86 591.75,-359.31"/>
<polygon fill="#ebc72d" stroke="#ebc72d" points="593.57,-356.31 583.43,-353.23 589.43,-361.96 593.57,-356.31"/>
</g>
<!-- arrow -->
<g id="node28" class="node">
<title>arrow</title>
<g id="a_node28"><a xlink:href="norsemen_arrow_full.html" xlink:title="Arrow">
<polygon fill="none" stroke="green" points="901.73,-347.48 810.49,-347.48 787.02,-311.48 878.26,-311.48 901.73,-347.48"/>
<text text-anchor="middle" x="844.38" y="-325.78" font-family="Times,serif" font-size="14.00" fill="#ebc72d">Arrow</text>
</a>
</g>
</g>
<!-- blacksmith&#45;&gt;arrow -->
<g id="edge4" class="edge">
<title>blacksmith&#45;&gt;arrow</title>
<path fill="none" stroke="#ebc72d" d="M709.21,-415.6C734.9,-399.42 777.92,-372.33 808.53,-353.05"/>
<polygon fill="#ebc72d" stroke="#ebc72d" points="810.61,-355.88 817.2,-347.59 806.88,-349.96 810.61,-355.88"/>
</g>
<!-- advanced_iron -->
<g id="node29" class="node">
<title>advanced_iron</title>
<g id="a_node29"><a xlink:href="norsemen_advanced_iron_full.html" xlink:title="Advanced\nIron">
<polygon fill="none" stroke="green" points="1097.7,-367.48 955.61,-367.48 919.05,-291.48 1061.15,-291.48 1097.7,-367.48"/>
<text text-anchor="middle" x="1008.38" y="-333.28" font-family="Times,serif" font-size="14.00" fill="#ebc72d">Advanced</text>
<text text-anchor="middle" x="1008.38" y="-318.28" font-family="Times,serif" font-size="14.00" fill="#ebc72d">Iron</text>
</a>
</g>
</g>
<!-- blacksmith&#45;&gt;advanced_iron -->
<g id="edge3" class="edge">
<title>blacksmith&#45;&gt;advanced_iron</title>
<path fill="none" stroke="#ebc72d" d="M741.86,-415.7C787.26,-403.98 853.47,-386.07 910.38,-367.48 919.78,-364.41 929.6,-360.97 939.25,-357.47"/>
<polygon fill="#ebc72d" stroke="#ebc72d" points="940.65,-360.68 948.82,-353.95 938.23,-354.11 940.65,-360.68"/>
</g>
<!-- iron -->
<g id="node30" class="node">
<title>iron</title>
<g id="a_node30"><a xlink:href="norsemen_iron_full.html" xlink:title="Iron">
<polygon fill="none" stroke="green" points="731.05,-347.48 661.58,-347.48 643.71,-311.48 713.18,-311.48 731.05,-347.48"/>
<text text-anchor="middle" x="687.38" y="-325.78" font-family="Times,serif" font-size="14.00" fill="#ebc72d">Iron</text>
</a>
</g>
</g>
<!-- blacksmith&#45;&gt;iron -->
<g id="edge7" class="edge">
<title>blacksmith&#45;&gt;iron</title>
<path fill="none" stroke="#ebc72d" d="M687.38,-415.6C687.38,-400.72 687.38,-376.59 687.38,-357.82"/>
<polygon fill="#ebc72d" stroke="#ebc72d" points="690.88,-357.77 687.38,-347.77 683.88,-357.77 690.88,-357.77"/>
</g>
<!-- wild_sow -->
<g id="node23" class="node">
<title>wild_sow</title>
<g id="a_node23"><a xlink:href="norsemen_wild_sow_full.html" xlink:title="Wild\nSow">
<ellipse fill="none" stroke="magenta" cx="586.38" cy="-228.61" rx="34.8" ry="26.74"/>
<text text-anchor="middle" x="586.38" y="-232.41" font-family="Times,serif" font-size="14.00" fill="#ebc72d">Wild</text>
<text text-anchor="middle" x="586.38" y="-217.41" font-family="Times,serif" font-size="14.00" fill="#ebc72d">Sow</text>
</a>
</g>
</g>
<!-- mistletoe_tree&#45;&gt;valhalla -->
<g id="edge34" class="edge">
<title>mistletoe_tree&#45;&gt;valhalla</title>
<path fill="none" stroke="#ebc72d" stroke-dasharray="1,5" d="M604.5,-302.43C614.26,-298.29 624.49,-294.41 634.38,-291.48 696.92,-272.93 878.59,-248.93 974.85,-237.01"/>
<polygon fill="#ebc72d" stroke="#ebc72d" points="975.53,-240.45 985.02,-235.75 974.67,-233.5 975.53,-240.45"/>
</g>
<!-- mistletoe_tree&#45;&gt;wild_sow -->
<g id="edge35" class="edge">
<title>mistletoe_tree&#45;&gt;wild_sow</title>
<path fill="none" stroke="#ebc72d" d="M561.4,-302.24C565.37,-290.69 570.1,-276.94 574.36,-264.54"/>
<polygon fill="#ebc72d" stroke="#ebc72d" points="577.72,-265.54 577.66,-254.94 571.1,-263.26 577.72,-265.54"/>
</g>
<!-- root -->
<g id="node31" class="node">
<title>root</title>
<g id="a_node31"><a xlink:href="norsemen_root_full.html" xlink:title="Root">
<polygon fill="none" stroke="green" points="495.17,-246.61 419.14,-246.61 399.58,-210.61 475.61,-210.61 495.17,-246.61"/>
<text text-anchor="middle" x="447.38" y="-224.91" font-family="Times,serif" font-size="14.00" fill="#ebc72d">Root</text>
</a>
</g>
</g>
<!-- mistletoe_tree&#45;&gt;root -->
<g id="edge33" class="edge">
<title>mistletoe_tree&#45;&gt;root</title>
<path fill="none" stroke="#ebc72d" d="M524.51,-302.24C508.43,-287.1 488.36,-268.2 472.73,-253.48"/>
<polygon fill="#ebc72d" stroke="#ebc72d" points="475.12,-250.93 465.44,-246.62 470.32,-256.03 475.12,-250.93"/>
</g>
<!-- holy_valkyrie&#45;&gt;flying_valkyrie -->
<g id="edge20" class="edge">
<title>holy_valkyrie&#45;&gt;flying_valkyrie</title>
<path fill="none" stroke="#ebc72d" stroke-dasharray="1,5" d="M1141.38,-89.64C1141.38,-81.24 1141.38,-72.34 1141.38,-63.98"/>
<polygon fill="#ebc72d" stroke="#ebc72d" points="1144.88,-63.77 1141.38,-53.77 1137.88,-63.77 1144.88,-63.77"/>
</g>
<!-- mead&#45;&gt;swordman_berserk -->
<g id="edge27" class="edge">
<title>mead&#45;&gt;swordman_berserk</title>
<path fill="none" stroke="#ebc72d" stroke-dasharray="1,5" d="M289.33,-412.21C268.01,-373.47 222.55,-276.72 252.38,-201.74 258.89,-185.37 271.01,-170.55 283.29,-158.61"/>
<polygon fill="#ebc72d" stroke="#ebc72d" points="285.95,-160.92 290.92,-151.56 281.2,-155.78 285.95,-160.92"/>
</g>
<!-- mead&#45;&gt;battleaxe -->
<g id="edge26" class="edge">
<title>mead&#45;&gt;battleaxe</title>
<path fill="none" stroke="#ebc72d" stroke-dasharray="1,5" d="M317.84,-412.13C335.15,-395.98 361.16,-371.72 380.33,-353.84"/>
<polygon fill="#ebc72d" stroke="#ebc72d" points="382.9,-356.23 387.83,-346.85 378.13,-351.11 382.9,-356.23"/>
</g>
<!-- arrow&#45;&gt;crossbow -->
<g id="edge1" class="edge">
<title>arrow&#45;&gt;crossbow</title>
<path fill="none" stroke="#ebc72d" stroke-dasharray="1,5" d="M829.57,-311.26C815.96,-295.43 795.63,-271.78 780.35,-254.01"/>
<polygon fill="#ebc72d" stroke="#ebc72d" points="782.9,-251.61 773.73,-246.31 777.59,-256.17 782.9,-251.61"/>
</g>
<!-- iron&#45;&gt;crossbow -->
<g id="edge25" class="edge">
<title>iron&#45;&gt;crossbow</title>
<path fill="none" stroke="#ebc72d" stroke-dasharray="1,5" d="M699.92,-311.26C711.34,-295.57 728.35,-272.21 741.26,-254.49"/>
<polygon fill="#ebc72d" stroke="#ebc72d" points="744.16,-256.45 747.22,-246.31 738.5,-252.33 744.16,-256.45"/>
</g>
<!-- root&#45;&gt;swordman_berserk -->
<g id="edge38" class="edge">
<title>root&#45;&gt;swordman_berserk</title>
<path fill="none" stroke="#ebc72d" stroke-dasharray="1,5" d="M425.43,-210.39C407.17,-196.06 380.77,-175.35 359.13,-158.37"/>
<polygon fill="#ebc72d" stroke="#ebc72d" points="361.12,-155.48 351.1,-152.06 356.8,-160.99 361.12,-155.48"/>
</g>
<!-- root&#45;&gt;spearman_berserk -->
<g id="edge37" class="edge">
<title>root&#45;&gt;spearman_berserk</title>
<path fill="none" stroke="#ebc72d" stroke-dasharray="1,5" d="M412.51,-210.59C405.29,-207.4 397.66,-204.28 390.38,-201.74 328.08,-180.02 308.19,-188.8 246.38,-165.74 237.58,-162.46 228.46,-158.4 219.77,-154.2"/>
<polygon fill="#ebc72d" stroke="#ebc72d" points="221.05,-150.93 210.54,-149.6 217.93,-157.19 221.05,-150.93"/>
</g>
<!-- root&#45;&gt;battleaxe_berserk -->
<g id="edge36" class="edge">
<title>root&#45;&gt;battleaxe_berserk</title>
<path fill="none" stroke="#ebc72d" stroke-dasharray="1,5" d="M455.56,-210.39C461.72,-197.44 470.36,-179.27 477.92,-163.35"/>
<polygon fill="#ebc72d" stroke="#ebc72d" points="481.09,-164.83 482.23,-154.3 474.77,-161.83 481.09,-164.83"/>
</g>
</g>
</svg>
