<?xml version="1.0" encoding="UTF-8" standalone="no"?>
<!DOCTYPE svg PUBLIC "-//W3C//DTD SVG 1.1//EN"
 "http://www.w3.org/Graphics/SVG/1.1/DTD/svg11.dtd">
<!-- Generated by graphviz version 2.50.0 (0)
 -->
<!-- Title: test Pages: 1 -->
<svg width="1507pt" height="326pt"
 viewBox="0.00 0.00 1506.66 325.91" xmlns="http://www.w3.org/2000/svg" xmlns:xlink="http://www.w3.org/1999/xlink">
<g id="graph0" class="graph" transform="scale(1 1) rotate(0) translate(4 321.91)">
<title>test</title>
<polygon fill="#151515" stroke="transparent" points="-4,4 -4,-321.91 1502.66,-321.91 1502.66,4 -4,4"/>
<!-- swordman -->
<g id="node1" class="node">
<title>swordman</title>
<g id="a_node1"><a xlink:href="norsemen_swordman_full.html" xlink:title="Swordman">
<ellipse fill="none" stroke="magenta" cx="453.24" cy="-116.61" rx="60.39" ry="18"/>
<text text-anchor="middle" x="453.24" y="-112.91" font-family="Times,serif" font-size="14.00" fill="#ebc72d">Swordman</text>
</a>
</g>
</g>
<!-- swordman_berserk -->
<g id="node8" class="node">
<title>swordman_berserk</title>
<g id="a_node8"><a xlink:href="norsemen_swordman_berserk_full.html" xlink:title="Swordman\nBerserk">
<ellipse fill="none" stroke="magenta" cx="458.24" cy="-26.87" rx="65.52" ry="26.74"/>
<text text-anchor="middle" x="458.24" y="-30.67" font-family="Times,serif" font-size="14.00" fill="#ebc72d">Swordman</text>
<text text-anchor="middle" x="458.24" y="-15.67" font-family="Times,serif" font-size="14.00" fill="#ebc72d">Berserk</text>
</a>
</g>
</g>
<!-- swordman&#45;&gt;swordman_berserk -->
<g id="edge26" class="edge">
<title>swordman&#45;&gt;swordman_berserk</title>
<path fill="none" stroke="#ebc72d" stroke-dasharray="5,2" d="M454.23,-98.28C454.79,-88.46 455.51,-75.82 456.19,-63.95"/>
<polygon fill="#ebc72d" stroke="#ebc72d" points="459.69,-64.01 456.76,-53.82 452.7,-63.61 459.69,-64.01"/>
</g>
<!-- castle -->
<g id="node2" class="node">
<title>castle</title>
<g id="a_node2"><a xlink:href="norsemen_castle_full.html" xlink:title="Castle">
<polygon fill="none" stroke="red" points="1333.86,-218.26 1284.24,-230.69 1234.62,-218.26 1234.67,-198.13 1333.81,-198.13 1333.86,-218.26"/>
<text text-anchor="middle" x="1284.24" y="-208.99" font-family="Times,serif" font-size="14.00" fill="#ebc72d">Castle</text>
</a>
</g>
</g>
<!-- thrall -->
<g id="node13" class="node">
<title>thrall</title>
<g id="a_node13"><a xlink:href="norsemen_thrall_full.html" xlink:title="Thrall">
<ellipse fill="none" stroke="magenta" cx="859.24" cy="-299.91" rx="38.19" ry="18"/>
<text text-anchor="middle" x="859.24" y="-296.21" font-family="Times,serif" font-size="14.00" fill="#ebc72d">Thrall</text>
</a>
</g>
</g>
<!-- crossbow -->
<g id="node3" class="node">
<title>crossbow</title>
<g id="a_node3"><a xlink:href="norsemen_crossbow_full.html" xlink:title="Crossbow">
<ellipse fill="none" stroke="magenta" cx="1173.24" cy="-116.61" rx="55.79" ry="18"/>
<text text-anchor="middle" x="1173.24" y="-112.91" font-family="Times,serif" font-size="14.00" fill="#ebc72d">Crossbow</text>
</a>
</g>
</g>
<!-- flying_valkyrie -->
<g id="node4" class="node">
<title>flying_valkyrie</title>
<g id="a_node4"><a xlink:href="norsemen_flying_valkyrie_full.html" xlink:title="Flying\nValkyrie">
<ellipse fill="none" stroke="magenta" cx="895.24" cy="-116.61" rx="52.15" ry="26.74"/>
<text text-anchor="middle" x="895.24" y="-120.41" font-family="Times,serif" font-size="14.00" fill="#ebc72d">Flying</text>
<text text-anchor="middle" x="895.24" y="-105.41" font-family="Times,serif" font-size="14.00" fill="#ebc72d">Valkyrie</text>
</a>
</g>
</g>
<!-- bone_tent -->
<g id="node5" class="node">
<title>bone_tent</title>
<g id="a_node5"><a xlink:href="norsemen_bone_tent_full.html" xlink:title="Bone\nTent">
<polygon fill="none" stroke="red" points="559.39,-223.02 513.24,-246.12 467.09,-223.02 467.14,-185.65 559.35,-185.65 559.39,-223.02"/>
<text text-anchor="middle" x="513.24" y="-216.49" font-family="Times,serif" font-size="14.00" fill="#ebc72d">Bone</text>
<text text-anchor="middle" x="513.24" y="-201.49" font-family="Times,serif" font-size="14.00" fill="#ebc72d">Tent</text>
</a>
</g>
</g>
<!-- bone_tent&#45;&gt;swordman -->
<g id="edge12" class="edge">
<title>bone_tent&#45;&gt;swordman</title>
<path fill="none" stroke="#ebc72d" d="M496.53,-185.49C488.08,-172.23 477.86,-156.21 469.48,-143.07"/>
<polygon fill="#ebc72d" stroke="#ebc72d" points="472.34,-141.04 464.01,-134.49 466.44,-144.81 472.34,-141.04"/>
</g>
<!-- axe_thrower -->
<g id="node11" class="node">
<title>axe_thrower</title>
<g id="a_node11"><a xlink:href="norsemen_axe_thrower_full.html" xlink:title="Axe\nThrower">
<ellipse fill="none" stroke="magenta" cx="187.24" cy="-116.61" rx="54.39" ry="26.74"/>
<text text-anchor="middle" x="187.24" y="-120.41" font-family="Times,serif" font-size="14.00" fill="#ebc72d">Axe</text>
<text text-anchor="middle" x="187.24" y="-105.41" font-family="Times,serif" font-size="14.00" fill="#ebc72d">Thrower</text>
</a>
</g>
</g>
<!-- bone_tent&#45;&gt;axe_thrower -->
<g id="edge9" class="edge">
<title>bone_tent&#45;&gt;axe_thrower</title>
<path fill="none" stroke="#ebc72d" d="M467.08,-201.72C414.12,-189.83 324.98,-168.39 250.24,-143.48 245.78,-141.99 241.18,-140.34 236.6,-138.62"/>
<polygon fill="#ebc72d" stroke="#ebc72d" points="237.85,-135.35 227.27,-135 235.32,-141.88 237.85,-135.35"/>
</g>
<!-- archer -->
<g id="node16" class="node">
<title>archer</title>
<g id="a_node16"><a xlink:href="norsemen_archer_full.html" xlink:title="Archer">
<ellipse fill="none" stroke="magenta" cx="574.24" cy="-116.61" rx="42.49" ry="18"/>
<text text-anchor="middle" x="574.24" y="-112.91" font-family="Times,serif" font-size="14.00" fill="#ebc72d">Archer</text>
</a>
</g>
</g>
<!-- bone_tent&#45;&gt;archer -->
<g id="edge8" class="edge">
<title>bone_tent&#45;&gt;archer</title>
<path fill="none" stroke="#ebc72d" d="M530.23,-185.49C538.88,-172.14 549.35,-156 557.91,-142.81"/>
<polygon fill="#ebc72d" stroke="#ebc72d" points="560.97,-144.51 563.48,-134.21 555.1,-140.7 560.97,-144.51"/>
</g>
<!-- spearman -->
<g id="node17" class="node">
<title>spearman</title>
<g id="a_node17"><a xlink:href="norsemen_spearman_full.html" xlink:title="Spearman">
<ellipse fill="none" stroke="magenta" cx="317.24" cy="-116.61" rx="57.69" ry="18"/>
<text text-anchor="middle" x="317.24" y="-112.91" font-family="Times,serif" font-size="14.00" fill="#ebc72d">Spearman</text>
</a>
</g>
</g>
<!-- bone_tent&#45;&gt;spearman -->
<g id="edge11" class="edge">
<title>bone_tent&#45;&gt;spearman</title>
<path fill="none" stroke="#ebc72d" stroke-dasharray="1,5" d="M466.79,-189.4C433.35,-173.34 388.71,-151.91 356.92,-136.66"/>
<polygon fill="#ebc72d" stroke="#ebc72d" points="358.03,-133.31 347.5,-132.14 355,-139.62 358.03,-133.31"/>
</g>
<!-- battleaxe -->
<g id="node18" class="node">
<title>battleaxe</title>
<g id="a_node18"><a xlink:href="norsemen_battleaxe_full.html" xlink:title="Battleaxe">
<ellipse fill="none" stroke="magenta" cx="769.24" cy="-116.61" rx="55.49" ry="18"/>
<text text-anchor="middle" x="769.24" y="-112.91" font-family="Times,serif" font-size="14.00" fill="#ebc72d">Battleaxe</text>
</a>
</g>
</g>
<!-- bone_tent&#45;&gt;battleaxe -->
<g id="edge10" class="edge">
<title>bone_tent&#45;&gt;battleaxe</title>
<path fill="none" stroke="#ebc72d" d="M559.61,-195.84C598.62,-182.36 655.8,-162.25 705.24,-143.48 712.25,-140.82 719.66,-137.91 726.85,-135.04"/>
<polygon fill="#ebc72d" stroke="#ebc72d" points="728.49,-138.15 736.46,-131.17 725.88,-131.66 728.49,-138.15"/>
</g>
<!-- thor_totem -->
<g id="node6" class="node">
<title>thor_totem</title>
<g id="a_node6"><a xlink:href="norsemen_thor_totem_full.html" xlink:title="Thor\nTotem">
<polygon fill="none" stroke="red" points="1216.62,-223.02 1162.24,-246.12 1107.86,-223.02 1107.91,-185.65 1216.57,-185.65 1216.62,-223.02"/>
<text text-anchor="middle" x="1162.24" y="-216.49" font-family="Times,serif" font-size="14.00" fill="#ebc72d">Thor</text>
<text text-anchor="middle" x="1162.24" y="-201.49" font-family="Times,serif" font-size="14.00" fill="#ebc72d">Totem</text>
</a>
</g>
</g>
<!-- thor -->
<g id="node15" class="node">
<title>thor</title>
<g id="a_node15"><a xlink:href="norsemen_thor_full.html" xlink:title="Thor">
<ellipse fill="none" stroke="magenta" cx="1279.24" cy="-116.61" rx="32.49" ry="18"/>
<text text-anchor="middle" x="1279.24" y="-112.91" font-family="Times,serif" font-size="14.00" fill="#ebc72d">Thor</text>
</a>
</g>
</g>
<!-- thor_totem&#45;&gt;thor -->
<g id="edge27" class="edge">
<title>thor_totem&#45;&gt;thor</title>
<path fill="none" stroke="#ebc72d" stroke-dasharray="5,2" d="M1194.83,-185.49C1213.31,-170.63 1236.11,-152.29 1253.35,-138.43"/>
<polygon fill="#ebc72d" stroke="#ebc72d" points="1255.73,-141.01 1261.33,-132.01 1251.34,-135.55 1255.73,-141.01"/>
</g>
<!-- cudgel_lady -->
<g id="node7" class="node">
<title>cudgel_lady</title>
<g id="a_node7"><a xlink:href="norsemen_cudgel_lady_full.html" xlink:title="Cudgel\nLady">
<ellipse fill="none" stroke="magenta" cx="67.24" cy="-116.61" rx="47.25" ry="26.74"/>
<text text-anchor="middle" x="67.24" y="-120.41" font-family="Times,serif" font-size="14.00" fill="#ebc72d">Cudgel</text>
<text text-anchor="middle" x="67.24" y="-105.41" font-family="Times,serif" font-size="14.00" fill="#ebc72d">Lady</text>
</a>
</g>
</g>
<!-- valkyrie -->
<g id="node9" class="node">
<title>valkyrie</title>
<g id="a_node9"><a xlink:href="norsemen_valkyrie_full.html" xlink:title="Valkyrie">
<ellipse fill="none" stroke="magenta" cx="1013.24" cy="-116.61" rx="48.19" ry="18"/>
<text text-anchor="middle" x="1013.24" y="-112.91" font-family="Times,serif" font-size="14.00" fill="#ebc72d">Valkyrie</text>
</a>
</g>
</g>
<!-- mead_bar -->
<g id="node10" class="node">
<title>mead_bar</title>
<g id="a_node10"><a xlink:href="norsemen_mead_bar_full.html" xlink:title="Mead\nBar">
<polygon fill="none" stroke="red" points="236.13,-223.02 187.24,-246.12 138.35,-223.02 138.4,-185.65 236.09,-185.65 236.13,-223.02"/>
<text text-anchor="middle" x="187.24" y="-216.49" font-family="Times,serif" font-size="14.00" fill="#ebc72d">Mead</text>
<text text-anchor="middle" x="187.24" y="-201.49" font-family="Times,serif" font-size="14.00" fill="#ebc72d">Bar</text>
</a>
</g>
</g>
<!-- mead_bar&#45;&gt;cudgel_lady -->
<g id="edge21" class="edge">
<title>mead_bar&#45;&gt;cudgel_lady</title>
<path fill="none" stroke="#ebc72d" d="M153.81,-185.49C137.87,-172.98 118.79,-158.02 102.6,-145.33"/>
<polygon fill="#ebc72d" stroke="#ebc72d" points="104.46,-142.34 94.43,-138.93 100.14,-147.85 104.46,-142.34"/>
</g>
<!-- mead_bar&#45;&gt;swordman_berserk -->
<g id="edge23" class="edge">
<title>mead_bar&#45;&gt;swordman_berserk</title>
<path fill="none" stroke="#ebc72d" stroke-dasharray="1,5" d="M138.05,-207.48C96.53,-201.03 39.48,-184.71 11.24,-143.48 -2.25,-123.77 -4.81,-107.42 11.24,-89.74 67.07,-28.25 302.09,-71.4 383.24,-53.74 389.34,-52.41 395.62,-50.75 401.84,-48.9"/>
<polygon fill="#ebc72d" stroke="#ebc72d" points="403.01,-52.2 411.52,-45.88 400.93,-45.52 403.01,-52.2"/>
</g>
<!-- mead_bar&#45;&gt;axe_thrower -->
<g id="edge20" class="edge">
<title>mead_bar&#45;&gt;axe_thrower</title>
<path fill="none" stroke="#ebc72d" stroke-dasharray="1,5" d="M187.24,-185.49C187.24,-175.7 187.24,-164.4 187.24,-153.87"/>
<polygon fill="#ebc72d" stroke="#ebc72d" points="190.74,-153.68 187.24,-143.68 183.74,-153.68 190.74,-153.68"/>
</g>
<!-- mead_bar&#45;&gt;spearman -->
<g id="edge22" class="edge">
<title>mead_bar&#45;&gt;spearman</title>
<path fill="none" stroke="#ebc72d" d="M223.45,-185.49C243.52,-170.96 268.17,-153.12 287.17,-139.38"/>
<polygon fill="#ebc72d" stroke="#ebc72d" points="289.41,-142.07 295.46,-133.37 285.31,-136.4 289.41,-142.07"/>
</g>
<!-- valhalla -->
<g id="node12" class="node">
<title>valhalla</title>
<g id="a_node12"><a xlink:href="norsemen_valhalla_full.html" xlink:title="Valhalla">
<polygon fill="none" stroke="red" points="918.03,-218.26 859.24,-230.69 800.45,-218.26 800.5,-198.13 917.98,-198.13 918.03,-218.26"/>
<text text-anchor="middle" x="859.24" y="-208.99" font-family="Times,serif" font-size="14.00" fill="#ebc72d">Valhalla</text>
</a>
</g>
</g>
<!-- valhalla&#45;&gt;flying_valkyrie -->
<g id="edge37" class="edge">
<title>valhalla&#45;&gt;flying_valkyrie</title>
<path fill="none" stroke="#ebc72d" d="M864.55,-197.81C869.09,-185.96 875.81,-168.39 881.81,-152.72"/>
<polygon fill="#ebc72d" stroke="#ebc72d" points="885.12,-153.86 885.42,-143.27 878.58,-151.36 885.12,-153.86"/>
</g>
<!-- valhalla&#45;&gt;valkyrie -->
<g id="edge38" class="edge">
<title>valhalla&#45;&gt;valkyrie</title>
<path fill="none" stroke="#ebc72d" d="M881.63,-198.01C907.64,-182.12 950.77,-155.78 980.53,-137.6"/>
<polygon fill="#ebc72d" stroke="#ebc72d" points="982.59,-140.44 989.3,-132.24 978.94,-134.46 982.59,-140.44"/>
</g>
<!-- thrall&#45;&gt;castle -->
<g id="edge30" class="edge">
<title>thrall&#45;&gt;castle</title>
<path fill="none" stroke="#ebc72d" stroke-width="2" d="M907.42,-297.35C978.63,-293.86 1115.37,-282.53 1225.24,-245.91 1236.06,-242.3 1247.23,-236.75 1256.89,-231.27"/>
<polygon fill="#ebc72d" stroke="#ebc72d" stroke-width="2" points="907.23,-293.86 897.4,-297.81 907.55,-300.85 907.23,-293.86"/>
<polygon fill="#ebc72d" stroke="#ebc72d" stroke-width="2" points="1258.81,-234.2 1265.63,-226.1 1255.24,-228.17 1258.81,-234.2"/>
</g>
<!-- thrall&#45;&gt;bone_tent -->
<g id="edge29" class="edge">
<title>thrall&#45;&gt;bone_tent</title>
<path fill="none" stroke="#ebc72d" stroke-width="2" d="M826.07,-290.74C766.05,-275.96 638.99,-244.66 566.62,-226.84"/>
<polygon fill="#ebc72d" stroke="#ebc72d" stroke-width="2" points="567.33,-223.41 556.79,-224.42 565.66,-230.21 567.33,-223.41"/>
</g>
<!-- thrall&#45;&gt;thor_totem -->
<g id="edge35" class="edge">
<title>thrall&#45;&gt;thor_totem</title>
<path fill="none" stroke="#ebc72d" stroke-width="2" d="M895.42,-293.87C943.11,-286.57 1029.17,-271.09 1099.24,-245.91 1106.24,-243.39 1113.44,-240.27 1120.37,-236.96"/>
<polygon fill="#ebc72d" stroke="#ebc72d" stroke-width="2" points="1122.2,-239.96 1129.6,-232.38 1119.09,-233.69 1122.2,-239.96"/>
</g>
<!-- thrall&#45;&gt;mead_bar -->
<g id="edge33" class="edge">
<title>thrall&#45;&gt;mead_bar</title>
<path fill="none" stroke="#ebc72d" stroke-width="2" d="M821.11,-297.47C705.34,-292.8 359.28,-276.58 251.24,-245.91 242.98,-243.56 234.53,-240.14 226.58,-236.4"/>
<polygon fill="#ebc72d" stroke="#ebc72d" stroke-width="2" points="228.04,-233.21 217.53,-231.89 224.92,-239.48 228.04,-233.21"/>
</g>
<!-- thrall&#45;&gt;valhalla -->
<g id="edge36" class="edge">
<title>thrall&#45;&gt;valhalla</title>
<path fill="none" stroke="#ebc72d" stroke-width="2" d="M859.24,-281.66C859.24,-270 859.24,-254.34 859.24,-241"/>
<polygon fill="#ebc72d" stroke="#ebc72d" stroke-width="2" points="862.74,-240.91 859.24,-230.91 855.74,-240.91 862.74,-240.91"/>
</g>
<!-- farm -->
<g id="node20" class="node">
<title>farm</title>
<g id="a_node20"><a xlink:href="norsemen_farm_full.html" xlink:title="Farm">
<polygon fill="none" stroke="red" points="745.9,-218.26 703.24,-230.69 660.58,-218.26 660.62,-198.13 745.86,-198.13 745.9,-218.26"/>
<text text-anchor="middle" x="703.24" y="-208.99" font-family="Times,serif" font-size="14.00" fill="#ebc72d">Farm</text>
</a>
</g>
</g>
<!-- thrall&#45;&gt;farm -->
<g id="edge31" class="edge">
<title>thrall&#45;&gt;farm</title>
<path fill="none" stroke="#ebc72d" stroke-width="2" d="M835.21,-285.78C807.6,-270.7 762.3,-245.95 732.62,-229.74"/>
<polygon fill="#ebc72d" stroke="#ebc72d" stroke-width="2" points="734.03,-226.52 723.57,-224.8 730.67,-232.66 734.03,-226.52"/>
</g>
<!-- house -->
<g id="node21" class="node">
<title>house</title>
<g id="a_node21"><a xlink:href="norsemen_house_full.html" xlink:title="House">
<polygon fill="none" stroke="red" points="359.86,-218.26 310.24,-230.69 260.62,-218.26 260.67,-198.13 359.81,-198.13 359.86,-218.26"/>
<text text-anchor="middle" x="310.24" y="-208.99" font-family="Times,serif" font-size="14.00" fill="#ebc72d">House</text>
</a>
</g>
</g>
<!-- thrall&#45;&gt;house -->
<g id="edge32" class="edge">
<title>thrall&#45;&gt;house</title>
<path fill="none" stroke="#ebc72d" stroke-width="2" d="M822.04,-295.03C751.04,-287.41 591.41,-269.16 458.24,-245.91 423.25,-239.8 383.98,-231.17 354.69,-224.38"/>
<polygon fill="#ebc72d" stroke="#ebc72d" stroke-width="2" points="355.3,-220.93 344.77,-222.06 353.71,-227.74 355.3,-220.93"/>
</g>
<!-- blacksmith -->
<g id="node22" class="node">
<title>blacksmith</title>
<g id="a_node22"><a xlink:href="norsemen_blacksmith_full.html" xlink:title="Blacksmith">
<polygon fill="none" stroke="red" points="1090.49,-218.26 1013.24,-230.69 935.99,-218.26 936.07,-198.13 1090.42,-198.13 1090.49,-218.26"/>
<text text-anchor="middle" x="1013.24" y="-208.99" font-family="Times,serif" font-size="14.00" fill="#ebc72d">Blacksmith</text>
</a>
</g>
</g>
<!-- thrall&#45;&gt;blacksmith -->
<g id="edge28" class="edge">
<title>thrall&#45;&gt;blacksmith</title>
<path fill="none" stroke="#ebc72d" stroke-width="2" d="M883.3,-285.59C909.41,-271.15 951.25,-247.99 980.38,-231.88"/>
<polygon fill="#ebc72d" stroke="#ebc72d" stroke-width="2" points="982.29,-234.82 989.35,-226.91 978.9,-228.69 982.29,-234.82"/>
</g>
<!-- mistletoe_tree -->
<g id="node25" class="node">
<title>mistletoe_tree</title>
<g id="a_node25"><a xlink:href="norsemen_mistletoe_tree_full.html" xlink:title="Mistletoe\nTree">
<polygon fill="none" stroke="red" points="1498.58,-223.02 1425.24,-246.12 1351.9,-223.02 1351.97,-185.65 1498.51,-185.65 1498.58,-223.02"/>
<text text-anchor="middle" x="1425.24" y="-216.49" font-family="Times,serif" font-size="14.00" fill="#ebc72d">Mistletoe</text>
<text text-anchor="middle" x="1425.24" y="-201.49" font-family="Times,serif" font-size="14.00" fill="#ebc72d">Tree</text>
</a>
</g>
</g>
<!-- thrall&#45;&gt;mistletoe_tree -->
<g id="edge34" class="edge">
<title>thrall&#45;&gt;mistletoe_tree</title>
<path fill="none" stroke="#ebc72d" stroke-width="2" d="M897.49,-298.15C980.08,-295.76 1180.74,-285.97 1343.24,-245.91 1353.04,-243.49 1363.24,-240.18 1372.98,-236.59"/>
<polygon fill="#ebc72d" stroke="#ebc72d" stroke-width="2" points="1374.44,-239.78 1382.53,-232.94 1371.94,-233.24 1374.44,-239.78"/>
</g>
<!-- spearman_berserk -->
<g id="node14" class="node">
<title>spearman_berserk</title>
<g id="a_node14"><a xlink:href="norsemen_spearman_berserk_full.html" xlink:title="Spearman\nBerserk">
<ellipse fill="none" stroke="magenta" cx="311.24" cy="-26.87" rx="62.87" ry="26.74"/>
<text text-anchor="middle" x="311.24" y="-30.67" font-family="Times,serif" font-size="14.00" fill="#ebc72d">Spearman</text>
<text text-anchor="middle" x="311.24" y="-15.67" font-family="Times,serif" font-size="14.00" fill="#ebc72d">Berserk</text>
</a>
</g>
</g>
<!-- spearman&#45;&gt;spearman_berserk -->
<g id="edge25" class="edge">
<title>spearman&#45;&gt;spearman_berserk</title>
<path fill="none" stroke="#ebc72d" stroke-dasharray="5,2" d="M316.06,-98.28C315.39,-88.46 314.52,-75.82 313.71,-63.95"/>
<polygon fill="#ebc72d" stroke="#ebc72d" points="317.19,-63.56 313.02,-53.82 310.21,-64.04 317.19,-63.56"/>
</g>
<!-- battleaxe_berserk -->
<g id="node19" class="node">
<title>battleaxe_berserk</title>
<g id="a_node19"><a xlink:href="norsemen_battleaxe_berserk_full.html" xlink:title="Battleaxe\nBerserk">
<ellipse fill="none" stroke="magenta" cx="769.24" cy="-26.87" rx="60.21" ry="26.74"/>
<text text-anchor="middle" x="769.24" y="-30.67" font-family="Times,serif" font-size="14.00" fill="#ebc72d">Battleaxe</text>
<text text-anchor="middle" x="769.24" y="-15.67" font-family="Times,serif" font-size="14.00" fill="#ebc72d">Berserk</text>
</a>
</g>
</g>
<!-- battleaxe&#45;&gt;battleaxe_berserk -->
<g id="edge1" class="edge">
<title>battleaxe&#45;&gt;battleaxe_berserk</title>
<path fill="none" stroke="#ebc72d" stroke-dasharray="5,2" d="M769.24,-98.28C769.24,-88.46 769.24,-75.82 769.24,-63.95"/>
<polygon fill="#ebc72d" stroke="#ebc72d" points="772.74,-63.82 769.24,-53.82 765.74,-63.82 772.74,-63.82"/>
</g>
<!-- farm&#45;&gt;flying_valkyrie -->
<g id="edge16" class="edge">
<title>farm&#45;&gt;flying_valkyrie</title>
<path fill="none" stroke="#ebc72d" stroke-dasharray="1,5" d="M731.16,-198.01C762.03,-182.88 812.26,-158.27 849.02,-140.26"/>
<polygon fill="#ebc72d" stroke="#ebc72d" points="850.62,-143.37 858.06,-135.83 847.54,-137.09 850.62,-143.37"/>
</g>
<!-- farm&#45;&gt;archer -->
<g id="edge14" class="edge">
<title>farm&#45;&gt;archer</title>
<path fill="none" stroke="#ebc72d" stroke-dasharray="1,5" d="M684.48,-198.01C663.11,-182.42 627.92,-156.76 603.05,-138.62"/>
<polygon fill="#ebc72d" stroke="#ebc72d" points="604.87,-135.62 594.73,-132.55 600.74,-141.27 604.87,-135.62"/>
</g>
<!-- cow -->
<g id="node24" class="node">
<title>cow</title>
<g id="a_node24"><a xlink:href="norsemen_cow_full.html" xlink:title="Cow">
<ellipse fill="none" stroke="magenta" cx="665.24" cy="-116.61" rx="30.59" ry="18"/>
<text text-anchor="middle" x="665.24" y="-112.91" font-family="Times,serif" font-size="14.00" fill="#ebc72d">Cow</text>
</a>
</g>
</g>
<!-- farm&#45;&gt;cow -->
<g id="edge15" class="edge">
<title>farm&#45;&gt;cow</title>
<path fill="none" stroke="#ebc72d" d="M697.63,-197.81C691.94,-183.71 682.98,-161.52 675.92,-144.06"/>
<polygon fill="#ebc72d" stroke="#ebc72d" points="679.02,-142.37 672.03,-134.41 672.53,-145 679.02,-142.37"/>
</g>
<!-- house&#45;&gt;cudgel_lady -->
<g id="edge18" class="edge">
<title>house&#45;&gt;cudgel_lady</title>
<path fill="none" stroke="#ebc72d" d="M285.38,-198.13C273.46,-191.94 258.84,-184.83 245.24,-179.48 193.03,-158.95 176.8,-163.12 124.24,-143.48 120.29,-142 116.23,-140.38 112.18,-138.69"/>
<polygon fill="#ebc72d" stroke="#ebc72d" points="113.38,-135.39 102.81,-134.65 110.61,-141.82 113.38,-135.39"/>
</g>
<!-- house&#45;&gt;axe_thrower -->
<g id="edge17" class="edge">
<title>house&#45;&gt;axe_thrower</title>
<path fill="none" stroke="#ebc72d" stroke-dasharray="1,5" d="M292.36,-198.01C274.55,-184.4 246.71,-163.1 224.15,-145.84"/>
<polygon fill="#ebc72d" stroke="#ebc72d" points="226.17,-142.98 216.1,-139.69 221.92,-148.54 226.17,-142.98"/>
</g>
<!-- house&#45;&gt;spearman -->
<g id="edge19" class="edge">
<title>house&#45;&gt;spearman</title>
<path fill="none" stroke="#ebc72d" d="M311.27,-197.81C312.31,-183.93 313.92,-162.2 315.21,-144.86"/>
<polygon fill="#ebc72d" stroke="#ebc72d" points="318.72,-144.98 315.97,-134.74 311.73,-144.46 318.72,-144.98"/>
</g>
<!-- blacksmith&#45;&gt;crossbow -->
<g id="edge3" class="edge">
<title>blacksmith&#45;&gt;crossbow</title>
<path fill="none" stroke="#ebc72d" d="M1036.51,-198.01C1063.41,-182.2 1107.94,-156.01 1138.84,-137.84"/>
<polygon fill="#ebc72d" stroke="#ebc72d" points="1140.72,-140.8 1147.56,-132.71 1137.17,-134.76 1140.72,-140.8"/>
</g>
<!-- blacksmith&#45;&gt;flying_valkyrie -->
<g id="edge4" class="edge">
<title>blacksmith&#45;&gt;flying_valkyrie</title>
<path fill="none" stroke="#ebc72d" stroke-dasharray="1,5" d="M996.08,-198.01C979.08,-184.46 952.52,-163.28 930.93,-146.07"/>
<polygon fill="#ebc72d" stroke="#ebc72d" points="932.93,-143.18 922.93,-139.69 928.57,-148.66 932.93,-143.18"/>
</g>
<!-- blacksmith&#45;&gt;swordman_berserk -->
<g id="edge5" class="edge">
<title>blacksmith&#45;&gt;swordman_berserk</title>
<path fill="none" stroke="#ebc72d" stroke-dasharray="1,5" d="M1028.6,-198.11C1054.23,-173.87 1100.08,-122.62 1070.24,-89.74 1042.48,-59.15 741.33,-57.94 700.24,-53.74 643.44,-47.94 579.17,-41.06 531.15,-35.85"/>
<polygon fill="#ebc72d" stroke="#ebc72d" points="531.47,-32.36 521.15,-34.76 530.72,-39.32 531.47,-32.36"/>
</g>
<!-- blacksmith&#45;&gt;valkyrie -->
<g id="edge7" class="edge">
<title>blacksmith&#45;&gt;valkyrie</title>
<path fill="none" stroke="#ebc72d" stroke-dasharray="1,5" d="M1013.24,-197.81C1013.24,-183.93 1013.24,-162.2 1013.24,-144.86"/>
<polygon fill="#ebc72d" stroke="#ebc72d" points="1016.74,-144.74 1013.24,-134.74 1009.74,-144.74 1016.74,-144.74"/>
</g>
<!-- blacksmith&#45;&gt;thor -->
<g id="edge6" class="edge">
<title>blacksmith&#45;&gt;thor</title>
<path fill="none" stroke="#ebc72d" stroke-dasharray="1,5" d="M1047.27,-198.01C1062.96,-191.94 1081.91,-184.95 1099.24,-179.48 1160.09,-160.26 1179.67,-168.81 1238.24,-143.48 1242.74,-141.54 1247.31,-139.14 1251.69,-136.6"/>
<polygon fill="#ebc72d" stroke="#ebc72d" points="1253.65,-139.5 1260.32,-131.27 1249.97,-133.54 1253.65,-139.5"/>
</g>
<!-- blacksmith&#45;&gt;battleaxe -->
<g id="edge2" class="edge">
<title>blacksmith&#45;&gt;battleaxe</title>
<path fill="none" stroke="#ebc72d" stroke-dasharray="1,5" d="M977.18,-198.13C940.99,-184.47 883.67,-162.73 834.24,-143.48 827.16,-140.72 819.66,-137.77 812.37,-134.88"/>
<polygon fill="#ebc72d" stroke="#ebc72d" points="813.19,-131.44 802.61,-131 810.61,-137.94 813.19,-131.44"/>
</g>
<!-- wild_sow -->
<g id="node23" class="node">
<title>wild_sow</title>
<g id="a_node23"><a xlink:href="norsemen_wild_sow_full.html" xlink:title="Wild\nSow">
<ellipse fill="none" stroke="magenta" cx="1425.24" cy="-116.61" rx="34.8" ry="26.74"/>
<text text-anchor="middle" x="1425.24" y="-120.41" font-family="Times,serif" font-size="14.00" fill="#ebc72d">Wild</text>
<text text-anchor="middle" x="1425.24" y="-105.41" font-family="Times,serif" font-size="14.00" fill="#ebc72d">Sow</text>
</a>
</g>
</g>
<!-- mistletoe_tree&#45;&gt;wild_sow -->
<g id="edge24" class="edge">
<title>mistletoe_tree&#45;&gt;wild_sow</title>
<path fill="none" stroke="#ebc72d" d="M1425.24,-185.49C1425.24,-175.7 1425.24,-164.4 1425.24,-153.87"/>
<polygon fill="#ebc72d" stroke="#ebc72d" points="1428.74,-153.68 1425.24,-143.68 1421.74,-153.68 1428.74,-153.68"/>
</g>
</g>
</svg>
