<?xml version="1.0" encoding="UTF-8" standalone="no"?>
<!DOCTYPE svg PUBLIC "-//W3C//DTD SVG 1.1//EN"
 "http://www.w3.org/Graphics/SVG/1.1/DTD/svg11.dtd">
<!-- Generated by graphviz version 2.49.3 (0)
 -->
<!-- Title: test Pages: 1 -->
<svg width="3164pt" height="361pt"
 viewBox="0.00 0.00 3164.49 360.85" xmlns="http://www.w3.org/2000/svg" xmlns:xlink="http://www.w3.org/1999/xlink">
<g id="graph0" class="graph" transform="scale(1 1) rotate(0) translate(4 356.85)">
<title>test</title>
<polygon fill="#151515" stroke="transparent" points="-4,4 -4,-356.85 3160.49,-356.85 3160.49,4 -4,4"/>
<!-- training_camp -->
<g id="node1" class="node">
<title>training_camp</title>
<g id="a_node1"><a xlink:href="romans_training_camp_full.html" xlink:title="Training\nCamp">
<polygon fill="none" stroke="red" points="2551.04,-257.97 2483.94,-281.07 2416.84,-257.97 2416.9,-220.6 2550.98,-220.6 2551.04,-257.97"/>
<text text-anchor="middle" x="2483.94" y="-251.44" font-family="Times,serif" font-size="14.00" fill="#ebc72d">Training</text>
<text text-anchor="middle" x="2483.94" y="-236.44" font-family="Times,serif" font-size="14.00" fill="#ebc72d">Camp</text>
</a>
</g>
</g>
<!-- guard -->
<g id="node7" class="node">
<title>guard</title>
<g id="a_node7"><a xlink:href="romans_guard_full.html" xlink:title="Guard">
<ellipse fill="none" stroke="magenta" cx="2537.94" cy="-33.21" rx="39.79" ry="18"/>
<text text-anchor="middle" x="2537.94" y="-29.51" font-family="Times,serif" font-size="14.00" fill="#ebc72d">Guard</text>
</a>
</g>
</g>
<!-- training_camp&#45;&gt;guard -->
<g id="edge49" class="edge">
<title>training_camp&#45;&gt;guard</title>
<path fill="none" stroke="#ebc72d" d="M2551.15,-240.74C2592.51,-233.23 2642.51,-216.34 2668.94,-178.43 2688.26,-150.72 2686.46,-131.3 2668.94,-102.43 2650.36,-71.8 2613.04,-54.29 2582.98,-44.69"/>
<polygon fill="#ebc72d" stroke="#ebc72d" points="2583.68,-41.25 2573.09,-41.74 2581.67,-47.96 2583.68,-41.25"/>
</g>
<!-- general -->
<g id="node15" class="node">
<title>general</title>
<g id="a_node15"><a xlink:href="romans_general_full.html" xlink:title="General">
<ellipse fill="none" stroke="magenta" cx="849.94" cy="-33.21" rx="47.39" ry="18"/>
<text text-anchor="middle" x="849.94" y="-29.51" font-family="Times,serif" font-size="14.00" fill="#ebc72d">General</text>
</a>
</g>
</g>
<!-- training_camp&#45;&gt;general -->
<g id="edge48" class="edge">
<title>training_camp&#45;&gt;general</title>
<path fill="none" stroke="#ebc72d" stroke-dasharray="1,5" d="M2462.7,-220.53C2453.07,-208.13 2441.87,-192.9 2432.94,-178.43 2413.11,-146.29 2426.82,-122.67 2394.94,-102.43 2325.41,-58.28 992.77,-86.68 912.94,-66.43 902.29,-63.72 891.4,-58.98 881.73,-53.95"/>
<polygon fill="#ebc72d" stroke="#ebc72d" points="883.33,-50.84 872.88,-49.1 879.96,-56.97 883.33,-50.84"/>
</g>
<!-- archer -->
<g id="node19" class="node">
<title>archer</title>
<g id="a_node19"><a xlink:href="romans_archer_full.html" xlink:title="Archer">
<ellipse fill="none" stroke="magenta" cx="2483.94" cy="-140.43" rx="42.49" ry="18"/>
<text text-anchor="middle" x="2483.94" y="-136.73" font-family="Times,serif" font-size="14.00" fill="#ebc72d">Archer</text>
</a>
</g>
</g>
<!-- training_camp&#45;&gt;archer -->
<g id="edge46" class="edge">
<title>training_camp&#45;&gt;archer</title>
<path fill="none" stroke="#ebc72d" d="M2483.94,-220.36C2483.94,-204.64 2483.94,-184.68 2483.94,-168.77"/>
<polygon fill="#ebc72d" stroke="#ebc72d" points="2487.44,-168.5 2483.94,-158.5 2480.44,-168.5 2487.44,-168.5"/>
</g>
<!-- spearman -->
<g id="node20" class="node">
<title>spearman</title>
<g id="a_node20"><a xlink:href="romans_spearman_full.html" xlink:title="Spearman">
<ellipse fill="none" stroke="magenta" cx="2601.94" cy="-140.43" rx="57.69" ry="18"/>
<text text-anchor="middle" x="2601.94" y="-136.73" font-family="Times,serif" font-size="14.00" fill="#ebc72d">Spearman</text>
</a>
</g>
</g>
<!-- training_camp&#45;&gt;spearman -->
<g id="edge50" class="edge">
<title>training_camp&#45;&gt;spearman</title>
<path fill="none" stroke="#ebc72d" d="M2513.41,-220.36C2532.77,-203.11 2557.83,-180.76 2576.35,-164.25"/>
<polygon fill="#ebc72d" stroke="#ebc72d" points="2578.71,-166.83 2583.84,-157.56 2574.05,-161.6 2578.71,-166.83"/>
</g>
<!-- axe_man -->
<g id="node22" class="node">
<title>axe_man</title>
<g id="a_node22"><a xlink:href="romans_axe_man_full.html" xlink:title="Axe\nMan">
<ellipse fill="none" stroke="magenta" cx="2903.94" cy="-33.21" rx="33.88" ry="26.74"/>
<text text-anchor="middle" x="2903.94" y="-37.01" font-family="Times,serif" font-size="14.00" fill="#ebc72d">Axe</text>
<text text-anchor="middle" x="2903.94" y="-22.01" font-family="Times,serif" font-size="14.00" fill="#ebc72d">Man</text>
</a>
</g>
</g>
<!-- training_camp&#45;&gt;axe_man -->
<g id="edge47" class="edge">
<title>training_camp&#45;&gt;axe_man</title>
<path fill="none" stroke="#ebc72d" stroke-dasharray="1,5" d="M2551.07,-239.58C2659.17,-227.57 2862.07,-202.17 2884.94,-178.43 2912.29,-150.03 2913.35,-102.64 2910.01,-69.98"/>
<polygon fill="#ebc72d" stroke="#ebc72d" points="2913.47,-69.45 2908.8,-59.94 2906.52,-70.29 2913.47,-69.45"/>
</g>
<!-- wartime_mechanic -->
<g id="node23" class="node">
<title>wartime_mechanic</title>
<g id="a_node23"><a xlink:href="romans_wartime_mechanic_full.html" xlink:title="Wartime\nMechanic">
<ellipse fill="none" stroke="magenta" cx="1059.94" cy="-140.43" rx="60.21" ry="26.74"/>
<text text-anchor="middle" x="1059.94" y="-144.23" font-family="Times,serif" font-size="14.00" fill="#ebc72d">Wartime</text>
<text text-anchor="middle" x="1059.94" y="-129.23" font-family="Times,serif" font-size="14.00" fill="#ebc72d">Mechanic</text>
</a>
</g>
</g>
<!-- training_camp&#45;&gt;wartime_mechanic -->
<g id="edge53" class="edge">
<title>training_camp&#45;&gt;wartime_mechanic</title>
<path fill="none" stroke="#ebc72d" stroke-dasharray="1,5" d="M2416.61,-244.07C2151.54,-233.86 1191.49,-195.82 1128.94,-178.43 1119.9,-175.91 1110.72,-172.06 1102.13,-167.78"/>
<polygon fill="#ebc72d" stroke="#ebc72d" points="1103.55,-164.58 1093.08,-163.01 1100.29,-170.77 1103.55,-164.58"/>
</g>
<!-- swordsman -->
<g id="node25" class="node">
<title>swordsman</title>
<g id="a_node25"><a xlink:href="romans_swordsman_full.html" xlink:title="Swordsman">
<ellipse fill="none" stroke="magenta" cx="2319.94" cy="-140.43" rx="65.79" ry="18"/>
<text text-anchor="middle" x="2319.94" y="-136.73" font-family="Times,serif" font-size="14.00" fill="#ebc72d">Swordsman</text>
</a>
</g>
</g>
<!-- training_camp&#45;&gt;swordsman -->
<g id="edge51" class="edge">
<title>training_camp&#45;&gt;swordsman</title>
<path fill="none" stroke="#ebc72d" d="M2442.98,-220.36C2415.31,-202.61 2379.25,-179.47 2353.33,-162.84"/>
<polygon fill="#ebc72d" stroke="#ebc72d" points="2354.92,-159.71 2344.61,-157.25 2351.14,-165.6 2354.92,-159.71"/>
</g>
<!-- training_field -->
<g id="node29" class="node">
<title>training_field</title>
<g id="a_node29"><a xlink:href="romans_training_field_full.html" xlink:title="Training\nField">
<polygon fill="none" stroke="green" points="2875.6,-178.43 2748.88,-178.43 2716.28,-102.43 2843,-102.43 2875.6,-178.43"/>
<text text-anchor="middle" x="2795.94" y="-144.23" font-family="Times,serif" font-size="14.00" fill="#ebc72d">Training</text>
<text text-anchor="middle" x="2795.94" y="-129.23" font-family="Times,serif" font-size="14.00" fill="#ebc72d">Field</text>
</a>
</g>
</g>
<!-- training_camp&#45;&gt;training_field -->
<g id="edge52" class="edge">
<title>training_camp&#45;&gt;training_field</title>
<path fill="none" stroke="#ebc72d" d="M2551.14,-226.97C2594.45,-213.96 2651.83,-196.1 2701.94,-178.43 2711.84,-174.93 2722.25,-171.05 2732.39,-167.15"/>
<polygon fill="#ebc72d" stroke="#ebc72d" points="2733.95,-170.3 2742.01,-163.42 2731.42,-163.78 2733.95,-170.3"/>
</g>
<!-- eagle_pillar -->
<g id="node2" class="node">
<title>eagle_pillar</title>
<g id="a_node2"><a xlink:href="romans_eagle_pillar_full.html" xlink:title="Eagle\nPillar">
<polygon fill="none" stroke="red" points="1021.58,-43.54 971.94,-66.64 922.3,-43.54 922.35,-6.17 1021.54,-6.17 1021.58,-43.54"/>
<text text-anchor="middle" x="971.94" y="-37.01" font-family="Times,serif" font-size="14.00" fill="#ebc72d">Eagle</text>
<text text-anchor="middle" x="971.94" y="-22.01" font-family="Times,serif" font-size="14.00" fill="#ebc72d">Pillar</text>
</a>
</g>
</g>
<!-- catapult -->
<g id="node3" class="node">
<title>catapult</title>
<g id="a_node3"><a xlink:href="romans_catapult_full.html" xlink:title="Catapult">
<ellipse fill="none" stroke="magenta" cx="1090.94" cy="-33.21" rx="50.89" ry="18"/>
<text text-anchor="middle" x="1090.94" y="-29.51" font-family="Times,serif" font-size="14.00" fill="#ebc72d">Catapult</text>
</a>
</g>
</g>
<!-- military_camp -->
<g id="node4" class="node">
<title>military_camp</title>
<g id="a_node4"><a xlink:href="romans_military_camp_full.html" xlink:title="Military\nCamp">
<polygon fill="none" stroke="red" points="924.8,-257.97 859.94,-281.07 795.08,-257.97 795.14,-220.6 924.74,-220.6 924.8,-257.97"/>
<text text-anchor="middle" x="859.94" y="-251.44" font-family="Times,serif" font-size="14.00" fill="#ebc72d">Military</text>
<text text-anchor="middle" x="859.94" y="-236.44" font-family="Times,serif" font-size="14.00" fill="#ebc72d">Camp</text>
</a>
</g>
</g>
<!-- turtle_formation -->
<g id="node13" class="node">
<title>turtle_formation</title>
<g id="a_node13"><a xlink:href="romans_turtle_formation_full.html" xlink:title="Turtle\nFormation">
<ellipse fill="none" stroke="magenta" cx="452.94" cy="-33.21" rx="63.78" ry="26.74"/>
<text text-anchor="middle" x="452.94" y="-37.01" font-family="Times,serif" font-size="14.00" fill="#ebc72d">Turtle</text>
<text text-anchor="middle" x="452.94" y="-22.01" font-family="Times,serif" font-size="14.00" fill="#ebc72d">Formation</text>
</a>
</g>
</g>
<!-- military_camp&#45;&gt;turtle_formation -->
<g id="edge31" class="edge">
<title>military_camp&#45;&gt;turtle_formation</title>
<path fill="none" stroke="#ebc72d" d="M795.03,-241.45C664.45,-230.52 379.3,-204.04 342.94,-178.43 327.83,-167.78 329.13,-159.17 323.94,-141.43"/>
<path fill="none" stroke="#ebc72d" d="M323.94,-139.43C312.26,-99.49 354.51,-71.2 393.73,-54.09"/>
<polygon fill="#ebc72d" stroke="#ebc72d" points="395.2,-57.27 403.08,-50.18 392.5,-50.81 395.2,-57.27"/>
</g>
<!-- cavalry -->
<g id="node14" class="node">
<title>cavalry</title>
<g id="a_node14"><a xlink:href="romans_cavalry_full.html" xlink:title="Cavalry">
<ellipse fill="none" stroke="magenta" cx="859.94" cy="-140.43" rx="46.29" ry="18"/>
<text text-anchor="middle" x="859.94" y="-136.73" font-family="Times,serif" font-size="14.00" fill="#ebc72d">Cavalry</text>
</a>
</g>
</g>
<!-- military_camp&#45;&gt;cavalry -->
<g id="edge28" class="edge">
<title>military_camp&#45;&gt;cavalry</title>
<path fill="none" stroke="#ebc72d" d="M859.94,-220.36C859.94,-204.64 859.94,-184.68 859.94,-168.77"/>
<polygon fill="#ebc72d" stroke="#ebc72d" points="863.44,-168.5 859.94,-158.5 856.44,-168.5 863.44,-168.5"/>
</g>
<!-- military_camp&#45;&gt;general -->
<g id="edge30" class="edge">
<title>military_camp&#45;&gt;general</title>
<path fill="none" stroke="#ebc72d" d="M831.82,-220.46C821.25,-208.75 810.46,-194.06 804.94,-178.43 793.7,-146.57 795.23,-134.78 804.94,-102.43 809.75,-86.42 819.66,-70.7 828.96,-58.39"/>
<polygon fill="#ebc72d" stroke="#ebc72d" points="831.78,-60.47 835.23,-50.45 826.29,-56.13 831.78,-60.47"/>
</g>
<!-- military_camp&#45;&gt;wartime_mechanic -->
<g id="edge32" class="edge">
<title>military_camp&#45;&gt;wartime_mechanic</title>
<path fill="none" stroke="#ebc72d" d="M909.64,-220.5C941.22,-203.88 981.87,-182.5 1012.93,-166.16"/>
<polygon fill="#ebc72d" stroke="#ebc72d" points="1014.6,-169.23 1021.82,-161.48 1011.34,-163.04 1014.6,-169.23"/>
</g>
<!-- advanced_architecture -->
<g id="node30" class="node">
<title>advanced_architecture</title>
<g id="a_node30"><a xlink:href="romans_advanced_architecture_full.html" xlink:title="Advanced\nArchitecture">
<polygon fill="none" stroke="green" points="1357.73,-178.43 1183.08,-178.43 1138.15,-102.43 1312.8,-102.43 1357.73,-178.43"/>
<text text-anchor="middle" x="1247.94" y="-144.23" font-family="Times,serif" font-size="14.00" fill="#ebc72d">Advanced</text>
<text text-anchor="middle" x="1247.94" y="-129.23" font-family="Times,serif" font-size="14.00" fill="#ebc72d">Architecture</text>
</a>
</g>
</g>
<!-- military_camp&#45;&gt;advanced_architecture -->
<g id="edge27" class="edge">
<title>military_camp&#45;&gt;advanced_architecture</title>
<path fill="none" stroke="#ebc72d" d="M924.88,-231.2C979.52,-217.96 1059.62,-197.98 1128.94,-178.43 1140.69,-175.11 1153.04,-171.46 1165.15,-167.79"/>
<polygon fill="#ebc72d" stroke="#ebc72d" points="1166.26,-171.11 1174.8,-164.84 1164.22,-164.41 1166.26,-171.11"/>
</g>
<!-- formations -->
<g id="node31" class="node">
<title>formations</title>
<g id="a_node31"><a xlink:href="romans_formations_full.html" xlink:title="Formations">
<polygon fill="none" stroke="green" points="758.22,-158.43 609.84,-158.43 571.66,-122.43 720.05,-122.43 758.22,-158.43"/>
<text text-anchor="middle" x="664.94" y="-136.73" font-family="Times,serif" font-size="14.00" fill="#ebc72d">Formations</text>
</a>
</g>
</g>
<!-- military_camp&#45;&gt;formations -->
<g id="edge29" class="edge">
<title>military_camp&#45;&gt;formations</title>
<path fill="none" stroke="#ebc72d" d="M811.49,-220.5C778.98,-202.96 736.64,-180.11 705.83,-163.49"/>
<polygon fill="#ebc72d" stroke="#ebc72d" points="707.13,-160.21 696.67,-158.54 703.81,-166.37 707.13,-160.21"/>
</g>
<!-- guard_tower -->
<g id="node5" class="node">
<title>guard_tower</title>
<g id="a_node5"><a xlink:href="romans_guard_tower_full.html" xlink:title="Guard\nTower">
<polygon fill="none" stroke="red" points="2019.07,-43.54 1965.94,-66.64 1912.81,-43.54 1912.86,-6.17 2019.02,-6.17 2019.07,-43.54"/>
<text text-anchor="middle" x="1965.94" y="-37.01" font-family="Times,serif" font-size="14.00" fill="#ebc72d">Guard</text>
<text text-anchor="middle" x="1965.94" y="-22.01" font-family="Times,serif" font-size="14.00" fill="#ebc72d">Tower</text>
</a>
</g>
</g>
<!-- slave -->
<g id="node6" class="node">
<title>slave</title>
<g id="a_node6"><a xlink:href="romans_slave_full.html" xlink:title="Slave">
<ellipse fill="none" stroke="magenta" cx="1863.94" cy="-334.85" rx="36.29" ry="18"/>
<text text-anchor="middle" x="1863.94" y="-331.15" font-family="Times,serif" font-size="14.00" fill="#ebc72d">Slave</text>
</a>
</g>
</g>
<!-- slave&#45;&gt;training_camp -->
<g id="edge40" class="edge">
<title>slave&#45;&gt;training_camp</title>
<path fill="none" stroke="#ebc72d" stroke-width="2" d="M1898.6,-329.09C1995.47,-315.78 2270.79,-277.94 2406.45,-259.29"/>
<polygon fill="#ebc72d" stroke="#ebc72d" stroke-width="2" points="2407.33,-262.7 2416.76,-257.87 2406.38,-255.77 2407.33,-262.7"/>
</g>
<!-- slave&#45;&gt;eagle_pillar -->
<g id="edge34" class="edge">
<title>slave&#45;&gt;eagle_pillar</title>
<path fill="none" stroke="#ebc72d" stroke-width="2" d="M1828.03,-331.2C1750.87,-325.16 1563.72,-308.72 1408.94,-280.85 1220.69,-246.96 1141.06,-296.96 990.94,-178.43 976.43,-166.97 982.27,-156.75 971.94,-141.43"/>
<path fill="none" stroke="#ebc72d" stroke-width="2" d="M971.94,-139.43C957.67,-120.76 957.74,-94.29 961.35,-72.57"/>
<polygon fill="#ebc72d" stroke="#ebc72d" stroke-width="2" points="964.8,-73.14 963.28,-62.66 957.93,-71.8 964.8,-73.14"/>
</g>
<!-- slave&#45;&gt;military_camp -->
<g id="edge38" class="edge">
<title>slave&#45;&gt;military_camp</title>
<path fill="none" stroke="#ebc72d" stroke-width="2" d="M1827.36,-332.98C1679.91,-329.25 1128.98,-313.39 957.94,-280.85 943.22,-278.05 927.65,-273.64 913.36,-268.97"/>
<polygon fill="#ebc72d" stroke="#ebc72d" stroke-width="2" points="914.29,-265.59 903.7,-265.71 912.05,-272.22 914.29,-265.59"/>
</g>
<!-- slave&#45;&gt;guard_tower -->
<g id="edge37" class="edge">
<title>slave&#45;&gt;guard_tower</title>
<path fill="none" stroke="#ebc72d" stroke-width="2" d="M1899.08,-330.14C1971.66,-320.36 2137.15,-286.67 2206.94,-178.43 2225.24,-150.04 2227.32,-129.37 2206.94,-102.43 2185.5,-74.07 2093.14,-54.11 2029.19,-43.39"/>
<polygon fill="#ebc72d" stroke="#ebc72d" stroke-width="2" points="2029.63,-39.91 2019.19,-41.75 2028.49,-46.82 2029.63,-39.91"/>
</g>
<!-- gladiator_school -->
<g id="node9" class="node">
<title>gladiator_school</title>
<g id="a_node9"><a xlink:href="romans_gladiator_school_full.html" xlink:title="Gladiator\nSchool">
<polygon fill="none" stroke="red" points="3077.53,-150.76 3004.94,-173.85 2932.35,-150.76 2932.42,-113.38 3077.46,-113.38 3077.53,-150.76"/>
<text text-anchor="middle" x="3004.94" y="-144.23" font-family="Times,serif" font-size="14.00" fill="#ebc72d">Gladiator</text>
<text text-anchor="middle" x="3004.94" y="-129.23" font-family="Times,serif" font-size="14.00" fill="#ebc72d">School</text>
</a>
</g>
</g>
<!-- slave&#45;&gt;gladiator_school -->
<g id="edge36" class="edge">
<title>slave&#45;&gt;gladiator_school</title>
<path fill="none" stroke="#ebc72d" stroke-width="2" d="M1900.51,-333.71C2004.53,-332.76 2310.72,-326 2559.94,-280.85 2720.68,-251.73 2758.52,-231.73 2912.94,-178.43 2925.65,-174.04 2939.17,-168.89 2951.81,-163.84"/>
<polygon fill="#ebc72d" stroke="#ebc72d" stroke-width="2" points="2953.32,-167.01 2961.29,-160.02 2950.71,-160.51 2953.32,-167.01"/>
</g>
<!-- temple -->
<g id="node17" class="node">
<title>temple</title>
<g id="a_node17"><a xlink:href="romans_temple_full.html" xlink:title="Temple">
<polygon fill="none" stroke="red" points="507.7,-253.2 452.94,-265.64 398.18,-253.2 398.23,-233.08 507.65,-233.08 507.7,-253.2"/>
<text text-anchor="middle" x="452.94" y="-243.94" font-family="Times,serif" font-size="14.00" fill="#ebc72d">Temple</text>
</a>
</g>
</g>
<!-- slave&#45;&gt;temple -->
<g id="edge39" class="edge">
<title>slave&#45;&gt;temple</title>
<path fill="none" stroke="#ebc72d" stroke-width="2" d="M1827.61,-332.69C1690.88,-328.19 1194.28,-310.62 785.94,-280.85 690.68,-273.91 580.39,-262.59 513.69,-255.39"/>
<polygon fill="#ebc72d" stroke="#ebc72d" stroke-width="2" points="513.69,-251.87 503.37,-254.27 512.93,-258.83 513.69,-251.87"/>
</g>
<!-- forum -->
<g id="node18" class="node">
<title>forum</title>
<g id="a_node18"><a xlink:href="romans_forum_full.html" xlink:title="Forum">
<polygon fill="none" stroke="red" points="3048.67,-253.2 2997.94,-265.64 2947.22,-253.2 2947.26,-233.08 3048.62,-233.08 3048.67,-253.2"/>
<text text-anchor="middle" x="2997.94" y="-243.94" font-family="Times,serif" font-size="14.00" fill="#ebc72d">Forum</text>
</a>
</g>
</g>
<!-- slave&#45;&gt;forum -->
<g id="edge35" class="edge">
<title>slave&#45;&gt;forum</title>
<path fill="none" stroke="#ebc72d" stroke-width="2" d="M1910.61,-333.04C2048.13,-330.27 2463.64,-319.08 2805.94,-280.85 2855.12,-275.36 2910.85,-265.61 2949.55,-258.27"/>
<polygon fill="#ebc72d" stroke="#ebc72d" stroke-width="2" points="1910.36,-329.55 1900.43,-333.24 1910.5,-336.55 1910.36,-329.55"/>
<polygon fill="#ebc72d" stroke="#ebc72d" stroke-width="2" points="2950.34,-261.69 2959.5,-256.37 2949.02,-254.81 2950.34,-261.69"/>
</g>
<!-- blacksmith_shop -->
<g id="node21" class="node">
<title>blacksmith_shop</title>
<g id="a_node21"><a xlink:href="romans_blacksmith_shop_full.html" xlink:title="Blacksmith\nShop">
<polygon fill="none" stroke="red" points="1585.76,-257.97 1501.94,-281.07 1418.13,-257.97 1418.21,-220.6 1585.68,-220.6 1585.76,-257.97"/>
<text text-anchor="middle" x="1501.94" y="-251.44" font-family="Times,serif" font-size="14.00" fill="#ebc72d">Blacksmith</text>
<text text-anchor="middle" x="1501.94" y="-236.44" font-family="Times,serif" font-size="14.00" fill="#ebc72d">Shop</text>
</a>
</g>
</g>
<!-- slave&#45;&gt;blacksmith_shop -->
<g id="edge33" class="edge">
<title>slave&#45;&gt;blacksmith_shop</title>
<path fill="none" stroke="#ebc72d" stroke-width="2" d="M1831.82,-326.29C1774.65,-312.83 1653.91,-284.41 1575.44,-265.94"/>
<polygon fill="#ebc72d" stroke="#ebc72d" stroke-width="2" points="1576.15,-262.51 1565.62,-263.63 1574.55,-269.33 1576.15,-262.51"/>
</g>
<!-- battering_ram -->
<g id="node8" class="node">
<title>battering_ram</title>
<g id="a_node8"><a xlink:href="romans_battering_ram_full.html" xlink:title="Battering\nRam">
<ellipse fill="none" stroke="magenta" cx="1233.94" cy="-33.21" rx="60.21" ry="26.74"/>
<text text-anchor="middle" x="1233.94" y="-37.01" font-family="Times,serif" font-size="14.00" fill="#ebc72d">Battering</text>
<text text-anchor="middle" x="1233.94" y="-22.01" font-family="Times,serif" font-size="14.00" fill="#ebc72d">Ram</text>
</a>
</g>
</g>
<!-- gladiator -->
<g id="node11" class="node">
<title>gladiator</title>
<g id="a_node11"><a xlink:href="romans_gladiator_full.html" xlink:title="Gladiator">
<ellipse fill="none" stroke="magenta" cx="3009.94" cy="-33.21" rx="53.89" ry="18"/>
<text text-anchor="middle" x="3009.94" y="-29.51" font-family="Times,serif" font-size="14.00" fill="#ebc72d">Gladiator</text>
</a>
</g>
</g>
<!-- gladiator_school&#45;&gt;gladiator -->
<g id="edge26" class="edge">
<title>gladiator_school&#45;&gt;gladiator</title>
<path fill="none" stroke="#ebc72d" d="M3006.19,-113.15C3006.94,-97.42 3007.89,-77.47 3008.64,-61.55"/>
<polygon fill="#ebc72d" stroke="#ebc72d" points="3012.15,-61.44 3009.13,-51.29 3005.16,-61.11 3012.15,-61.44"/>
</g>
<!-- gladiator_school&#45;&gt;axe_man -->
<g id="edge25" class="edge">
<title>gladiator_school&#45;&gt;axe_man</title>
<path fill="none" stroke="#ebc72d" d="M2979.72,-113.15C2964.95,-97.77 2946.31,-78.35 2931.21,-62.62"/>
<polygon fill="#ebc72d" stroke="#ebc72d" points="2933.56,-60.02 2924.11,-55.23 2928.51,-64.86 2933.56,-60.02"/>
</g>
<!-- fire_archer -->
<g id="node10" class="node">
<title>fire_archer</title>
<g id="a_node10"><a xlink:href="romans_fire_archer_full.html" xlink:title="Fire\nArcher">
<ellipse fill="none" stroke="magenta" cx="2283.94" cy="-33.21" rx="45.92" ry="26.74"/>
<text text-anchor="middle" x="2283.94" y="-37.01" font-family="Times,serif" font-size="14.00" fill="#ebc72d">Fire</text>
<text text-anchor="middle" x="2283.94" y="-22.01" font-family="Times,serif" font-size="14.00" fill="#ebc72d">Archer</text>
</a>
</g>
</g>
<!-- tribune -->
<g id="node12" class="node">
<title>tribune</title>
<g id="a_node12"><a xlink:href="romans_tribune_full.html" xlink:title="Tribune">
<ellipse fill="none" stroke="magenta" cx="587.94" cy="-33.21" rx="46.59" ry="18"/>
<text text-anchor="middle" x="587.94" y="-29.51" font-family="Times,serif" font-size="14.00" fill="#ebc72d">Tribune</text>
</a>
</g>
</g>
<!-- cavalry&#45;&gt;tribune -->
<g id="edge20" class="edge">
<title>cavalry&#45;&gt;tribune</title>
<path fill="none" stroke="#ebc72d" stroke-dasharray="5,2" d="M829.01,-126.91C810.95,-119.66 787.7,-110.41 766.94,-102.43 724.02,-85.93 712.9,-82.83 669.94,-66.43 656.62,-61.34 642.12,-55.68 629.08,-50.55"/>
<polygon fill="#ebc72d" stroke="#ebc72d" points="630.01,-47.16 619.43,-46.74 627.45,-53.67 630.01,-47.16"/>
</g>
<!-- ballista -->
<g id="node16" class="node">
<title>ballista</title>
<g id="a_node16"><a xlink:href="romans_ballista_full.html" xlink:title="Ballista">
<ellipse fill="none" stroke="magenta" cx="724.94" cy="-33.21" rx="46.29" ry="18"/>
<text text-anchor="middle" x="724.94" y="-29.51" font-family="Times,serif" font-size="14.00" fill="#ebc72d">Ballista</text>
</a>
</g>
</g>
<!-- temple&#45;&gt;fire_archer -->
<g id="edge43" class="edge">
<title>temple&#45;&gt;fire_archer</title>
<path fill="none" stroke="#ebc72d" stroke-dasharray="1,5" d="M507.69,-240.76C573.64,-233.81 687.8,-222.21 785.94,-214.43 850.42,-209.31 1313,-214.12 1366.94,-178.43 1398.44,-157.59 1373.4,-123.2 1404.94,-102.43 1462.85,-64.29 1958.89,-72.76 2027.94,-66.43 2097.78,-60.02 2177.95,-49.4 2229.68,-42.12"/>
<polygon fill="#ebc72d" stroke="#ebc72d" points="2230.23,-45.58 2239.64,-40.71 2229.25,-38.65 2230.23,-45.58"/>
</g>
<!-- bless_of_minerva -->
<g id="node26" class="node">
<title>bless_of_minerva</title>
<g id="a_node26"><a xlink:href="romans_bless_of_minerva_full.html" xlink:title="Bless\nOf Minerva">
<polygon fill="none" stroke="green" points="553.57,-178.43 393.49,-178.43 352.31,-102.43 512.39,-102.43 553.57,-178.43"/>
<text text-anchor="middle" x="452.94" y="-144.23" font-family="Times,serif" font-size="14.00" fill="#ebc72d">Bless</text>
<text text-anchor="middle" x="452.94" y="-129.23" font-family="Times,serif" font-size="14.00" fill="#ebc72d">Of Minerva</text>
</a>
</g>
</g>
<!-- temple&#45;&gt;bless_of_minerva -->
<g id="edge42" class="edge">
<title>temple&#45;&gt;bless_of_minerva</title>
<path fill="none" stroke="#ebc72d" d="M452.94,-232.88C452.94,-221.64 452.94,-205.06 452.94,-189.08"/>
<polygon fill="#ebc72d" stroke="#ebc72d" points="456.44,-188.74 452.94,-178.74 449.44,-188.74 456.44,-188.74"/>
</g>
<!-- sign_of_mars -->
<g id="node32" class="node">
<title>sign_of_mars</title>
<g id="a_node32"><a xlink:href="romans_sign_of_mars_full.html" xlink:title="Sign\nOf Mars">
<polygon fill="none" stroke="green" points="295.88,-178.43 173.49,-178.43 142,-102.43 264.4,-102.43 295.88,-178.43"/>
<text text-anchor="middle" x="218.94" y="-144.23" font-family="Times,serif" font-size="14.00" fill="#ebc72d">Sign</text>
<text text-anchor="middle" x="218.94" y="-129.23" font-family="Times,serif" font-size="14.00" fill="#ebc72d">Of Mars</text>
</a>
</g>
</g>
<!-- temple&#45;&gt;sign_of_mars -->
<g id="edge45" class="edge">
<title>temple&#45;&gt;sign_of_mars</title>
<path fill="none" stroke="#ebc72d" d="M422.35,-232.88C392.4,-219.42 345.4,-198.28 304.11,-179.72"/>
<polygon fill="#ebc72d" stroke="#ebc72d" points="305.41,-176.47 294.85,-175.56 302.54,-182.85 305.41,-176.47"/>
</g>
<!-- jupiter -->
<g id="node34" class="node">
<title>jupiter</title>
<g id="a_node34"><a xlink:href="romans_jupiter_full.html" xlink:title="Jupiter">
<polygon fill="none" stroke="green" points="123.82,-158.43 25.38,-158.43 0.06,-122.43 98.5,-122.43 123.82,-158.43"/>
<text text-anchor="middle" x="61.94" y="-136.73" font-family="Times,serif" font-size="14.00" fill="#ebc72d">Jupiter</text>
</a>
</g>
</g>
<!-- temple&#45;&gt;jupiter -->
<g id="edge44" class="edge">
<title>temple&#45;&gt;jupiter</title>
<path fill="none" stroke="#ebc72d" d="M398.2,-239.57C333.47,-230.18 223.14,-210.86 132.94,-178.43 121.71,-174.39 110.03,-168.9 99.46,-163.38"/>
<polygon fill="#ebc72d" stroke="#ebc72d" points="100.96,-160.22 90.5,-158.57 97.65,-166.38 100.96,-160.22"/>
</g>
<!-- cow -->
<g id="node24" class="node">
<title>cow</title>
<g id="a_node24"><a xlink:href="romans_cow_full.html" xlink:title="Cow">
<ellipse fill="none" stroke="magenta" cx="3125.94" cy="-140.43" rx="30.59" ry="18"/>
<text text-anchor="middle" x="3125.94" y="-136.73" font-family="Times,serif" font-size="14.00" fill="#ebc72d">Cow</text>
</a>
</g>
</g>
<!-- forum&#45;&gt;cow -->
<g id="edge23" class="edge">
<title>forum&#45;&gt;cow</title>
<path fill="none" stroke="#ebc72d" d="M3017.15,-232.83C3035.49,-219.43 3063.69,-198.27 3086.94,-178.43 3092.47,-173.7 3098.25,-168.43 3103.61,-163.37"/>
<polygon fill="#ebc72d" stroke="#ebc72d" points="3106.29,-165.66 3111.1,-156.21 3101.45,-160.6 3106.29,-165.66"/>
</g>
<!-- archer&#45;&gt;fire_archer -->
<g id="edge4" class="edge">
<title>archer&#45;&gt;fire_archer</title>
<path fill="none" stroke="#ebc72d" stroke-dasharray="5,2" d="M2463.11,-124.65C2452.75,-117.56 2439.92,-109.18 2427.94,-102.43 2396,-84.43 2358.54,-66.79 2329.84,-53.95"/>
<polygon fill="#ebc72d" stroke="#ebc72d" points="2331.02,-50.65 2320.46,-49.79 2328.18,-57.05 2331.02,-50.65"/>
</g>
<!-- blacksmith_shop&#45;&gt;eagle_pillar -->
<g id="edge6" class="edge">
<title>blacksmith_shop&#45;&gt;eagle_pillar</title>
<path fill="none" stroke="#ebc72d" stroke-dasharray="1,5" d="M1418.09,-244.71C1291.18,-240.27 1057.99,-225.74 990.94,-178.43 975.84,-167.77 982.27,-156.75 971.94,-141.43"/>
</g>
<!-- blacksmith_shop&#45;&gt;guard_tower -->
<g id="edge10" class="edge">
<title>blacksmith_shop&#45;&gt;guard_tower</title>
<path fill="none" stroke="#ebc72d" stroke-dasharray="1,5" d="M1586.18,-245.37C1701.04,-241.77 1898.14,-228.27 1946.94,-178.43 1973.33,-151.48 1975.39,-106.9 1972.54,-74.42"/>
<polygon fill="#ebc72d" stroke="#ebc72d" points="1976,-73.91 1971.46,-64.34 1969.04,-74.66 1976,-73.91"/>
</g>
<!-- blacksmith_shop&#45;&gt;gladiator_school -->
<g id="edge9" class="edge">
<title>blacksmith_shop&#45;&gt;gladiator_school</title>
<path fill="none" stroke="#ebc72d" stroke-dasharray="1,5" d="M1585.74,-243.73C1865.59,-233.83 2757.46,-200.86 2884.94,-178.43 2905.88,-174.74 2928.28,-168.49 2947.99,-162.17"/>
<polygon fill="#ebc72d" stroke="#ebc72d" points="2949.32,-165.42 2957.73,-158.97 2947.14,-158.77 2949.32,-165.42"/>
</g>
<!-- blacksmith_shop&#45;&gt;turtle_formation -->
<g id="edge15" class="edge">
<title>blacksmith_shop&#45;&gt;turtle_formation</title>
<path fill="none" stroke="#ebc72d" stroke-dasharray="1,5" d="M1417.89,-241.83C1151.88,-226.59 345.76,-180.26 342.94,-178.43 327.45,-168.33 329.13,-159.17 323.94,-141.43"/>
</g>
<!-- blacksmith_shop&#45;&gt;cavalry -->
<g id="edge5" class="edge">
<title>blacksmith_shop&#45;&gt;cavalry</title>
<path fill="none" stroke="#ebc72d" stroke-dasharray="1,5" d="M1418.03,-241.29C1279.64,-231.72 1009.91,-209.71 919.94,-178.43 908.97,-174.61 897.88,-168.54 888.27,-162.4"/>
<polygon fill="#ebc72d" stroke="#ebc72d" points="890.17,-159.46 879.91,-156.82 886.28,-165.28 890.17,-159.46"/>
</g>
<!-- blacksmith_shop&#45;&gt;general -->
<g id="edge8" class="edge">
<title>blacksmith_shop&#45;&gt;general</title>
<path fill="none" stroke="#ebc72d" stroke-dasharray="1,5" d="M1418.12,-245.17C1284.65,-241.35 1031.38,-227.63 957.94,-178.43 925.7,-156.82 938.06,-133.6 914.94,-102.43 902.89,-86.17 887.3,-69.7 874.41,-57.01"/>
<polygon fill="#ebc72d" stroke="#ebc72d" points="876.8,-54.45 867.19,-50.01 871.93,-59.48 876.8,-54.45"/>
</g>
<!-- blacksmith_shop&#45;&gt;wartime_mechanic -->
<g id="edge16" class="edge">
<title>blacksmith_shop&#45;&gt;wartime_mechanic</title>
<path fill="none" stroke="#ebc72d" stroke-dasharray="1,5" d="M1417.81,-238.81C1340.93,-229.91 1224.94,-212.01 1128.94,-178.43 1120.46,-175.46 1111.75,-171.56 1103.51,-167.4"/>
<polygon fill="#ebc72d" stroke="#ebc72d" points="1104.91,-164.18 1094.43,-162.63 1101.66,-170.38 1104.91,-164.18"/>
</g>
<!-- blacksmith_shop&#45;&gt;swordsman -->
<g id="edge14" class="edge">
<title>blacksmith_shop&#45;&gt;swordsman</title>
<path fill="none" stroke="#ebc72d" stroke-dasharray="1,5" d="M1585.86,-244.47C1718.89,-239.71 1985.79,-224.74 2206.94,-178.43 2229.51,-173.7 2253.9,-166.05 2274.23,-158.93"/>
<polygon fill="#ebc72d" stroke="#ebc72d" points="2275.61,-162.15 2283.85,-155.5 2273.26,-155.56 2275.61,-162.15"/>
</g>
<!-- enlarge_shields -->
<g id="node27" class="node">
<title>enlarge_shields</title>
<g id="a_node27"><a xlink:href="romans_enlarge_shields_full.html" xlink:title="Enlarge\nShields">
<polygon fill="none" stroke="green" points="1759.81,-178.43 1639.12,-178.43 1608.07,-102.43 1728.76,-102.43 1759.81,-178.43"/>
<text text-anchor="middle" x="1683.94" y="-144.23" font-family="Times,serif" font-size="14.00" fill="#ebc72d">Enlarge</text>
<text text-anchor="middle" x="1683.94" y="-129.23" font-family="Times,serif" font-size="14.00" fill="#ebc72d">Shields</text>
</a>
</g>
</g>
<!-- blacksmith_shop&#45;&gt;enlarge_shields -->
<g id="edge7" class="edge">
<title>blacksmith_shop&#45;&gt;enlarge_shields</title>
<path fill="none" stroke="#ebc72d" d="M1547.4,-220.36C1571.32,-206.53 1600.9,-189.43 1626.41,-174.69"/>
<polygon fill="#ebc72d" stroke="#ebc72d" points="1628.34,-177.61 1635.24,-169.58 1624.83,-171.55 1628.34,-177.61"/>
</g>
<!-- sharpen_points -->
<g id="node28" class="node">
<title>sharpen_points</title>
<g id="a_node28"><a xlink:href="romans_sharpen_points_full.html" xlink:title="Sharpen\nPoints">
<polygon fill="none" stroke="green" points="1937.6,-178.43 1810.88,-178.43 1778.28,-102.43 1905,-102.43 1937.6,-178.43"/>
<text text-anchor="middle" x="1857.94" y="-144.23" font-family="Times,serif" font-size="14.00" fill="#ebc72d">Sharpen</text>
<text text-anchor="middle" x="1857.94" y="-129.23" font-family="Times,serif" font-size="14.00" fill="#ebc72d">Points</text>
</a>
</g>
</g>
<!-- blacksmith_shop&#45;&gt;sharpen_points -->
<g id="edge12" class="edge">
<title>blacksmith_shop&#45;&gt;sharpen_points</title>
<path fill="none" stroke="#ebc72d" d="M1585.82,-228.48C1638.87,-216.19 1708.58,-198.57 1768.94,-178.43 1777.57,-175.55 1786.54,-172.22 1795.33,-168.77"/>
<polygon fill="#ebc72d" stroke="#ebc72d" points="1796.78,-171.96 1804.76,-165 1794.18,-165.46 1796.78,-171.96"/>
</g>
<!-- reinforce_armor -->
<g id="node33" class="node">
<title>reinforce_armor</title>
<g id="a_node33"><a xlink:href="romans_reinforce_armor_full.html" xlink:title="Reinforce\nArmor">
<polygon fill="none" stroke="green" points="1590.19,-178.43 1449.81,-178.43 1413.69,-102.43 1554.08,-102.43 1590.19,-178.43"/>
<text text-anchor="middle" x="1501.94" y="-144.23" font-family="Times,serif" font-size="14.00" fill="#ebc72d">Reinforce</text>
<text text-anchor="middle" x="1501.94" y="-129.23" font-family="Times,serif" font-size="14.00" fill="#ebc72d">Armor</text>
</a>
</g>
</g>
<!-- blacksmith_shop&#45;&gt;reinforce_armor -->
<g id="edge11" class="edge">
<title>blacksmith_shop&#45;&gt;reinforce_armor</title>
<path fill="none" stroke="#ebc72d" d="M1501.94,-220.36C1501.94,-210.77 1501.94,-199.6 1501.94,-188.74"/>
<polygon fill="#ebc72d" stroke="#ebc72d" points="1505.44,-188.47 1501.94,-178.47 1498.44,-188.47 1505.44,-188.47"/>
</g>
<!-- strengthen_swords -->
<g id="node35" class="node">
<title>strengthen_swords</title>
<g id="a_node35"><a xlink:href="romans_strengthen_swords_full.html" xlink:title="Strengthen\nSwords">
<polygon fill="none" stroke="green" points="2197.64,-178.43 2035.86,-178.43 1994.24,-102.43 2156.03,-102.43 2197.64,-178.43"/>
<text text-anchor="middle" x="2095.94" y="-144.23" font-family="Times,serif" font-size="14.00" fill="#ebc72d">Strengthen</text>
<text text-anchor="middle" x="2095.94" y="-129.23" font-family="Times,serif" font-size="14.00" fill="#ebc72d">Swords</text>
</a>
</g>
</g>
<!-- blacksmith_shop&#45;&gt;strengthen_swords -->
<g id="edge13" class="edge">
<title>blacksmith_shop&#45;&gt;strengthen_swords</title>
<path fill="none" stroke="#ebc72d" d="M1586.04,-238.93C1682.13,-229.14 1843.69,-209.65 1979.94,-178.43 1992.58,-175.53 2005.83,-171.9 2018.66,-168.04"/>
<polygon fill="#ebc72d" stroke="#ebc72d" points="2019.85,-171.34 2028.38,-165.07 2017.79,-164.65 2019.85,-171.34"/>
</g>
<!-- wartime_mechanic&#45;&gt;catapult -->
<g id="edge56" class="edge">
<title>wartime_mechanic&#45;&gt;catapult</title>
<path fill="none" stroke="#ebc72d" stroke-dasharray="5,2" d="M1067.52,-113.69C1072.23,-97.72 1078.27,-77.23 1083.03,-61.06"/>
<polygon fill="#ebc72d" stroke="#ebc72d" points="1086.48,-61.73 1085.95,-51.15 1079.77,-59.75 1086.48,-61.73"/>
</g>
<!-- wartime_mechanic&#45;&gt;battering_ram -->
<g id="edge55" class="edge">
<title>wartime_mechanic&#45;&gt;battering_ram</title>
<path fill="none" stroke="#ebc72d" stroke-dasharray="5,2" d="M1094.73,-118.39C1122.24,-101.76 1160.78,-78.45 1190.34,-60.57"/>
<polygon fill="#ebc72d" stroke="#ebc72d" points="1192.46,-63.38 1199.21,-55.22 1188.84,-57.39 1192.46,-63.38"/>
</g>
<!-- wartime_mechanic&#45;&gt;ballista -->
<g id="edge54" class="edge">
<title>wartime_mechanic&#45;&gt;ballista</title>
<path fill="none" stroke="#ebc72d" stroke-dasharray="5,2" d="M1008.43,-126.4C942.82,-109.61 833.21,-80.86 793.94,-66.43 783.02,-62.41 771.44,-57.35 760.96,-52.43"/>
<polygon fill="#ebc72d" stroke="#ebc72d" points="762.22,-49.15 751.69,-47.99 759.2,-55.47 762.22,-49.15"/>
</g>
<!-- bless_of_minerva&#45;&gt;tribune -->
<g id="edge18" class="edge">
<title>bless_of_minerva&#45;&gt;tribune</title>
<path fill="none" stroke="#ebc72d" stroke-dasharray="1,5" d="M500.54,-102.33C520.5,-86.77 543.01,-69.23 560.19,-55.84"/>
<polygon fill="#ebc72d" stroke="#ebc72d" points="562.42,-58.54 568.16,-49.63 558.12,-53.02 562.42,-58.54"/>
</g>
<!-- bless_of_minerva&#45;&gt;turtle_formation -->
<g id="edge19" class="edge">
<title>bless_of_minerva&#45;&gt;turtle_formation</title>
<path fill="none" stroke="#ebc72d" stroke-dasharray="1,5" d="M452.94,-102.33C452.94,-91.86 452.94,-80.49 452.94,-70.09"/>
<polygon fill="#ebc72d" stroke="#ebc72d" points="456.44,-70.08 452.94,-60.08 449.44,-70.08 456.44,-70.08"/>
</g>
<!-- bless_of_minerva&#45;&gt;ballista -->
<g id="edge17" class="edge">
<title>bless_of_minerva&#45;&gt;ballista</title>
<path fill="none" stroke="#ebc72d" stroke-dasharray="1,5" d="M519.32,-114.31C556.09,-100.33 602.6,-82.55 643.94,-66.43 657.09,-61.3 671.4,-55.64 684.29,-50.5"/>
<polygon fill="#ebc72d" stroke="#ebc72d" points="685.83,-53.66 693.82,-46.7 683.24,-47.16 685.83,-53.66"/>
</g>
<!-- advanced_architecture&#45;&gt;eagle_pillar -->
<g id="edge2" class="edge">
<title>advanced_architecture&#45;&gt;eagle_pillar</title>
<path fill="none" stroke="#ebc72d" stroke-dasharray="1,5" d="M1139.43,-104.87C1096.01,-90.63 1051.47,-75.4 1030.94,-66.43 1024.69,-63.69 1018.22,-60.53 1011.95,-57.27"/>
<polygon fill="#ebc72d" stroke="#ebc72d" points="1013.44,-54.1 1002.97,-52.48 1010.14,-60.27 1013.44,-54.1"/>
</g>
<!-- advanced_architecture&#45;&gt;guard_tower -->
<g id="edge3" class="edge">
<title>advanced_architecture&#45;&gt;guard_tower</title>
<path fill="none" stroke="#ebc72d" stroke-dasharray="1,5" d="M1320.51,-115.45C1337.26,-110.57 1355.1,-105.88 1371.94,-102.43 1562.81,-63.31 1793.1,-44.88 1902.41,-37.84"/>
<polygon fill="#ebc72d" stroke="#ebc72d" points="1902.85,-41.31 1912.6,-37.19 1902.4,-34.33 1902.85,-41.31"/>
</g>
<!-- advanced_architecture&#45;&gt;battering_ram -->
<g id="edge1" class="edge">
<title>advanced_architecture&#45;&gt;battering_ram</title>
<path fill="none" stroke="#ebc72d" stroke-dasharray="1,5" d="M1243.01,-102.33C1241.61,-91.86 1240.1,-80.49 1238.71,-70.09"/>
<polygon fill="#ebc72d" stroke="#ebc72d" points="1242.17,-69.53 1237.38,-60.08 1235.23,-70.46 1242.17,-69.53"/>
</g>
<!-- formations&#45;&gt;turtle_formation -->
<g id="edge22" class="edge">
<title>formations&#45;&gt;turtle_formation</title>
<path fill="none" stroke="#ebc72d" stroke-dasharray="1,5" d="M630.41,-122.29C595.65,-105.04 541.7,-78.26 502.4,-58.76"/>
<polygon fill="#ebc72d" stroke="#ebc72d" points="503.77,-55.53 493.25,-54.22 500.65,-61.8 503.77,-55.53"/>
</g>
<!-- formations&#45;&gt;general -->
<g id="edge21" class="edge">
<title>formations&#45;&gt;general</title>
<path fill="none" stroke="#ebc72d" stroke-dasharray="1,5" d="M695.08,-122.29C728.16,-103.47 781.17,-73.33 815.77,-53.65"/>
<polygon fill="#ebc72d" stroke="#ebc72d" points="817.62,-56.62 824.58,-48.64 814.16,-50.54 817.62,-56.62"/>
</g>
<!-- strengthen_swords&#45;&gt;guard -->
<g id="edge41" class="edge">
<title>strengthen_swords&#45;&gt;guard</title>
<path fill="none" stroke="#ebc72d" stroke-dasharray="1,5" d="M2166.75,-121.62C2191.47,-115.46 2219.42,-108.57 2244.94,-102.43 2332.84,-81.28 2435.84,-57.54 2493.32,-44.39"/>
<polygon fill="#ebc72d" stroke="#ebc72d" points="2494.2,-47.78 2503.17,-42.13 2492.64,-40.95 2494.2,-47.78"/>
</g>
</g>
</svg>
