<?xml version="1.0" encoding="UTF-8" standalone="no"?>
<!DOCTYPE svg PUBLIC "-//W3C//DTD SVG 1.1//EN"
 "http://www.w3.org/Graphics/SVG/1.1/DTD/svg11.dtd">
<!-- Generated by graphviz version 2.49.3 (0)
 -->
<!-- Title: test Pages: 1 -->
<svg width="514pt" height="249pt"
 viewBox="0.00 0.00 513.98 248.85" xmlns="http://www.w3.org/2000/svg" xmlns:xlink="http://www.w3.org/1999/xlink">
<g id="graph0" class="graph" transform="scale(1 1) rotate(0) translate(4 244.85)">
<title>test</title>
<polygon fill="#151515" stroke="transparent" points="-4,4 -4,-244.85 509.98,-244.85 509.98,4 -4,4"/>
<!-- training_camp -->
<g id="node1" class="node">
<title>training_camp</title>
<g id="a_node1"><a xlink:href="romans_training_camp_full.html" xlink:title="Training\nCamp">
<polygon fill="none" stroke="red" points="134.4,-145.97 67.3,-169.07 0.2,-145.97 0.26,-108.6 134.34,-108.6 134.4,-145.97"/>
<text text-anchor="middle" x="67.3" y="-139.44" font-family="Times,serif" font-size="14.00" fill="#ebc72d">Training</text>
<text text-anchor="middle" x="67.3" y="-124.44" font-family="Times,serif" font-size="14.00" fill="#ebc72d">Camp</text>
</a>
</g>
</g>
<!-- eagle_pillar -->
<g id="node2" class="node">
<title>eagle_pillar</title>
<g id="a_node2"><a xlink:href="romans_eagle_pillar_full.html" xlink:title="Eagle\nPillar">
<polygon fill="none" stroke="red" points="488.94,-43.54 439.3,-66.64 389.66,-43.54 389.71,-6.17 488.89,-6.17 488.94,-43.54"/>
<text text-anchor="middle" x="439.3" y="-37.01" font-family="Times,serif" font-size="14.00" fill="#ebc72d">Eagle</text>
<text text-anchor="middle" x="439.3" y="-22.01" font-family="Times,serif" font-size="14.00" fill="#ebc72d">Pillar</text>
</a>
</g>
</g>
<!-- military_camp -->
<g id="node3" class="node">
<title>military_camp</title>
<g id="a_node3"><a xlink:href="romans_military_camp_full.html" xlink:title="Military\nCamp">
<polygon fill="none" stroke="red" points="506.16,-145.97 441.3,-169.07 376.44,-145.97 376.5,-108.6 506.1,-108.6 506.16,-145.97"/>
<text text-anchor="middle" x="441.3" y="-139.44" font-family="Times,serif" font-size="14.00" fill="#ebc72d">Military</text>
<text text-anchor="middle" x="441.3" y="-124.44" font-family="Times,serif" font-size="14.00" fill="#ebc72d">Camp</text>
</a>
</g>
</g>
<!-- military_camp&#45;&gt;eagle_pillar -->
<g id="edge7" class="edge">
<title>military_camp&#45;&gt;eagle_pillar</title>
<path fill="none" stroke="#ebc72d" stroke-dasharray="1,5" d="M440.78,-108.52C440.59,-98.83 440.36,-87.57 440.15,-76.79"/>
<polygon fill="#ebc72d" stroke="#ebc72d" points="443.65,-76.6 439.95,-66.67 436.65,-76.74 443.65,-76.6"/>
</g>
<!-- guard_tower -->
<g id="node4" class="node">
<title>guard_tower</title>
<g id="a_node4"><a xlink:href="romans_guard_tower_full.html" xlink:title="Guard\nTower">
<polygon fill="none" stroke="red" points="369.43,-43.54 316.3,-66.64 263.17,-43.54 263.22,-6.17 369.38,-6.17 369.43,-43.54"/>
<text text-anchor="middle" x="316.3" y="-37.01" font-family="Times,serif" font-size="14.00" fill="#ebc72d">Guard</text>
<text text-anchor="middle" x="316.3" y="-22.01" font-family="Times,serif" font-size="14.00" fill="#ebc72d">Tower</text>
</a>
</g>
</g>
<!-- military_camp&#45;&gt;guard_tower -->
<g id="edge8" class="edge">
<title>military_camp&#45;&gt;guard_tower</title>
<path fill="none" stroke="#ebc72d" stroke-dasharray="1,5" d="M408.78,-108.52C390.97,-94.2 368.89,-76.47 350.78,-61.91"/>
<polygon fill="#ebc72d" stroke="#ebc72d" points="352.75,-59.01 342.76,-55.47 348.37,-64.47 352.75,-59.01"/>
</g>
<!-- gladiator_school -->
<g id="node5" class="node">
<title>gladiator_school</title>
<g id="a_node5"><a xlink:href="romans_gladiator_school_full.html" xlink:title="Gladiator\nSchool">
<polygon fill="none" stroke="red" points="241.89,-43.54 169.3,-66.64 96.71,-43.54 96.78,-6.17 241.82,-6.17 241.89,-43.54"/>
<text text-anchor="middle" x="169.3" y="-37.01" font-family="Times,serif" font-size="14.00" fill="#ebc72d">Gladiator</text>
<text text-anchor="middle" x="169.3" y="-22.01" font-family="Times,serif" font-size="14.00" fill="#ebc72d">School</text>
</a>
</g>
</g>
<!-- temple -->
<g id="node6" class="node">
<title>temple</title>
<g id="a_node6"><a xlink:href="romans_temple_full.html" xlink:title="Temple">
<polygon fill="none" stroke="red" points="340.06,-228.42 285.3,-240.85 230.54,-228.42 230.59,-208.29 340.01,-208.29 340.06,-228.42"/>
<text text-anchor="middle" x="285.3" y="-219.15" font-family="Times,serif" font-size="14.00" fill="#ebc72d">Temple</text>
</a>
</g>
</g>
<!-- forum -->
<g id="node7" class="node">
<title>forum</title>
<g id="a_node7"><a xlink:href="romans_forum_full.html" xlink:title="Forum">
<polygon fill="none" stroke="red" points="213.03,-228.42 162.3,-240.85 111.58,-228.42 111.62,-208.29 212.98,-208.29 213.03,-228.42"/>
<text text-anchor="middle" x="162.3" y="-219.15" font-family="Times,serif" font-size="14.00" fill="#ebc72d">Forum</text>
</a>
</g>
</g>
<!-- forum&#45;&gt;training_camp -->
<g id="edge6" class="edge">
<title>forum&#45;&gt;training_camp</title>
<path fill="none" stroke="#ebc72d" stroke-dasharray="1,5" d="M147.04,-208.16C134.69,-197.08 116.83,-181.07 101.15,-167"/>
<polygon fill="#ebc72d" stroke="#ebc72d" points="103.44,-164.35 93.65,-160.28 98.76,-169.56 103.44,-164.35"/>
</g>
<!-- forum&#45;&gt;gladiator_school -->
<g id="edge5" class="edge">
<title>forum&#45;&gt;gladiator_school</title>
<path fill="none" stroke="#ebc72d" stroke-dasharray="1,5" d="M162.82,-208.06C163.83,-180.75 166.14,-118.82 167.71,-76.75"/>
<polygon fill="#ebc72d" stroke="#ebc72d" points="171.22,-76.64 168.1,-66.51 164.22,-76.38 171.22,-76.64"/>
</g>
<!-- blacksmith_shop -->
<g id="node8" class="node">
<title>blacksmith_shop</title>
<g id="a_node8"><a xlink:href="romans_blacksmith_shop_full.html" xlink:title="Blacksmith\nShop">
<polygon fill="none" stroke="red" points="358.11,-145.97 274.3,-169.07 190.49,-145.97 190.56,-108.6 358.04,-108.6 358.11,-145.97"/>
<text text-anchor="middle" x="274.3" y="-139.44" font-family="Times,serif" font-size="14.00" fill="#ebc72d">Blacksmith</text>
<text text-anchor="middle" x="274.3" y="-124.44" font-family="Times,serif" font-size="14.00" fill="#ebc72d">Shop</text>
</a>
</g>
</g>
<!-- forum&#45;&gt;blacksmith_shop -->
<g id="edge4" class="edge">
<title>forum&#45;&gt;blacksmith_shop</title>
<path fill="none" stroke="#ebc72d" stroke-dasharray="1,5" d="M180.3,-208.16C194.95,-197.01 216.17,-180.87 234.74,-166.74"/>
<polygon fill="#ebc72d" stroke="#ebc72d" points="236.95,-169.46 242.79,-160.62 232.71,-163.89 236.95,-169.46"/>
</g>
<!-- blacksmith_shop&#45;&gt;eagle_pillar -->
<g id="edge1" class="edge">
<title>blacksmith_shop&#45;&gt;eagle_pillar</title>
<path fill="none" stroke="#ebc72d" stroke-dasharray="1,5" d="M317.22,-108.52C342.9,-92.88 375.29,-73.17 400.26,-57.98"/>
<polygon fill="#ebc72d" stroke="#ebc72d" points="402.37,-60.79 409.09,-52.6 398.73,-54.81 402.37,-60.79"/>
</g>
<!-- blacksmith_shop&#45;&gt;guard_tower -->
<g id="edge3" class="edge">
<title>blacksmith_shop&#45;&gt;guard_tower</title>
<path fill="none" stroke="#ebc72d" stroke-dasharray="1,5" d="M285.23,-108.52C289.94,-97.23 295.55,-83.83 300.69,-71.53"/>
<polygon fill="#ebc72d" stroke="#ebc72d" points="304.07,-72.54 304.69,-61.96 297.61,-69.84 304.07,-72.54"/>
</g>
<!-- blacksmith_shop&#45;&gt;gladiator_school -->
<g id="edge2" class="edge">
<title>blacksmith_shop&#45;&gt;gladiator_school</title>
<path fill="none" stroke="#ebc72d" stroke-dasharray="1,5" d="M246.99,-108.52C233.33,-95.45 216.68,-79.53 202.31,-65.79"/>
<polygon fill="#ebc72d" stroke="#ebc72d" points="204.68,-63.21 195.03,-58.82 199.84,-68.27 204.68,-63.21"/>
</g>
</g>
</svg>
