<?xml version="1.0" encoding="UTF-8" standalone="no"?>
<!DOCTYPE svg PUBLIC "-//W3C//DTD SVG 1.1//EN"
 "http://www.w3.org/Graphics/SVG/1.1/DTD/svg11.dtd">
<!-- Generated by graphviz version 2.49.3 (0)
 -->
<!-- Title: test Pages: 1 -->
<svg width="388pt" height="495pt"
 viewBox="0.00 0.00 388.15 495.28" xmlns="http://www.w3.org/2000/svg" xmlns:xlink="http://www.w3.org/1999/xlink">
<g id="graph0" class="graph" transform="scale(1 1) rotate(0) translate(4 491.28)">
<title>test</title>
<polygon fill="#151515" stroke="transparent" points="-4,4 -4,-491.28 384.15,-491.28 384.15,4 -4,4"/>
<!-- main_teepee -->
<g id="node1" class="node">
<title>main_teepee</title>
<g id="a_node1"><a xlink:href="indian_main_teepee_full.html" xlink:title="Main\nTeepee">
<polygon fill="none" stroke="red" points="221.2,-464.4 162.58,-487.49 103.96,-464.4 104.01,-427.02 221.14,-427.02 221.2,-464.4"/>
<text text-anchor="middle" x="162.58" y="-457.87" font-family="Times,serif" font-size="14.00" fill="#ebc72d">Main</text>
<text text-anchor="middle" x="162.58" y="-442.87" font-family="Times,serif" font-size="14.00" fill="#ebc72d">Teepee</text>
</a>
</g>
</g>
<!-- reed -->
<g id="node3" class="node">
<title>reed</title>
<g id="a_node3"><a xlink:href="indian_reed_full.html" xlink:title="Reed">
<polygon fill="none" stroke="red" points="85.24,-95.56 42.58,-108 -0.08,-95.56 -0.04,-75.44 85.2,-75.44 85.24,-95.56"/>
<text text-anchor="middle" x="42.58" y="-86.3" font-family="Times,serif" font-size="14.00" fill="#ebc72d">Reed</text>
</a>
</g>
</g>
<!-- main_teepee&#45;&gt;reed -->
<g id="edge4" class="edge">
<title>main_teepee&#45;&gt;reed</title>
<path fill="none" stroke="#ebc72d" stroke-dasharray="1,5" d="M143.22,-426.95C134.2,-414.42 123.5,-399.08 114.58,-384.85 95.13,-353.84 86.27,-347.54 74.58,-312.85 51.76,-245.18 45.21,-160.52 43.33,-118"/>
<polygon fill="#ebc72d" stroke="#ebc72d" points="46.83,-117.76 42.94,-107.9 39.83,-118.03 46.83,-117.76"/>
</g>
<!-- tent -->
<g id="node4" class="node">
<title>tent</title>
<g id="a_node4"><a xlink:href="indian_tent_full.html" xlink:title="Tent">
<polygon fill="none" stroke="red" points="201.2,-372.42 162.58,-384.85 123.95,-372.42 123.99,-352.29 201.17,-352.29 201.2,-372.42"/>
<text text-anchor="middle" x="162.58" y="-363.15" font-family="Times,serif" font-size="14.00" fill="#ebc72d">Tent</text>
</a>
</g>
</g>
<!-- main_teepee&#45;&gt;tent -->
<g id="edge5" class="edge">
<title>main_teepee&#45;&gt;tent</title>
<path fill="none" stroke="#ebc72d" stroke-dasharray="1,5" d="M162.58,-426.57C162.58,-416.6 162.58,-405.24 162.58,-395.19"/>
<polygon fill="#ebc72d" stroke="#ebc72d" points="166.08,-394.93 162.58,-384.93 159.08,-394.93 166.08,-394.93"/>
</g>
<!-- big_tent -->
<g id="node6" class="node">
<title>big_tent</title>
<g id="a_node6"><a xlink:href="indian_big_tent_full.html" xlink:title="Big\nTent">
<polygon fill="none" stroke="red" points="318.49,-289.97 276.58,-313.07 234.67,-289.97 234.71,-252.6 318.45,-252.6 318.49,-289.97"/>
<text text-anchor="middle" x="276.58" y="-283.44" font-family="Times,serif" font-size="14.00" fill="#ebc72d">Big</text>
<text text-anchor="middle" x="276.58" y="-268.44" font-family="Times,serif" font-size="14.00" fill="#ebc72d">Tent</text>
</a>
</g>
</g>
<!-- main_teepee&#45;&gt;big_tent -->
<g id="edge2" class="edge">
<title>main_teepee&#45;&gt;big_tent</title>
<path fill="none" stroke="#ebc72d" stroke-dasharray="1,5" d="M221.19,-446.63C267.46,-437.83 327.32,-417.02 346.58,-367.85"/>
<path fill="none" stroke="#ebc72d" stroke-dasharray="1,5" d="M346.58,-365.85C356.13,-341.46 335.47,-318.8 314.17,-302.98"/>
<polygon fill="#ebc72d" stroke="#ebc72d" points="315.92,-299.94 305.72,-297.06 311.9,-305.67 315.92,-299.94"/>
</g>
<!-- horse_farm -->
<g id="node8" class="node">
<title>horse_farm</title>
<g id="a_node8"><a xlink:href="indian_horse_farm_full.html" xlink:title="Horse\nFarm">
<polygon fill="none" stroke="red" points="380.21,-187.54 328.58,-210.64 276.94,-187.54 276.99,-150.17 380.17,-150.17 380.21,-187.54"/>
<text text-anchor="middle" x="328.58" y="-181.01" font-family="Times,serif" font-size="14.00" fill="#ebc72d">Horse</text>
<text text-anchor="middle" x="328.58" y="-166.01" font-family="Times,serif" font-size="14.00" fill="#ebc72d">Farm</text>
</a>
</g>
</g>
<!-- main_teepee&#45;&gt;horse_farm -->
<g id="edge3" class="edge">
<title>main_teepee&#45;&gt;horse_farm</title>
<path fill="none" stroke="#ebc72d" stroke-dasharray="1,5" d="M346.58,-365.85C365.8,-316.76 353.7,-255.15 342.09,-216.21"/>
<polygon fill="#ebc72d" stroke="#ebc72d" points="345.33,-214.85 339.01,-206.34 338.65,-216.93 345.33,-214.85"/>
</g>
<!-- beehive -->
<g id="node2" class="node">
<title>beehive</title>
<g id="a_node2"><a xlink:href="indian_beehive_full.html" xlink:title="Beehive">
<polygon fill="none" stroke="red" points="156.98,-23.56 97.58,-36 38.18,-23.56 38.23,-3.44 156.92,-3.44 156.98,-23.56"/>
<text text-anchor="middle" x="97.58" y="-14.3" font-family="Times,serif" font-size="14.00" fill="#ebc72d">Beehive</text>
</a>
</g>
</g>
<!-- reed&#45;&gt;beehive -->
<g id="edge6" class="edge">
<title>reed&#45;&gt;beehive</title>
<path fill="none" stroke="#ebc72d" stroke-dasharray="1,5" d="M53.44,-75.17C60.93,-65.65 71.05,-52.77 79.71,-41.75"/>
<polygon fill="#ebc72d" stroke="#ebc72d" points="82.55,-43.79 85.98,-33.77 77.05,-39.47 82.55,-43.79"/>
</g>
<!-- totem -->
<g id="node5" class="node">
<title>totem</title>
<g id="a_node5"><a xlink:href="indian_totem_full.html" xlink:title="Totem">
<polygon fill="none" stroke="red" points="202.2,-95.56 152.58,-108 102.96,-95.56 103.01,-75.44 202.15,-75.44 202.2,-95.56"/>
<text text-anchor="middle" x="152.58" y="-86.3" font-family="Times,serif" font-size="14.00" fill="#ebc72d">Totem</text>
</a>
</g>
</g>
<!-- tent&#45;&gt;totem -->
<g id="edge11" class="edge">
<title>tent&#45;&gt;totem</title>
<path fill="none" stroke="#ebc72d" stroke-dasharray="1,5" d="M137.52,-352.22C123.54,-343.1 107.42,-329.7 99.58,-312.85 67.91,-244.82 70.86,-213.33 99.58,-144 105.13,-130.59 115.91,-118.8 126.31,-109.77"/>
<polygon fill="#ebc72d" stroke="#ebc72d" points="128.55,-112.45 134.09,-103.42 124.13,-107.03 128.55,-112.45"/>
</g>
<!-- tent&#45;&gt;big_tent -->
<g id="edge9" class="edge">
<title>tent&#45;&gt;big_tent</title>
<path fill="none" stroke="#ebc72d" stroke-dasharray="1,5" d="M180.89,-352.16C197.71,-339.59 223.03,-320.66 243.41,-305.44"/>
<polygon fill="#ebc72d" stroke="#ebc72d" points="245.59,-308.17 251.51,-299.38 241.4,-302.56 245.59,-308.17"/>
</g>
<!-- round_tent -->
<g id="node9" class="node">
<title>round_tent</title>
<g id="a_node9"><a xlink:href="indian_round_tent_full.html" xlink:title="Round\nTent">
<polygon fill="none" stroke="red" points="216.96,-289.97 162.58,-313.07 108.2,-289.97 108.25,-252.6 216.91,-252.6 216.96,-289.97"/>
<text text-anchor="middle" x="162.58" y="-283.44" font-family="Times,serif" font-size="14.00" fill="#ebc72d">Round</text>
<text text-anchor="middle" x="162.58" y="-268.44" font-family="Times,serif" font-size="14.00" fill="#ebc72d">Tent</text>
</a>
</g>
</g>
<!-- tent&#45;&gt;round_tent -->
<g id="edge10" class="edge">
<title>tent&#45;&gt;round_tent</title>
<path fill="none" stroke="#ebc72d" stroke-dasharray="1,5" d="M162.58,-352.16C162.58,-344.18 162.58,-333.62 162.58,-323.08"/>
<polygon fill="#ebc72d" stroke="#ebc72d" points="166.08,-323.07 162.58,-313.07 159.08,-323.07 166.08,-323.07"/>
</g>
<!-- totem&#45;&gt;beehive -->
<g id="edge12" class="edge">
<title>totem&#45;&gt;beehive</title>
<path fill="none" stroke="#ebc72d" stroke-dasharray="1,5" d="M141.71,-75.17C134.23,-65.65 124.11,-52.77 115.45,-41.75"/>
<polygon fill="#ebc72d" stroke="#ebc72d" points="118.11,-39.47 109.18,-33.77 112.61,-43.79 118.11,-39.47"/>
</g>
<!-- campfire -->
<g id="node7" class="node">
<title>campfire</title>
<g id="a_node7"><a xlink:href="indian_campfire_full.html" xlink:title="Campfire">
<polygon fill="none" stroke="red" points="242.44,-182.78 175.58,-195.21 108.72,-182.78 108.78,-162.65 242.38,-162.65 242.44,-182.78"/>
<text text-anchor="middle" x="175.58" y="-173.51" font-family="Times,serif" font-size="14.00" fill="#ebc72d">Campfire</text>
</a>
</g>
</g>
<!-- campfire&#45;&gt;totem -->
<g id="edge1" class="edge">
<title>campfire&#45;&gt;totem</title>
<path fill="none" stroke="#ebc72d" stroke-dasharray="1,5" d="M171.88,-162.52C168.56,-150.21 163.59,-131.81 159.53,-116.75"/>
<polygon fill="#ebc72d" stroke="#ebc72d" points="162.88,-115.72 156.89,-106.98 156.12,-117.55 162.88,-115.72"/>
</g>
<!-- round_tent&#45;&gt;campfire -->
<g id="edge7" class="edge">
<title>round_tent&#45;&gt;campfire</title>
<path fill="none" stroke="#ebc72d" stroke-dasharray="1,5" d="M165.96,-252.52C167.85,-237.92 170.2,-219.78 172.1,-205.07"/>
<polygon fill="#ebc72d" stroke="#ebc72d" points="175.58,-205.43 173.4,-195.07 168.64,-204.54 175.58,-205.43"/>
</g>
<!-- round_tent&#45;&gt;horse_farm -->
<g id="edge8" class="edge">
<title>round_tent&#45;&gt;horse_farm</title>
<path fill="none" stroke="#ebc72d" stroke-dasharray="1,5" d="M205.76,-252.52C231.43,-236.99 263.75,-217.43 288.8,-202.28"/>
<polygon fill="#ebc72d" stroke="#ebc72d" points="290.92,-205.08 297.67,-196.91 287.3,-199.09 290.92,-205.08"/>
</g>
</g>
</svg>
