<?xml version="1.0" encoding="UTF-8" standalone="no"?>
<!DOCTYPE svg PUBLIC "-//W3C//DTD SVG 1.1//EN"
 "http://www.w3.org/Graphics/SVG/1.1/DTD/svg11.dtd">
<!-- Generated by graphviz version 2.49.3 (0)
 -->
<!-- Title: test Pages: 1 -->
<svg width="2161pt" height="514pt"
 viewBox="0.00 0.00 2160.88 514.43" xmlns="http://www.w3.org/2000/svg" xmlns:xlink="http://www.w3.org/1999/xlink">
<g id="graph0" class="graph" transform="scale(1 1) rotate(0) translate(4 510.43)">
<title>test</title>
<polygon fill="#151515" stroke="transparent" points="-4,4 -4,-510.43 2156.88,-510.43 2156.88,4 -4,4"/>
<!-- battle_machine -->
<g id="node1" class="node">
<title>battle_machine</title>
<g id="a_node1"><a xlink:href="tech_battle_machine_full.html" xlink:title="Battle\nMachine">
<ellipse fill="none" stroke="magenta" cx="74.33" cy="-105.21" rx="54.39" ry="26.74"/>
<text text-anchor="middle" x="74.33" y="-109.01" font-family="Times,serif" font-size="14.00" fill="#ebc72d">Battle</text>
<text text-anchor="middle" x="74.33" y="-94.01" font-family="Times,serif" font-size="14.00" fill="#ebc72d">Machine</text>
</a>
</g>
</g>
<!-- pig -->
<g id="node2" class="node">
<title>pig</title>
<g id="a_node2"><a xlink:href="tech_pig_full.html" xlink:title="Pig">
<ellipse fill="none" stroke="magenta" cx="2046.33" cy="-324.43" rx="27" ry="18"/>
<text text-anchor="middle" x="2046.33" y="-320.73" font-family="Times,serif" font-size="14.00" fill="#ebc72d">Pig</text>
</a>
</g>
</g>
<!-- aerodrome -->
<g id="node3" class="node">
<title>aerodrome</title>
<g id="a_node3"><a xlink:href="tech_aerodrome_full.html" xlink:title="Aerodrome">
<polygon fill="none" stroke="red" points="299.47,-110.78 223.33,-123.21 147.19,-110.78 147.26,-90.65 299.4,-90.65 299.47,-110.78"/>
<text text-anchor="middle" x="223.33" y="-101.51" font-family="Times,serif" font-size="14.00" fill="#ebc72d">Aerodrome</text>
</a>
</g>
</g>
<!-- airship -->
<g id="node10" class="node">
<title>airship</title>
<g id="a_node10"><a xlink:href="tech_airship_full.html" xlink:title="Airship">
<ellipse fill="none" stroke="magenta" cx="44.33" cy="-18" rx="44.39" ry="18"/>
<text text-anchor="middle" x="44.33" y="-14.3" font-family="Times,serif" font-size="14.00" fill="#ebc72d">Airship</text>
</a>
</g>
</g>
<!-- aerodrome&#45;&gt;airship -->
<g id="edge3" class="edge">
<title>aerodrome&#45;&gt;airship</title>
<path fill="none" stroke="#ebc72d" d="M194.57,-90.52C163.68,-75.82 114.5,-52.4 80.88,-36.4"/>
<polygon fill="#ebc72d" stroke="#ebc72d" points="82.38,-33.24 71.84,-32.1 79.37,-39.56 82.38,-33.24"/>
</g>
<!-- ornithopter -->
<g id="node17" class="node">
<title>ornithopter</title>
<g id="a_node17"><a xlink:href="tech_ornithopter_full.html" xlink:title="Ornithopter">
<ellipse fill="none" stroke="magenta" cx="223.33" cy="-18" rx="65.79" ry="18"/>
<text text-anchor="middle" x="223.33" y="-14.3" font-family="Times,serif" font-size="14.00" fill="#ebc72d">Ornithopter</text>
</a>
</g>
</g>
<!-- aerodrome&#45;&gt;ornithopter -->
<g id="edge4" class="edge">
<title>aerodrome&#45;&gt;ornithopter</title>
<path fill="none" stroke="#ebc72d" d="M223.33,-90.52C223.33,-78.63 223.33,-61.06 223.33,-46.31"/>
<polygon fill="#ebc72d" stroke="#ebc72d" points="226.83,-46.19 223.33,-36.19 219.83,-46.19 226.83,-46.19"/>
</g>
<!-- swordman -->
<g id="node4" class="node">
<title>swordman</title>
<g id="a_node4"><a xlink:href="tech_swordman_full.html" xlink:title="Swordman">
<ellipse fill="none" stroke="magenta" cx="1433.33" cy="-324.43" rx="60.39" ry="18"/>
<text text-anchor="middle" x="1433.33" y="-320.73" font-family="Times,serif" font-size="14.00" fill="#ebc72d">Swordman</text>
</a>
</g>
</g>
<!-- guard -->
<g id="node9" class="node">
<title>guard</title>
<g id="a_node9"><a xlink:href="tech_guard_full.html" xlink:title="Guard">
<ellipse fill="none" stroke="magenta" cx="1433.33" cy="-212.43" rx="39.79" ry="18"/>
<text text-anchor="middle" x="1433.33" y="-208.73" font-family="Times,serif" font-size="14.00" fill="#ebc72d">Guard</text>
</a>
</g>
</g>
<!-- swordman&#45;&gt;guard -->
<g id="edge24" class="edge">
<title>swordman&#45;&gt;guard</title>
<path fill="none" stroke="#ebc72d" stroke-dasharray="5,2" d="M1433.33,-306.24C1433.33,-288.64 1433.33,-261.03 1433.33,-240.5"/>
<polygon fill="#ebc72d" stroke="#ebc72d" points="1436.83,-240.49 1433.33,-230.49 1429.83,-240.49 1436.83,-240.49"/>
</g>
<!-- castle -->
<g id="node5" class="node">
<title>castle</title>
<g id="a_node5"><a xlink:href="tech_castle_full.html" xlink:title="Castle">
<polygon fill="none" stroke="red" points="1424.95,-421.99 1375.33,-434.43 1325.71,-421.99 1325.76,-401.86 1424.9,-401.86 1424.95,-421.99"/>
<text text-anchor="middle" x="1375.33" y="-412.73" font-family="Times,serif" font-size="14.00" fill="#ebc72d">Castle</text>
</a>
</g>
</g>
<!-- worker -->
<g id="node15" class="node">
<title>worker</title>
<g id="a_node15"><a xlink:href="tech_worker_full.html" xlink:title="Worker">
<ellipse fill="none" stroke="magenta" cx="1375.33" cy="-488.43" rx="44.69" ry="18"/>
<text text-anchor="middle" x="1375.33" y="-484.73" font-family="Times,serif" font-size="14.00" fill="#ebc72d">Worker</text>
</a>
</g>
</g>
<!-- catapult -->
<g id="node6" class="node">
<title>catapult</title>
<g id="a_node6"><a xlink:href="tech_catapult_full.html" xlink:title="Catapult">
<ellipse fill="none" stroke="magenta" cx="368.33" cy="-105.21" rx="50.89" ry="18"/>
<text text-anchor="middle" x="368.33" y="-101.51" font-family="Times,serif" font-size="14.00" fill="#ebc72d">Catapult</text>
</a>
</g>
</g>
<!-- air_ballista -->
<g id="node7" class="node">
<title>air_ballista</title>
<g id="a_node7"><a xlink:href="tech_air_ballista_full.html" xlink:title="Air\nBallista">
<ellipse fill="none" stroke="magenta" cx="487.33" cy="-105.21" rx="50.41" ry="26.74"/>
<text text-anchor="middle" x="487.33" y="-109.01" font-family="Times,serif" font-size="14.00" fill="#ebc72d">Air</text>
<text text-anchor="middle" x="487.33" y="-94.01" font-family="Times,serif" font-size="14.00" fill="#ebc72d">Ballista</text>
</a>
</g>
</g>
<!-- technician -->
<g id="node8" class="node">
<title>technician</title>
<g id="a_node8"><a xlink:href="tech_technician_full.html" xlink:title="Technician">
<ellipse fill="none" stroke="magenta" cx="297.33" cy="-212.43" rx="59.59" ry="18"/>
<text text-anchor="middle" x="297.33" y="-208.73" font-family="Times,serif" font-size="14.00" fill="#ebc72d">Technician</text>
</a>
</g>
</g>
<!-- technician&#45;&gt;battle_machine -->
<g id="edge27" class="edge">
<title>technician&#45;&gt;battle_machine</title>
<path fill="none" stroke="#ebc72d" stroke-dasharray="5,2" d="M265.19,-197.08C232.97,-182.6 181.99,-159.43 138.33,-138.43 132.59,-135.67 126.59,-132.72 120.66,-129.78"/>
<polygon fill="#ebc72d" stroke="#ebc72d" points="121.95,-126.51 111.44,-125.18 118.83,-132.78 121.95,-126.51"/>
</g>
<!-- technician&#45;&gt;aerodrome -->
<g id="edge25" class="edge">
<title>technician&#45;&gt;aerodrome</title>
<path fill="none" stroke="#ebc72d" stroke-width="2" d="M285.44,-194.52C273.18,-177.09 253.96,-149.76 240.15,-130.12"/>
<polygon fill="#ebc72d" stroke="#ebc72d" stroke-width="2" points="242.84,-127.87 234.22,-121.7 237.11,-131.9 242.84,-127.87"/>
</g>
<!-- technician&#45;&gt;catapult -->
<g id="edge28" class="edge">
<title>technician&#45;&gt;catapult</title>
<path fill="none" stroke="#ebc72d" stroke-dasharray="5,2" d="M308.74,-194.52C320.23,-177.5 338.09,-151.02 351.27,-131.5"/>
<polygon fill="#ebc72d" stroke="#ebc72d" points="354.26,-133.32 356.95,-123.08 348.46,-129.41 354.26,-133.32"/>
</g>
<!-- technician&#45;&gt;air_ballista -->
<g id="edge26" class="edge">
<title>technician&#45;&gt;air_ballista</title>
<path fill="none" stroke="#ebc72d" stroke-dasharray="5,2" d="M324.55,-196.35C355.77,-179.07 407.36,-150.5 444.09,-130.16"/>
<polygon fill="#ebc72d" stroke="#ebc72d" points="446.03,-133.08 453.08,-125.18 442.64,-126.96 446.03,-133.08"/>
</g>
<!-- defense_tower -->
<g id="node11" class="node">
<title>defense_tower</title>
<g id="a_node11"><a xlink:href="tech_defense_tower_full.html" xlink:title="Defense\nTower">
<polygon fill="none" stroke="red" points="687.19,-115.54 622.33,-138.64 557.47,-115.54 557.53,-78.17 687.13,-78.17 687.19,-115.54"/>
<text text-anchor="middle" x="622.33" y="-109.01" font-family="Times,serif" font-size="14.00" fill="#ebc72d">Defense</text>
<text text-anchor="middle" x="622.33" y="-94.01" font-family="Times,serif" font-size="14.00" fill="#ebc72d">Tower</text>
</a>
</g>
</g>
<!-- barracks -->
<g id="node12" class="node">
<title>barracks</title>
<g id="a_node12"><a xlink:href="tech_barracks_full.html" xlink:title="Barracks">
<polygon fill="none" stroke="red" points="1623.37,-421.99 1559.33,-434.43 1495.29,-421.99 1495.35,-401.86 1623.31,-401.86 1623.37,-421.99"/>
<text text-anchor="middle" x="1559.33" y="-412.73" font-family="Times,serif" font-size="14.00" fill="#ebc72d">Barracks</text>
</a>
</g>
</g>
<!-- barracks&#45;&gt;swordman -->
<g id="edge8" class="edge">
<title>barracks&#45;&gt;swordman</title>
<path fill="none" stroke="#ebc72d" d="M1540.19,-401.76C1519.96,-387.3 1487.74,-364.29 1463.97,-347.31"/>
<polygon fill="#ebc72d" stroke="#ebc72d" points="1465.8,-344.32 1455.63,-341.35 1461.73,-350.01 1465.8,-344.32"/>
</g>
<!-- barracks&#45;&gt;guard -->
<g id="edge6" class="edge">
<title>barracks&#45;&gt;guard</title>
<path fill="none" stroke="#ebc72d" d="M1561.45,-401.74C1563.74,-383.85 1566.22,-351.73 1559.33,-325.43"/>
<path fill="none" stroke="#ebc72d" d="M1559.33,-323.43C1553.02,-299.34 1498.64,-258.17 1463.41,-233.61"/>
<polygon fill="#ebc72d" stroke="#ebc72d" points="1465.12,-230.54 1454.9,-227.74 1461.15,-236.3 1465.12,-230.54"/>
</g>
<!-- archer -->
<g id="node14" class="node">
<title>archer</title>
<g id="a_node14"><a xlink:href="tech_archer_full.html" xlink:title="Archer">
<ellipse fill="none" stroke="magenta" cx="1629.33" cy="-324.43" rx="42.49" ry="18"/>
<text text-anchor="middle" x="1629.33" y="-320.73" font-family="Times,serif" font-size="14.00" fill="#ebc72d">Archer</text>
</a>
</g>
</g>
<!-- barracks&#45;&gt;archer -->
<g id="edge5" class="edge">
<title>barracks&#45;&gt;archer</title>
<path fill="none" stroke="#ebc72d" d="M1569.96,-401.76C1580.64,-388.02 1597.34,-366.56 1610.31,-349.88"/>
<polygon fill="#ebc72d" stroke="#ebc72d" points="1613.32,-351.71 1616.7,-341.67 1607.8,-347.41 1613.32,-351.71"/>
</g>
<!-- horseman -->
<g id="node20" class="node">
<title>horseman</title>
<g id="a_node20"><a xlink:href="tech_horseman_full.html" xlink:title="Horseman">
<ellipse fill="none" stroke="magenta" cx="1559.33" cy="-212.43" rx="58.49" ry="18"/>
<text text-anchor="middle" x="1559.33" y="-208.73" font-family="Times,serif" font-size="14.00" fill="#ebc72d">Horseman</text>
</a>
</g>
</g>
<!-- barracks&#45;&gt;horseman -->
<g id="edge7" class="edge">
<title>barracks&#45;&gt;horseman</title>
<path fill="none" stroke="#ebc72d" d="M1559.33,-323.43C1552.13,-295.96 1553.3,-263.3 1555.54,-240.74"/>
<polygon fill="#ebc72d" stroke="#ebc72d" points="1559.04,-240.87 1556.69,-230.54 1552.09,-240.08 1559.04,-240.87"/>
</g>
<!-- training_field -->
<g id="node23" class="node">
<title>training_field</title>
<g id="a_node23"><a xlink:href="tech_training_field_full.html" xlink:title="Training\nField">
<polygon fill="none" stroke="green" points="1848.99,-362.43 1722.27,-362.43 1689.67,-286.43 1816.39,-286.43 1848.99,-362.43"/>
<text text-anchor="middle" x="1769.33" y="-328.23" font-family="Times,serif" font-size="14.00" fill="#ebc72d">Training</text>
<text text-anchor="middle" x="1769.33" y="-313.23" font-family="Times,serif" font-size="14.00" fill="#ebc72d">Field</text>
</a>
</g>
</g>
<!-- barracks&#45;&gt;training_field -->
<g id="edge9" class="edge">
<title>barracks&#45;&gt;training_field</title>
<path fill="none" stroke="#ebc72d" d="M1591.22,-401.76C1621.69,-388.7 1668.45,-368.66 1706.41,-352.39"/>
<polygon fill="#ebc72d" stroke="#ebc72d" points="1708.05,-355.5 1715.86,-348.34 1705.29,-349.06 1708.05,-355.5"/>
</g>
<!-- technodrome -->
<g id="node13" class="node">
<title>technodrome</title>
<g id="a_node13"><a xlink:href="tech_technodrome_full.html" xlink:title="Technodrome">
<polygon fill="none" stroke="red" points="575.89,-329.99 485.33,-342.43 394.77,-329.99 394.85,-309.86 575.81,-309.86 575.89,-329.99"/>
<text text-anchor="middle" x="485.33" y="-320.73" font-family="Times,serif" font-size="14.00" fill="#ebc72d">Technodrome</text>
</a>
</g>
</g>
<!-- technodrome&#45;&gt;technician -->
<g id="edge31" class="edge">
<title>technodrome&#45;&gt;technician</title>
<path fill="none" stroke="#ebc72d" d="M461.9,-309.72C429.28,-290.63 369.93,-255.91 332.13,-233.79"/>
<polygon fill="#ebc72d" stroke="#ebc72d" points="333.87,-230.75 323.47,-228.72 330.34,-236.8 333.87,-230.75"/>
</g>
<!-- advanced_architecture -->
<g id="node24" class="node">
<title>advanced_architecture</title>
<g id="a_node24"><a xlink:href="tech_advanced_architecture_full.html" xlink:title="Advanced\nArchitecture">
<polygon fill="none" stroke="green" points="595.12,-250.43 420.47,-250.43 375.54,-174.43 550.19,-174.43 595.12,-250.43"/>
<text text-anchor="middle" x="485.33" y="-216.23" font-family="Times,serif" font-size="14.00" fill="#ebc72d">Advanced</text>
<text text-anchor="middle" x="485.33" y="-201.23" font-family="Times,serif" font-size="14.00" fill="#ebc72d">Architecture</text>
</a>
</g>
</g>
<!-- technodrome&#45;&gt;advanced_architecture -->
<g id="edge29" class="edge">
<title>technodrome&#45;&gt;advanced_architecture</title>
<path fill="none" stroke="#ebc72d" d="M485.33,-309.49C485.33,-297.22 485.33,-278.6 485.33,-261.02"/>
<polygon fill="#ebc72d" stroke="#ebc72d" points="488.83,-260.84 485.33,-250.84 481.83,-260.84 488.83,-260.84"/>
</g>
<!-- robotics -->
<g id="node25" class="node">
<title>robotics</title>
<g id="a_node25"><a xlink:href="tech_robotics_full.html" xlink:title="Robotics">
<polygon fill="none" stroke="green" points="148.49,-230.43 30.52,-230.43 0.17,-194.43 118.14,-194.43 148.49,-230.43"/>
<text text-anchor="middle" x="74.33" y="-208.73" font-family="Times,serif" font-size="14.00" fill="#ebc72d">Robotics</text>
</a>
</g>
</g>
<!-- technodrome&#45;&gt;robotics -->
<g id="edge30" class="edge">
<title>technodrome&#45;&gt;robotics</title>
<path fill="none" stroke="#ebc72d" d="M434.52,-309.83C362.6,-290.58 230.66,-255.27 147.99,-233.14"/>
<polygon fill="#ebc72d" stroke="#ebc72d" points="148.73,-229.72 138.16,-230.51 146.92,-236.48 148.73,-229.72"/>
</g>
<!-- worker&#45;&gt;castle -->
<g id="edge34" class="edge">
<title>worker&#45;&gt;castle</title>
<path fill="none" stroke="#ebc72d" stroke-width="2" d="M1375.33,-460.09C1375.33,-455.11 1375.33,-449.92 1375.33,-444.93"/>
<polygon fill="#ebc72d" stroke="#ebc72d" stroke-width="2" points="1371.83,-460.12 1375.33,-470.12 1378.83,-460.12 1371.83,-460.12"/>
<polygon fill="#ebc72d" stroke="#ebc72d" stroke-width="2" points="1378.83,-444.53 1375.33,-434.53 1371.83,-444.53 1378.83,-444.53"/>
</g>
<!-- worker&#45;&gt;defense_tower -->
<g id="edge35" class="edge">
<title>worker&#45;&gt;defense_tower</title>
<path fill="none" stroke="#ebc72d" stroke-width="2" d="M623.33,-415.43C600.48,-402.6 611.9,-229.5 618.61,-148.04"/>
<polygon fill="#ebc72d" stroke="#ebc72d" stroke-width="2" points="622.13,-147.9 619.48,-137.65 615.16,-147.32 622.13,-147.9"/>
</g>
<!-- worker&#45;&gt;barracks -->
<g id="edge32" class="edge">
<title>worker&#45;&gt;barracks</title>
<path fill="none" stroke="#ebc72d" stroke-width="2" d="M1406.96,-475.39C1438.29,-463.47 1486.34,-445.19 1520.09,-432.36"/>
<polygon fill="#ebc72d" stroke="#ebc72d" stroke-width="2" points="1521.53,-435.55 1529.63,-428.72 1519.04,-429.01 1521.53,-435.55"/>
</g>
<!-- worker&#45;&gt;technodrome -->
<g id="edge37" class="edge">
<title>worker&#45;&gt;technodrome</title>
<path fill="none" stroke="#ebc72d" stroke-width="2" d="M1330.38,-487.94C1187.41,-488.86 745.47,-485.96 623.33,-417.43"/>
<path fill="none" stroke="#ebc72d" stroke-width="2" d="M623.33,-415.43C584.17,-393.45 541.13,-364.58 513.71,-345.53"/>
<polygon fill="#ebc72d" stroke="#ebc72d" stroke-width="2" points="515.58,-342.57 505.38,-339.72 511.57,-348.31 515.58,-342.57"/>
</g>
<!-- farm -->
<g id="node16" class="node">
<title>farm</title>
<g id="a_node16"><a xlink:href="tech_farm_full.html" xlink:title="Farm">
<polygon fill="none" stroke="red" points="2032.99,-421.99 1990.33,-434.43 1947.67,-421.99 1947.71,-401.86 2032.95,-401.86 2032.99,-421.99"/>
<text text-anchor="middle" x="1990.33" y="-412.73" font-family="Times,serif" font-size="14.00" fill="#ebc72d">Farm</text>
</a>
</g>
</g>
<!-- worker&#45;&gt;farm -->
<g id="edge36" class="edge">
<title>worker&#45;&gt;farm</title>
<path fill="none" stroke="#ebc72d" stroke-width="2" d="M1418.09,-482.56C1527.8,-470.07 1819.01,-436.93 1938.28,-423.35"/>
<polygon fill="#ebc72d" stroke="#ebc72d" stroke-width="2" points="1938.72,-426.82 1948.26,-422.21 1937.93,-419.87 1938.72,-426.82"/>
</g>
<!-- blacksmith -->
<g id="node18" class="node">
<title>blacksmith</title>
<g id="a_node18"><a xlink:href="tech_blacksmith_full.html" xlink:title="Blacksmith">
<polygon fill="none" stroke="red" points="1204.58,-421.99 1127.33,-434.43 1050.08,-421.99 1050.15,-401.86 1204.5,-401.86 1204.58,-421.99"/>
<text text-anchor="middle" x="1127.33" y="-412.73" font-family="Times,serif" font-size="14.00" fill="#ebc72d">Blacksmith</text>
</a>
</g>
</g>
<!-- worker&#45;&gt;blacksmith -->
<g id="edge33" class="edge">
<title>worker&#45;&gt;blacksmith</title>
<path fill="none" stroke="#ebc72d" stroke-width="2" d="M1339.8,-477.4C1296.78,-465.26 1224.13,-444.75 1175.95,-431.15"/>
<polygon fill="#ebc72d" stroke="#ebc72d" stroke-width="2" points="1176.64,-427.71 1166.06,-428.36 1174.74,-434.44 1176.64,-427.71"/>
</g>
<!-- farm&#45;&gt;pig -->
<g id="edge19" class="edge">
<title>farm&#45;&gt;pig</title>
<path fill="none" stroke="#ebc72d" d="M1998.83,-401.76C2007.35,-388.07 2020.65,-366.69 2031.01,-350.04"/>
<polygon fill="#ebc72d" stroke="#ebc72d" points="2034.11,-351.69 2036.42,-341.35 2028.16,-347.99 2034.11,-351.69"/>
</g>
<!-- cow -->
<g id="node19" class="node">
<title>cow</title>
<g id="a_node19"><a xlink:href="tech_cow_full.html" xlink:title="Cow">
<ellipse fill="none" stroke="magenta" cx="2122.33" cy="-324.43" rx="30.59" ry="18"/>
<text text-anchor="middle" x="2122.33" y="-320.73" font-family="Times,serif" font-size="14.00" fill="#ebc72d">Cow</text>
</a>
</g>
</g>
<!-- farm&#45;&gt;cow -->
<g id="edge18" class="edge">
<title>farm&#45;&gt;cow</title>
<path fill="none" stroke="#ebc72d" d="M2017.48,-401.85C2036.35,-391.94 2061.69,-377.62 2082.33,-362.43 2088.51,-357.88 2094.79,-352.5 2100.49,-347.27"/>
<polygon fill="#ebc72d" stroke="#ebc72d" points="2102.97,-349.74 2107.83,-340.32 2098.16,-344.65 2102.97,-349.74"/>
</g>
<!-- stables -->
<g id="node21" class="node">
<title>stables</title>
<g id="a_node21"><a xlink:href="tech_stables_full.html" xlink:title="Stables">
<polygon fill="none" stroke="green" points="2001.24,-342.43 1894.8,-342.43 1867.42,-306.43 1973.86,-306.43 2001.24,-342.43"/>
<text text-anchor="middle" x="1934.33" y="-320.73" font-family="Times,serif" font-size="14.00" fill="#ebc72d">Stables</text>
</a>
</g>
</g>
<!-- farm&#45;&gt;stables -->
<g id="edge20" class="edge">
<title>farm&#45;&gt;stables</title>
<path fill="none" stroke="#ebc72d" d="M1981.82,-401.76C1973.51,-388.4 1960.65,-367.72 1950.4,-351.26"/>
<polygon fill="#ebc72d" stroke="#ebc72d" points="1953.28,-349.26 1945.03,-342.62 1947.34,-352.96 1953.28,-349.26"/>
</g>
<!-- blacksmith&#45;&gt;guard -->
<g id="edge11" class="edge">
<title>blacksmith&#45;&gt;guard</title>
<path fill="none" stroke="#ebc72d" stroke-dasharray="1,5" d="M1204.56,-409.95C1244.58,-403.63 1292.1,-390.32 1326.33,-362.43 1355.61,-338.57 1342.68,-317.37 1364.33,-286.43 1377.23,-267.98 1394.67,-249.57 1408.79,-235.86"/>
<polygon fill="#ebc72d" stroke="#ebc72d" points="1411.42,-238.19 1416.24,-228.75 1406.58,-233.12 1411.42,-238.19"/>
</g>
<!-- blacksmith&#45;&gt;technodrome -->
<g id="edge16" class="edge">
<title>blacksmith&#45;&gt;technodrome</title>
<path fill="none" stroke="#ebc72d" stroke-dasharray="1,5" d="M1050.06,-409.92C954.02,-402.41 785.29,-386.99 642.33,-362.43 606.87,-356.33 567.46,-347.04 536.99,-339.29"/>
<polygon fill="#ebc72d" stroke="#ebc72d" points="537.58,-335.83 527.02,-336.73 535.84,-342.6 537.58,-335.83"/>
</g>
<!-- blacksmith&#45;&gt;horseman -->
<g id="edge12" class="edge">
<title>blacksmith&#45;&gt;horseman</title>
<path fill="none" stroke="#ebc72d" stroke-dasharray="1,5" d="M1204.62,-408.7C1307.57,-399.11 1479.48,-380.64 1502.33,-362.43 1521.88,-346.84 1542.2,-279.14 1552.49,-240.58"/>
<polygon fill="#ebc72d" stroke="#ebc72d" points="1555.97,-241.1 1555.11,-230.54 1549.19,-239.33 1555.97,-241.1"/>
</g>
<!-- shield_level_2 -->
<g id="node22" class="node">
<title>shield_level_2</title>
<g id="a_node22"><a xlink:href="tech_shield_level_2_full.html" xlink:title="Shield\nLevel 2">
<polygon fill="none" stroke="green" points="791.83,-362.43 679.68,-362.43 650.83,-286.43 762.98,-286.43 791.83,-362.43"/>
<text text-anchor="middle" x="721.33" y="-328.23" font-family="Times,serif" font-size="14.00" fill="#ebc72d">Shield</text>
<text text-anchor="middle" x="721.33" y="-313.23" font-family="Times,serif" font-size="14.00" fill="#ebc72d">Level 2</text>
</a>
</g>
</g>
<!-- blacksmith&#45;&gt;shield_level_2 -->
<g id="edge15" class="edge">
<title>blacksmith&#45;&gt;shield_level_2</title>
<path fill="none" stroke="#ebc72d" d="M1049.97,-408.99C982.82,-401.97 883.58,-388.12 800.33,-362.43 800.23,-362.4 800.13,-362.36 800.03,-362.33"/>
<polygon fill="#ebc72d" stroke="#ebc72d" points="801.29,-359.07 790.7,-359.19 799.06,-365.7 801.29,-359.07"/>
</g>
<!-- blade_weapons -->
<g id="node26" class="node">
<title>blade_weapons</title>
<g id="a_node26"><a xlink:href="tech_blade_weapons_full.html" xlink:title="Blade\nWeapons">
<polygon fill="none" stroke="green" points="975.21,-362.43 843.37,-362.43 809.45,-286.43 941.29,-286.43 975.21,-362.43"/>
<text text-anchor="middle" x="892.33" y="-328.23" font-family="Times,serif" font-size="14.00" fill="#ebc72d">Blade</text>
<text text-anchor="middle" x="892.33" y="-313.23" font-family="Times,serif" font-size="14.00" fill="#ebc72d">Weapons</text>
</a>
</g>
</g>
<!-- blacksmith&#45;&gt;blade_weapons -->
<g id="edge10" class="edge">
<title>blacksmith&#45;&gt;blade_weapons</title>
<path fill="none" stroke="#ebc72d" d="M1089.59,-401.76C1060.69,-391.22 1019.89,-376.17 984.33,-362.43 983.89,-362.26 983.44,-362.08 983,-361.91"/>
<polygon fill="#ebc72d" stroke="#ebc72d" points="984.14,-358.6 973.55,-358.23 981.6,-365.12 984.14,-358.6"/>
</g>
<!-- piercing_weapons -->
<g id="node27" class="node">
<title>piercing_weapons</title>
<g id="a_node27"><a xlink:href="tech_piercing_weapons_full.html" xlink:title="Piercing\nWeapons">
<polygon fill="none" stroke="green" points="1159.21,-362.43 1027.37,-362.43 993.45,-286.43 1125.29,-286.43 1159.21,-362.43"/>
<text text-anchor="middle" x="1076.33" y="-328.23" font-family="Times,serif" font-size="14.00" fill="#ebc72d">Piercing</text>
<text text-anchor="middle" x="1076.33" y="-313.23" font-family="Times,serif" font-size="14.00" fill="#ebc72d">Weapons</text>
</a>
</g>
</g>
<!-- blacksmith&#45;&gt;piercing_weapons -->
<g id="edge13" class="edge">
<title>blacksmith&#45;&gt;piercing_weapons</title>
<path fill="none" stroke="#ebc72d" d="M1119.58,-401.76C1114.92,-393.53 1108.69,-382.53 1102.41,-371.45"/>
<polygon fill="#ebc72d" stroke="#ebc72d" points="1105.37,-369.57 1097.39,-362.6 1099.28,-373.02 1105.37,-369.57"/>
</g>
<!-- shield_level_1 -->
<g id="node28" class="node">
<title>shield_level_1</title>
<g id="a_node28"><a xlink:href="tech_shield_level_1_full.html" xlink:title="Shield\nLevel 1">
<polygon fill="none" stroke="green" points="1317.83,-362.43 1205.68,-362.43 1176.83,-286.43 1288.98,-286.43 1317.83,-362.43"/>
<text text-anchor="middle" x="1247.33" y="-328.23" font-family="Times,serif" font-size="14.00" fill="#ebc72d">Shield</text>
<text text-anchor="middle" x="1247.33" y="-313.23" font-family="Times,serif" font-size="14.00" fill="#ebc72d">Level 1</text>
</a>
</g>
</g>
<!-- blacksmith&#45;&gt;shield_level_1 -->
<g id="edge14" class="edge">
<title>blacksmith&#45;&gt;shield_level_1</title>
<path fill="none" stroke="#ebc72d" d="M1145.55,-401.76C1158.92,-391.74 1177.76,-377.6 1195.62,-364.21"/>
<polygon fill="#ebc72d" stroke="#ebc72d" points="1197.82,-366.93 1203.72,-358.13 1193.62,-361.33 1197.82,-366.93"/>
</g>
<!-- stables&#45;&gt;horseman -->
<g id="edge23" class="edge">
<title>stables&#45;&gt;horseman</title>
<path fill="none" stroke="#ebc72d" stroke-dasharray="1,5" d="M1903.18,-306.4C1889.68,-299.51 1873.51,-291.9 1858.33,-286.43 1777.27,-257.18 1679.68,-235.81 1618.55,-224"/>
<polygon fill="#ebc72d" stroke="#ebc72d" points="1619.17,-220.56 1608.69,-222.12 1617.86,-227.43 1619.17,-220.56"/>
</g>
<!-- advanced_architecture&#45;&gt;air_ballista -->
<g id="edge1" class="edge">
<title>advanced_architecture&#45;&gt;air_ballista</title>
<path fill="none" stroke="#ebc72d" stroke-dasharray="1,5" d="M486.03,-174.33C486.23,-163.86 486.45,-152.49 486.65,-142.09"/>
<polygon fill="#ebc72d" stroke="#ebc72d" points="490.15,-142.15 486.84,-132.08 483.15,-142.02 490.15,-142.15"/>
</g>
<!-- advanced_architecture&#45;&gt;defense_tower -->
<g id="edge2" class="edge">
<title>advanced_architecture&#45;&gt;defense_tower</title>
<path fill="none" stroke="#ebc72d" stroke-dasharray="1,5" d="M533.63,-174.33C550.56,-161.33 569.29,-146.95 585.16,-134.76"/>
<polygon fill="#ebc72d" stroke="#ebc72d" points="587.37,-137.47 593.17,-128.6 583.11,-131.92 587.37,-137.47"/>
</g>
<!-- robotics&#45;&gt;battle_machine -->
<g id="edge22" class="edge">
<title>robotics&#45;&gt;battle_machine</title>
<path fill="none" stroke="#ebc72d" stroke-dasharray="1,5" d="M74.33,-194.05C74.33,-180.13 74.33,-160.12 74.33,-142.71"/>
<polygon fill="#ebc72d" stroke="#ebc72d" points="77.83,-142.29 74.33,-132.29 70.83,-142.29 77.83,-142.29"/>
</g>
<!-- robotics&#45;&gt;airship -->
<g id="edge21" class="edge">
<title>robotics&#45;&gt;airship</title>
<path fill="none" stroke="#ebc72d" stroke-dasharray="1,5" d="M52.91,-194.15C38.09,-180.73 19.61,-160.71 11.33,-138.43 1.04,-110.75 3.21,-100.39 11.33,-72 14.16,-62.1 19.43,-52.25 24.95,-43.77"/>
<polygon fill="#ebc72d" stroke="#ebc72d" points="27.87,-45.71 30.69,-35.5 22.11,-41.72 27.87,-45.71"/>
</g>
</g>
</svg>
