<?xml version="1.0" encoding="UTF-8" standalone="no"?>
<!DOCTYPE svg PUBLIC "-//W3C//DTD SVG 1.1//EN"
 "http://www.w3.org/Graphics/SVG/1.1/DTD/svg11.dtd">
<!-- Generated by graphviz version 2.50.0 (0)
 -->
<!-- Title: test Pages: 1 -->
<svg width="1710pt" height="339pt"
 viewBox="0.00 0.00 1709.91 338.59" xmlns="http://www.w3.org/2000/svg" xmlns:xlink="http://www.w3.org/1999/xlink">
<g id="graph0" class="graph" transform="scale(1 1) rotate(0) translate(4 334.59)">
<title>test</title>
<polygon fill="#151515" stroke="transparent" points="-4,4 -4,-334.59 1705.91,-334.59 1705.91,4 -4,4"/>
<!-- training_camp -->
<g id="node1" class="node">
<title>training_camp</title>
<g id="a_node1"><a xlink:href="romans_training_camp_full.html" xlink:title="Training\nCamp">
<polygon fill="none" stroke="red" points="827.31,-235.71 760.21,-258.81 693.11,-235.71 693.17,-198.34 827.25,-198.34 827.31,-235.71"/>
<text text-anchor="middle" x="760.21" y="-229.18" font-family="Times,serif" font-size="14.00" fill="#ebc72d">Training</text>
<text text-anchor="middle" x="760.21" y="-214.18" font-family="Times,serif" font-size="14.00" fill="#ebc72d">Camp</text>
</a>
</g>
</g>
<!-- guard -->
<g id="node7" class="node">
<title>guard</title>
<g id="a_node7"><a xlink:href="romans_guard_full.html" xlink:title="Guard">
<ellipse fill="none" stroke="magenta" cx="1014.21" cy="-122.95" rx="39.79" ry="18"/>
<text text-anchor="middle" x="1014.21" y="-119.25" font-family="Times,serif" font-size="14.00" fill="#ebc72d">Guard</text>
</a>
</g>
</g>
<!-- training_camp&#45;&gt;guard -->
<g id="edge42" class="edge">
<title>training_camp&#45;&gt;guard</title>
<path fill="none" stroke="#ebc72d" d="M827.48,-206.8C868.35,-194.96 921,-177.6 965.21,-156.17 972.14,-152.81 979.25,-148.62 985.83,-144.39"/>
<polygon fill="#ebc72d" stroke="#ebc72d" points="988.03,-147.13 994.41,-138.67 984.15,-141.31 988.03,-147.13"/>
</g>
<!-- fire_archer -->
<g id="node10" class="node">
<title>fire_archer</title>
<g id="a_node10"><a xlink:href="romans_fire_archer_full.html" xlink:title="Fire\nArcher">
<ellipse fill="none" stroke="magenta" cx="421.21" cy="-26.87" rx="45.92" ry="26.74"/>
<text text-anchor="middle" x="421.21" y="-30.67" font-family="Times,serif" font-size="14.00" fill="#ebc72d">Fire</text>
<text text-anchor="middle" x="421.21" y="-15.67" font-family="Times,serif" font-size="14.00" fill="#ebc72d">Archer</text>
</a>
</g>
</g>
<!-- training_camp&#45;&gt;fire_archer -->
<g id="edge40" class="edge">
<title>training_camp&#45;&gt;fire_archer</title>
<path fill="none" stroke="#ebc72d" stroke-dasharray="1,5" d="M693.06,-211.37C615.02,-195.76 494.75,-169.96 478.21,-156.17 450.08,-132.71 435.33,-92.58 427.95,-63.44"/>
<polygon fill="#ebc72d" stroke="#ebc72d" points="431.34,-62.56 425.64,-53.63 424.53,-64.17 431.34,-62.56"/>
</g>
<!-- general -->
<g id="node15" class="node">
<title>general</title>
<g id="a_node15"><a xlink:href="romans_general_full.html" xlink:title="General">
<ellipse fill="none" stroke="magenta" cx="534.21" cy="-122.95" rx="47.39" ry="18"/>
<text text-anchor="middle" x="534.21" y="-119.25" font-family="Times,serif" font-size="14.00" fill="#ebc72d">General</text>
</a>
</g>
</g>
<!-- training_camp&#45;&gt;general -->
<g id="edge41" class="edge">
<title>training_camp&#45;&gt;general</title>
<path fill="none" stroke="#ebc72d" stroke-dasharray="1,5" d="M693.12,-199.63C661.75,-187.46 624.13,-172.03 591.21,-156.17 583.34,-152.37 575.05,-147.95 567.31,-143.62"/>
<polygon fill="#ebc72d" stroke="#ebc72d" points="568.95,-140.53 558.53,-138.62 565.49,-146.61 568.95,-140.53"/>
</g>
<!-- archer -->
<g id="node19" class="node">
<title>archer</title>
<g id="a_node19"><a xlink:href="romans_archer_full.html" xlink:title="Archer">
<ellipse fill="none" stroke="magenta" cx="642.21" cy="-122.95" rx="42.49" ry="18"/>
<text text-anchor="middle" x="642.21" y="-119.25" font-family="Times,serif" font-size="14.00" fill="#ebc72d">Archer</text>
</a>
</g>
</g>
<!-- training_camp&#45;&gt;archer -->
<g id="edge38" class="edge">
<title>training_camp&#45;&gt;archer</title>
<path fill="none" stroke="#ebc72d" d="M729.52,-198.26C710.45,-182.03 686.21,-161.4 668.11,-146"/>
<polygon fill="#ebc72d" stroke="#ebc72d" points="670.16,-143.14 660.27,-139.32 665.62,-148.47 670.16,-143.14"/>
</g>
<!-- spearman -->
<g id="node20" class="node">
<title>spearman</title>
<g id="a_node20"><a xlink:href="romans_spearman_full.html" xlink:title="Spearman">
<ellipse fill="none" stroke="magenta" cx="760.21" cy="-122.95" rx="57.69" ry="18"/>
<text text-anchor="middle" x="760.21" y="-119.25" font-family="Times,serif" font-size="14.00" fill="#ebc72d">Spearman</text>
</a>
</g>
</g>
<!-- training_camp&#45;&gt;spearman -->
<g id="edge43" class="edge">
<title>training_camp&#45;&gt;spearman</title>
<path fill="none" stroke="#ebc72d" d="M760.21,-198.26C760.21,-183.9 760.21,-166.1 760.21,-151.52"/>
<polygon fill="#ebc72d" stroke="#ebc72d" points="763.71,-151.11 760.21,-141.11 756.71,-151.11 763.71,-151.11"/>
</g>
<!-- axe_man -->
<g id="node22" class="node">
<title>axe_man</title>
<g id="a_node22"><a xlink:href="romans_axe_man_full.html" xlink:title="Axe\nMan">
<ellipse fill="none" stroke="magenta" cx="1293.21" cy="-122.95" rx="33.88" ry="26.74"/>
<text text-anchor="middle" x="1293.21" y="-126.75" font-family="Times,serif" font-size="14.00" fill="#ebc72d">Axe</text>
<text text-anchor="middle" x="1293.21" y="-111.75" font-family="Times,serif" font-size="14.00" fill="#ebc72d">Man</text>
</a>
</g>
</g>
<!-- training_camp&#45;&gt;axe_man -->
<g id="edge39" class="edge">
<title>training_camp&#45;&gt;axe_man</title>
<path fill="none" stroke="#ebc72d" stroke-dasharray="1,5" d="M827.39,-216.63C951.35,-202.07 1206.94,-170.81 1245.21,-156.17 1250.74,-154.05 1256.26,-151.21 1261.49,-148.07"/>
<polygon fill="#ebc72d" stroke="#ebc72d" points="1263.46,-150.97 1269.97,-142.61 1259.67,-145.09 1263.46,-150.97"/>
</g>
<!-- wartime_mechanic -->
<g id="node23" class="node">
<title>wartime_mechanic</title>
<g id="a_node23"><a xlink:href="romans_wartime_mechanic_full.html" xlink:title="Wartime\nMechanic">
<ellipse fill="none" stroke="magenta" cx="896.21" cy="-122.95" rx="60.21" ry="26.74"/>
<text text-anchor="middle" x="896.21" y="-126.75" font-family="Times,serif" font-size="14.00" fill="#ebc72d">Wartime</text>
<text text-anchor="middle" x="896.21" y="-111.75" font-family="Times,serif" font-size="14.00" fill="#ebc72d">Mechanic</text>
</a>
</g>
</g>
<!-- training_camp&#45;&gt;wartime_mechanic -->
<g id="edge45" class="edge">
<title>training_camp&#45;&gt;wartime_mechanic</title>
<path fill="none" stroke="#ebc72d" stroke-dasharray="1,5" d="M795.59,-198.26C814.73,-184.12 838.4,-166.64 857.97,-152.19"/>
<polygon fill="#ebc72d" stroke="#ebc72d" points="860.11,-154.96 866.08,-146.2 855.96,-149.33 860.11,-154.96"/>
</g>
<!-- swordsman -->
<g id="node25" class="node">
<title>swordsman</title>
<g id="a_node25"><a xlink:href="romans_swordsman_full.html" xlink:title="Swordsman">
<ellipse fill="none" stroke="magenta" cx="1137.21" cy="-122.95" rx="65.79" ry="18"/>
<text text-anchor="middle" x="1137.21" y="-119.25" font-family="Times,serif" font-size="14.00" fill="#ebc72d">Swordsman</text>
</a>
</g>
</g>
<!-- training_camp&#45;&gt;swordsman -->
<g id="edge44" class="edge">
<title>training_camp&#45;&gt;swordsman</title>
<path fill="none" stroke="#ebc72d" d="M827.39,-213.03C889.45,-201.67 983.77,-182.14 1063.21,-156.17 1074.44,-152.5 1086.3,-147.75 1097.15,-143.03"/>
<polygon fill="#ebc72d" stroke="#ebc72d" points="1098.68,-146.19 1106.39,-138.92 1095.83,-139.79 1098.68,-146.19"/>
</g>
<!-- eagle_pillar -->
<g id="node2" class="node">
<title>eagle_pillar</title>
<g id="a_node2"><a xlink:href="romans_eagle_pillar_full.html" xlink:title="Eagle\nPillar">
<polygon fill="none" stroke="red" points="122.85,-133.28 73.21,-156.38 23.57,-133.28 23.62,-95.91 122.81,-95.91 122.85,-133.28"/>
<text text-anchor="middle" x="73.21" y="-126.75" font-family="Times,serif" font-size="14.00" fill="#ebc72d">Eagle</text>
<text text-anchor="middle" x="73.21" y="-111.75" font-family="Times,serif" font-size="14.00" fill="#ebc72d">Pillar</text>
</a>
</g>
</g>
<!-- catapult -->
<g id="node3" class="node">
<title>catapult</title>
<g id="a_node3"><a xlink:href="romans_catapult_full.html" xlink:title="Catapult">
<ellipse fill="none" stroke="magenta" cx="834.21" cy="-26.87" rx="50.89" ry="18"/>
<text text-anchor="middle" x="834.21" y="-23.17" font-family="Times,serif" font-size="14.00" fill="#ebc72d">Catapult</text>
</a>
</g>
</g>
<!-- military_camp -->
<g id="node4" class="node">
<title>military_camp</title>
<g id="a_node4"><a xlink:href="romans_military_camp_full.html" xlink:title="Military\nCamp">
<polygon fill="none" stroke="red" points="591.07,-235.71 526.21,-258.81 461.35,-235.71 461.41,-198.34 591.01,-198.34 591.07,-235.71"/>
<text text-anchor="middle" x="526.21" y="-229.18" font-family="Times,serif" font-size="14.00" fill="#ebc72d">Military</text>
<text text-anchor="middle" x="526.21" y="-214.18" font-family="Times,serif" font-size="14.00" fill="#ebc72d">Camp</text>
</a>
</g>
</g>
<!-- military_camp&#45;&gt;eagle_pillar -->
<g id="edge23" class="edge">
<title>military_camp&#45;&gt;eagle_pillar</title>
<path fill="none" stroke="#ebc72d" stroke-dasharray="1,5" d="M461.22,-207.25C439.67,-201.95 415.5,-196.39 393.21,-192.17 278.16,-170.36 243.42,-192.83 132.21,-156.17 125.51,-153.96 118.68,-150.99 112.16,-147.76"/>
<polygon fill="#ebc72d" stroke="#ebc72d" points="113.36,-144.43 102.88,-142.87 110.1,-150.63 113.36,-144.43"/>
</g>
<!-- military_camp&#45;&gt;catapult -->
<g id="edge21" class="edge">
<title>military_camp&#45;&gt;catapult</title>
<path fill="none" stroke="#ebc72d" stroke-dasharray="1,5" d="M459.21,-121.95C464.37,-106.15 464.54,-99.19 478.21,-89.74 490.5,-81.24 681.65,-51.13 778.65,-36.28"/>
<polygon fill="#ebc72d" stroke="#ebc72d" points="779.22,-39.73 788.58,-34.76 778.17,-32.81 779.22,-39.73"/>
</g>
<!-- guard_tower -->
<g id="node5" class="node">
<title>guard_tower</title>
<g id="a_node5"><a xlink:href="romans_guard_tower_full.html" xlink:title="Guard\nTower">
<polygon fill="none" stroke="red" points="247.34,-133.28 194.21,-156.38 141.08,-133.28 141.13,-95.91 247.29,-95.91 247.34,-133.28"/>
<text text-anchor="middle" x="194.21" y="-126.75" font-family="Times,serif" font-size="14.00" fill="#ebc72d">Guard</text>
<text text-anchor="middle" x="194.21" y="-111.75" font-family="Times,serif" font-size="14.00" fill="#ebc72d">Tower</text>
</a>
</g>
</g>
<!-- military_camp&#45;&gt;guard_tower -->
<g id="edge25" class="edge">
<title>military_camp&#45;&gt;guard_tower</title>
<path fill="none" stroke="#ebc72d" stroke-dasharray="1,5" d="M461.32,-198.78C454.25,-196.38 447.11,-194.12 440.21,-192.17 360.03,-169.47 334.87,-183.66 256.21,-156.17 249.2,-153.72 242.01,-150.6 235.11,-147.27"/>
<polygon fill="#ebc72d" stroke="#ebc72d" points="236.44,-144.02 225.93,-142.65 233.28,-150.27 236.44,-144.02"/>
</g>
<!-- turtle_formation -->
<g id="node13" class="node">
<title>turtle_formation</title>
<g id="a_node13"><a xlink:href="romans_turtle_formation_full.html" xlink:title="Turtle\nFormation">
<ellipse fill="none" stroke="magenta" cx="329.21" cy="-122.95" rx="63.78" ry="26.74"/>
<text text-anchor="middle" x="329.21" y="-126.75" font-family="Times,serif" font-size="14.00" fill="#ebc72d">Turtle</text>
<text text-anchor="middle" x="329.21" y="-111.75" font-family="Times,serif" font-size="14.00" fill="#ebc72d">Formation</text>
</a>
</g>
</g>
<!-- military_camp&#45;&gt;turtle_formation -->
<g id="edge26" class="edge">
<title>military_camp&#45;&gt;turtle_formation</title>
<path fill="none" stroke="#ebc72d" d="M474.97,-198.26C445.03,-183 407.46,-163.84 377.97,-148.81"/>
<polygon fill="#ebc72d" stroke="#ebc72d" points="379.19,-145.5 368.69,-144.08 376.01,-151.74 379.19,-145.5"/>
</g>
<!-- cavalry -->
<g id="node14" class="node">
<title>cavalry</title>
<g id="a_node14"><a xlink:href="romans_cavalry_full.html" xlink:title="Cavalry">
<ellipse fill="none" stroke="magenta" cx="1391.21" cy="-122.95" rx="46.29" ry="18"/>
<text text-anchor="middle" x="1391.21" y="-119.25" font-family="Times,serif" font-size="14.00" fill="#ebc72d">Cavalry</text>
</a>
</g>
</g>
<!-- military_camp&#45;&gt;cavalry -->
<g id="edge22" class="edge">
<title>military_camp&#45;&gt;cavalry</title>
<path fill="none" stroke="#ebc72d" d="M591.19,-208.91C619.59,-202.72 653.39,-196.14 684.21,-192.17 828.13,-173.62 1197.26,-198.01 1336.21,-156.17 1345.06,-153.5 1354,-149.14 1362.02,-144.48"/>
<polygon fill="#ebc72d" stroke="#ebc72d" points="1363.96,-147.4 1370.63,-139.17 1360.28,-141.44 1363.96,-147.4"/>
</g>
<!-- military_camp&#45;&gt;general -->
<g id="edge24" class="edge">
<title>military_camp&#45;&gt;general</title>
<path fill="none" stroke="#ebc72d" d="M528.29,-198.26C529.45,-183.76 530.88,-165.75 532.05,-151.09"/>
<polygon fill="#ebc72d" stroke="#ebc72d" points="535.54,-151.36 532.84,-141.11 528.56,-150.8 535.54,-151.36"/>
</g>
<!-- ballista -->
<g id="node16" class="node">
<title>ballista</title>
<g id="a_node16"><a xlink:href="romans_ballista_full.html" xlink:title="Ballista">
<ellipse fill="none" stroke="magenta" cx="594.21" cy="-26.87" rx="46.29" ry="18"/>
<text text-anchor="middle" x="594.21" y="-23.17" font-family="Times,serif" font-size="14.00" fill="#ebc72d">Ballista</text>
</a>
</g>
</g>
<!-- military_camp&#45;&gt;ballista -->
<g id="edge20" class="edge">
<title>military_camp&#45;&gt;ballista</title>
<path fill="none" stroke="#ebc72d" stroke-dasharray="1,5" d="M491.35,-197.98C470.7,-178.88 450.17,-151.65 459.21,-123.95"/>
<path fill="none" stroke="#ebc72d" stroke-dasharray="1,5" d="M459.21,-121.95C472.38,-81.62 515.72,-56.41 549.78,-42.36"/>
<polygon fill="#ebc72d" stroke="#ebc72d" points="551.08,-45.61 559.11,-38.69 548.52,-39.1 551.08,-45.61"/>
</g>
<!-- military_camp&#45;&gt;wartime_mechanic -->
<g id="edge27" class="edge">
<title>military_camp&#45;&gt;wartime_mechanic</title>
<path fill="none" stroke="#ebc72d" d="M591.04,-211.38C665.87,-196.08 784.18,-170.9 827.21,-156.17 834.18,-153.78 841.38,-150.91 848.38,-147.88"/>
<polygon fill="#ebc72d" stroke="#ebc72d" points="850.07,-150.95 857.77,-143.67 847.21,-144.57 850.07,-150.95"/>
</g>
<!-- slave -->
<g id="node6" class="node">
<title>slave</title>
<g id="a_node6"><a xlink:href="romans_slave_full.html" xlink:title="Slave">
<ellipse fill="none" stroke="magenta" cx="643.21" cy="-312.59" rx="36.29" ry="18"/>
<text text-anchor="middle" x="643.21" y="-308.89" font-family="Times,serif" font-size="14.00" fill="#ebc72d">Slave</text>
</a>
</g>
</g>
<!-- slave&#45;&gt;training_camp -->
<g id="edge35" class="edge">
<title>slave&#45;&gt;training_camp</title>
<path fill="none" stroke="#ebc72d" stroke-width="2" d="M662.79,-297.33C678.73,-285.72 701.72,-268.98 721.37,-254.67"/>
<polygon fill="#ebc72d" stroke="#ebc72d" stroke-width="2" points="723.53,-257.43 729.55,-248.71 719.41,-251.77 723.53,-257.43"/>
</g>
<!-- slave&#45;&gt;eagle_pillar -->
<g id="edge29" class="edge">
<title>slave&#45;&gt;eagle_pillar</title>
<path fill="none" stroke="#ebc72d" stroke-width="2" d="M606.61,-312.06C537.42,-311.75 383.74,-305.31 265.21,-258.59 202.18,-233.75 139.96,-184.31 104.14,-152.75"/>
<polygon fill="#ebc72d" stroke="#ebc72d" stroke-width="2" points="106.26,-149.96 96.47,-145.92 101.6,-155.18 106.26,-149.96"/>
</g>
<!-- slave&#45;&gt;military_camp -->
<g id="edge33" class="edge">
<title>slave&#45;&gt;military_camp</title>
<path fill="none" stroke="#ebc72d" stroke-width="2" d="M623.63,-297.33C607.58,-285.64 584.37,-268.74 564.63,-254.36"/>
<polygon fill="#ebc72d" stroke="#ebc72d" stroke-width="2" points="566.56,-251.44 556.42,-248.38 562.44,-257.1 566.56,-251.44"/>
</g>
<!-- slave&#45;&gt;guard_tower -->
<g id="edge32" class="edge">
<title>slave&#45;&gt;guard_tower</title>
<path fill="none" stroke="#ebc72d" stroke-width="2" d="M608.05,-307.91C567.8,-302.37 501.12,-289.09 452.21,-258.59 418.71,-237.7 426.86,-212.83 393.21,-192.17 339.56,-159.22 314.95,-178.82 256.21,-156.17 249.36,-153.53 242.29,-150.33 235.48,-147"/>
<polygon fill="#ebc72d" stroke="#ebc72d" stroke-width="2" points="236.9,-143.8 226.4,-142.4 233.74,-150.04 236.9,-143.8"/>
</g>
<!-- gladiator_school -->
<g id="node9" class="node">
<title>gladiator_school</title>
<g id="a_node9"><a xlink:href="romans_gladiator_school_full.html" xlink:title="Gladiator\nSchool">
<polygon fill="none" stroke="red" points="1374.8,-235.71 1302.21,-258.81 1229.62,-235.71 1229.69,-198.34 1374.73,-198.34 1374.8,-235.71"/>
<text text-anchor="middle" x="1302.21" y="-229.18" font-family="Times,serif" font-size="14.00" fill="#ebc72d">Gladiator</text>
<text text-anchor="middle" x="1302.21" y="-214.18" font-family="Times,serif" font-size="14.00" fill="#ebc72d">School</text>
</a>
</g>
</g>
<!-- slave&#45;&gt;gladiator_school -->
<g id="edge31" class="edge">
<title>slave&#45;&gt;gladiator_school</title>
<path fill="none" stroke="#ebc72d" stroke-width="2" d="M679.64,-311.85C771.74,-311.72 1020.8,-306.57 1221.21,-258.59 1231.04,-256.24 1241.24,-252.93 1250.97,-249.31"/>
<polygon fill="#ebc72d" stroke="#ebc72d" stroke-width="2" points="1252.44,-252.49 1260.5,-245.62 1249.91,-245.97 1252.44,-252.49"/>
</g>
<!-- temple -->
<g id="node17" class="node">
<title>temple</title>
<g id="a_node17"><a xlink:href="romans_temple_full.html" xlink:title="Temple">
<polygon fill="none" stroke="red" points="383.97,-230.94 329.21,-243.38 274.45,-230.94 274.5,-210.82 383.92,-210.82 383.97,-230.94"/>
<text text-anchor="middle" x="329.21" y="-221.68" font-family="Times,serif" font-size="14.00" fill="#ebc72d">Temple</text>
</a>
</g>
</g>
<!-- slave&#45;&gt;temple -->
<g id="edge34" class="edge">
<title>slave&#45;&gt;temple</title>
<path fill="none" stroke="#ebc72d" stroke-width="2" d="M609.53,-305.45C564.19,-296.83 481.24,-279.79 412.21,-258.59 396.36,-253.73 379.23,-247.29 364.66,-241.44"/>
<polygon fill="#ebc72d" stroke="#ebc72d" stroke-width="2" points="365.62,-238.05 355.04,-237.52 362.98,-244.53 365.62,-238.05"/>
</g>
<!-- forum -->
<g id="node18" class="node">
<title>forum</title>
<g id="a_node18"><a xlink:href="romans_forum_full.html" xlink:title="Forum">
<polygon fill="none" stroke="red" points="1600.94,-230.94 1550.21,-243.38 1499.49,-230.94 1499.53,-210.82 1600.89,-210.82 1600.94,-230.94"/>
<text text-anchor="middle" x="1550.21" y="-221.68" font-family="Times,serif" font-size="14.00" fill="#ebc72d">Forum</text>
</a>
</g>
</g>
<!-- slave&#45;&gt;forum -->
<g id="edge30" class="edge">
<title>slave&#45;&gt;forum</title>
<path fill="none" stroke="#ebc72d" stroke-width="2" d="M689.65,-310.21C806.67,-306.31 1122.95,-293.16 1384.21,-258.59 1425.09,-253.18 1471.09,-244.01 1504.28,-236.84"/>
<polygon fill="#ebc72d" stroke="#ebc72d" stroke-width="2" points="689.49,-306.72 679.61,-310.54 689.72,-313.71 689.49,-306.72"/>
<polygon fill="#ebc72d" stroke="#ebc72d" stroke-width="2" points="1505.13,-240.23 1514.15,-234.68 1503.63,-233.39 1505.13,-240.23"/>
</g>
<!-- blacksmith_shop -->
<g id="node21" class="node">
<title>blacksmith_shop</title>
<g id="a_node21"><a xlink:href="romans_blacksmith_shop_full.html" xlink:title="Blacksmith\nShop">
<polygon fill="none" stroke="red" points="1212.03,-235.71 1128.21,-258.81 1044.4,-235.71 1044.48,-198.34 1211.95,-198.34 1212.03,-235.71"/>
<text text-anchor="middle" x="1128.21" y="-229.18" font-family="Times,serif" font-size="14.00" fill="#ebc72d">Blacksmith</text>
<text text-anchor="middle" x="1128.21" y="-214.18" font-family="Times,serif" font-size="14.00" fill="#ebc72d">Shop</text>
</a>
</g>
</g>
<!-- slave&#45;&gt;blacksmith_shop -->
<g id="edge28" class="edge">
<title>slave&#45;&gt;blacksmith_shop</title>
<path fill="none" stroke="#ebc72d" stroke-width="2" d="M676.93,-305.67C752.65,-292.36 938.01,-259.8 1046.15,-240.8"/>
<polygon fill="#ebc72d" stroke="#ebc72d" stroke-width="2" points="1046.81,-244.24 1056.05,-239.06 1045.6,-237.34 1046.81,-244.24"/>
</g>
<!-- battering_ram -->
<g id="node8" class="node">
<title>battering_ram</title>
<g id="a_node8"><a xlink:href="romans_battering_ram_full.html" xlink:title="Battering\nRam">
<ellipse fill="none" stroke="magenta" cx="1231.21" cy="-26.87" rx="60.21" ry="26.74"/>
<text text-anchor="middle" x="1231.21" y="-30.67" font-family="Times,serif" font-size="14.00" fill="#ebc72d">Battering</text>
<text text-anchor="middle" x="1231.21" y="-15.67" font-family="Times,serif" font-size="14.00" fill="#ebc72d">Ram</text>
</a>
</g>
</g>
<!-- gladiator -->
<g id="node11" class="node">
<title>gladiator</title>
<g id="a_node11"><a xlink:href="romans_gladiator_full.html" xlink:title="Gladiator">
<ellipse fill="none" stroke="magenta" cx="1547.21" cy="-122.95" rx="53.89" ry="18"/>
<text text-anchor="middle" x="1547.21" y="-119.25" font-family="Times,serif" font-size="14.00" fill="#ebc72d">Gladiator</text>
</a>
</g>
</g>
<!-- gladiator_school&#45;&gt;gladiator -->
<g id="edge19" class="edge">
<title>gladiator_school&#45;&gt;gladiator</title>
<path fill="none" stroke="#ebc72d" d="M1373.75,-198.2C1406.17,-185.98 1444.86,-170.9 1479.21,-156.17 1489.04,-151.95 1499.53,-147.14 1509.26,-142.54"/>
<polygon fill="#ebc72d" stroke="#ebc72d" points="1510.79,-145.69 1518.31,-138.23 1507.78,-139.37 1510.79,-145.69"/>
</g>
<!-- gladiator_school&#45;&gt;axe_man -->
<g id="edge18" class="edge">
<title>gladiator_school&#45;&gt;axe_man</title>
<path fill="none" stroke="#ebc72d" d="M1299.87,-198.26C1298.83,-186.63 1297.58,-172.75 1296.46,-160.15"/>
<polygon fill="#ebc72d" stroke="#ebc72d" points="1299.92,-159.59 1295.54,-149.95 1292.95,-160.22 1299.92,-159.59"/>
</g>
<!-- tribune -->
<g id="node12" class="node">
<title>tribune</title>
<g id="a_node12"><a xlink:href="romans_tribune_full.html" xlink:title="Tribune">
<ellipse fill="none" stroke="magenta" cx="1465.21" cy="-26.87" rx="46.59" ry="18"/>
<text text-anchor="middle" x="1465.21" y="-23.17" font-family="Times,serif" font-size="14.00" fill="#ebc72d">Tribune</text>
</a>
</g>
</g>
<!-- cavalry&#45;&gt;tribune -->
<g id="edge13" class="edge">
<title>cavalry&#45;&gt;tribune</title>
<path fill="none" stroke="#ebc72d" stroke-dasharray="5,2" d="M1404.1,-105.57C1415.6,-90.95 1432.59,-69.34 1445.74,-52.62"/>
<polygon fill="#ebc72d" stroke="#ebc72d" points="1448.79,-54.41 1452.22,-44.39 1443.29,-50.08 1448.79,-54.41"/>
</g>
<!-- temple&#45;&gt;fire_archer -->
<g id="edge36" class="edge">
<title>temple&#45;&gt;fire_archer</title>
<path fill="none" stroke="#ebc72d" stroke-dasharray="1,5" d="M274.49,-220.6C193.11,-213.7 46.31,-195.96 14.21,-156.17 -4.32,-133.19 -5.03,-112.13 14.21,-89.74 58.8,-37.86 264.28,-28.97 365.1,-27.79"/>
<polygon fill="#ebc72d" stroke="#ebc72d" points="365.14,-31.29 375.11,-27.7 365.07,-24.29 365.14,-31.29"/>
</g>
<!-- temple&#45;&gt;turtle_formation -->
<g id="edge37" class="edge">
<title>temple&#45;&gt;turtle_formation</title>
<path fill="none" stroke="#ebc72d" stroke-dasharray="1,5" d="M329.21,-210.42C329.21,-197.56 329.21,-177.92 329.21,-160.61"/>
<polygon fill="#ebc72d" stroke="#ebc72d" points="332.71,-160.21 329.21,-150.21 325.71,-160.21 332.71,-160.21"/>
</g>
<!-- forum&#45;&gt;tribune -->
<g id="edge17" class="edge">
<title>forum&#45;&gt;tribune</title>
<path fill="none" stroke="#ebc72d" stroke-dasharray="1,5" d="M1601.15,-213.71C1632.41,-204.25 1670.02,-186.97 1689.21,-156.17 1704.83,-131.11 1707.09,-113.23 1689.21,-89.74 1668.65,-62.73 1578.35,-44.5 1518.86,-35.17"/>
<polygon fill="#ebc72d" stroke="#ebc72d" points="1519.28,-31.7 1508.87,-33.64 1518.22,-38.62 1519.28,-31.7"/>
</g>
<!-- forum&#45;&gt;cavalry -->
<g id="edge14" class="edge">
<title>forum&#45;&gt;cavalry</title>
<path fill="none" stroke="#ebc72d" stroke-dasharray="1,5" d="M1528.44,-210.63C1501.27,-193.47 1454.58,-163.98 1423.31,-144.22"/>
<polygon fill="#ebc72d" stroke="#ebc72d" points="1424.85,-141.06 1414.53,-138.68 1421.11,-146.98 1424.85,-141.06"/>
</g>
<!-- cow -->
<g id="node24" class="node">
<title>cow</title>
<g id="a_node24"><a xlink:href="romans_cow_full.html" xlink:title="Cow">
<ellipse fill="none" stroke="magenta" cx="1649.21" cy="-122.95" rx="30.59" ry="18"/>
<text text-anchor="middle" x="1649.21" y="-119.25" font-family="Times,serif" font-size="14.00" fill="#ebc72d">Cow</text>
</a>
</g>
</g>
<!-- forum&#45;&gt;cow -->
<g id="edge15" class="edge">
<title>forum&#45;&gt;cow</title>
<path fill="none" stroke="#ebc72d" d="M1563.98,-210.42C1580.39,-193.76 1608.04,-165.72 1627.38,-146.1"/>
<polygon fill="#ebc72d" stroke="#ebc72d" points="1630.07,-148.36 1634.6,-138.78 1625.08,-143.44 1630.07,-148.36"/>
</g>
<!-- archer&#45;&gt;fire_archer -->
<g id="edge1" class="edge">
<title>archer&#45;&gt;fire_archer</title>
<path fill="none" stroke="#ebc72d" stroke-dasharray="5,2" d="M620.76,-107.3C611.59,-101.4 600.62,-94.8 590.21,-89.74 551.47,-70.89 505.43,-54.4 471.2,-43.19"/>
<polygon fill="#ebc72d" stroke="#ebc72d" points="472.02,-39.78 461.42,-40.03 469.86,-46.44 472.02,-39.78"/>
</g>
<!-- blacksmith_shop&#45;&gt;catapult -->
<g id="edge4" class="edge">
<title>blacksmith_shop&#45;&gt;catapult</title>
<path fill="none" stroke="#ebc72d" stroke-dasharray="1,5" d="M1183.04,-198.22C1210.34,-180.98 1236.53,-155.73 1231.21,-123.95"/>
<path fill="none" stroke="#ebc72d" stroke-dasharray="1,5" d="M1231.21,-121.95C1228.47,-105.56 1225.93,-99.13 1212.21,-89.74 1161.5,-55.04 986.99,-38.19 893.87,-31.51"/>
<polygon fill="#ebc72d" stroke="#ebc72d" points="893.97,-28.01 883.75,-30.8 893.48,-34.99 893.97,-28.01"/>
</g>
<!-- blacksmith_shop&#45;&gt;guard -->
<g id="edge8" class="edge">
<title>blacksmith_shop&#45;&gt;guard</title>
<path fill="none" stroke="#ebc72d" stroke-dasharray="1,5" d="M1098.56,-198.26C1080.14,-182.03 1056.72,-161.4 1039.24,-146"/>
<polygon fill="#ebc72d" stroke="#ebc72d" points="1041.48,-143.31 1031.66,-139.32 1036.85,-148.56 1041.48,-143.31"/>
</g>
<!-- blacksmith_shop&#45;&gt;battering_ram -->
<g id="edge3" class="edge">
<title>blacksmith_shop&#45;&gt;battering_ram</title>
<path fill="none" stroke="#ebc72d" stroke-dasharray="1,5" d="M1231.21,-121.95C1228.06,-103.14 1227.79,-81.92 1228.42,-64.4"/>
<polygon fill="#ebc72d" stroke="#ebc72d" points="1231.93,-64.17 1228.91,-54.02 1224.94,-63.84 1231.93,-64.17"/>
</g>
<!-- blacksmith_shop&#45;&gt;gladiator -->
<g id="edge7" class="edge">
<title>blacksmith_shop&#45;&gt;gladiator</title>
<path fill="none" stroke="#ebc72d" stroke-dasharray="1,5" d="M1198.1,-198.3C1205.51,-196.02 1212.97,-193.92 1220.21,-192.17 1333.17,-164.83 1367.85,-189.43 1479.21,-156.17 1490.14,-152.9 1501.52,-148.12 1511.77,-143.23"/>
<polygon fill="#ebc72d" stroke="#ebc72d" points="1513.41,-146.33 1520.83,-138.76 1510.31,-140.05 1513.41,-146.33"/>
</g>
<!-- blacksmith_shop&#45;&gt;tribune -->
<g id="edge10" class="edge">
<title>blacksmith_shop&#45;&gt;tribune</title>
<path fill="none" stroke="#ebc72d" stroke-dasharray="1,5" d="M1198.64,-198.29C1205.88,-196.04 1213.16,-193.95 1220.21,-192.17 1269.52,-179.71 1410.45,-192.32 1446.21,-156.17 1472.19,-129.91 1472.67,-84.62 1469.67,-55.47"/>
<polygon fill="#ebc72d" stroke="#ebc72d" points="1473.1,-54.66 1468.4,-45.17 1466.15,-55.52 1473.1,-54.66"/>
</g>
<!-- blacksmith_shop&#45;&gt;turtle_formation -->
<g id="edge11" class="edge">
<title>blacksmith_shop&#45;&gt;turtle_formation</title>
<path fill="none" stroke="#ebc72d" stroke-dasharray="1,5" d="M1044.24,-214.71C985.91,-208.09 906.36,-199.27 836.21,-192.17 662.59,-174.6 616.86,-187.64 445.21,-156.17 426.65,-152.76 406.75,-147.75 388.77,-142.69"/>
<polygon fill="#ebc72d" stroke="#ebc72d" points="389.58,-139.28 379,-139.89 387.65,-146.01 389.58,-139.28"/>
</g>
<!-- blacksmith_shop&#45;&gt;cavalry -->
<g id="edge5" class="edge">
<title>blacksmith_shop&#45;&gt;cavalry</title>
<path fill="none" stroke="#ebc72d" stroke-dasharray="1,5" d="M1201.95,-198.3C1208.12,-196.2 1214.27,-194.13 1220.21,-192.17 1271.47,-175.24 1286.82,-177.95 1336.21,-156.17 1343.97,-152.74 1352.01,-148.48 1359.48,-144.19"/>
<polygon fill="#ebc72d" stroke="#ebc72d" points="1361.74,-146.92 1368.55,-138.81 1358.16,-140.9 1361.74,-146.92"/>
</g>
<!-- blacksmith_shop&#45;&gt;general -->
<g id="edge6" class="edge">
<title>blacksmith_shop&#45;&gt;general</title>
<path fill="none" stroke="#ebc72d" stroke-dasharray="1,5" d="M1044.39,-215.53C904.17,-200.46 633.22,-170.1 591.21,-156.17 582.35,-153.23 573.31,-148.86 565.12,-144.28"/>
<polygon fill="#ebc72d" stroke="#ebc72d" points="566.68,-141.14 556.29,-139.09 563.14,-147.18 566.68,-141.14"/>
</g>
<!-- blacksmith_shop&#45;&gt;axe_man -->
<g id="edge2" class="edge">
<title>blacksmith_shop&#45;&gt;axe_man</title>
<path fill="none" stroke="#ebc72d" stroke-dasharray="1,5" d="M1174.45,-198.32C1196.13,-185.87 1222.19,-170.58 1245.21,-156.17 1249.89,-153.24 1254.77,-150.08 1259.56,-146.93"/>
<polygon fill="#ebc72d" stroke="#ebc72d" points="1261.61,-149.76 1268,-141.31 1257.73,-143.94 1261.61,-149.76"/>
</g>
<!-- blacksmith_shop&#45;&gt;wartime_mechanic -->
<g id="edge12" class="edge">
<title>blacksmith_shop&#45;&gt;wartime_mechanic</title>
<path fill="none" stroke="#ebc72d" stroke-dasharray="1,5" d="M1064.09,-198.25C1033.96,-185.79 997.61,-170.5 965.21,-156.17 958.96,-153.4 952.41,-150.43 945.95,-147.47"/>
<polygon fill="#ebc72d" stroke="#ebc72d" points="947.13,-144.16 936.59,-143.14 944.19,-150.51 947.13,-144.16"/>
</g>
<!-- blacksmith_shop&#45;&gt;swordsman -->
<g id="edge9" class="edge">
<title>blacksmith_shop&#45;&gt;swordsman</title>
<path fill="none" stroke="#ebc72d" stroke-dasharray="1,5" d="M1130.55,-198.26C1131.85,-183.76 1133.47,-165.75 1134.78,-151.09"/>
<polygon fill="#ebc72d" stroke="#ebc72d" points="1138.27,-151.38 1135.67,-141.11 1131.29,-150.76 1138.27,-151.38"/>
</g>
<!-- wartime_mechanic&#45;&gt;catapult -->
<g id="edge48" class="edge">
<title>wartime_mechanic&#45;&gt;catapult</title>
<path fill="none" stroke="#ebc72d" stroke-dasharray="5,2" d="M879.6,-96.74C870.65,-83.17 859.65,-66.48 850.72,-52.93"/>
<polygon fill="#ebc72d" stroke="#ebc72d" points="853.62,-50.97 845.2,-44.54 847.78,-54.82 853.62,-50.97"/>
</g>
<!-- wartime_mechanic&#45;&gt;battering_ram -->
<g id="edge47" class="edge">
<title>wartime_mechanic&#45;&gt;battering_ram</title>
<path fill="none" stroke="#ebc72d" stroke-dasharray="5,2" d="M934.67,-102.28C944.47,-97.75 955.09,-93.24 965.21,-89.74 1032.08,-66.64 1111.37,-49.45 1165.88,-39.13"/>
<polygon fill="#ebc72d" stroke="#ebc72d" points="1166.57,-42.56 1175.76,-37.28 1165.29,-35.68 1166.57,-42.56"/>
</g>
<!-- wartime_mechanic&#45;&gt;ballista -->
<g id="edge46" class="edge">
<title>wartime_mechanic&#45;&gt;ballista</title>
<path fill="none" stroke="#ebc72d" stroke-dasharray="5,2" d="M857.31,-102.33C847.62,-97.85 837.15,-93.35 827.21,-89.74 765.32,-67.28 691.51,-49.06 643.8,-38.35"/>
<polygon fill="#ebc72d" stroke="#ebc72d" points="644.55,-34.93 634.03,-36.18 643.03,-41.77 644.55,-34.93"/>
</g>
</g>
</svg>
