<?xml version="1.0" encoding="UTF-8" standalone="no"?>
<!DOCTYPE svg PUBLIC "-//W3C//DTD SVG 1.1//EN"
 "http://www.w3.org/Graphics/SVG/1.1/DTD/svg11.dtd">
<!-- Generated by graphviz version 2.49.3 (0)
 -->
<!-- Title: test Pages: 1 -->
<svg width="1107pt" height="531pt"
 viewBox="0.00 0.00 1106.72 530.76" xmlns="http://www.w3.org/2000/svg" xmlns:xlink="http://www.w3.org/1999/xlink">
<g id="graph0" class="graph" transform="scale(1 1) rotate(0) translate(4 526.76)">
<title>test</title>
<polygon fill="#151515" stroke="transparent" points="-4,4 -4,-526.76 1102.72,-526.76 1102.72,4 -4,4"/>
<!-- mage_tower -->
<g id="node1" class="node">
<title>mage_tower</title>
<g id="a_node1"><a xlink:href="magic_mage_tower_full.html" xlink:title="Mage\nTower">
<polygon fill="none" stroke="red" points="258.42,-499.88 205.29,-522.97 152.16,-499.88 152.21,-462.5 258.37,-462.5 258.42,-499.88"/>
<text text-anchor="middle" x="205.29" y="-493.35" font-family="Times,serif" font-size="14.00" fill="#ebc72d">Mage</text>
<text text-anchor="middle" x="205.29" y="-478.35" font-family="Times,serif" font-size="14.00" fill="#ebc72d">Tower</text>
</a>
</g>
</g>
<!-- initiate -->
<g id="node8" class="node">
<title>initiate</title>
<g id="a_node8"><a xlink:href="magic_initiate_full.html" xlink:title="Initiate">
<ellipse fill="none" stroke="magenta" cx="445.29" cy="-402.33" rx="44.39" ry="18"/>
<text text-anchor="middle" x="445.29" y="-398.63" font-family="Times,serif" font-size="14.00" fill="#ebc72d">Initiate</text>
</a>
</g>
</g>
<!-- mage_tower&#45;&gt;initiate -->
<g id="edge21" class="edge">
<title>mage_tower&#45;&gt;initiate</title>
<path fill="none" stroke="#ebc72d" d="M268.24,-466.19C310.97,-451.02 366.27,-431.39 403.61,-418.13"/>
<polygon fill="#ebc72d" stroke="#ebc72d" points="266.8,-462.99 258.55,-469.63 269.15,-469.59 266.8,-462.99"/>
<polygon fill="#ebc72d" stroke="#ebc72d" points="404.91,-421.38 413.17,-414.74 402.57,-414.79 404.91,-421.38"/>
</g>
<!-- behemoth -->
<g id="node13" class="node">
<title>behemoth</title>
<g id="a_node13"><a xlink:href="magic_behemoth_full.html" xlink:title="Behemoth">
<ellipse fill="none" stroke="magenta" cx="80.29" cy="-116.61" rx="57.69" ry="18"/>
<text text-anchor="middle" x="80.29" y="-112.91" font-family="Times,serif" font-size="14.00" fill="#ebc72d">Behemoth</text>
</a>
</g>
</g>
<!-- mage_tower&#45;&gt;behemoth -->
<g id="edge20" class="edge">
<title>mage_tower&#45;&gt;behemoth</title>
<path fill="none" stroke="#ebc72d" stroke-dasharray="1,5" d="M168.46,-462.35C134.36,-436.56 84.12,-394.42 51.29,-348.33 22.54,-307.98 17.27,-294.44 7.29,-245.91 1.34,-216.99 -5.12,-206.27 7.29,-179.48 15.11,-162.6 30.07,-148.64 44.41,-138.29"/>
<polygon fill="#ebc72d" stroke="#ebc72d" points="46.44,-141.14 52.73,-132.61 42.5,-135.35 46.44,-141.14"/>
</g>
<!-- wicker_behemoth -->
<g id="node2" class="node">
<title>wicker_behemoth</title>
<g id="a_node2"><a xlink:href="magic_wicker_behemoth_full.html" xlink:title="Wicker\nBehemoth">
<polygon fill="none" stroke="red" points="171.87,-223.02 94.29,-246.12 16.71,-223.02 16.78,-185.65 171.79,-185.65 171.87,-223.02"/>
<text text-anchor="middle" x="94.29" y="-216.49" font-family="Times,serif" font-size="14.00" fill="#ebc72d">Wicker</text>
<text text-anchor="middle" x="94.29" y="-201.49" font-family="Times,serif" font-size="14.00" fill="#ebc72d">Behemoth</text>
</a>
</g>
</g>
<!-- wicker_behemoth&#45;&gt;behemoth -->
<g id="edge29" class="edge">
<title>wicker_behemoth&#45;&gt;behemoth</title>
<path fill="none" stroke="#ebc72d" stroke-dasharray="5,2" d="M90.39,-185.49C88.51,-172.83 86.25,-157.65 84.34,-144.85"/>
<polygon fill="#ebc72d" stroke="#ebc72d" points="87.78,-144.16 82.84,-134.78 80.85,-145.19 87.78,-144.16"/>
</g>
<!-- ghost_armor -->
<g id="node3" class="node">
<title>ghost_armor</title>
<g id="a_node3"><a xlink:href="magic_ghost_armor_full.html" xlink:title="Ghost\nArmor">
<ellipse fill="none" stroke="magenta" cx="400.29" cy="-116.61" rx="43.68" ry="26.74"/>
<text text-anchor="middle" x="400.29" y="-120.41" font-family="Times,serif" font-size="14.00" fill="#ebc72d">Ghost</text>
<text text-anchor="middle" x="400.29" y="-105.41" font-family="Times,serif" font-size="14.00" fill="#ebc72d">Armor</text>
</a>
</g>
</g>
<!-- battlemage -->
<g id="node4" class="node">
<title>battlemage</title>
<g id="a_node4"><a xlink:href="magic_battlemage_full.html" xlink:title="Battlemage">
<ellipse fill="none" stroke="magenta" cx="768.29" cy="-315.12" rx="64.19" ry="18"/>
<text text-anchor="middle" x="768.29" y="-311.42" font-family="Times,serif" font-size="14.00" fill="#ebc72d">Battlemage</text>
</a>
</g>
</g>
<!-- archmage -->
<g id="node17" class="node">
<title>archmage</title>
<g id="a_node17"><a xlink:href="magic_archmage_full.html" xlink:title="Archmage">
<ellipse fill="none" stroke="magenta" cx="781.29" cy="-212.69" rx="57.69" ry="18"/>
<text text-anchor="middle" x="781.29" y="-208.99" font-family="Times,serif" font-size="14.00" fill="#ebc72d">Archmage</text>
</a>
</g>
</g>
<!-- battlemage&#45;&gt;archmage -->
<g id="edge4" class="edge">
<title>battlemage&#45;&gt;archmage</title>
<path fill="none" stroke="#ebc72d" stroke-dasharray="5,2" d="M770.49,-297.08C772.48,-281.72 775.44,-258.85 777.76,-240.95"/>
<polygon fill="#ebc72d" stroke="#ebc72d" points="781.26,-241.18 779.07,-230.81 774.32,-240.28 781.26,-241.18"/>
</g>
<!-- evil_dragon -->
<g id="node5" class="node">
<title>evil_dragon</title>
<g id="a_node5"><a xlink:href="magic_evil_dragon_full.html" xlink:title="Evil\nDragon">
<ellipse fill="none" stroke="magenta" cx="761.29" cy="-26.87" rx="48.58" ry="26.74"/>
<text text-anchor="middle" x="761.29" y="-30.67" font-family="Times,serif" font-size="14.00" fill="#ebc72d">Evil</text>
<text text-anchor="middle" x="761.29" y="-15.67" font-family="Times,serif" font-size="14.00" fill="#ebc72d">Dragon</text>
</a>
</g>
</g>
<!-- power_golem -->
<g id="node6" class="node">
<title>power_golem</title>
<g id="a_node6"><a xlink:href="magic_power_golem_full.html" xlink:title="Power\nGolem">
<polygon fill="none" stroke="red" points="591.67,-223.02 537.29,-246.12 482.91,-223.02 482.96,-185.65 591.62,-185.65 591.67,-223.02"/>
<text text-anchor="middle" x="537.29" y="-216.49" font-family="Times,serif" font-size="14.00" fill="#ebc72d">Power</text>
<text text-anchor="middle" x="537.29" y="-201.49" font-family="Times,serif" font-size="14.00" fill="#ebc72d">Golem</text>
</a>
</g>
</g>
<!-- dragon -->
<g id="node7" class="node">
<title>dragon</title>
<g id="a_node7"><a xlink:href="magic_dragon_full.html" xlink:title="Dragon">
<ellipse fill="none" stroke="magenta" cx="623.29" cy="-116.61" rx="44.69" ry="18"/>
<text text-anchor="middle" x="623.29" y="-112.91" font-family="Times,serif" font-size="14.00" fill="#ebc72d">Dragon</text>
</a>
</g>
</g>
<!-- dragon&#45;&gt;evil_dragon -->
<g id="edge5" class="edge">
<title>dragon&#45;&gt;evil_dragon</title>
<path fill="none" stroke="#ebc72d" stroke-dasharray="5,2" d="M646.39,-100.92C666.82,-87.93 697.08,-68.69 721.42,-53.22"/>
<polygon fill="#ebc72d" stroke="#ebc72d" points="723.53,-56.03 730.09,-47.71 719.77,-50.12 723.53,-56.03"/>
</g>
<!-- initiate&#45;&gt;wicker_behemoth -->
<g id="edge17" class="edge">
<title>initiate&#45;&gt;wicker_behemoth</title>
<path fill="none" stroke="#ebc72d" stroke-width="2" d="M400.79,-402.04C310.37,-402.41 110.07,-397.53 67.29,-348.33 43.83,-321.35 57.12,-279.77 72.16,-249.96"/>
<polygon fill="#ebc72d" stroke="#ebc72d" stroke-width="2" points="75.26,-251.59 76.84,-241.11 69.07,-248.31 75.26,-251.59"/>
</g>
<!-- initiate&#45;&gt;battlemage -->
<g id="edge10" class="edge">
<title>initiate&#45;&gt;battlemage</title>
<path fill="none" stroke="#ebc72d" stroke-dasharray="5,2" d="M486.23,-395.32C536.31,-387.36 623.3,-371.57 695.29,-348.33 706.29,-344.78 717.88,-340.12 728.5,-335.46"/>
<polygon fill="#ebc72d" stroke="#ebc72d" points="730.26,-338.5 737.94,-331.2 727.38,-332.12 730.26,-338.5"/>
</g>
<!-- archmage_tower -->
<g id="node10" class="node">
<title>archmage_tower</title>
<g id="a_node10"><a xlink:href="magic_archmage_tower_full.html" xlink:title="Archmage\nTower">
<polygon fill="none" stroke="red" points="685.87,-325.45 608.29,-348.55 530.71,-325.45 530.78,-288.08 685.79,-288.08 685.87,-325.45"/>
<text text-anchor="middle" x="608.29" y="-318.92" font-family="Times,serif" font-size="14.00" fill="#ebc72d">Archmage</text>
<text text-anchor="middle" x="608.29" y="-303.92" font-family="Times,serif" font-size="14.00" fill="#ebc72d">Tower</text>
</a>
</g>
</g>
<!-- initiate&#45;&gt;archmage_tower -->
<g id="edge9" class="edge">
<title>initiate&#45;&gt;archmage_tower</title>
<path fill="none" stroke="#ebc72d" stroke-width="2" d="M471.48,-387.64C495.11,-375.29 530.48,-356.79 559.34,-341.71"/>
<polygon fill="#ebc72d" stroke="#ebc72d" stroke-width="2" points="561.22,-344.68 568.46,-336.94 557.98,-338.47 561.22,-344.68"/>
</g>
<!-- summoner_guild -->
<g id="node11" class="node">
<title>summoner_guild</title>
<g id="a_node11"><a xlink:href="magic_summoner_guild_full.html" xlink:title="Summoner\nGuild">
<polygon fill="none" stroke="red" points="242.35,-325.45 159.29,-348.55 76.22,-325.45 76.3,-288.08 242.28,-288.08 242.35,-325.45"/>
<text text-anchor="middle" x="159.29" y="-318.92" font-family="Times,serif" font-size="14.00" fill="#ebc72d">Summoner</text>
<text text-anchor="middle" x="159.29" y="-303.92" font-family="Times,serif" font-size="14.00" fill="#ebc72d">Guild</text>
</a>
</g>
</g>
<!-- initiate&#45;&gt;summoner_guild -->
<g id="edge15" class="edge">
<title>initiate&#45;&gt;summoner_guild</title>
<path fill="none" stroke="#ebc72d" stroke-width="2" d="M408.6,-392.13C369.42,-382.11 305.63,-365.25 251.29,-348.33 241.02,-345.14 230.18,-341.54 219.69,-337.95"/>
<polygon fill="#ebc72d" stroke="#ebc72d" stroke-width="2" points="220.77,-334.62 210.17,-334.65 218.48,-341.23 220.77,-334.62"/>
</g>
<!-- golem -->
<g id="node12" class="node">
<title>golem</title>
<g id="a_node12"><a xlink:href="magic_golem_full.html" xlink:title="Golem">
<polygon fill="none" stroke="red" points="359.91,-320.68 310.29,-333.12 260.67,-320.68 260.72,-300.56 359.86,-300.56 359.91,-320.68"/>
<text text-anchor="middle" x="310.29" y="-311.42" font-family="Times,serif" font-size="14.00" fill="#ebc72d">Golem</text>
</a>
</g>
</g>
<!-- initiate&#45;&gt;golem -->
<g id="edge12" class="edge">
<title>initiate&#45;&gt;golem</title>
<path fill="none" stroke="#ebc72d" stroke-width="2" d="M422.39,-386.88C399.21,-372.25 363.32,-349.59 338.42,-333.88"/>
<polygon fill="#ebc72d" stroke="#ebc72d" stroke-width="2" points="340.11,-330.81 329.79,-328.43 336.38,-336.73 340.11,-330.81"/>
</g>
<!-- library -->
<g id="node14" class="node">
<title>library</title>
<g id="a_node14"><a xlink:href="magic_library_full.html" xlink:title="Library">
<polygon fill="none" stroke="red" points="961.65,-320.68 906.29,-333.12 850.92,-320.68 850.97,-300.56 961.6,-300.56 961.65,-320.68"/>
<text text-anchor="middle" x="906.29" y="-311.42" font-family="Times,serif" font-size="14.00" fill="#ebc72d">Library</text>
</a>
</g>
</g>
<!-- initiate&#45;&gt;library -->
<g id="edge13" class="edge">
<title>initiate&#45;&gt;library</title>
<path fill="none" stroke="#ebc72d" stroke-width="2" d="M489.35,-400.11C563.53,-397.02 717.41,-386.19 841.29,-348.33 853.31,-344.66 865.83,-338.96 876.64,-333.36"/>
<polygon fill="#ebc72d" stroke="#ebc72d" stroke-width="2" points="878.49,-336.35 885.64,-328.53 875.18,-330.18 878.49,-336.35"/>
</g>
<!-- tower_of_souls -->
<g id="node16" class="node">
<title>tower_of_souls</title>
<g id="a_node16"><a xlink:href="magic_tower_of_souls_full.html" xlink:title="Tower\nOf Souls">
<polygon fill="none" stroke="red" points="512.39,-325.45 445.29,-348.55 378.19,-325.45 378.25,-288.08 512.33,-288.08 512.39,-325.45"/>
<text text-anchor="middle" x="445.29" y="-318.92" font-family="Times,serif" font-size="14.00" fill="#ebc72d">Tower</text>
<text text-anchor="middle" x="445.29" y="-303.92" font-family="Times,serif" font-size="14.00" fill="#ebc72d">Of Souls</text>
</a>
</g>
</g>
<!-- initiate&#45;&gt;tower_of_souls -->
<g id="edge16" class="edge">
<title>initiate&#45;&gt;tower_of_souls</title>
<path fill="none" stroke="#ebc72d" stroke-width="2" d="M445.29,-384.09C445.29,-376.67 445.29,-367.63 445.29,-358.61"/>
<polygon fill="#ebc72d" stroke="#ebc72d" stroke-width="2" points="448.79,-358.51 445.29,-348.51 441.79,-358.51 448.79,-358.51"/>
</g>
<!-- energy_source -->
<g id="node18" class="node">
<title>energy_source</title>
<g id="a_node18"><a xlink:href="magic_energy_source_full.html" xlink:title="Energy\nSource">
<polygon fill="none" stroke="red" points="1098.66,-325.45 1039.29,-348.55 979.92,-325.45 979.98,-288.08 1098.6,-288.08 1098.66,-325.45"/>
<text text-anchor="middle" x="1039.29" y="-318.92" font-family="Times,serif" font-size="14.00" fill="#ebc72d">Energy</text>
<text text-anchor="middle" x="1039.29" y="-303.92" font-family="Times,serif" font-size="14.00" fill="#ebc72d">Source</text>
</a>
</g>
</g>
<!-- initiate&#45;&gt;energy_source -->
<g id="edge11" class="edge">
<title>initiate&#45;&gt;energy_source</title>
<path fill="none" stroke="#ebc72d" stroke-width="2" d="M489.76,-401.82C581.4,-401.74 797.18,-396 970.29,-348.33 978.53,-346.06 987.02,-342.88 995.09,-339.4"/>
<polygon fill="#ebc72d" stroke="#ebc72d" stroke-width="2" points="996.68,-342.52 1004.35,-335.2 993.79,-336.14 996.68,-342.52"/>
</g>
<!-- daemon -->
<g id="node9" class="node">
<title>daemon</title>
<g id="a_node9"><a xlink:href="magic_daemon_full.html" xlink:title="Daemon">
<ellipse fill="none" stroke="magenta" cx="511.29" cy="-116.61" rx="48.99" ry="18"/>
<text text-anchor="middle" x="511.29" y="-112.91" font-family="Times,serif" font-size="14.00" fill="#ebc72d">Daemon</text>
</a>
</g>
</g>
<!-- archmage_tower&#45;&gt;power_golem -->
<g id="edge3" class="edge">
<title>archmage_tower&#45;&gt;power_golem</title>
<path fill="none" stroke="#ebc72d" stroke-dasharray="1,5" d="M589.82,-288C580.99,-275.51 570.32,-260.41 560.9,-247.09"/>
<polygon fill="#ebc72d" stroke="#ebc72d" points="563.56,-244.79 554.93,-238.65 557.85,-248.83 563.56,-244.79"/>
</g>
<!-- archmage_tower&#45;&gt;dragon -->
<g id="edge2" class="edge">
<title>archmage_tower&#45;&gt;dragon</title>
<path fill="none" stroke="#ebc72d" stroke-dasharray="1,5" d="M610.28,-288.02C613.12,-250.87 618.29,-183.04 621.19,-145.12"/>
<polygon fill="#ebc72d" stroke="#ebc72d" points="624.7,-145.06 621.97,-134.83 617.72,-144.53 624.7,-145.06"/>
</g>
<!-- archmage_tower&#45;&gt;archmage -->
<g id="edge1" class="edge">
<title>archmage_tower&#45;&gt;archmage</title>
<path fill="none" stroke="#ebc72d" stroke-dasharray="1,5" d="M653.29,-288C682.34,-271.13 719.58,-249.51 746.39,-233.95"/>
<polygon fill="#ebc72d" stroke="#ebc72d" points="748.17,-236.97 755.06,-228.92 744.65,-230.91 748.17,-236.97"/>
</g>
<!-- summoner -->
<g id="node19" class="node">
<title>summoner</title>
<g id="a_node19"><a xlink:href="magic_summoner_full.html" xlink:title="Summoner">
<ellipse fill="none" stroke="magenta" cx="400.29" cy="-212.69" rx="61.99" ry="18"/>
<text text-anchor="middle" x="400.29" y="-208.99" font-family="Times,serif" font-size="14.00" fill="#ebc72d">Summoner</text>
</a>
</g>
</g>
<!-- summoner_guild&#45;&gt;summoner -->
<g id="edge28" class="edge">
<title>summoner_guild&#45;&gt;summoner</title>
<path fill="none" stroke="#ebc72d" d="M221.98,-288C264.36,-270.34 319.23,-247.47 356.85,-231.79"/>
<polygon fill="#ebc72d" stroke="#ebc72d" points="358.62,-234.85 366.5,-227.77 355.92,-228.39 358.62,-234.85"/>
</g>
<!-- golem&#45;&gt;power_golem -->
<g id="edge8" class="edge">
<title>golem&#45;&gt;power_golem</title>
<path fill="none" stroke="#ebc72d" stroke-dasharray="5,2" d="M333.11,-300.54C343.88,-294.43 357.03,-287.37 369.29,-281.91 413.19,-262.32 426.95,-264.48 471.29,-245.91 478.57,-242.86 486.18,-239.4 493.54,-235.91"/>
<polygon fill="#ebc72d" stroke="#ebc72d" points="495.21,-239 502.69,-231.5 492.17,-232.69 495.21,-239"/>
</g>
<!-- dragon_rider -->
<g id="node15" class="node">
<title>dragon_rider</title>
<g id="a_node15"><a xlink:href="magic_dragon_rider_full.html" xlink:title="Dragon\nRider">
<ellipse fill="none" stroke="magenta" cx="804.29" cy="-116.61" rx="48.58" ry="26.74"/>
<text text-anchor="middle" x="804.29" y="-120.41" font-family="Times,serif" font-size="14.00" fill="#ebc72d">Dragon</text>
<text text-anchor="middle" x="804.29" y="-105.41" font-family="Times,serif" font-size="14.00" fill="#ebc72d">Rider</text>
</a>
</g>
</g>
<!-- library&#45;&gt;dragon_rider -->
<g id="edge19" class="edge">
<title>library&#45;&gt;dragon_rider</title>
<path fill="none" stroke="#ebc72d" stroke-dasharray="1,5" d="M901.44,-300.29C892.46,-275.38 872,-221.63 848.29,-179.48 842.65,-169.45 835.74,-159.07 829.08,-149.74"/>
<polygon fill="#ebc72d" stroke="#ebc72d" points="831.8,-147.53 823.08,-141.51 826.14,-151.66 831.8,-147.53"/>
</g>
<!-- library&#45;&gt;archmage -->
<g id="edge18" class="edge">
<title>library&#45;&gt;archmage</title>
<path fill="none" stroke="#ebc72d" stroke-dasharray="1,5" d="M889.17,-300.37C868.62,-283.86 833.89,-255.95 809.39,-236.27"/>
<polygon fill="#ebc72d" stroke="#ebc72d" points="811.5,-233.47 801.51,-229.94 807.11,-238.93 811.5,-233.47"/>
</g>
<!-- energy_source&#45;&gt;evil_dragon -->
<g id="edge7" class="edge">
<title>energy_source&#45;&gt;evil_dragon</title>
<path fill="none" stroke="#ebc72d" stroke-dasharray="1,5" d="M1022.99,-287.79C994.46,-243.17 931.84,-151.52 862.29,-89.74 845.38,-74.72 824.35,-61.18 805.87,-50.63"/>
<polygon fill="#ebc72d" stroke="#ebc72d" points="807.47,-47.51 797.03,-45.7 804.05,-53.63 807.47,-47.51"/>
</g>
<!-- energy_source&#45;&gt;archmage -->
<g id="edge6" class="edge">
<title>energy_source&#45;&gt;archmage</title>
<path fill="none" stroke="#ebc72d" stroke-dasharray="1,5" d="M984.5,-288C979.72,-285.88 974.93,-283.82 970.29,-281.91 922.93,-262.35 867.7,-242.78 829.22,-229.65"/>
<polygon fill="#ebc72d" stroke="#ebc72d" points="829.92,-226.19 819.32,-226.29 827.67,-232.82 829.92,-226.19"/>
</g>
<!-- summoner&#45;&gt;ghost_armor -->
<g id="edge27" class="edge">
<title>summoner&#45;&gt;ghost_armor</title>
<path fill="none" stroke="#ebc72d" d="M400.29,-194.44C400.29,-183.11 400.29,-167.86 400.29,-153.94"/>
<polygon fill="#ebc72d" stroke="#ebc72d" points="403.79,-153.64 400.29,-143.64 396.79,-153.64 403.79,-153.64"/>
</g>
<!-- summoner&#45;&gt;dragon -->
<g id="edge24" class="edge">
<title>summoner&#45;&gt;dragon</title>
<path fill="none" stroke="#ebc72d" d="M432.56,-197.24C445.48,-191.56 460.53,-185.08 474.29,-179.48 516.11,-162.46 527.78,-161.25 569.29,-143.48 575.12,-140.98 581.24,-138.21 587.18,-135.43"/>
<polygon fill="#ebc72d" stroke="#ebc72d" points="588.77,-138.55 596.3,-131.09 585.77,-132.22 588.77,-138.55"/>
</g>
<!-- summoner&#45;&gt;daemon -->
<g id="edge23" class="edge">
<title>summoner&#45;&gt;daemon</title>
<path fill="none" stroke="#ebc72d" d="M419.37,-195.52C437.35,-180.28 464.45,-157.31 484.58,-140.25"/>
<polygon fill="#ebc72d" stroke="#ebc72d" points="487.09,-142.71 492.46,-133.57 482.56,-137.37 487.09,-142.71"/>
</g>
<!-- summoner&#45;&gt;behemoth -->
<g id="edge22" class="edge">
<title>summoner&#45;&gt;behemoth</title>
<path fill="none" stroke="#ebc72d" stroke-dasharray="1,5" d="M353.69,-200.69C302.6,-188.27 218.42,-166.73 147.29,-143.48 139.45,-140.92 131.19,-137.95 123.26,-134.97"/>
<polygon fill="#ebc72d" stroke="#ebc72d" points="124.37,-131.65 113.78,-131.34 121.87,-138.18 124.37,-131.65"/>
</g>
<!-- summoner&#45;&gt;dragon_rider -->
<g id="edge25" class="edge">
<title>summoner&#45;&gt;dragon_rider</title>
<path fill="none" stroke="#ebc72d" stroke-dasharray="5,2" d="M429.93,-196.89C443.22,-190.75 459.26,-184.01 474.29,-179.48 562.01,-153.01 587.28,-160.63 677.29,-143.48 700.87,-138.99 726.84,-133.75 749.13,-129.16"/>
<polygon fill="#ebc72d" stroke="#ebc72d" points="750,-132.56 759.08,-127.11 748.58,-125.7 750,-132.56"/>
</g>
<!-- faster_movement -->
<g id="node20" class="node">
<title>faster_movement</title>
<ellipse fill="none" stroke="black" cx="247.29" cy="-116.61" rx="90.98" ry="18"/>
<text text-anchor="middle" x="247.29" y="-112.91" font-family="Times,serif" font-size="14.00">faster_movement</text>
</g>
<!-- summoner&#45;&gt;faster_movement -->
<g id="edge26" class="edge">
<title>summoner&#45;&gt;faster_movement</title>
<path fill="none" stroke="#ebc72d" stroke-dasharray="1,5" d="M375.02,-196.16C349.83,-180.66 310.91,-156.73 282.65,-139.35"/>
<polygon fill="#ebc72d" stroke="#ebc72d" points="284.23,-136.22 273.88,-133.96 280.56,-142.18 284.23,-136.22"/>
</g>
</g>
</svg>
