<?xml version="1.0" encoding="UTF-8" standalone="no"?>
<!DOCTYPE svg PUBLIC "-//W3C//DTD SVG 1.1//EN"
 "http://www.w3.org/Graphics/SVG/1.1/DTD/svg11.dtd">
<!-- Generated by graphviz version 2.49.3 (0)
 -->
<!-- Title: test Pages: 1 -->
<svg width="487pt" height="484pt"
 viewBox="0.00 0.00 487.22 484.13" xmlns="http://www.w3.org/2000/svg" xmlns:xlink="http://www.w3.org/1999/xlink">
<g id="graph0" class="graph" transform="scale(1 1) rotate(0) translate(4 480.13)">
<title>test</title>
<polygon fill="#151515" stroke="transparent" points="-4,4 -4,-480.13 483.22,-480.13 483.22,4 -4,4"/>
<!-- mage_tower -->
<g id="node1" class="node">
<title>mage_tower</title>
<g id="a_node1"><a xlink:href="magic_mage_tower_full.html" xlink:title="Mage\nTower">
<polygon fill="none" stroke="red" points="329.92,-453.25 276.79,-476.35 223.66,-453.25 223.71,-415.88 329.87,-415.88 329.92,-453.25"/>
<text text-anchor="middle" x="276.79" y="-446.72" font-family="Times,serif" font-size="14.00" fill="#ebc72d">Mage</text>
<text text-anchor="middle" x="276.79" y="-431.72" font-family="Times,serif" font-size="14.00" fill="#ebc72d">Tower</text>
</a>
</g>
</g>
<!-- wicker_behemoth -->
<g id="node2" class="node">
<title>wicker_behemoth</title>
<g id="a_node2"><a xlink:href="magic_wicker_behemoth_full.html" xlink:title="Wicker\nBehemoth">
<polygon fill="none" stroke="red" points="176.37,-248.4 98.79,-271.49 21.21,-248.4 21.28,-211.02 176.29,-211.02 176.37,-248.4"/>
<text text-anchor="middle" x="98.79" y="-241.87" font-family="Times,serif" font-size="14.00" fill="#ebc72d">Wicker</text>
<text text-anchor="middle" x="98.79" y="-226.87" font-family="Times,serif" font-size="14.00" fill="#ebc72d">Behemoth</text>
</a>
</g>
</g>
<!-- mage_tower&#45;&gt;wicker_behemoth -->
<g id="edge9" class="edge">
<title>mage_tower&#45;&gt;wicker_behemoth</title>
<path fill="none" stroke="#ebc72d" stroke-dasharray="1,5" d="M223.56,-429.83C191.82,-419.92 153.27,-402.66 129.79,-373.71 108.8,-347.82 101.46,-310.37 99.14,-281.54"/>
<polygon fill="#ebc72d" stroke="#ebc72d" points="102.62,-281.1 98.5,-271.34 95.63,-281.54 102.62,-281.1"/>
</g>
<!-- summoner_guild -->
<g id="node5" class="node">
<title>summoner_guild</title>
<g id="a_node5"><a xlink:href="magic_summoner_guild_full.html" xlink:title="Summoner\nGuild">
<polygon fill="none" stroke="red" points="304.85,-350.82 221.79,-373.92 138.72,-350.82 138.8,-313.45 304.78,-313.45 304.85,-350.82"/>
<text text-anchor="middle" x="221.79" y="-344.29" font-family="Times,serif" font-size="14.00" fill="#ebc72d">Summoner</text>
<text text-anchor="middle" x="221.79" y="-329.29" font-family="Times,serif" font-size="14.00" fill="#ebc72d">Guild</text>
</a>
</g>
</g>
<!-- mage_tower&#45;&gt;summoner_guild -->
<g id="edge7" class="edge">
<title>mage_tower&#45;&gt;summoner_guild</title>
<path fill="none" stroke="#ebc72d" stroke-dasharray="1,5" d="M262.48,-415.8C256.34,-404.59 249.06,-391.28 242.36,-379.05"/>
<polygon fill="#ebc72d" stroke="#ebc72d" points="245.25,-377.04 237.38,-369.95 239.11,-380.41 245.25,-377.04"/>
</g>
<!-- library -->
<g id="node7" class="node">
<title>library</title>
<g id="a_node7"><a xlink:href="magic_library_full.html" xlink:title="Library">
<polygon fill="none" stroke="red" points="305.15,-243.63 249.79,-256.07 194.42,-243.63 194.47,-223.5 305.1,-223.5 305.15,-243.63"/>
<text text-anchor="middle" x="249.79" y="-234.37" font-family="Times,serif" font-size="14.00" fill="#ebc72d">Library</text>
</a>
</g>
</g>
<!-- mage_tower&#45;&gt;library -->
<g id="edge6" class="edge">
<title>mage_tower&#45;&gt;library</title>
<path fill="none" stroke="#ebc72d" stroke-dasharray="1,5" d="M300.19,-415.52C314.82,-396.42 331.19,-369.19 332.79,-341.49"/>
<path fill="none" stroke="#ebc72d" stroke-dasharray="1,5" d="M332.79,-339.49C334.81,-304.55 304.05,-275.15 279.41,-257.37"/>
<polygon fill="#ebc72d" stroke="#ebc72d" points="281.24,-254.37 271.02,-251.57 277.26,-260.13 281.24,-254.37"/>
</g>
<!-- tower_of_souls -->
<g id="node8" class="node">
<title>tower_of_souls</title>
<g id="a_node8"><a xlink:href="magic_tower_of_souls_full.html" xlink:title="Tower\nOf Souls">
<polygon fill="none" stroke="red" points="425.89,-145.97 358.79,-169.07 291.69,-145.97 291.75,-108.6 425.83,-108.6 425.89,-145.97"/>
<text text-anchor="middle" x="358.79" y="-139.44" font-family="Times,serif" font-size="14.00" fill="#ebc72d">Tower</text>
<text text-anchor="middle" x="358.79" y="-124.44" font-family="Times,serif" font-size="14.00" fill="#ebc72d">Of Souls</text>
</a>
</g>
</g>
<!-- mage_tower&#45;&gt;tower_of_souls -->
<g id="edge8" class="edge">
<title>mage_tower&#45;&gt;tower_of_souls</title>
<path fill="none" stroke="#ebc72d" stroke-dasharray="1,5" d="M332.79,-339.49C336.05,-283.08 345.3,-218.41 351.84,-177.55"/>
<polygon fill="#ebc72d" stroke="#ebc72d" points="355.33,-177.88 353.48,-167.44 348.42,-176.76 355.33,-177.88"/>
</g>
<!-- energy_source -->
<g id="node9" class="node">
<title>energy_source</title>
<g id="a_node9"><a xlink:href="magic_energy_source_full.html" xlink:title="Energy\nSource">
<polygon fill="none" stroke="red" points="479.16,-350.82 419.79,-373.92 360.42,-350.82 360.48,-313.45 479.1,-313.45 479.16,-350.82"/>
<text text-anchor="middle" x="419.79" y="-344.29" font-family="Times,serif" font-size="14.00" fill="#ebc72d">Energy</text>
<text text-anchor="middle" x="419.79" y="-329.29" font-family="Times,serif" font-size="14.00" fill="#ebc72d">Source</text>
</a>
</g>
</g>
<!-- mage_tower&#45;&gt;energy_source -->
<g id="edge5" class="edge">
<title>mage_tower&#45;&gt;energy_source</title>
<path fill="none" stroke="#ebc72d" stroke-dasharray="1,5" d="M313.99,-415.8C334.79,-401.19 360.67,-383.01 381.62,-368.3"/>
<polygon fill="#ebc72d" stroke="#ebc72d" points="383.81,-371.04 389.98,-362.43 379.78,-365.31 383.81,-371.04"/>
</g>
<!-- power_golem -->
<g id="node3" class="node">
<title>power_golem</title>
<g id="a_node3"><a xlink:href="magic_power_golem_full.html" xlink:title="Power\nGolem">
<polygon fill="none" stroke="red" points="132.17,-43.54 77.79,-66.64 23.41,-43.54 23.46,-6.17 132.12,-6.17 132.17,-43.54"/>
<text text-anchor="middle" x="77.79" y="-37.01" font-family="Times,serif" font-size="14.00" fill="#ebc72d">Power</text>
<text text-anchor="middle" x="77.79" y="-22.01" font-family="Times,serif" font-size="14.00" fill="#ebc72d">Golem</text>
</a>
</g>
</g>
<!-- archmage_tower -->
<g id="node4" class="node">
<title>archmage_tower</title>
<g id="a_node4"><a xlink:href="magic_archmage_tower_full.html" xlink:title="Archmage\nTower">
<polygon fill="none" stroke="red" points="155.37,-145.97 77.79,-169.07 0.21,-145.97 0.28,-108.6 155.29,-108.6 155.37,-145.97"/>
<text text-anchor="middle" x="77.79" y="-139.44" font-family="Times,serif" font-size="14.00" fill="#ebc72d">Archmage</text>
<text text-anchor="middle" x="77.79" y="-124.44" font-family="Times,serif" font-size="14.00" fill="#ebc72d">Tower</text>
</a>
</g>
</g>
<!-- archmage_tower&#45;&gt;power_golem -->
<g id="edge1" class="edge">
<title>archmage_tower&#45;&gt;power_golem</title>
<path fill="none" stroke="#ebc72d" stroke-dasharray="1,5" d="M77.79,-108.52C77.79,-98.83 77.79,-87.57 77.79,-76.79"/>
<polygon fill="#ebc72d" stroke="#ebc72d" points="81.29,-76.67 77.79,-66.67 74.29,-76.67 81.29,-76.67"/>
</g>
<!-- summoner_guild&#45;&gt;wicker_behemoth -->
<g id="edge11" class="edge">
<title>summoner_guild&#45;&gt;wicker_behemoth</title>
<path fill="none" stroke="#ebc72d" stroke-dasharray="1,5" d="M189.79,-313.37C173.4,-299.98 153.34,-283.61 136.23,-269.64"/>
<polygon fill="#ebc72d" stroke="#ebc72d" points="138.06,-266.61 128.1,-263 133.63,-272.03 138.06,-266.61"/>
</g>
<!-- summoner_guild&#45;&gt;library -->
<g id="edge10" class="edge">
<title>summoner_guild&#45;&gt;library</title>
<path fill="none" stroke="#ebc72d" stroke-dasharray="1,5" d="M229.07,-313.37C233.19,-298.59 238.33,-280.16 242.46,-265.36"/>
<polygon fill="#ebc72d" stroke="#ebc72d" points="245.94,-265.89 245.26,-255.32 239.2,-264.01 245.94,-265.89"/>
</g>
<!-- golem -->
<g id="node6" class="node">
<title>golem</title>
<g id="a_node6"><a xlink:href="magic_golem_full.html" xlink:title="Golem">
<polygon fill="none" stroke="red" points="273.41,-141.2 223.79,-153.64 174.17,-141.2 174.22,-121.08 273.36,-121.08 273.41,-141.2"/>
<text text-anchor="middle" x="223.79" y="-131.94" font-family="Times,serif" font-size="14.00" fill="#ebc72d">Golem</text>
</a>
</g>
</g>
<!-- library&#45;&gt;archmage_tower -->
<g id="edge2" class="edge">
<title>library&#45;&gt;archmage_tower</title>
<path fill="none" stroke="#ebc72d" stroke-dasharray="1,5" d="M226.23,-223.31C199.91,-207.94 156.65,-182.69 123.61,-163.39"/>
<polygon fill="#ebc72d" stroke="#ebc72d" points="124.98,-160.14 114.58,-158.12 121.45,-166.19 124.98,-160.14"/>
</g>
<!-- library&#45;&gt;golem -->
<g id="edge3" class="edge">
<title>library&#45;&gt;golem</title>
<path fill="none" stroke="#ebc72d" stroke-dasharray="1,5" d="M246.17,-223.1C242.13,-207.48 235.49,-181.83 230.49,-162.51"/>
<polygon fill="#ebc72d" stroke="#ebc72d" points="233.87,-161.61 227.98,-152.81 227.09,-163.37 233.87,-161.61"/>
</g>
<!-- library&#45;&gt;tower_of_souls -->
<g id="edge4" class="edge">
<title>library&#45;&gt;tower_of_souls</title>
<path fill="none" stroke="#ebc72d" stroke-dasharray="1,5" d="M264.94,-223.1C280.51,-208.77 305.23,-185.99 325.39,-167.41"/>
<polygon fill="#ebc72d" stroke="#ebc72d" points="327.89,-169.87 332.87,-160.52 323.14,-164.72 327.89,-169.87"/>
</g>
</g>
</svg>
