<?xml version="1.0" encoding="UTF-8" standalone="no"?>
<!DOCTYPE svg PUBLIC "-//W3C//DTD SVG 1.1//EN"
 "http://www.w3.org/Graphics/SVG/1.1/DTD/svg11.dtd">
<!-- Generated by graphviz version 2.50.0 (0)
 -->
<!-- Title: test Pages: 1 -->
<svg width="1143pt" height="778pt"
 viewBox="0.00 0.00 1143.16 778.43" xmlns="http://www.w3.org/2000/svg" xmlns:xlink="http://www.w3.org/1999/xlink">
<g id="graph0" class="graph" transform="scale(1 1) rotate(0) translate(4 774.43)">
<title>test</title>
<polygon fill="#151515" stroke="transparent" points="-4,4 -4,-774.43 1139.16,-774.43 1139.16,4 -4,4"/>
<!-- air_pyramid -->
<g id="node1" class="node">
<title>air_pyramid</title>
<g id="a_node1"><a xlink:href="egypt_air_pyramid_full.html" xlink:title="Air\nPyramid">
<polygon fill="none" stroke="red" points="134.4,-272.33 67.3,-295.43 0.2,-272.33 0.26,-234.96 134.34,-234.96 134.4,-272.33"/>
<text text-anchor="middle" x="67.3" y="-265.8" font-family="Times,serif" font-size="14.00" fill="#ebc72d">Air</text>
<text text-anchor="middle" x="67.3" y="-250.8" font-family="Times,serif" font-size="14.00" fill="#ebc72d">Pyramid</text>
</a>
</g>
</g>
<!-- anubis_warrior -->
<g id="node2" class="node">
<title>anubis_warrior</title>
<g id="a_node2"><a xlink:href="egypt_anubis_warrior_full.html" xlink:title="Anubis\nWarrior">
<ellipse fill="none" stroke="magenta" cx="639.3" cy="-374" rx="50.41" ry="26.74"/>
<text text-anchor="middle" x="639.3" y="-377.8" font-family="Times,serif" font-size="14.00" fill="#ebc72d">Anubis</text>
<text text-anchor="middle" x="639.3" y="-362.8" font-family="Times,serif" font-size="14.00" fill="#ebc72d">Warrior</text>
</a>
</g>
</g>
<!-- slave -->
<g id="node3" class="node">
<title>slave</title>
<g id="a_node3"><a xlink:href="egypt_slave_full.html" xlink:title="Slave">
<ellipse fill="none" stroke="magenta" cx="878.3" cy="-752.43" rx="36.29" ry="18"/>
<text text-anchor="middle" x="878.3" y="-748.73" font-family="Times,serif" font-size="14.00" fill="#ebc72d">Slave</text>
</a>
</g>
</g>
<!-- slave&#45;&gt;air_pyramid -->
<g id="edge18" class="edge">
<title>slave&#45;&gt;air_pyramid</title>
<path fill="none" stroke="#ebc72d" stroke-width="2" d="M841.77,-751.27C689.02,-750.15 108.84,-740.97 95.3,-666.21"/>
<path fill="none" stroke="#ebc72d" stroke-width="2" d="M95.3,-664.21C71.91,-535.04 67.77,-379.21 67.23,-305.54"/>
<polygon fill="#ebc72d" stroke="#ebc72d" stroke-width="2" points="70.72,-305.26 67.17,-295.28 63.72,-305.3 70.72,-305.26"/>
</g>
<!-- desert_camp -->
<g id="node5" class="node">
<title>desert_camp</title>
<g id="a_node5"><a xlink:href="egypt_desert_camp_full.html" xlink:title="Desert\nCamp">
<polygon fill="none" stroke="red" points="680.93,-675.54 624.3,-698.64 567.68,-675.54 567.73,-638.17 680.87,-638.17 680.93,-675.54"/>
<text text-anchor="middle" x="624.3" y="-669.01" font-family="Times,serif" font-size="14.00" fill="#ebc72d">Desert</text>
<text text-anchor="middle" x="624.3" y="-654.01" font-family="Times,serif" font-size="14.00" fill="#ebc72d">Camp</text>
</a>
</g>
</g>
<!-- slave&#45;&gt;desert_camp -->
<g id="edge19" class="edge">
<title>slave&#45;&gt;desert_camp</title>
<path fill="none" stroke="#ebc72d" stroke-width="2" d="M848.92,-741.57C807.2,-727.57 730.12,-701.71 678.03,-684.24"/>
<polygon fill="#ebc72d" stroke="#ebc72d" stroke-width="2" points="678.88,-680.83 668.28,-680.97 676.65,-687.47 678.88,-680.83"/>
</g>
<!-- sphinx -->
<g id="node7" class="node">
<title>sphinx</title>
<g id="a_node7"><a xlink:href="egypt_sphinx_full.html" xlink:title="Sphinx">
<polygon fill="none" stroke="red" points="1002.35,-267.56 949.3,-280 896.26,-267.56 896.3,-247.44 1002.3,-247.44 1002.35,-267.56"/>
<text text-anchor="middle" x="949.3" y="-258.3" font-family="Times,serif" font-size="14.00" fill="#ebc72d">Sphinx</text>
</a>
</g>
</g>
<!-- slave&#45;&gt;sphinx -->
<g id="edge23" class="edge">
<title>slave&#45;&gt;sphinx</title>
<path fill="none" stroke="#ebc72d" stroke-width="2" d="M885.3,-485C869.92,-411.58 911.16,-326.96 934.51,-286.68"/>
<polygon fill="#ebc72d" stroke="#ebc72d" stroke-width="2" points="937.64,-288.27 939.74,-277.88 931.62,-284.69 937.64,-288.27"/>
</g>
<!-- obelisk -->
<g id="node8" class="node">
<title>obelisk</title>
<g id="a_node8"><a xlink:href="egypt_obelisk_full.html" xlink:title="Obelisk">
<polygon fill="none" stroke="red" points="857.77,-379.56 801.3,-392 744.83,-379.56 744.88,-359.44 857.72,-359.44 857.77,-379.56"/>
<text text-anchor="middle" x="801.3" y="-370.3" font-family="Times,serif" font-size="14.00" fill="#ebc72d">Obelisk</text>
</a>
</g>
</g>
<!-- slave&#45;&gt;obelisk -->
<g id="edge21" class="edge">
<title>slave&#45;&gt;obelisk</title>
<path fill="none" stroke="#ebc72d" stroke-width="2" d="M880.72,-734.3C886.28,-692.04 898.47,-579.52 885.3,-487"/>
<path fill="none" stroke="#ebc72d" stroke-width="2" d="M885.3,-485C877.58,-448.14 847.82,-415.17 825.91,-395.16"/>
<polygon fill="#ebc72d" stroke="#ebc72d" stroke-width="2" points="828.05,-392.39 818.24,-388.39 823.42,-397.63 828.05,-392.39"/>
</g>
<!-- pyramid -->
<g id="node9" class="node">
<title>pyramid</title>
<g id="a_node9"><a xlink:href="egypt_pyramid_full.html" xlink:title="Pyramid">
<polygon fill="none" stroke="red" points="1135.02,-670.78 1073.3,-683.21 1011.58,-670.78 1011.64,-650.65 1134.96,-650.65 1135.02,-670.78"/>
<text text-anchor="middle" x="1073.3" y="-661.51" font-family="Times,serif" font-size="14.00" fill="#ebc72d">Pyramid</text>
</a>
</g>
</g>
<!-- slave&#45;&gt;pyramid -->
<g id="edge22" class="edge">
<title>slave&#45;&gt;pyramid</title>
<path fill="none" stroke="#ebc72d" stroke-width="2" d="M914.68,-736.34C939.69,-725.89 973.61,-711.55 1003.3,-698.43 1014.87,-693.31 1027.44,-687.59 1038.69,-682.39"/>
<polygon fill="#ebc72d" stroke="#ebc72d" stroke-width="2" points="913.11,-733.21 905.22,-740.29 915.8,-739.67 913.11,-733.21"/>
<polygon fill="#ebc72d" stroke="#ebc72d" stroke-width="2" points="1040.18,-685.56 1047.78,-678.18 1037.24,-679.21 1040.18,-685.56"/>
</g>
<!-- temple -->
<g id="node13" class="node">
<title>temple</title>
<g id="a_node13"><a xlink:href="egypt_temple_full.html" xlink:title="Temple">
<polygon fill="none" stroke="red" points="494.06,-583.56 439.3,-596 384.54,-583.56 384.59,-563.44 494.01,-563.44 494.06,-583.56"/>
<text text-anchor="middle" x="439.3" y="-574.3" font-family="Times,serif" font-size="14.00" fill="#ebc72d">Temple</text>
</a>
</g>
</g>
<!-- slave&#45;&gt;temple -->
<g id="edge24" class="edge">
<title>slave&#45;&gt;temple</title>
<path fill="none" stroke="#ebc72d" stroke-width="2" d="M95.3,-664.21C85.1,-607.88 271.54,-588.42 374.1,-581.99"/>
<polygon fill="#ebc72d" stroke="#ebc72d" stroke-width="2" points="374.58,-585.47 384.36,-581.37 374.16,-578.48 374.58,-585.47"/>
</g>
<!-- farm -->
<g id="node16" class="node">
<title>farm</title>
<g id="a_node16"><a xlink:href="egypt_farm_full.html" xlink:title="Farm">
<polygon fill="none" stroke="red" points="993.96,-670.78 951.3,-683.21 908.64,-670.78 908.68,-650.65 993.92,-650.65 993.96,-670.78"/>
<text text-anchor="middle" x="951.3" y="-661.51" font-family="Times,serif" font-size="14.00" fill="#ebc72d">Farm</text>
</a>
</g>
</g>
<!-- slave&#45;&gt;farm -->
<g id="edge20" class="edge">
<title>slave&#45;&gt;farm</title>
<path fill="none" stroke="#ebc72d" stroke-width="2" d="M892.03,-735.4C903.6,-721.89 920.25,-702.46 932.96,-687.62"/>
<polygon fill="#ebc72d" stroke="#ebc72d" stroke-width="2" points="935.71,-689.79 939.56,-679.92 930.4,-685.24 935.71,-689.79"/>
</g>
<!-- mummy -->
<g id="node4" class="node">
<title>mummy</title>
<g id="a_node4"><a xlink:href="egypt_mummy_full.html" xlink:title="Mummy">
<ellipse fill="none" stroke="magenta" cx="210.3" cy="-374" rx="48.99" ry="18"/>
<text text-anchor="middle" x="210.3" y="-370.3" font-family="Times,serif" font-size="14.00" fill="#ebc72d">Mummy</text>
</a>
</g>
</g>
<!-- spearthrower -->
<g id="node6" class="node">
<title>spearthrower</title>
<g id="a_node6"><a xlink:href="egypt_spearthrower_full.html" xlink:title="Spearthrower">
<ellipse fill="none" stroke="magenta" cx="775.3" cy="-578" rx="75.29" ry="18"/>
<text text-anchor="middle" x="775.3" y="-574.3" font-family="Times,serif" font-size="14.00" fill="#ebc72d">Spearthrower</text>
</a>
</g>
</g>
<!-- desert_camp&#45;&gt;spearthrower -->
<g id="edge3" class="edge">
<title>desert_camp&#45;&gt;spearthrower</title>
<path fill="none" stroke="#ebc72d" d="M670.84,-637.95C692.48,-625.74 717.86,-611.41 738.19,-599.94"/>
<polygon fill="#ebc72d" stroke="#ebc72d" points="740.15,-602.85 747.14,-594.89 736.71,-596.76 740.15,-602.85"/>
</g>
<!-- desert_camp&#45;&gt;temple -->
<g id="edge4" class="edge">
<title>desert_camp&#45;&gt;temple</title>
<path fill="none" stroke="#ebc72d" stroke-dasharray="1,5" d="M567.54,-638.07C536.7,-623.86 499.6,-606.77 473.25,-594.64"/>
<polygon fill="#ebc72d" stroke="#ebc72d" points="474.61,-591.41 464.07,-590.41 471.69,-597.77 474.61,-591.41"/>
</g>
<!-- spearman -->
<g id="node15" class="node">
<title>spearman</title>
<g id="a_node15"><a xlink:href="egypt_spearman_full.html" xlink:title="Spearman">
<ellipse fill="none" stroke="magenta" cx="624.3" cy="-578" rx="57.69" ry="18"/>
<text text-anchor="middle" x="624.3" y="-574.3" font-family="Times,serif" font-size="14.00" fill="#ebc72d">Spearman</text>
</a>
</g>
</g>
<!-- desert_camp&#45;&gt;spearman -->
<g id="edge2" class="edge">
<title>desert_camp&#45;&gt;spearman</title>
<path fill="none" stroke="#ebc72d" d="M624.3,-637.72C624.3,-627.74 624.3,-616.39 624.3,-606.34"/>
<polygon fill="#ebc72d" stroke="#ebc72d" points="627.8,-606.07 624.3,-596.07 620.8,-606.07 627.8,-606.07"/>
</g>
<!-- spear_weapons -->
<g id="node19" class="node">
<title>spear_weapons</title>
<g id="a_node19"><a xlink:href="egypt_spear_weapons_full.html" xlink:title="Spear\nWeapons">
<polygon fill="none" stroke="green" points="857.18,-524 725.34,-524 691.42,-448 823.26,-448 857.18,-524"/>
<text text-anchor="middle" x="774.3" y="-489.8" font-family="Times,serif" font-size="14.00" fill="#ebc72d">Spear</text>
<text text-anchor="middle" x="774.3" y="-474.8" font-family="Times,serif" font-size="14.00" fill="#ebc72d">Weapons</text>
</a>
</g>
</g>
<!-- desert_camp&#45;&gt;spear_weapons -->
<g id="edge1" class="edge">
<title>desert_camp&#45;&gt;spear_weapons</title>
<path fill="none" stroke="#ebc72d" d="M588.69,-638.07C563.83,-616.59 538.23,-585.63 557.3,-560 590.54,-515.33 624.59,-541.93 677.3,-524 687.62,-520.49 698.48,-516.57 709.05,-512.64"/>
<polygon fill="#ebc72d" stroke="#ebc72d" points="710.51,-515.82 718.64,-509.03 708.05,-509.27 710.51,-515.82"/>
</g>
<!-- obelisk&#45;&gt;air_pyramid -->
<g id="edge7" class="edge">
<title>obelisk&#45;&gt;air_pyramid</title>
<path fill="none" stroke="#ebc72d" stroke-dasharray="1,5" d="M770.4,-359.33C750.28,-351.08 723.23,-341.19 698.3,-336 458.47,-286.11 385.84,-359.88 148.3,-300 136.47,-297.02 124.24,-292.36 112.98,-287.34"/>
<polygon fill="#ebc72d" stroke="#ebc72d" points="114.32,-284.1 103.77,-283.07 111.37,-290.45 114.32,-284.1"/>
</g>
<!-- obelisk&#45;&gt;sphinx -->
<g id="edge11" class="edge">
<title>obelisk&#45;&gt;sphinx</title>
<path fill="none" stroke="#ebc72d" stroke-dasharray="1,5" d="M819.75,-359.29C845.84,-339.9 893.66,-304.36 923.33,-282.3"/>
<polygon fill="#ebc72d" stroke="#ebc72d" points="925.61,-284.97 931.55,-276.19 921.43,-279.35 925.61,-284.97"/>
</g>
<!-- ibis -->
<g id="node10" class="node">
<title>ibis</title>
<g id="a_node10"><a xlink:href="egypt_ibis_full.html" xlink:title="Ibis">
<ellipse fill="none" stroke="magenta" cx="217.3" cy="-38" rx="27.9" ry="18"/>
<text text-anchor="middle" x="217.3" y="-34.3" font-family="Times,serif" font-size="14.00" fill="#ebc72d">Ibis</text>
</a>
</g>
</g>
<!-- obelisk&#45;&gt;ibis -->
<g id="edge8" class="edge">
<title>obelisk&#45;&gt;ibis</title>
<path fill="none" stroke="#ebc72d" d="M868.3,-261C867.9,-212.11 909.79,-176.87 868.3,-151"/>
<path fill="none" stroke="#ebc72d" d="M868.3,-149C832.65,-126.77 821.85,-123.02 781.3,-112 588.15,-59.5 347.23,-44.37 255.32,-40.35"/>
<polygon fill="#ebc72d" stroke="#ebc72d" points="255.25,-36.84 245.11,-39.92 254.96,-43.84 255.25,-36.84"/>
</g>
<!-- snake -->
<g id="node14" class="node">
<title>snake</title>
<g id="a_node14"><a xlink:href="egypt_snake_full.html" xlink:title="Snake">
<ellipse fill="none" stroke="magenta" cx="801.3" cy="-262" rx="38.99" ry="18"/>
<text text-anchor="middle" x="801.3" y="-258.3" font-family="Times,serif" font-size="14.00" fill="#ebc72d">Snake</text>
</a>
</g>
</g>
<!-- obelisk&#45;&gt;snake -->
<g id="edge10" class="edge">
<title>obelisk&#45;&gt;snake</title>
<path fill="none" stroke="#ebc72d" d="M801.3,-359.07C801.3,-341.86 801.3,-312.18 801.3,-290.36"/>
<polygon fill="#ebc72d" stroke="#ebc72d" points="804.8,-290.06 801.3,-280.06 797.8,-290.06 804.8,-290.06"/>
</g>
<!-- scarab -->
<g id="node17" class="node">
<title>scarab</title>
<g id="a_node17"><a xlink:href="egypt_scarab_full.html" xlink:title="Scarab">
<ellipse fill="none" stroke="magenta" cx="729.3" cy="-150" rx="42.79" ry="18"/>
<text text-anchor="middle" x="729.3" y="-146.3" font-family="Times,serif" font-size="14.00" fill="#ebc72d">Scarab</text>
</a>
</g>
</g>
<!-- obelisk&#45;&gt;scarab -->
<g id="edge9" class="edge">
<title>obelisk&#45;&gt;scarab</title>
<path fill="none" stroke="#ebc72d" d="M816.6,-359.35C836.47,-340.01 868.62,-302.58 868.3,-263"/>
<path fill="none" stroke="#ebc72d" d="M868.3,-261C867.9,-211.57 813.28,-180.86 772.64,-164.85"/>
<polygon fill="#ebc72d" stroke="#ebc72d" points="773.76,-161.53 763.17,-161.27 771.29,-168.08 773.76,-161.53"/>
</g>
<!-- summon_scarab -->
<g id="node22" class="node">
<title>summon_scarab</title>
<g id="a_node22"><a xlink:href="egypt_summon_scarab_full.html" xlink:title="Summon\nScarab">
<polygon fill="none" stroke="green" points="744.18,-300 612.34,-300 578.42,-224 710.26,-224 744.18,-300"/>
<text text-anchor="middle" x="661.3" y="-265.8" font-family="Times,serif" font-size="14.00" fill="#ebc72d">Summon</text>
<text text-anchor="middle" x="661.3" y="-250.8" font-family="Times,serif" font-size="14.00" fill="#ebc72d">Scarab</text>
</a>
</g>
</g>
<!-- obelisk&#45;&gt;summon_scarab -->
<g id="edge12" class="edge">
<title>obelisk&#45;&gt;summon_scarab</title>
<path fill="none" stroke="#ebc72d" stroke-dasharray="1,5" d="M783.85,-359.29C766.99,-346.04 740.55,-325.27 716.54,-306.4"/>
<polygon fill="#ebc72d" stroke="#ebc72d" points="718.53,-303.51 708.5,-300.09 714.2,-309.02 718.53,-303.51"/>
</g>
<!-- chicken -->
<g id="node11" class="node">
<title>chicken</title>
<g id="a_node11"><a xlink:href="egypt_chicken_full.html" xlink:title="Chicken">
<ellipse fill="none" stroke="magenta" cx="954.3" cy="-578" rx="48.19" ry="18"/>
<text text-anchor="middle" x="954.3" y="-574.3" font-family="Times,serif" font-size="14.00" fill="#ebc72d">Chicken</text>
</a>
</g>
</g>
<!-- priest -->
<g id="node12" class="node">
<title>priest</title>
<g id="a_node12"><a xlink:href="egypt_priest_full.html" xlink:title="Priest">
<ellipse fill="none" stroke="magenta" cx="439.3" cy="-486" rx="38.19" ry="18"/>
<text text-anchor="middle" x="439.3" y="-482.3" font-family="Times,serif" font-size="14.00" fill="#ebc72d">Priest</text>
</a>
</g>
</g>
<!-- priest&#45;&gt;anubis_warrior -->
<g id="edge13" class="edge">
<title>priest&#45;&gt;anubis_warrior</title>
<path fill="none" stroke="#ebc72d" d="M464.85,-472.56C493.36,-458.51 540.69,-434.63 580.3,-412 586.58,-408.41 593.15,-404.48 599.52,-400.57"/>
<polygon fill="#ebc72d" stroke="#ebc72d" points="601.41,-403.51 608.05,-395.26 597.71,-397.57 601.41,-403.51"/>
</g>
<!-- priest&#45;&gt;mummy -->
<g id="edge14" class="edge">
<title>priest&#45;&gt;mummy</title>
<path fill="none" stroke="#ebc72d" d="M410.19,-474.26C375.61,-461.12 316.54,-437.46 268.3,-412 259.03,-407.11 249.3,-401.22 240.52,-395.6"/>
<polygon fill="#ebc72d" stroke="#ebc72d" points="242.39,-392.64 232.1,-390.11 238.56,-398.5 242.39,-392.64"/>
</g>
<!-- priest&#45;&gt;obelisk -->
<g id="edge15" class="edge">
<title>priest&#45;&gt;obelisk</title>
<path fill="none" stroke="#ebc72d" stroke-dasharray="1,5" d="M472.23,-476.51C521.64,-463.6 617.77,-437.78 698.3,-412 719.87,-405.09 743.69,-396.6 762.99,-389.49"/>
<polygon fill="#ebc72d" stroke="#ebc72d" points="764.47,-392.67 772.63,-385.91 762.03,-386.11 764.47,-392.67"/>
</g>
<!-- speedup_priest_production -->
<g id="node21" class="node">
<title>speedup_priest_production</title>
<g id="a_node21"><a xlink:href="egypt_speedup_priest_production_full.html" xlink:title="Speedup\nPriest Production">
<polygon fill="none" stroke="green" points="571.74,-412 337.2,-412 276.86,-336 511.4,-336 571.74,-412"/>
<text text-anchor="middle" x="424.3" y="-377.8" font-family="Times,serif" font-size="14.00" fill="#ebc72d">Speedup</text>
<text text-anchor="middle" x="424.3" y="-362.8" font-family="Times,serif" font-size="14.00" fill="#ebc72d">Priest Production</text>
</a>
</g>
</g>
<!-- priest&#45;&gt;speedup_priest_production -->
<g id="edge16" class="edge">
<title>priest&#45;&gt;speedup_priest_production</title>
<path fill="none" stroke="#ebc72d" d="M436.96,-467.81C435.28,-455.5 432.93,-438.3 430.71,-422.04"/>
<polygon fill="#ebc72d" stroke="#ebc72d" points="434.18,-421.52 429.36,-412.09 427.24,-422.47 434.18,-421.52"/>
</g>
<!-- temple&#45;&gt;priest -->
<g id="edge30" class="edge">
<title>temple&#45;&gt;priest</title>
<path fill="none" stroke="#ebc72d" d="M439.3,-563.33C439.3,-550.34 439.3,-530.44 439.3,-514.21"/>
<polygon fill="#ebc72d" stroke="#ebc72d" points="442.8,-514.19 439.3,-504.19 435.8,-514.19 442.8,-514.19"/>
</g>
<!-- power_of_ra -->
<g id="node18" class="node">
<title>power_of_ra</title>
<g id="a_node18"><a xlink:href="egypt_power_of_ra_full.html" xlink:title="Power\nOf Ra">
<polygon fill="none" stroke="green" points="170.79,-76 69.8,-76 43.82,0 144.81,0 170.79,-76"/>
<text text-anchor="middle" x="107.3" y="-41.8" font-family="Times,serif" font-size="14.00" fill="#ebc72d">Power</text>
<text text-anchor="middle" x="107.3" y="-26.8" font-family="Times,serif" font-size="14.00" fill="#ebc72d">Of Ra</text>
</a>
</g>
</g>
<!-- temple&#45;&gt;power_of_ra -->
<g id="edge29" class="edge">
<title>temple&#45;&gt;power_of_ra</title>
<path fill="none" stroke="#ebc72d" d="M384.65,-563.53C316.31,-543.42 202.24,-498.31 152.3,-412 119.06,-354.55 169.15,-329.02 162.3,-263"/>
<path fill="none" stroke="#ebc72d" d="M162.3,-261C159.29,-242.76 156.48,-236.96 143.3,-224 117.51,-198.63 89.4,-218.72 70.3,-188 50.89,-156.79 63.13,-115.97 78.55,-84.95"/>
<polygon fill="#ebc72d" stroke="#ebc72d" points="81.66,-86.56 83.18,-76.07 75.45,-83.32 81.66,-86.56"/>
</g>
<!-- temple&#45;&gt;spear_weapons -->
<g id="edge31" class="edge">
<title>temple&#45;&gt;spear_weapons</title>
<path fill="none" stroke="#ebc72d" stroke-dasharray="1,5" d="M494.12,-565.76C553.3,-553.45 643.6,-534.12 677.3,-524 687.74,-520.86 698.66,-517.14 709.26,-513.29"/>
<polygon fill="#ebc72d" stroke="#ebc72d" points="710.71,-516.49 718.87,-509.73 708.28,-509.92 710.71,-516.49"/>
</g>
<!-- summon_ibis -->
<g id="node20" class="node">
<title>summon_ibis</title>
<g id="a_node20"><a xlink:href="egypt_summon_ibis_full.html" xlink:title="Summon\nIbis">
<polygon fill="none" stroke="green" points="245.18,-188 113.34,-188 79.42,-112 211.26,-112 245.18,-188"/>
<text text-anchor="middle" x="162.3" y="-153.8" font-family="Times,serif" font-size="14.00" fill="#ebc72d">Summon</text>
<text text-anchor="middle" x="162.3" y="-138.8" font-family="Times,serif" font-size="14.00" fill="#ebc72d">Ibis</text>
</a>
</g>
</g>
<!-- temple&#45;&gt;summon_ibis -->
<g id="edge32" class="edge">
<title>temple&#45;&gt;summon_ibis</title>
<path fill="none" stroke="#ebc72d" d="M162.3,-261C160.17,-240.47 159.84,-217.67 160.17,-198.17"/>
<polygon fill="#ebc72d" stroke="#ebc72d" points="163.67,-198.09 160.4,-188.02 156.67,-197.93 163.67,-198.09"/>
</g>
<!-- temple&#45;&gt;summon_scarab -->
<g id="edge33" class="edge">
<title>temple&#45;&gt;summon_scarab</title>
<path fill="none" stroke="#ebc72d" d="M484.59,-563.37C545.87,-542.21 652.78,-494.97 698.3,-412 715.79,-380.13 704.14,-339.92 689.44,-309.31"/>
<polygon fill="#ebc72d" stroke="#ebc72d" points="692.44,-307.49 684.8,-300.14 686.19,-310.64 692.44,-307.49"/>
</g>
<!-- farm&#45;&gt;ibis -->
<g id="edge6" class="edge">
<title>farm&#45;&gt;ibis</title>
<path fill="none" stroke="#ebc72d" stroke-dasharray="1,5" d="M967.56,-650.54C981.48,-637.88 1000.87,-617.76 1011.3,-596 1032.56,-551.66 1030.3,-536.17 1030.3,-487 1030.3,-487 1030.3,-487 1030.3,-373 1030.3,-306.24 1049.7,-278.61 1011.3,-224 970.26,-165.63 928.85,-188.75 868.3,-151"/>
</g>
<!-- farm&#45;&gt;chicken -->
<g id="edge5" class="edge">
<title>farm&#45;&gt;chicken</title>
<path fill="none" stroke="#ebc72d" d="M951.78,-650.52C952.2,-638.63 952.82,-621.06 953.34,-606.31"/>
<polygon fill="#ebc72d" stroke="#ebc72d" points="956.84,-606.31 953.7,-596.19 949.85,-606.06 956.84,-606.31"/>
</g>
<!-- summon_ibis&#45;&gt;ibis -->
<g id="edge25" class="edge">
<title>summon_ibis&#45;&gt;ibis</title>
<path fill="none" stroke="#ebc72d" stroke-dasharray="1,5" d="M180.92,-111.76C188.72,-96.16 197.59,-78.43 204.61,-64.38"/>
<polygon fill="#ebc72d" stroke="#ebc72d" points="207.81,-65.81 209.15,-55.3 201.55,-62.68 207.81,-65.81"/>
</g>
<!-- summon_ibis&#45;&gt;power_of_ra -->
<g id="edge26" class="edge">
<title>summon_ibis&#45;&gt;power_of_ra</title>
<path fill="none" stroke="#ebc72d" stroke-dasharray="1,5" d="M143.68,-111.76C139.42,-103.25 134.85,-94.1 130.43,-85.26"/>
<polygon fill="#ebc72d" stroke="#ebc72d" points="133.5,-83.58 125.9,-76.2 127.24,-86.71 133.5,-83.58"/>
</g>
<!-- summon_scarab&#45;&gt;scarab -->
<g id="edge27" class="edge">
<title>summon_scarab&#45;&gt;scarab</title>
<path fill="none" stroke="#ebc72d" stroke-dasharray="1,5" d="M684.32,-223.76C693.99,-208.11 704.99,-190.32 713.69,-176.25"/>
<polygon fill="#ebc72d" stroke="#ebc72d" points="716.76,-177.94 719.04,-167.59 710.81,-174.26 716.76,-177.94"/>
</g>
<!-- summon_scarab&#45;&gt;summon_ibis -->
<g id="edge28" class="edge">
<title>summon_scarab&#45;&gt;summon_ibis</title>
<path fill="none" stroke="#ebc72d" stroke-dasharray="1,5" d="M587.67,-244.77C496.55,-224.68 341.76,-190.56 246.15,-169.48"/>
<polygon fill="#ebc72d" stroke="#ebc72d" points="246.75,-166.03 236.23,-167.3 245.24,-172.87 246.75,-166.03"/>
</g>
</g>
</svg>
