<?xml version="1.0" encoding="UTF-8" standalone="no"?>
<!DOCTYPE svg PUBLIC "-//W3C//DTD SVG 1.1//EN"
 "http://www.w3.org/Graphics/SVG/1.1/DTD/svg11.dtd">
<!-- Generated by graphviz version 2.50.0 (0)
 -->
<!-- Title: test Pages: 1 -->
<svg width="1632pt" height="308pt"
 viewBox="0.00 0.00 1632.23 308.17" xmlns="http://www.w3.org/2000/svg" xmlns:xlink="http://www.w3.org/1999/xlink">
<g id="graph0" class="graph" transform="scale(1 1) rotate(0) translate(4 304.17)">
<title>test</title>
<polygon fill="#151515" stroke="transparent" points="-4,4 -4,-304.17 1628.23,-304.17 1628.23,4 -4,4"/>
<!-- air_pyramid -->
<g id="node1" class="node">
<title>air_pyramid</title>
<g id="a_node1"><a xlink:href="egypt_air_pyramid_full.html" xlink:title="Air\nPyramid">
<polygon fill="none" stroke="red" points="204.49,-205.28 137.39,-228.38 70.29,-205.28 70.35,-167.91 204.43,-167.91 204.49,-205.28"/>
<text text-anchor="middle" x="137.39" y="-198.75" font-family="Times,serif" font-size="14.00" fill="#ebc72d">Air</text>
<text text-anchor="middle" x="137.39" y="-183.75" font-family="Times,serif" font-size="14.00" fill="#ebc72d">Pyramid</text>
</a>
</g>
</g>
<!-- anubis_warrior -->
<g id="node2" class="node">
<title>anubis_warrior</title>
<g id="a_node2"><a xlink:href="egypt_anubis_warrior_full.html" xlink:title="Anubis\nWarrior">
<ellipse fill="none" stroke="magenta" cx="1049.39" cy="-26.87" rx="50.41" ry="26.74"/>
<text text-anchor="middle" x="1049.39" y="-30.67" font-family="Times,serif" font-size="14.00" fill="#ebc72d">Anubis</text>
<text text-anchor="middle" x="1049.39" y="-15.67" font-family="Times,serif" font-size="14.00" fill="#ebc72d">Warrior</text>
</a>
</g>
</g>
<!-- slave -->
<g id="node3" class="node">
<title>slave</title>
<g id="a_node3"><a xlink:href="egypt_slave_full.html" xlink:title="Slave">
<ellipse fill="none" stroke="magenta" cx="587.39" cy="-282.17" rx="36.29" ry="18"/>
<text text-anchor="middle" x="587.39" y="-278.47" font-family="Times,serif" font-size="14.00" fill="#ebc72d">Slave</text>
</a>
</g>
</g>
<!-- slave&#45;&gt;air_pyramid -->
<g id="edge13" class="edge">
<title>slave&#45;&gt;air_pyramid</title>
<path fill="none" stroke="#ebc72d" stroke-width="2" d="M551.44,-279.18C484.04,-274.79 334.56,-261.81 213.39,-228.17 204.47,-225.69 195.21,-222.41 186.35,-218.89"/>
<polygon fill="#ebc72d" stroke="#ebc72d" stroke-width="2" points="187.51,-215.58 176.93,-215.01 184.84,-222.05 187.51,-215.58"/>
</g>
<!-- desert_camp -->
<g id="node5" class="node">
<title>desert_camp</title>
<g id="a_node5"><a xlink:href="egypt_desert_camp_full.html" xlink:title="Desert\nCamp">
<polygon fill="none" stroke="red" points="336.02,-205.28 279.39,-228.38 222.77,-205.28 222.82,-167.91 335.97,-167.91 336.02,-205.28"/>
<text text-anchor="middle" x="279.39" y="-198.75" font-family="Times,serif" font-size="14.00" fill="#ebc72d">Desert</text>
<text text-anchor="middle" x="279.39" y="-183.75" font-family="Times,serif" font-size="14.00" fill="#ebc72d">Camp</text>
</a>
</g>
</g>
<!-- slave&#45;&gt;desert_camp -->
<g id="edge14" class="edge">
<title>slave&#45;&gt;desert_camp</title>
<path fill="none" stroke="#ebc72d" stroke-width="2" d="M556.45,-272.61C505.09,-258.39 401.45,-229.72 336.52,-211.76"/>
<polygon fill="#ebc72d" stroke="#ebc72d" stroke-width="2" points="337.41,-208.37 326.83,-209.08 335.54,-215.12 337.41,-208.37"/>
</g>
<!-- sphinx -->
<g id="node7" class="node">
<title>sphinx</title>
<g id="a_node7"><a xlink:href="egypt_sphinx_full.html" xlink:title="Sphinx">
<polygon fill="none" stroke="red" points="513.44,-200.52 460.39,-212.95 407.35,-200.52 407.4,-180.39 513.39,-180.39 513.44,-200.52"/>
<text text-anchor="middle" x="460.39" y="-191.25" font-family="Times,serif" font-size="14.00" fill="#ebc72d">Sphinx</text>
</a>
</g>
</g>
<!-- slave&#45;&gt;sphinx -->
<g id="edge18" class="edge">
<title>slave&#45;&gt;sphinx</title>
<path fill="none" stroke="#ebc72d" stroke-width="2" d="M566.71,-267.29C545.27,-252.9 511.64,-230.34 487.95,-214.45"/>
<polygon fill="#ebc72d" stroke="#ebc72d" stroke-width="2" points="489.66,-211.38 479.41,-208.71 485.76,-217.19 489.66,-211.38"/>
</g>
<!-- obelisk -->
<g id="node8" class="node">
<title>obelisk</title>
<g id="a_node8"><a xlink:href="egypt_obelisk_full.html" xlink:title="Obelisk">
<polygon fill="none" stroke="red" points="643.87,-200.52 587.39,-212.95 530.92,-200.52 530.97,-180.39 643.81,-180.39 643.87,-200.52"/>
<text text-anchor="middle" x="587.39" y="-191.25" font-family="Times,serif" font-size="14.00" fill="#ebc72d">Obelisk</text>
</a>
</g>
</g>
<!-- slave&#45;&gt;obelisk -->
<g id="edge16" class="edge">
<title>slave&#45;&gt;obelisk</title>
<path fill="none" stroke="#ebc72d" stroke-width="2" d="M587.39,-263.92C587.39,-252.26 587.39,-236.6 587.39,-223.26"/>
<polygon fill="#ebc72d" stroke="#ebc72d" stroke-width="2" points="590.89,-223.17 587.39,-213.17 583.89,-223.17 590.89,-223.17"/>
</g>
<!-- pyramid -->
<g id="node9" class="node">
<title>pyramid</title>
<g id="a_node9"><a xlink:href="egypt_pyramid_full.html" xlink:title="Pyramid">
<polygon fill="none" stroke="red" points="785.11,-200.52 723.39,-212.95 661.67,-200.52 661.73,-180.39 785.06,-180.39 785.11,-200.52"/>
<text text-anchor="middle" x="723.39" y="-191.25" font-family="Times,serif" font-size="14.00" fill="#ebc72d">Pyramid</text>
</a>
</g>
</g>
<!-- slave&#45;&gt;pyramid -->
<g id="edge17" class="edge">
<title>slave&#45;&gt;pyramid</title>
<path fill="none" stroke="#ebc72d" stroke-width="2" d="M617.88,-262.06C640.54,-247.87 671.27,-228.61 693.72,-214.54"/>
<polygon fill="#ebc72d" stroke="#ebc72d" stroke-width="2" points="615.86,-259.2 609.24,-267.48 619.58,-265.13 615.86,-259.2"/>
<polygon fill="#ebc72d" stroke="#ebc72d" stroke-width="2" points="695.87,-217.33 702.49,-209.05 692.16,-211.39 695.87,-217.33"/>
</g>
<!-- temple -->
<g id="node13" class="node">
<title>temple</title>
<g id="a_node13"><a xlink:href="egypt_temple_full.html" xlink:title="Temple">
<polygon fill="none" stroke="red" points="1170.15,-200.52 1115.39,-212.95 1060.63,-200.52 1060.69,-180.39 1170.1,-180.39 1170.15,-200.52"/>
<text text-anchor="middle" x="1115.39" y="-191.25" font-family="Times,serif" font-size="14.00" fill="#ebc72d">Temple</text>
</a>
</g>
</g>
<!-- slave&#45;&gt;temple -->
<g id="edge19" class="edge">
<title>slave&#45;&gt;temple</title>
<path fill="none" stroke="#ebc72d" stroke-width="2" d="M622.1,-276.06C684.2,-266.87 818.4,-246.76 931.39,-228.17 976,-220.83 1026.58,-211.93 1063.41,-205.35"/>
<polygon fill="#ebc72d" stroke="#ebc72d" stroke-width="2" points="1064.19,-208.76 1073.41,-203.55 1062.95,-201.87 1064.19,-208.76"/>
</g>
<!-- farm -->
<g id="node16" class="node">
<title>farm</title>
<g id="a_node16"><a xlink:href="egypt_farm_full.html" xlink:title="Farm">
<polygon fill="none" stroke="red" points="922.05,-200.52 879.39,-212.95 836.74,-200.52 836.78,-180.39 922.01,-180.39 922.05,-200.52"/>
<text text-anchor="middle" x="879.39" y="-191.25" font-family="Times,serif" font-size="14.00" fill="#ebc72d">Farm</text>
</a>
</g>
</g>
<!-- slave&#45;&gt;farm -->
<g id="edge15" class="edge">
<title>slave&#45;&gt;farm</title>
<path fill="none" stroke="#ebc72d" stroke-width="2" d="M619.98,-274.01C661.03,-264.72 733.56,-247.42 794.39,-228.17 811.43,-222.78 830.02,-215.86 845.46,-209.81"/>
<polygon fill="#ebc72d" stroke="#ebc72d" stroke-width="2" points="847.09,-212.93 855.1,-205.99 844.51,-206.42 847.09,-212.93"/>
</g>
<!-- mummy -->
<g id="node4" class="node">
<title>mummy</title>
<g id="a_node4"><a xlink:href="egypt_mummy_full.html" xlink:title="Mummy">
<ellipse fill="none" stroke="magenta" cx="1166.39" cy="-26.87" rx="48.99" ry="18"/>
<text text-anchor="middle" x="1166.39" y="-23.17" font-family="Times,serif" font-size="14.00" fill="#ebc72d">Mummy</text>
</a>
</g>
</g>
<!-- spearthrower -->
<g id="node6" class="node">
<title>spearthrower</title>
<g id="a_node6"><a xlink:href="egypt_spearthrower_full.html" xlink:title="Spearthrower">
<ellipse fill="none" stroke="magenta" cx="75.39" cy="-107.74" rx="75.29" ry="18"/>
<text text-anchor="middle" x="75.39" y="-104.04" font-family="Times,serif" font-size="14.00" fill="#ebc72d">Spearthrower</text>
</a>
</g>
</g>
<!-- desert_camp&#45;&gt;spearthrower -->
<g id="edge2" class="edge">
<title>desert_camp&#45;&gt;spearthrower</title>
<path fill="none" stroke="#ebc72d" d="M226.99,-167.86C222.41,-165.74 217.84,-163.67 213.39,-161.74 184.36,-149.11 151.27,-136.35 124.77,-126.51"/>
<polygon fill="#ebc72d" stroke="#ebc72d" points="125.92,-123.2 115.32,-123.02 123.49,-129.77 125.92,-123.2"/>
</g>
<!-- spearman -->
<g id="node15" class="node">
<title>spearman</title>
<g id="a_node15"><a xlink:href="egypt_spearman_full.html" xlink:title="Spearman">
<ellipse fill="none" stroke="magenta" cx="226.39" cy="-107.74" rx="57.69" ry="18"/>
<text text-anchor="middle" x="226.39" y="-104.04" font-family="Times,serif" font-size="14.00" fill="#ebc72d">Spearman</text>
</a>
</g>
</g>
<!-- desert_camp&#45;&gt;spearman -->
<g id="edge1" class="edge">
<title>desert_camp&#45;&gt;spearman</title>
<path fill="none" stroke="#ebc72d" d="M262.91,-167.46C256.33,-156.88 248.79,-144.74 242.27,-134.26"/>
<polygon fill="#ebc72d" stroke="#ebc72d" points="245.11,-132.2 236.85,-125.56 239.16,-135.9 245.11,-132.2"/>
</g>
<!-- ibis -->
<g id="node10" class="node">
<title>ibis</title>
<g id="a_node10"><a xlink:href="egypt_ibis_full.html" xlink:title="Ibis">
<ellipse fill="none" stroke="magenta" cx="879.39" cy="-107.74" rx="27.9" ry="18"/>
<text text-anchor="middle" x="879.39" y="-104.04" font-family="Times,serif" font-size="14.00" fill="#ebc72d">Ibis</text>
</a>
</g>
</g>
<!-- obelisk&#45;&gt;ibis -->
<g id="edge5" class="edge">
<title>obelisk&#45;&gt;ibis</title>
<path fill="none" stroke="#ebc72d" d="M611.11,-180.25C623.14,-173.8 638.18,-166.51 652.39,-161.74 733.88,-134.4 760.52,-151.87 842.39,-125.74 844.53,-125.06 846.7,-124.29 848.87,-123.45"/>
<polygon fill="#ebc72d" stroke="#ebc72d" points="850.35,-126.63 858.22,-119.54 847.65,-120.17 850.35,-126.63"/>
</g>
<!-- snake -->
<g id="node14" class="node">
<title>snake</title>
<g id="a_node14"><a xlink:href="egypt_snake_full.html" xlink:title="Snake">
<ellipse fill="none" stroke="magenta" cx="341.39" cy="-107.74" rx="38.99" ry="18"/>
<text text-anchor="middle" x="341.39" y="-104.04" font-family="Times,serif" font-size="14.00" fill="#ebc72d">Snake</text>
</a>
</g>
</g>
<!-- obelisk&#45;&gt;snake -->
<g id="edge7" class="edge">
<title>obelisk&#45;&gt;snake</title>
<path fill="none" stroke="#ebc72d" d="M562.59,-180.23C550.68,-174.02 536.05,-166.92 522.39,-161.74 465.13,-140.04 447.85,-143.98 389.39,-125.74 386.49,-124.83 383.5,-123.87 380.5,-122.87"/>
<polygon fill="#ebc72d" stroke="#ebc72d" points="381.57,-119.53 370.98,-119.61 379.31,-126.16 381.57,-119.53"/>
</g>
<!-- scarab -->
<g id="node17" class="node">
<title>scarab</title>
<g id="a_node17"><a xlink:href="egypt_scarab_full.html" xlink:title="Scarab">
<ellipse fill="none" stroke="magenta" cx="441.39" cy="-107.74" rx="42.79" ry="18"/>
<text text-anchor="middle" x="441.39" y="-104.04" font-family="Times,serif" font-size="14.00" fill="#ebc72d">Scarab</text>
</a>
</g>
</g>
<!-- obelisk&#45;&gt;scarab -->
<g id="edge6" class="edge">
<title>obelisk&#45;&gt;scarab</title>
<path fill="none" stroke="#ebc72d" d="M563.94,-180.26C539.75,-166.14 501.82,-144.01 474.56,-128.1"/>
<polygon fill="#ebc72d" stroke="#ebc72d" points="476.17,-124.98 465.77,-122.97 472.64,-131.03 476.17,-124.98"/>
</g>
<!-- summon_scarab -->
<g id="node20" class="node">
<title>summon_scarab</title>
<ellipse fill="none" stroke="black" cx="587.39" cy="-107.74" rx="85.29" ry="18"/>
<text text-anchor="middle" x="587.39" y="-104.04" font-family="Times,serif" font-size="14.00">summon_scarab</text>
</g>
<!-- obelisk&#45;&gt;summon_scarab -->
<g id="edge9" class="edge">
<title>obelisk&#45;&gt;summon_scarab</title>
<path fill="none" stroke="#ebc72d" stroke-dasharray="1,5" d="M587.39,-180.26C587.39,-168.38 587.39,-150.8 587.39,-136.05"/>
<polygon fill="#ebc72d" stroke="#ebc72d" points="590.89,-135.93 587.39,-125.93 583.89,-135.93 590.89,-135.93"/>
</g>
<!-- summon_ibis -->
<g id="node21" class="node">
<title>summon_ibis</title>
<ellipse fill="none" stroke="black" cx="762.39" cy="-107.74" rx="71.49" ry="18"/>
<text text-anchor="middle" x="762.39" y="-104.04" font-family="Times,serif" font-size="14.00">summon_ibis</text>
</g>
<!-- obelisk&#45;&gt;summon_ibis -->
<g id="edge8" class="edge">
<title>obelisk&#45;&gt;summon_ibis</title>
<path fill="none" stroke="#ebc72d" stroke-dasharray="1,5" d="M614.88,-180.25C626.44,-174.5 640.06,-167.77 652.39,-161.74 675.19,-150.6 700.71,-138.3 721.42,-128.35"/>
<polygon fill="#ebc72d" stroke="#ebc72d" points="723.08,-131.44 730.58,-123.95 720.05,-125.12 723.08,-131.44"/>
</g>
<!-- chicken -->
<g id="node11" class="node">
<title>chicken</title>
<g id="a_node11"><a xlink:href="egypt_chicken_full.html" xlink:title="Chicken">
<ellipse fill="none" stroke="magenta" cx="973.39" cy="-107.74" rx="48.19" ry="18"/>
<text text-anchor="middle" x="973.39" y="-104.04" font-family="Times,serif" font-size="14.00" fill="#ebc72d">Chicken</text>
</a>
</g>
</g>
<!-- priest -->
<g id="node12" class="node">
<title>priest</title>
<g id="a_node12"><a xlink:href="egypt_priest_full.html" xlink:title="Priest">
<ellipse fill="none" stroke="magenta" cx="1115.39" cy="-107.74" rx="38.19" ry="18"/>
<text text-anchor="middle" x="1115.39" y="-104.04" font-family="Times,serif" font-size="14.00" fill="#ebc72d">Priest</text>
</a>
</g>
</g>
<!-- priest&#45;&gt;anubis_warrior -->
<g id="edge10" class="edge">
<title>priest&#45;&gt;anubis_warrior</title>
<path fill="none" stroke="#ebc72d" d="M1102.04,-90.78C1094.46,-81.72 1084.71,-70.07 1075.66,-59.26"/>
<polygon fill="#ebc72d" stroke="#ebc72d" points="1078.34,-57.01 1069.24,-51.59 1072.98,-61.51 1078.34,-57.01"/>
</g>
<!-- priest&#45;&gt;mummy -->
<g id="edge11" class="edge">
<title>priest&#45;&gt;mummy</title>
<path fill="none" stroke="#ebc72d" d="M1125.96,-90.4C1132.96,-79.58 1142.27,-65.18 1150.19,-52.92"/>
<polygon fill="#ebc72d" stroke="#ebc72d" points="1153.17,-54.76 1155.66,-44.46 1147.3,-50.96 1153.17,-54.76"/>
</g>
<!-- temple&#45;&gt;anubis_warrior -->
<g id="edge20" class="edge">
<title>temple&#45;&gt;anubis_warrior</title>
<path fill="none" stroke="#ebc72d" stroke-dasharray="1,5" d="M1103.46,-180.33C1092.63,-167.23 1077.08,-146.43 1068.39,-125.74 1060.2,-106.22 1055.49,-83 1052.82,-64.08"/>
<polygon fill="#ebc72d" stroke="#ebc72d" points="1056.28,-63.53 1051.53,-54.06 1049.33,-64.43 1056.28,-63.53"/>
</g>
<!-- temple&#45;&gt;priest -->
<g id="edge21" class="edge">
<title>temple&#45;&gt;priest</title>
<path fill="none" stroke="#ebc72d" d="M1115.39,-180.26C1115.39,-168.38 1115.39,-150.8 1115.39,-136.05"/>
<polygon fill="#ebc72d" stroke="#ebc72d" points="1118.89,-135.93 1115.39,-125.93 1111.89,-135.93 1118.89,-135.93"/>
</g>
<!-- spear_weapons -->
<g id="node18" class="node">
<title>spear_weapons</title>
<ellipse fill="none" stroke="black" cx="1253.39" cy="-107.74" rx="81.49" ry="18"/>
<text text-anchor="middle" x="1253.39" y="-104.04" font-family="Times,serif" font-size="14.00">spear_weapons</text>
</g>
<!-- temple&#45;&gt;spear_weapons -->
<g id="edge22" class="edge">
<title>temple&#45;&gt;spear_weapons</title>
<path fill="none" stroke="#ebc72d" stroke-dasharray="1,5" d="M1137.57,-180.26C1159.37,-166.8 1193,-146.03 1218.42,-130.34"/>
<polygon fill="#ebc72d" stroke="#ebc72d" points="1220.36,-133.25 1227.03,-125.02 1216.68,-127.29 1220.36,-133.25"/>
</g>
<!-- speedup_priest_production -->
<g id="node19" class="node">
<title>speedup_priest_production</title>
<ellipse fill="none" stroke="black" cx="1488.39" cy="-107.74" rx="135.68" ry="18"/>
<text text-anchor="middle" x="1488.39" y="-104.04" font-family="Times,serif" font-size="14.00">speedup_priest_production</text>
</g>
<!-- temple&#45;&gt;speedup_priest_production -->
<g id="edge23" class="edge">
<title>temple&#45;&gt;speedup_priest_production</title>
<path fill="none" stroke="#ebc72d" stroke-dasharray="1,5" d="M1170.03,-181.47C1234.29,-166.79 1341.31,-142.34 1413.33,-125.89"/>
<polygon fill="#ebc72d" stroke="#ebc72d" points="1414.28,-129.26 1423.25,-123.62 1412.72,-122.44 1414.28,-129.26"/>
</g>
<!-- farm&#45;&gt;ibis -->
<g id="edge4" class="edge">
<title>farm&#45;&gt;ibis</title>
<path fill="none" stroke="#ebc72d" stroke-dasharray="1,5" d="M879.39,-180.26C879.39,-168.38 879.39,-150.8 879.39,-136.05"/>
<polygon fill="#ebc72d" stroke="#ebc72d" points="882.89,-135.93 879.39,-125.93 875.89,-135.93 882.89,-135.93"/>
</g>
<!-- farm&#45;&gt;chicken -->
<g id="edge3" class="edge">
<title>farm&#45;&gt;chicken</title>
<path fill="none" stroke="#ebc72d" d="M894.5,-180.26C908.99,-167.13 931.14,-147.04 948.29,-131.5"/>
<polygon fill="#ebc72d" stroke="#ebc72d" points="950.71,-134.03 955.77,-124.72 946.01,-128.84 950.71,-134.03"/>
</g>
</g>
</svg>
