<?xml version="1.0" encoding="UTF-8" standalone="no"?>
<!DOCTYPE svg PUBLIC "-//W3C//DTD SVG 1.1//EN"
 "http://www.w3.org/Graphics/SVG/1.1/DTD/svg11.dtd">
<!-- Generated by graphviz version 2.50.0 (0)
 -->
<!-- Title: test Pages: 1 -->
<svg width="300pt" height="393pt"
 viewBox="0.00 0.00 299.88 392.85" xmlns="http://www.w3.org/2000/svg" xmlns:xlink="http://www.w3.org/1999/xlink">
<g id="graph0" class="graph" transform="scale(1 1) rotate(0) translate(4 388.85)">
<title>test</title>
<polygon fill="#151515" stroke="transparent" points="-4,4 -4,-388.85 295.88,-388.85 295.88,4 -4,4"/>
<!-- air_pyramid -->
<g id="node1" class="node">
<title>air_pyramid</title>
<g id="a_node1"><a xlink:href="egypt_air_pyramid_full.html" xlink:title="Air\nPyramid">
<polygon fill="none" stroke="red" points="134.4,-43.54 67.3,-66.64 0.2,-43.54 0.26,-6.17 134.34,-6.17 134.4,-43.54"/>
<text text-anchor="middle" x="67.3" y="-37.01" font-family="Times,serif" font-size="14.00" fill="#ebc72d">Air</text>
<text text-anchor="middle" x="67.3" y="-22.01" font-family="Times,serif" font-size="14.00" fill="#ebc72d">Pyramid</text>
</a>
</g>
</g>
<!-- desert_camp -->
<g id="node2" class="node">
<title>desert_camp</title>
<g id="a_node2"><a xlink:href="egypt_desert_camp_full.html" xlink:title="Desert\nCamp">
<polygon fill="none" stroke="red" points="149.93,-289.97 93.3,-313.07 36.68,-289.97 36.73,-252.6 149.87,-252.6 149.93,-289.97"/>
<text text-anchor="middle" x="93.3" y="-283.44" font-family="Times,serif" font-size="14.00" fill="#ebc72d">Desert</text>
<text text-anchor="middle" x="93.3" y="-268.44" font-family="Times,serif" font-size="14.00" fill="#ebc72d">Camp</text>
</a>
</g>
</g>
<!-- temple -->
<g id="node6" class="node">
<title>temple</title>
<g id="a_node6"><a xlink:href="egypt_temple_full.html" xlink:title="Temple">
<polygon fill="none" stroke="red" points="150.06,-197.99 95.3,-210.43 40.54,-197.99 40.59,-177.86 150.01,-177.86 150.06,-197.99"/>
<text text-anchor="middle" x="95.3" y="-188.73" font-family="Times,serif" font-size="14.00" fill="#ebc72d">Temple</text>
</a>
</g>
</g>
<!-- desert_camp&#45;&gt;temple -->
<g id="edge1" class="edge">
<title>desert_camp&#45;&gt;temple</title>
<path fill="none" stroke="#ebc72d" stroke-dasharray="1,5" d="M93.92,-252.14C94.16,-242.17 94.42,-230.81 94.66,-220.76"/>
<polygon fill="#ebc72d" stroke="#ebc72d" points="98.16,-220.58 94.9,-210.5 91.17,-220.41 98.16,-220.58"/>
</g>
<!-- sphinx -->
<g id="node3" class="node">
<title>sphinx</title>
<g id="a_node3"><a xlink:href="egypt_sphinx_full.html" xlink:title="Sphinx">
<polygon fill="none" stroke="red" points="258.35,-38.78 205.3,-51.21 152.26,-38.78 152.3,-18.65 258.3,-18.65 258.35,-38.78"/>
<text text-anchor="middle" x="205.3" y="-29.51" font-family="Times,serif" font-size="14.00" fill="#ebc72d">Sphinx</text>
</a>
</g>
</g>
<!-- obelisk -->
<g id="node4" class="node">
<title>obelisk</title>
<g id="a_node4"><a xlink:href="egypt_obelisk_full.html" xlink:title="Obelisk">
<polygon fill="none" stroke="red" points="192.77,-125.99 136.3,-138.43 79.83,-125.99 79.88,-105.86 192.72,-105.86 192.77,-125.99"/>
<text text-anchor="middle" x="136.3" y="-116.73" font-family="Times,serif" font-size="14.00" fill="#ebc72d">Obelisk</text>
</a>
</g>
</g>
<!-- obelisk&#45;&gt;air_pyramid -->
<g id="edge2" class="edge">
<title>obelisk&#45;&gt;air_pyramid</title>
<path fill="none" stroke="#ebc72d" stroke-dasharray="1,5" d="M125.21,-105.74C116.95,-95.53 105.29,-81.13 94.6,-67.92"/>
<polygon fill="#ebc72d" stroke="#ebc72d" points="97.11,-65.47 88.1,-59.9 91.67,-69.88 97.11,-65.47"/>
</g>
<!-- obelisk&#45;&gt;sphinx -->
<g id="edge3" class="edge">
<title>obelisk&#45;&gt;sphinx</title>
<path fill="none" stroke="#ebc72d" stroke-dasharray="1,5" d="M147.39,-105.74C158.06,-92.56 174.39,-72.39 186.99,-56.83"/>
<polygon fill="#ebc72d" stroke="#ebc72d" points="189.98,-58.7 193.55,-48.73 184.54,-54.29 189.98,-58.7"/>
</g>
<!-- pyramid -->
<g id="node5" class="node">
<title>pyramid</title>
<g id="a_node5"><a xlink:href="egypt_pyramid_full.html" xlink:title="Pyramid">
<polygon fill="none" stroke="red" points="240.02,-372.42 178.3,-384.85 116.58,-372.42 116.64,-352.29 239.96,-352.29 240.02,-372.42"/>
<text text-anchor="middle" x="178.3" y="-363.15" font-family="Times,serif" font-size="14.00" fill="#ebc72d">Pyramid</text>
</a>
</g>
</g>
<!-- pyramid&#45;&gt;desert_camp -->
<g id="edge4" class="edge">
<title>pyramid&#45;&gt;desert_camp</title>
<path fill="none" stroke="#ebc72d" stroke-dasharray="1,5" d="M164.64,-352.16C153.61,-341.1 137.68,-325.13 123.66,-311.08"/>
<polygon fill="#ebc72d" stroke="#ebc72d" points="126.08,-308.55 116.54,-303.94 121.13,-313.49 126.08,-308.55"/>
</g>
<!-- pyramid&#45;&gt;obelisk -->
<g id="edge6" class="edge">
<title>pyramid&#45;&gt;obelisk</title>
<path fill="none" stroke="#ebc72d" stroke-dasharray="1,5" d="M178.3,-278.64C167.93,-232.72 172.98,-219.47 159.3,-174.43 156.42,-164.94 152.34,-154.88 148.41,-146.11"/>
<polygon fill="#ebc72d" stroke="#ebc72d" points="151.49,-144.44 144.11,-136.84 145.14,-147.39 151.49,-144.44"/>
</g>
<!-- pyramid&#45;&gt;temple -->
<g id="edge7" class="edge">
<title>pyramid&#45;&gt;temple</title>
<path fill="none" stroke="#ebc72d" stroke-dasharray="1,5" d="M180.14,-352.07C182,-335.05 183.87,-305.32 178.3,-280.64"/>
<path fill="none" stroke="#ebc72d" stroke-dasharray="1,5" d="M178.3,-278.64C171.74,-249.6 146.26,-226.25 125.24,-211.39"/>
<polygon fill="#ebc72d" stroke="#ebc72d" points="127.11,-208.43 116.86,-205.73 123.19,-214.23 127.11,-208.43"/>
</g>
<!-- farm -->
<g id="node7" class="node">
<title>farm</title>
<g id="a_node7"><a xlink:href="egypt_farm_full.html" xlink:title="Farm">
<polygon fill="none" stroke="red" points="291.96,-285.2 249.3,-297.64 206.64,-285.2 206.68,-265.08 291.92,-265.08 291.96,-285.2"/>
<text text-anchor="middle" x="249.3" y="-275.94" font-family="Times,serif" font-size="14.00" fill="#ebc72d">Farm</text>
</a>
</g>
</g>
<!-- pyramid&#45;&gt;farm -->
<g id="edge5" class="edge">
<title>pyramid&#45;&gt;farm</title>
<path fill="none" stroke="#ebc72d" stroke-dasharray="1,5" d="M189.71,-352.16C200.82,-338.82 217.9,-318.33 230.93,-302.69"/>
<polygon fill="#ebc72d" stroke="#ebc72d" points="233.97,-304.5 237.69,-294.58 228.6,-300.02 233.97,-304.5"/>
</g>
<!-- temple&#45;&gt;obelisk -->
<g id="edge8" class="edge">
<title>temple&#45;&gt;obelisk</title>
<path fill="none" stroke="#ebc72d" stroke-dasharray="1,5" d="M103.4,-177.6C108.74,-168.47 115.89,-156.28 122.15,-145.58"/>
<polygon fill="#ebc72d" stroke="#ebc72d" points="125.33,-147.08 127.36,-136.69 119.29,-143.55 125.33,-147.08"/>
</g>
</g>
</svg>
