<?xml version="1.0" encoding="UTF-8" standalone="no"?>
<!DOCTYPE svg PUBLIC "-//W3C//DTD SVG 1.1//EN"
 "http://www.w3.org/Graphics/SVG/1.1/DTD/svg11.dtd">
<!-- Generated by graphviz version 2.49.3 (0)
 -->
<!-- Title: test Pages: 1 -->
<svg width="421pt" height="393pt"
 viewBox="0.00 0.00 420.94 392.85" xmlns="http://www.w3.org/2000/svg" xmlns:xlink="http://www.w3.org/1999/xlink">
<g id="graph0" class="graph" transform="scale(1 1) rotate(0) translate(4 388.85)">
<title>test</title>
<polygon fill="#151515" stroke="transparent" points="-4,4 -4,-388.85 416.94,-388.85 416.94,4 -4,4"/>
<!-- palace -->
<g id="node1" class="node">
<title>palace</title>
<g id="a_node1"><a xlink:href="persian_palace_full.html" xlink:title="Palace">
<polygon fill="none" stroke="red" points="171.43,-372.42 121.81,-384.85 72.19,-372.42 72.24,-352.29 171.38,-352.29 171.43,-372.42"/>
<text text-anchor="middle" x="121.81" y="-363.15" font-family="Times,serif" font-size="14.00" fill="#ebc72d">Palace</text>
</a>
</g>
</g>
<!-- farm -->
<g id="node7" class="node">
<title>farm</title>
<g id="a_node7"><a xlink:href="persian_farm_full.html" xlink:title="Farm">
<polygon fill="none" stroke="red" points="109.47,-300.42 66.81,-312.85 24.15,-300.42 24.19,-280.29 109.43,-280.29 109.47,-300.42"/>
<text text-anchor="middle" x="66.81" y="-291.15" font-family="Times,serif" font-size="14.00" fill="#ebc72d">Farm</text>
</a>
</g>
</g>
<!-- palace&#45;&gt;farm -->
<g id="edge6" class="edge">
<title>palace&#45;&gt;farm</title>
<path fill="none" stroke="#ebc72d" stroke-dasharray="1,5" d="M110.95,-352.02C103.36,-342.37 93.07,-329.28 84.34,-318.16"/>
<polygon fill="#ebc72d" stroke="#ebc72d" points="86.96,-315.84 78.03,-310.13 81.46,-320.16 86.96,-315.84"/>
</g>
<!-- house -->
<g id="node8" class="node">
<title>house</title>
<g id="a_node8"><a xlink:href="persian_house_full.html" xlink:title="House">
<polygon fill="none" stroke="red" points="235.43,-300.42 185.81,-312.85 136.19,-300.42 136.24,-280.29 235.38,-280.29 235.43,-300.42"/>
<text text-anchor="middle" x="185.81" y="-291.15" font-family="Times,serif" font-size="14.00" fill="#ebc72d">House</text>
</a>
</g>
</g>
<!-- palace&#45;&gt;house -->
<g id="edge7" class="edge">
<title>palace&#45;&gt;house</title>
<path fill="none" stroke="#ebc72d" stroke-dasharray="1,5" d="M134.46,-352.02C143.37,-342.28 155.49,-329.02 165.71,-317.83"/>
<polygon fill="#ebc72d" stroke="#ebc72d" points="168.59,-319.88 172.75,-310.13 163.42,-315.15 168.59,-319.88"/>
</g>
<!-- tent -->
<g id="node2" class="node">
<title>tent</title>
<g id="a_node2"><a xlink:href="persian_tent_full.html" xlink:title="Tent">
<polygon fill="none" stroke="red" points="224.44,-110.78 185.81,-123.21 147.19,-110.78 147.22,-90.65 224.4,-90.65 224.44,-110.78"/>
<text text-anchor="middle" x="185.81" y="-101.51" font-family="Times,serif" font-size="14.00" fill="#ebc72d">Tent</text>
</a>
</g>
</g>
<!-- minaret -->
<g id="node6" class="node">
<title>minaret</title>
<g id="a_node6"><a xlink:href="persian_minaret_full.html" xlink:title="Minaret">
<polygon fill="none" stroke="red" points="245.21,-23.56 185.81,-36 126.41,-23.56 126.47,-3.44 245.16,-3.44 245.21,-23.56"/>
<text text-anchor="middle" x="185.81" y="-14.3" font-family="Times,serif" font-size="14.00" fill="#ebc72d">Minaret</text>
</a>
</g>
</g>
<!-- tent&#45;&gt;minaret -->
<g id="edge9" class="edge">
<title>tent&#45;&gt;minaret</title>
<path fill="none" stroke="#ebc72d" stroke-dasharray="1,5" d="M185.81,-90.52C185.81,-78.63 185.81,-61.06 185.81,-46.31"/>
<polygon fill="#ebc72d" stroke="#ebc72d" points="189.31,-46.19 185.81,-36.19 182.31,-46.19 189.31,-46.19"/>
</g>
<!-- snake_basket -->
<g id="node3" class="node">
<title>snake_basket</title>
<g id="a_node3"><a xlink:href="persian_snake_basket_full.html" xlink:title="Snake\nBasket">
<polygon fill="none" stroke="red" points="113.44,-217.97 56.81,-241.07 0.19,-217.97 0.24,-180.6 113.38,-180.6 113.44,-217.97"/>
<text text-anchor="middle" x="56.81" y="-211.44" font-family="Times,serif" font-size="14.00" fill="#ebc72d">Snake</text>
<text text-anchor="middle" x="56.81" y="-196.44" font-family="Times,serif" font-size="14.00" fill="#ebc72d">Basket</text>
</a>
</g>
</g>
<!-- elephant_cage -->
<g id="node4" class="node">
<title>elephant_cage</title>
<g id="a_node4"><a xlink:href="persian_elephant_cage_full.html" xlink:title="Elephant\nCage">
<polygon fill="none" stroke="red" points="406.41,-115.54 335.81,-138.64 265.22,-115.54 265.28,-78.17 406.34,-78.17 406.41,-115.54"/>
<text text-anchor="middle" x="335.81" y="-109.01" font-family="Times,serif" font-size="14.00" fill="#ebc72d">Elephant</text>
<text text-anchor="middle" x="335.81" y="-94.01" font-family="Times,serif" font-size="14.00" fill="#ebc72d">Cage</text>
</a>
</g>
</g>
<!-- temple -->
<g id="node5" class="node">
<title>temple</title>
<g id="a_node5"><a xlink:href="persian_temple_full.html" xlink:title="Temple">
<polygon fill="none" stroke="red" points="240.57,-213.2 185.81,-225.64 131.05,-213.2 131.1,-193.08 240.52,-193.08 240.57,-213.2"/>
<text text-anchor="middle" x="185.81" y="-203.94" font-family="Times,serif" font-size="14.00" fill="#ebc72d">Temple</text>
</a>
</g>
</g>
<!-- temple&#45;&gt;tent -->
<g id="edge8" class="edge">
<title>temple&#45;&gt;tent</title>
<path fill="none" stroke="#ebc72d" stroke-dasharray="1,5" d="M185.81,-192.68C185.81,-177.47 185.81,-152.76 185.81,-133.64"/>
<polygon fill="#ebc72d" stroke="#ebc72d" points="189.31,-133.42 185.81,-123.42 182.31,-133.42 189.31,-133.42"/>
</g>
<!-- farm&#45;&gt;snake_basket -->
<g id="edge2" class="edge">
<title>farm&#45;&gt;snake_basket</title>
<path fill="none" stroke="#ebc72d" stroke-dasharray="1,5" d="M65.21,-280.16C64.22,-271.81 62.91,-260.64 61.62,-249.62"/>
<polygon fill="#ebc72d" stroke="#ebc72d" points="65.09,-249.15 60.45,-239.62 58.14,-249.96 65.09,-249.15"/>
</g>
<!-- house&#45;&gt;temple -->
<g id="edge5" class="edge">
<title>house&#45;&gt;temple</title>
<path fill="none" stroke="#ebc72d" stroke-dasharray="1,5" d="M185.81,-280.16C185.81,-268.27 185.81,-250.7 185.81,-235.95"/>
<polygon fill="#ebc72d" stroke="#ebc72d" points="189.31,-235.83 185.81,-225.83 182.31,-235.83 189.31,-235.83"/>
</g>
<!-- blacksmith -->
<g id="node9" class="node">
<title>blacksmith</title>
<g id="a_node9"><a xlink:href="persian_blacksmith_full.html" xlink:title="Blacksmith">
<polygon fill="none" stroke="red" points="413.06,-213.2 335.81,-225.64 258.56,-213.2 258.64,-193.08 412.99,-193.08 413.06,-213.2"/>
<text text-anchor="middle" x="335.81" y="-203.94" font-family="Times,serif" font-size="14.00" fill="#ebc72d">Blacksmith</text>
</a>
</g>
</g>
<!-- house&#45;&gt;blacksmith -->
<g id="edge4" class="edge">
<title>house&#45;&gt;blacksmith</title>
<path fill="none" stroke="#ebc72d" stroke-dasharray="1,5" d="M209.91,-280.16C235.21,-265.79 275.14,-243.11 303.23,-227.15"/>
<polygon fill="#ebc72d" stroke="#ebc72d" points="305.3,-230 312.27,-222.02 301.84,-223.91 305.3,-230"/>
</g>
<!-- blacksmith&#45;&gt;elephant_cage -->
<g id="edge1" class="edge">
<title>blacksmith&#45;&gt;elephant_cage</title>
<path fill="none" stroke="#ebc72d" stroke-dasharray="1,5" d="M335.81,-192.68C335.81,-181.27 335.81,-164.52 335.81,-148.79"/>
<polygon fill="#ebc72d" stroke="#ebc72d" points="339.31,-148.67 335.81,-138.67 332.31,-148.67 339.31,-148.67"/>
</g>
</g>
</svg>
