<?xml version="1.0" encoding="UTF-8" standalone="no"?>
<!DOCTYPE svg PUBLIC "-//W3C//DTD SVG 1.1//EN"
 "http://www.w3.org/Graphics/SVG/1.1/DTD/svg11.dtd">
<!-- Generated by graphviz version 2.49.3 (0)
 -->
<!-- Title: test Pages: 1 -->
<svg width="1143pt" height="339pt"
 viewBox="0.00 0.00 1142.89 338.59" xmlns="http://www.w3.org/2000/svg" xmlns:xlink="http://www.w3.org/1999/xlink">
<g id="graph0" class="graph" transform="scale(1 1) rotate(0) translate(4 334.59)">
<title>test</title>
<polygon fill="#151515" stroke="transparent" points="-4,4 -4,-334.59 1138.89,-334.59 1138.89,4 -4,4"/>
<!-- swordman -->
<g id="node1" class="node">
<title>swordman</title>
<g id="a_node1"><a xlink:href="persian_swordman_full.html" xlink:title="Swordman">
<ellipse fill="none" stroke="magenta" cx="60.44" cy="-129.3" rx="60.39" ry="18"/>
<text text-anchor="middle" x="60.44" y="-125.6" font-family="Times,serif" font-size="14.00" fill="#ebc72d">Swordman</text>
</a>
</g>
</g>
<!-- genie -->
<g id="node2" class="node">
<title>genie</title>
<g id="a_node2"><a xlink:href="persian_genie_full.html" xlink:title="Genie">
<ellipse fill="none" stroke="magenta" cx="530.44" cy="-129.3" rx="37.89" ry="18"/>
<text text-anchor="middle" x="530.44" y="-125.6" font-family="Times,serif" font-size="14.00" fill="#ebc72d">Genie</text>
</a>
</g>
</g>
<!-- palace -->
<g id="node3" class="node">
<title>palace</title>
<g id="a_node3"><a xlink:href="persian_palace_full.html" xlink:title="Palace">
<polygon fill="none" stroke="red" points="595.06,-230.94 545.44,-243.38 495.83,-230.94 495.87,-210.82 595.02,-210.82 595.06,-230.94"/>
<text text-anchor="middle" x="545.44" y="-221.68" font-family="Times,serif" font-size="14.00" fill="#ebc72d">Palace</text>
</a>
</g>
</g>
<!-- worker -->
<g id="node12" class="node">
<title>worker</title>
<g id="a_node12"><a xlink:href="persian_worker_full.html" xlink:title="Worker">
<ellipse fill="none" stroke="magenta" cx="598.44" cy="-312.59" rx="44.69" ry="18"/>
<text text-anchor="middle" x="598.44" y="-308.89" font-family="Times,serif" font-size="14.00" fill="#ebc72d">Worker</text>
</a>
</g>
</g>
<!-- tent -->
<g id="node4" class="node">
<title>tent</title>
<g id="a_node4"><a xlink:href="persian_tent_full.html" xlink:title="Tent">
<polygon fill="none" stroke="red" points="690.07,-230.94 651.44,-243.38 612.82,-230.94 612.86,-210.82 690.03,-210.82 690.07,-230.94"/>
<text text-anchor="middle" x="651.44" y="-221.68" font-family="Times,serif" font-size="14.00" fill="#ebc72d">Tent</text>
</a>
</g>
</g>
<!-- tent&#45;&gt;genie -->
<g id="edge13" class="edge">
<title>tent&#45;&gt;genie</title>
<path fill="none" stroke="#ebc72d" d="M633.85,-210.7C613.77,-195.09 580.69,-169.37 557.37,-151.23"/>
<polygon fill="#ebc72d" stroke="#ebc72d" points="559.3,-148.3 549.26,-144.92 555,-153.82 559.3,-148.3"/>
</g>
<!-- magician -->
<g id="node14" class="node">
<title>magician</title>
<g id="a_node14"><a xlink:href="persian_magician_full.html" xlink:title="Magician">
<ellipse fill="none" stroke="magenta" cx="639.44" cy="-129.3" rx="53.09" ry="18"/>
<text text-anchor="middle" x="639.44" y="-125.6" font-family="Times,serif" font-size="14.00" fill="#ebc72d">Magician</text>
</a>
</g>
</g>
<!-- tent&#45;&gt;magician -->
<g id="edge14" class="edge">
<title>tent&#45;&gt;magician</title>
<path fill="none" stroke="#ebc72d" d="M649.67,-210.5C647.9,-196.61 645.13,-174.89 642.92,-157.55"/>
<polygon fill="#ebc72d" stroke="#ebc72d" points="646.37,-156.91 641.63,-147.43 639.42,-157.79 646.37,-156.91"/>
</g>
<!-- flying_carpet -->
<g id="node19" class="node">
<title>flying_carpet</title>
<g id="a_node19"><a xlink:href="persian_flying_carpet_full.html" xlink:title="Flying\nCarpet">
<ellipse fill="none" stroke="magenta" cx="756.44" cy="-129.3" rx="45.92" ry="26.74"/>
<text text-anchor="middle" x="756.44" y="-133.1" font-family="Times,serif" font-size="14.00" fill="#ebc72d">Flying</text>
<text text-anchor="middle" x="756.44" y="-118.1" font-family="Times,serif" font-size="14.00" fill="#ebc72d">Carpet</text>
</a>
</g>
</g>
<!-- tent&#45;&gt;flying_carpet -->
<g id="edge12" class="edge">
<title>tent&#45;&gt;flying_carpet</title>
<path fill="none" stroke="#ebc72d" d="M666.94,-210.5C681.98,-197.02 705.27,-176.15 724.32,-159.08"/>
<polygon fill="#ebc72d" stroke="#ebc72d" points="726.81,-161.55 731.92,-152.27 722.13,-156.34 726.81,-161.55"/>
</g>
<!-- stickfighter -->
<g id="node5" class="node">
<title>stickfighter</title>
<g id="a_node5"><a xlink:href="persian_stickfighter_full.html" xlink:title="Stickfighter">
<ellipse fill="none" stroke="magenta" cx="322.44" cy="-129.3" rx="65.79" ry="18"/>
<text text-anchor="middle" x="322.44" y="-125.6" font-family="Times,serif" font-size="14.00" fill="#ebc72d">Stickfighter</text>
</a>
</g>
</g>
<!-- princess -->
<g id="node6" class="node">
<title>princess</title>
<g id="a_node6"><a xlink:href="persian_princess_full.html" xlink:title="Princess">
<ellipse fill="none" stroke="magenta" cx="188.44" cy="-129.3" rx="50.09" ry="18"/>
<text text-anchor="middle" x="188.44" y="-125.6" font-family="Times,serif" font-size="14.00" fill="#ebc72d">Princess</text>
</a>
</g>
</g>
<!-- snake_basket -->
<g id="node7" class="node">
<title>snake_basket</title>
<g id="a_node7"><a xlink:href="persian_snake_basket_full.html" xlink:title="Snake\nBasket">
<polygon fill="none" stroke="red" points="791.07,-43.54 734.44,-66.64 677.82,-43.54 677.87,-6.17 791.02,-6.17 791.07,-43.54"/>
<text text-anchor="middle" x="734.44" y="-37.01" font-family="Times,serif" font-size="14.00" fill="#ebc72d">Snake</text>
<text text-anchor="middle" x="734.44" y="-22.01" font-family="Times,serif" font-size="14.00" fill="#ebc72d">Basket</text>
</a>
</g>
</g>
<!-- sheep -->
<g id="node8" class="node">
<title>sheep</title>
<g id="a_node8"><a xlink:href="persian_sheep_full.html" xlink:title="Sheep">
<ellipse fill="none" stroke="magenta" cx="898.44" cy="-129.3" rx="39.79" ry="18"/>
<text text-anchor="middle" x="898.44" y="-125.6" font-family="Times,serif" font-size="14.00" fill="#ebc72d">Sheep</text>
</a>
</g>
</g>
<!-- elephant_cage -->
<g id="node9" class="node">
<title>elephant_cage</title>
<g id="a_node9"><a xlink:href="persian_elephant_cage_full.html" xlink:title="Elephant\nCage">
<polygon fill="none" stroke="red" points="998.04,-235.71 927.44,-258.81 856.85,-235.71 856.92,-198.34 997.97,-198.34 998.04,-235.71"/>
<text text-anchor="middle" x="927.44" y="-229.18" font-family="Times,serif" font-size="14.00" fill="#ebc72d">Elephant</text>
<text text-anchor="middle" x="927.44" y="-214.18" font-family="Times,serif" font-size="14.00" fill="#ebc72d">Cage</text>
</a>
</g>
</g>
<!-- elephant -->
<g id="node13" class="node">
<title>elephant</title>
<g id="a_node13"><a xlink:href="persian_elephant_full.html" xlink:title="Elephant">
<ellipse fill="none" stroke="magenta" cx="1008.44" cy="-129.3" rx="52.79" ry="18"/>
<text text-anchor="middle" x="1008.44" y="-125.6" font-family="Times,serif" font-size="14.00" fill="#ebc72d">Elephant</text>
</a>
</g>
</g>
<!-- elephant_cage&#45;&gt;elephant -->
<g id="edge2" class="edge">
<title>elephant_cage&#45;&gt;elephant</title>
<path fill="none" stroke="#ebc72d" d="M950.01,-198.17C961.71,-184.57 975.93,-168.07 987.41,-154.73"/>
<polygon fill="#ebc72d" stroke="#ebc72d" points="990.28,-156.76 994.15,-146.9 984.97,-152.19 990.28,-156.76"/>
</g>
<!-- temple -->
<g id="node10" class="node">
<title>temple</title>
<g id="a_node10"><a xlink:href="persian_temple_full.html" xlink:title="Temple">
<polygon fill="none" stroke="red" points="339.2,-230.94 284.44,-243.38 229.69,-230.94 229.74,-210.82 339.15,-210.82 339.2,-230.94"/>
<text text-anchor="middle" x="284.44" y="-221.68" font-family="Times,serif" font-size="14.00" fill="#ebc72d">Temple</text>
</a>
</g>
</g>
<!-- temple&#45;&gt;swordman -->
<g id="edge11" class="edge">
<title>temple&#45;&gt;swordman</title>
<path fill="none" stroke="#ebc72d" d="M251.87,-210.7C212.73,-194.26 146.92,-166.62 103.58,-148.41"/>
<polygon fill="#ebc72d" stroke="#ebc72d" points="104.73,-145.1 94.15,-144.46 102.02,-151.55 104.73,-145.1"/>
</g>
<!-- temple&#45;&gt;stickfighter -->
<g id="edge10" class="edge">
<title>temple&#45;&gt;stickfighter</title>
<path fill="none" stroke="#ebc72d" stroke-dasharray="1,5" d="M290.05,-210.5C295.71,-196.48 304.6,-174.48 311.63,-157.06"/>
<polygon fill="#ebc72d" stroke="#ebc72d" points="315.02,-158.01 315.52,-147.43 308.53,-155.39 315.02,-158.01"/>
</g>
<!-- temple&#45;&gt;princess -->
<g id="edge9" class="edge">
<title>temple&#45;&gt;princess</title>
<path fill="none" stroke="#ebc72d" d="M270.28,-210.5C255.04,-195.56 230.53,-171.54 212.31,-153.68"/>
<polygon fill="#ebc72d" stroke="#ebc72d" points="214.52,-150.95 204.92,-146.45 209.62,-155.95 214.52,-150.95"/>
</g>
<!-- minaret -->
<g id="node11" class="node">
<title>minaret</title>
<g id="a_node11"><a xlink:href="persian_minaret_full.html" xlink:title="Minaret">
<polygon fill="none" stroke="red" points="1134.84,-230.94 1075.44,-243.38 1016.05,-230.94 1016.1,-210.82 1134.79,-210.82 1134.84,-230.94"/>
<text text-anchor="middle" x="1075.44" y="-221.68" font-family="Times,serif" font-size="14.00" fill="#ebc72d">Minaret</text>
</a>
</g>
</g>
<!-- worker&#45;&gt;palace -->
<g id="edge20" class="edge">
<title>worker&#45;&gt;palace</title>
<path fill="none" stroke="#ebc72d" stroke-width="2" d="M582.61,-286.13C575.48,-274.67 567.12,-261.24 560.14,-250.01"/>
<polygon fill="#ebc72d" stroke="#ebc72d" stroke-width="2" points="579.72,-288.11 587.97,-294.76 585.66,-284.42 579.72,-288.11"/>
<polygon fill="#ebc72d" stroke="#ebc72d" stroke-width="2" points="562.91,-247.83 554.65,-241.19 556.96,-251.53 562.91,-247.83"/>
</g>
<!-- worker&#45;&gt;tent -->
<g id="edge22" class="edge">
<title>worker&#45;&gt;tent</title>
<path fill="none" stroke="#ebc72d" stroke-width="2" d="M608.92,-294.76C616.98,-281.79 628.23,-263.71 637.13,-249.4"/>
<polygon fill="#ebc72d" stroke="#ebc72d" stroke-width="2" points="640.27,-250.98 642.58,-240.64 634.32,-247.28 640.27,-250.98"/>
</g>
<!-- worker&#45;&gt;elephant_cage -->
<g id="edge16" class="edge">
<title>worker&#45;&gt;elephant_cage</title>
<path fill="none" stroke="#ebc72d" stroke-width="2" d="M639.72,-305.17C689.76,-296.85 776.35,-280.74 848.44,-258.59 857.48,-255.82 866.92,-252.42 876.01,-248.89"/>
<polygon fill="#ebc72d" stroke="#ebc72d" stroke-width="2" points="877.32,-252.14 885.31,-245.18 874.72,-245.63 877.32,-252.14"/>
</g>
<!-- worker&#45;&gt;temple -->
<g id="edge21" class="edge">
<title>worker&#45;&gt;temple</title>
<path fill="none" stroke="#ebc72d" stroke-width="2" d="M558.52,-304.16C512.3,-295.14 434.09,-278.64 368.44,-258.59 352.27,-253.65 334.75,-247.13 319.92,-241.25"/>
<polygon fill="#ebc72d" stroke="#ebc72d" stroke-width="2" points="321.18,-237.98 310.6,-237.49 318.57,-244.48 321.18,-237.98"/>
</g>
<!-- worker&#45;&gt;minaret -->
<g id="edge19" class="edge">
<title>worker&#45;&gt;minaret</title>
<path fill="none" stroke="#ebc72d" stroke-width="2" d="M642.96,-310.36C719.11,-307.27 878.63,-296.42 1007.44,-258.59 1019.98,-254.91 1033.1,-249.19 1044.43,-243.59"/>
<polygon fill="#ebc72d" stroke="#ebc72d" stroke-width="2" points="1046.17,-246.63 1053.48,-238.95 1042.98,-240.4 1046.17,-246.63"/>
</g>
<!-- farm -->
<g id="node15" class="node">
<title>farm</title>
<g id="a_node15"><a xlink:href="persian_farm_full.html" xlink:title="Farm">
<polygon fill="none" stroke="red" points="839.1,-230.94 796.44,-243.38 753.79,-230.94 753.83,-210.82 839.06,-210.82 839.1,-230.94"/>
<text text-anchor="middle" x="796.44" y="-221.68" font-family="Times,serif" font-size="14.00" fill="#ebc72d">Farm</text>
</a>
</g>
</g>
<!-- worker&#45;&gt;farm -->
<g id="edge17" class="edge">
<title>worker&#45;&gt;farm</title>
<path fill="none" stroke="#ebc72d" stroke-width="2" d="M628.09,-298.84C664.33,-283.24 725.5,-256.91 763.28,-240.65"/>
<polygon fill="#ebc72d" stroke="#ebc72d" stroke-width="2" points="765.01,-243.72 772.81,-236.55 762.25,-237.29 765.01,-243.72"/>
</g>
<!-- house -->
<g id="node16" class="node">
<title>house</title>
<g id="a_node16"><a xlink:href="persian_house_full.html" xlink:title="House">
<polygon fill="none" stroke="red" points="477.06,-230.94 427.44,-243.38 377.83,-230.94 377.87,-210.82 477.02,-210.82 477.06,-230.94"/>
<text text-anchor="middle" x="427.44" y="-221.68" font-family="Times,serif" font-size="14.00" fill="#ebc72d">House</text>
</a>
</g>
</g>
<!-- worker&#45;&gt;house -->
<g id="edge18" class="edge">
<title>worker&#45;&gt;house</title>
<path fill="none" stroke="#ebc72d" stroke-width="2" d="M569.68,-298.54C546.93,-288.08 514.43,-272.84 486.44,-258.59 476.85,-253.71 466.51,-248.16 457.21,-243.06"/>
<polygon fill="#ebc72d" stroke="#ebc72d" stroke-width="2" points="458.76,-239.92 448.31,-238.16 455.38,-246.05 458.76,-239.92"/>
</g>
<!-- blacksmith -->
<g id="node17" class="node">
<title>blacksmith</title>
<g id="a_node17"><a xlink:href="persian_blacksmith_full.html" xlink:title="Blacksmith">
<polygon fill="none" stroke="red" points="170.69,-230.94 93.44,-243.38 16.2,-230.94 16.27,-210.82 170.62,-210.82 170.69,-230.94"/>
<text text-anchor="middle" x="93.44" y="-221.68" font-family="Times,serif" font-size="14.00" fill="#ebc72d">Blacksmith</text>
</a>
</g>
</g>
<!-- worker&#45;&gt;blacksmith -->
<g id="edge15" class="edge">
<title>worker&#45;&gt;blacksmith</title>
<path fill="none" stroke="#ebc72d" stroke-width="2" d="M555.68,-307.14C485.35,-299.46 341.07,-282.27 220.44,-258.59 194.18,-253.44 165.22,-246.21 141.6,-239.91"/>
<polygon fill="#ebc72d" stroke="#ebc72d" stroke-width="2" points="142.39,-236.5 131.82,-237.28 140.57,-243.26 142.39,-236.5"/>
</g>
<!-- magician&#45;&gt;snake_basket -->
<g id="edge7" class="edge">
<title>magician&#45;&gt;snake_basket</title>
<path fill="none" stroke="#ebc72d" stroke-width="2" d="M655.99,-111.91C669.06,-98.97 687.66,-80.55 703.47,-64.89"/>
<polygon fill="#ebc72d" stroke="#ebc72d" stroke-width="2" points="706.33,-66.99 710.97,-57.46 701.4,-62.01 706.33,-66.99"/>
</g>
<!-- farm&#45;&gt;snake_basket -->
<g id="edge4" class="edge">
<title>farm&#45;&gt;snake_basket</title>
<path fill="none" stroke="#ebc72d" stroke-dasharray="1,5" d="M802.69,-210.5C812.27,-187.11 827.82,-138.8 811.44,-102.43 803.79,-85.41 789.55,-70.92 775.38,-59.73"/>
<polygon fill="#ebc72d" stroke="#ebc72d" points="777.2,-56.72 767.1,-53.53 773.01,-62.32 777.2,-56.72"/>
</g>
<!-- farm&#45;&gt;sheep -->
<g id="edge3" class="edge">
<title>farm&#45;&gt;sheep</title>
<path fill="none" stroke="#ebc72d" d="M811.5,-210.5C827.96,-195.31 854.59,-170.75 874.05,-152.8"/>
<polygon fill="#ebc72d" stroke="#ebc72d" points="876.66,-155.16 881.63,-145.8 871.91,-150.01 876.66,-155.16"/>
</g>
<!-- house&#45;&gt;stickfighter -->
<g id="edge6" class="edge">
<title>house&#45;&gt;stickfighter</title>
<path fill="none" stroke="#ebc72d" d="M411.95,-210.5C395.23,-195.52 368.32,-171.41 348.37,-153.53"/>
<polygon fill="#ebc72d" stroke="#ebc72d" points="350.62,-150.84 340.83,-146.77 345.94,-156.05 350.62,-150.84"/>
</g>
<!-- fakir -->
<g id="node18" class="node">
<title>fakir</title>
<g id="a_node18"><a xlink:href="persian_fakir_full.html" xlink:title="Fakir">
<ellipse fill="none" stroke="magenta" cx="440.44" cy="-129.3" rx="34.39" ry="18"/>
<text text-anchor="middle" x="440.44" y="-125.6" font-family="Times,serif" font-size="14.00" fill="#ebc72d">Fakir</text>
</a>
</g>
</g>
<!-- house&#45;&gt;fakir -->
<g id="edge5" class="edge">
<title>house&#45;&gt;fakir</title>
<path fill="none" stroke="#ebc72d" d="M429.36,-210.5C431.28,-196.61 434.28,-174.89 436.68,-157.55"/>
<polygon fill="#ebc72d" stroke="#ebc72d" points="440.18,-157.81 438.08,-147.43 433.24,-156.86 440.18,-157.81"/>
</g>
<!-- blacksmith&#45;&gt;swordman -->
<g id="edge1" class="edge">
<title>blacksmith&#45;&gt;swordman</title>
<path fill="none" stroke="#ebc72d" stroke-dasharray="1,5" d="M88.58,-210.5C83.66,-196.48 75.94,-174.48 69.83,-157.06"/>
<polygon fill="#ebc72d" stroke="#ebc72d" points="73.07,-155.71 66.45,-147.43 66.46,-158.02 73.07,-155.71"/>
</g>
</g>
</svg>
