<?xml version="1.0" encoding="UTF-8" standalone="no"?>
<!DOCTYPE svg PUBLIC "-//W3C//DTD SVG 1.1//EN"
 "http://www.w3.org/Graphics/SVG/1.1/DTD/svg11.dtd">
<!-- Generated by graphviz version 2.49.3 (0)
 -->
<!-- Title: test Pages: 1 -->
<svg width="1433pt" height="604pt"
 viewBox="0.00 0.00 1433.11 604.17" xmlns="http://www.w3.org/2000/svg" xmlns:xlink="http://www.w3.org/1999/xlink">
<g id="graph0" class="graph" transform="scale(1 1) rotate(0) translate(4 600.17)">
<title>test</title>
<polygon fill="#151515" stroke="transparent" points="-4,4 -4,-600.17 1429.11,-600.17 1429.11,4 -4,4"/>
<!-- swordman -->
<g id="node1" class="node">
<title>swordman</title>
<g id="a_node1"><a xlink:href="persian_swordman_full.html" xlink:title="Swordman">
<ellipse fill="none" stroke="magenta" cx="486.51" cy="-342.17" rx="60.39" ry="18"/>
<text text-anchor="middle" x="486.51" y="-338.47" font-family="Times,serif" font-size="14.00" fill="#ebc72d">Swordman</text>
</a>
</g>
</g>
<!-- genie -->
<g id="node2" class="node">
<title>genie</title>
<g id="a_node2"><a xlink:href="persian_genie_full.html" xlink:title="Genie">
<ellipse fill="none" stroke="magenta" cx="642.51" cy="-230.17" rx="37.89" ry="18"/>
<text text-anchor="middle" x="642.51" y="-226.47" font-family="Times,serif" font-size="14.00" fill="#ebc72d">Genie</text>
</a>
</g>
</g>
<!-- palace -->
<g id="node3" class="node">
<title>palace</title>
<g id="a_node3"><a xlink:href="persian_palace_full.html" xlink:title="Palace">
<polygon fill="none" stroke="red" points="1065.12,-511.73 1015.51,-524.17 965.89,-511.73 965.93,-491.6 1065.08,-491.6 1065.12,-511.73"/>
<text text-anchor="middle" x="1015.51" y="-502.47" font-family="Times,serif" font-size="14.00" fill="#ebc72d">Palace</text>
</a>
</g>
</g>
<!-- worker -->
<g id="node12" class="node">
<title>worker</title>
<g id="a_node12"><a xlink:href="persian_worker_full.html" xlink:title="Worker">
<ellipse fill="none" stroke="magenta" cx="937.51" cy="-578.17" rx="44.69" ry="18"/>
<text text-anchor="middle" x="937.51" y="-574.47" font-family="Times,serif" font-size="14.00" fill="#ebc72d">Worker</text>
</a>
</g>
</g>
<!-- tent -->
<g id="node4" class="node">
<title>tent</title>
<g id="a_node4"><a xlink:href="persian_tent_full.html" xlink:title="Tent">
<polygon fill="none" stroke="red" points="909.13,-347.73 870.51,-360.17 831.88,-347.73 831.92,-327.6 909.09,-327.6 909.13,-347.73"/>
<text text-anchor="middle" x="870.51" y="-338.47" font-family="Times,serif" font-size="14.00" fill="#ebc72d">Tent</text>
</a>
</g>
</g>
<!-- tent&#45;&gt;genie -->
<g id="edge24" class="edge">
<title>tent&#45;&gt;genie</title>
<path fill="none" stroke="#ebc72d" d="M856.33,-327.5C847.51,-319.66 835.57,-310.22 823.51,-304.17 768.38,-276.53 744.63,-295.8 689.51,-268.17 681.5,-264.15 673.55,-258.64 666.53,-253.1"/>
<polygon fill="#ebc72d" stroke="#ebc72d" points="668.71,-250.36 658.77,-246.67 664.24,-255.75 668.71,-250.36"/>
</g>
<!-- minaret -->
<g id="node11" class="node">
<title>minaret</title>
<g id="a_node11"><a xlink:href="persian_minaret_full.html" xlink:title="Minaret">
<polygon fill="none" stroke="red" points="1171.91,-235.73 1112.51,-248.17 1053.11,-235.73 1053.16,-215.6 1171.85,-215.6 1171.91,-235.73"/>
<text text-anchor="middle" x="1112.51" y="-226.47" font-family="Times,serif" font-size="14.00" fill="#ebc72d">Minaret</text>
</a>
</g>
</g>
<!-- tent&#45;&gt;minaret -->
<g id="edge28" class="edge">
<title>tent&#45;&gt;minaret</title>
<path fill="none" stroke="#ebc72d" stroke-dasharray="1,5" d="M887.31,-327.36C897.32,-319.67 910.57,-310.42 923.51,-304.17 973.63,-279.92 992.04,-289.43 1043.51,-268.17 1056.69,-262.72 1070.66,-255.52 1082.56,-248.92"/>
<polygon fill="#ebc72d" stroke="#ebc72d" points="1084.62,-251.77 1091.6,-243.8 1081.17,-245.68 1084.62,-251.77"/>
</g>
<!-- magician -->
<g id="node14" class="node">
<title>magician</title>
<g id="a_node14"><a xlink:href="persian_magician_full.html" xlink:title="Magician">
<ellipse fill="none" stroke="magenta" cx="808.51" cy="-129.3" rx="53.09" ry="18"/>
<text text-anchor="middle" x="808.51" y="-125.6" font-family="Times,serif" font-size="14.00" fill="#ebc72d">Magician</text>
</a>
</g>
</g>
<!-- tent&#45;&gt;magician -->
<g id="edge27" class="edge">
<title>tent&#45;&gt;magician</title>
<path fill="none" stroke="#ebc72d" d="M869.81,-327.28C868.82,-306.42 867.04,-265.75 866.51,-231.17"/>
<path fill="none" stroke="#ebc72d" d="M866.51,-229.17C866.07,-200.57 847.84,-172.92 831.93,-154.16"/>
<polygon fill="#ebc72d" stroke="#ebc72d" points="834.34,-151.61 825.09,-146.45 829.11,-156.25 834.34,-151.61"/>
</g>
<!-- flying_carpet -->
<g id="node19" class="node">
<title>flying_carpet</title>
<g id="a_node19"><a xlink:href="persian_flying_carpet_full.html" xlink:title="Flying\nCarpet">
<ellipse fill="none" stroke="magenta" cx="925.51" cy="-129.3" rx="45.92" ry="26.74"/>
<text text-anchor="middle" x="925.51" y="-133.1" font-family="Times,serif" font-size="14.00" fill="#ebc72d">Flying</text>
<text text-anchor="middle" x="925.51" y="-118.1" font-family="Times,serif" font-size="14.00" fill="#ebc72d">Carpet</text>
</a>
</g>
</g>
<!-- tent&#45;&gt;flying_carpet -->
<g id="edge23" class="edge">
<title>tent&#45;&gt;flying_carpet</title>
<path fill="none" stroke="#ebc72d" d="M866.51,-229.17C866.11,-203.69 880.74,-179.07 895.53,-160.77"/>
<polygon fill="#ebc72d" stroke="#ebc72d" points="898.47,-162.71 902.28,-152.83 893.14,-158.18 898.47,-162.71"/>
</g>
<!-- magic_level_2 -->
<g id="node22" class="node">
<title>magic_level_2</title>
<g id="a_node22"><a xlink:href="persian_magic_level_2_full.html" xlink:title="Magic\nLevel 2">
<polygon fill="none" stroke="green" points="1035,-268.17 922.86,-268.17 894.01,-192.17 1006.15,-192.17 1035,-268.17"/>
<text text-anchor="middle" x="964.51" y="-233.97" font-family="Times,serif" font-size="14.00" fill="#ebc72d">Magic</text>
<text text-anchor="middle" x="964.51" y="-218.97" font-family="Times,serif" font-size="14.00" fill="#ebc72d">Level 2</text>
</a>
</g>
</g>
<!-- tent&#45;&gt;magic_level_2 -->
<g id="edge26" class="edge">
<title>tent&#45;&gt;magic_level_2</title>
<path fill="none" stroke="#ebc72d" d="M882.41,-327.23C893.39,-314.39 910.31,-294.59 925.94,-276.3"/>
<polygon fill="#ebc72d" stroke="#ebc72d" points="928.7,-278.45 932.54,-268.58 923.38,-273.91 928.7,-278.45"/>
</g>
<!-- magic_level_1 -->
<g id="node24" class="node">
<title>magic_level_1</title>
<g id="a_node24"><a xlink:href="persian_magic_level_1_full.html" xlink:title="Magic\nLevel 1">
<polygon fill="none" stroke="green" points="839,-268.17 726.86,-268.17 698.01,-192.17 810.15,-192.17 839,-268.17"/>
<text text-anchor="middle" x="768.51" y="-233.97" font-family="Times,serif" font-size="14.00" fill="#ebc72d">Magic</text>
<text text-anchor="middle" x="768.51" y="-218.97" font-family="Times,serif" font-size="14.00" fill="#ebc72d">Level 1</text>
</a>
</g>
</g>
<!-- tent&#45;&gt;magic_level_1 -->
<g id="edge25" class="edge">
<title>tent&#45;&gt;magic_level_1</title>
<path fill="none" stroke="#ebc72d" d="M857.59,-327.23C845.67,-314.39 827.32,-294.59 810.36,-276.3"/>
<polygon fill="#ebc72d" stroke="#ebc72d" points="812.56,-273.53 803.2,-268.58 807.43,-278.29 812.56,-273.53"/>
</g>
<!-- stickfighter -->
<g id="node5" class="node">
<title>stickfighter</title>
<g id="a_node5"><a xlink:href="persian_stickfighter_full.html" xlink:title="Stickfighter">
<ellipse fill="none" stroke="magenta" cx="748.51" cy="-342.17" rx="65.79" ry="18"/>
<text text-anchor="middle" x="748.51" y="-338.47" font-family="Times,serif" font-size="14.00" fill="#ebc72d">Stickfighter</text>
</a>
</g>
</g>
<!-- princess -->
<g id="node6" class="node">
<title>princess</title>
<g id="a_node6"><a xlink:href="persian_princess_full.html" xlink:title="Princess">
<ellipse fill="none" stroke="magenta" cx="614.51" cy="-342.17" rx="50.09" ry="18"/>
<text text-anchor="middle" x="614.51" y="-338.47" font-family="Times,serif" font-size="14.00" fill="#ebc72d">Princess</text>
</a>
</g>
</g>
<!-- snake_basket -->
<g id="node7" class="node">
<title>snake_basket</title>
<g id="a_node7"><a xlink:href="persian_snake_basket_full.html" xlink:title="Snake\nBasket">
<polygon fill="none" stroke="red" points="1122.13,-43.54 1065.51,-66.64 1008.88,-43.54 1008.93,-6.17 1122.08,-6.17 1122.13,-43.54"/>
<text text-anchor="middle" x="1065.51" y="-37.01" font-family="Times,serif" font-size="14.00" fill="#ebc72d">Snake</text>
<text text-anchor="middle" x="1065.51" y="-22.01" font-family="Times,serif" font-size="14.00" fill="#ebc72d">Basket</text>
</a>
</g>
</g>
<!-- sheep -->
<g id="node8" class="node">
<title>sheep</title>
<g id="a_node8"><a xlink:href="persian_sheep_full.html" xlink:title="Sheep">
<ellipse fill="none" stroke="magenta" cx="1164.51" cy="-342.17" rx="39.79" ry="18"/>
<text text-anchor="middle" x="1164.51" y="-338.47" font-family="Times,serif" font-size="14.00" fill="#ebc72d">Sheep</text>
</a>
</g>
</g>
<!-- elephant_cage -->
<g id="node9" class="node">
<title>elephant_cage</title>
<g id="a_node9"><a xlink:href="persian_elephant_cage_full.html" xlink:title="Elephant\nCage">
<polygon fill="none" stroke="red" points="1107.1,-352.5 1036.51,-375.59 965.91,-352.5 965.98,-315.12 1107.03,-315.12 1107.1,-352.5"/>
<text text-anchor="middle" x="1036.51" y="-345.97" font-family="Times,serif" font-size="14.00" fill="#ebc72d">Elephant</text>
<text text-anchor="middle" x="1036.51" y="-330.97" font-family="Times,serif" font-size="14.00" fill="#ebc72d">Cage</text>
</a>
</g>
</g>
<!-- elephant -->
<g id="node13" class="node">
<title>elephant</title>
<g id="a_node13"><a xlink:href="persian_elephant_full.html" xlink:title="Elephant">
<ellipse fill="none" stroke="magenta" cx="1242.51" cy="-230.17" rx="52.79" ry="18"/>
<text text-anchor="middle" x="1242.51" y="-226.47" font-family="Times,serif" font-size="14.00" fill="#ebc72d">Elephant</text>
</a>
</g>
</g>
<!-- elephant_cage&#45;&gt;elephant -->
<g id="edge8" class="edge">
<title>elephant_cage&#45;&gt;elephant</title>
<path fill="none" stroke="#ebc72d" d="M1090.3,-314.99C1117.57,-301.45 1151.05,-284.4 1180.51,-268.17 1189.99,-262.94 1200.13,-257.03 1209.41,-251.49"/>
<polygon fill="#ebc72d" stroke="#ebc72d" points="1211.23,-254.48 1217.99,-246.32 1207.62,-248.48 1211.23,-254.48"/>
</g>
<!-- temple -->
<g id="node10" class="node">
<title>temple</title>
<g id="a_node10"><a xlink:href="persian_temple_full.html" xlink:title="Temple">
<polygon fill="none" stroke="red" points="720.26,-439.73 665.51,-452.17 610.75,-439.73 610.8,-419.6 720.21,-419.6 720.26,-439.73"/>
<text text-anchor="middle" x="665.51" y="-430.47" font-family="Times,serif" font-size="14.00" fill="#ebc72d">Temple</text>
</a>
</g>
</g>
<!-- temple&#45;&gt;swordman -->
<g id="edge21" class="edge">
<title>temple&#45;&gt;swordman</title>
<path fill="none" stroke="#ebc72d" d="M636.39,-419.56C614.12,-409.05 582.71,-394.01 555.51,-380.17 544.92,-374.78 533.52,-368.76 523.09,-363.16"/>
<polygon fill="#ebc72d" stroke="#ebc72d" points="524.69,-360.05 514.23,-358.38 521.37,-366.21 524.69,-360.05"/>
</g>
<!-- temple&#45;&gt;tent -->
<g id="edge22" class="edge">
<title>temple&#45;&gt;tent</title>
<path fill="none" stroke="#ebc72d" stroke-dasharray="1,5" d="M720.44,-419.76C751.73,-410.91 791.05,-397.7 823.51,-380.17 832.5,-375.31 841.52,-368.72 849.22,-362.45"/>
<polygon fill="#ebc72d" stroke="#ebc72d" points="851.63,-364.99 857,-355.86 847.11,-359.65 851.63,-364.99"/>
</g>
<!-- temple&#45;&gt;stickfighter -->
<g id="edge20" class="edge">
<title>temple&#45;&gt;stickfighter</title>
<path fill="none" stroke="#ebc72d" stroke-dasharray="1,5" d="M678.11,-419.5C690.82,-405.72 710.69,-384.17 726.09,-367.47"/>
<polygon fill="#ebc72d" stroke="#ebc72d" points="729.03,-369.45 733.24,-359.72 723.89,-364.7 729.03,-369.45"/>
</g>
<!-- temple&#45;&gt;princess -->
<g id="edge19" class="edge">
<title>temple&#45;&gt;princess</title>
<path fill="none" stroke="#ebc72d" d="M657.76,-419.5C650.21,-406.18 638.55,-385.59 629.23,-369.15"/>
<polygon fill="#ebc72d" stroke="#ebc72d" points="632.04,-367.01 624.07,-360.04 625.95,-370.46 632.04,-367.01"/>
</g>
<!-- worker&#45;&gt;palace -->
<g id="edge34" class="edge">
<title>worker&#45;&gt;palace</title>
<path fill="none" stroke="#ebc72d" stroke-width="2" d="M963,-554.29C972.69,-545.59 983.65,-535.75 993.04,-527.33"/>
<polygon fill="#ebc72d" stroke="#ebc72d" stroke-width="2" points="960.31,-552 955.21,-561.28 964.99,-557.21 960.31,-552"/>
<polygon fill="#ebc72d" stroke="#ebc72d" stroke-width="2" points="995.4,-529.92 1000.5,-520.63 990.72,-524.71 995.4,-529.92"/>
</g>
<!-- worker&#45;&gt;tent -->
<g id="edge36" class="edge">
<title>worker&#45;&gt;tent</title>
<path fill="none" stroke="#ebc72d" stroke-width="2" d="M939.42,-559.95C941.98,-533.07 945.34,-479.6 937.51,-435.17"/>
<path fill="none" stroke="#ebc72d" stroke-width="2" d="M937.51,-433.17C931.7,-404.87 910.14,-379.16 893.02,-362.53"/>
<polygon fill="#ebc72d" stroke="#ebc72d" stroke-width="2" points="895.25,-359.81 885.55,-355.55 890.47,-364.93 895.25,-359.81"/>
</g>
<!-- worker&#45;&gt;elephant_cage -->
<g id="edge30" class="edge">
<title>worker&#45;&gt;elephant_cage</title>
<path fill="none" stroke="#ebc72d" stroke-width="2" d="M973.19,-567.26C1001.83,-558.41 1042.43,-543.81 1074.51,-524.17 1084.17,-518.25 1085.39,-515.08 1093.51,-507.17"/>
<path fill="none" stroke="#ebc72d" stroke-width="2" d="M1093.51,-505.17C1129.04,-470.54 1094.29,-412.47 1065.62,-376.07"/>
<polygon fill="#ebc72d" stroke="#ebc72d" stroke-width="2" points="1068.26,-373.78 1059.25,-368.21 1062.82,-378.18 1068.26,-373.78"/>
</g>
<!-- worker&#45;&gt;temple -->
<g id="edge35" class="edge">
<title>worker&#45;&gt;temple</title>
<path fill="none" stroke="#ebc72d" stroke-width="2" d="M665.51,-505.17C650.42,-497.54 651.73,-477.53 656.07,-460.84"/>
<polygon fill="#ebc72d" stroke="#ebc72d" stroke-width="2" points="659.49,-461.61 659.05,-451.03 652.8,-459.58 659.49,-461.61"/>
</g>
<!-- worker&#45;&gt;minaret -->
<g id="edge33" class="edge">
<title>worker&#45;&gt;minaret</title>
<path fill="none" stroke="#ebc72d" stroke-width="2" d="M937.51,-433.17C925.86,-376.4 920.87,-349.86 956.51,-304.17 982.24,-271.17 1005.69,-286.08 1043.51,-268.17 1056.11,-262.2 1069.69,-255.07 1081.44,-248.68"/>
<polygon fill="#ebc72d" stroke="#ebc72d" stroke-width="2" points="1083.35,-251.62 1090.42,-243.74 1079.97,-245.49 1083.35,-251.62"/>
</g>
<!-- farm -->
<g id="node15" class="node">
<title>farm</title>
<g id="a_node15"><a xlink:href="persian_farm_full.html" xlink:title="Farm">
<polygon fill="none" stroke="red" points="1207.16,-439.73 1164.51,-452.17 1121.85,-439.73 1121.89,-419.6 1207.12,-419.6 1207.16,-439.73"/>
<text text-anchor="middle" x="1164.51" y="-430.47" font-family="Times,serif" font-size="14.00" fill="#ebc72d">Farm</text>
</a>
</g>
</g>
<!-- worker&#45;&gt;farm -->
<g id="edge31" class="edge">
<title>worker&#45;&gt;farm</title>
<path fill="none" stroke="#ebc72d" stroke-width="2" d="M1093.51,-505.17C1110.55,-488.55 1129.78,-469.58 1143.92,-455.59"/>
<polygon fill="#ebc72d" stroke="#ebc72d" stroke-width="2" points="1146.56,-457.9 1151.2,-448.37 1141.64,-452.92 1146.56,-457.9"/>
</g>
<!-- house -->
<g id="node16" class="node">
<title>house</title>
<g id="a_node16"><a xlink:href="persian_house_full.html" xlink:title="House">
<polygon fill="none" stroke="red" points="798.12,-511.73 748.51,-524.17 698.89,-511.73 698.93,-491.6 798.08,-491.6 798.12,-511.73"/>
<text text-anchor="middle" x="748.51" y="-502.47" font-family="Times,serif" font-size="14.00" fill="#ebc72d">House</text>
</a>
</g>
</g>
<!-- worker&#45;&gt;house -->
<g id="edge32" class="edge">
<title>worker&#45;&gt;house</title>
<path fill="none" stroke="#ebc72d" stroke-width="2" d="M905.44,-565.29C872.37,-553.04 820.84,-533.96 785.93,-521.03"/>
<polygon fill="#ebc72d" stroke="#ebc72d" stroke-width="2" points="786.7,-517.58 776.11,-517.39 784.27,-524.14 786.7,-517.58"/>
</g>
<!-- blacksmith -->
<g id="node17" class="node">
<title>blacksmith</title>
<g id="a_node17"><a xlink:href="persian_blacksmith_full.html" xlink:title="Blacksmith">
<polygon fill="none" stroke="red" points="563.75,-439.73 486.51,-452.17 409.26,-439.73 409.33,-419.6 563.68,-419.6 563.75,-439.73"/>
<text text-anchor="middle" x="486.51" y="-430.47" font-family="Times,serif" font-size="14.00" fill="#ebc72d">Blacksmith</text>
</a>
</g>
</g>
<!-- worker&#45;&gt;blacksmith -->
<g id="edge29" class="edge">
<title>worker&#45;&gt;blacksmith</title>
<path fill="none" stroke="#ebc72d" stroke-width="2" d="M894.2,-573.27C843.39,-567.5 757.44,-553.97 689.51,-524.17 677.54,-518.92 677.17,-513.06 665.51,-507.17"/>
<path fill="none" stroke="#ebc72d" stroke-width="2" d="M665.51,-505.17C621.09,-482.71 567.66,-462.65 530.8,-449.83"/>
<polygon fill="#ebc72d" stroke="#ebc72d" stroke-width="2" points="531.93,-446.52 521.33,-446.57 529.65,-453.13 531.93,-446.52"/>
</g>
<!-- magician&#45;&gt;snake_basket -->
<g id="edge17" class="edge">
<title>magician&#45;&gt;snake_basket</title>
<path fill="none" stroke="#ebc72d" stroke-width="2" d="M840.22,-114.64C849.9,-110.59 860.59,-106.22 870.51,-102.43 917.9,-84.27 972.48,-65.34 1011.82,-52.04"/>
<polygon fill="#ebc72d" stroke="#ebc72d" stroke-width="2" points="1013.12,-55.3 1021.48,-48.79 1010.89,-48.67 1013.12,-55.3"/>
</g>
<!-- farm&#45;&gt;sheep -->
<g id="edge10" class="edge">
<title>farm&#45;&gt;sheep</title>
<path fill="none" stroke="#ebc72d" d="M1164.51,-419.5C1164.51,-406.51 1164.51,-386.61 1164.51,-370.38"/>
<polygon fill="#ebc72d" stroke="#ebc72d" points="1168.01,-370.36 1164.51,-360.36 1161.01,-370.36 1168.01,-370.36"/>
</g>
<!-- corn_and_wicker -->
<g id="node21" class="node">
<title>corn_and_wicker</title>
<g id="a_node21"><a xlink:href="persian_corn_and_wicker_full.html" xlink:title="Corn\nAnd Wicker">
<polygon fill="none" stroke="green" points="1425.21,-380.17 1263.42,-380.17 1221.8,-304.17 1383.59,-304.17 1425.21,-380.17"/>
<text text-anchor="middle" x="1323.51" y="-345.97" font-family="Times,serif" font-size="14.00" fill="#ebc72d">Corn</text>
<text text-anchor="middle" x="1323.51" y="-330.97" font-family="Times,serif" font-size="14.00" fill="#ebc72d">And Wicker</text>
</a>
</g>
</g>
<!-- farm&#45;&gt;corn_and_wicker -->
<g id="edge9" class="edge">
<title>farm&#45;&gt;corn_and_wicker</title>
<path fill="none" stroke="#ebc72d" d="M1188.65,-419.5C1205.91,-409.73 1230.07,-396.05 1253.18,-382.97"/>
<polygon fill="#ebc72d" stroke="#ebc72d" points="1255,-385.97 1261.98,-378 1251.55,-379.88 1255,-385.97"/>
</g>
<!-- house&#45;&gt;stickfighter -->
<g id="edge13" class="edge">
<title>house&#45;&gt;stickfighter</title>
<path fill="none" stroke="#ebc72d" d="M748.51,-491.35C748.51,-464.7 748.51,-405.73 748.51,-370.75"/>
<polygon fill="#ebc72d" stroke="#ebc72d" points="752.01,-370.31 748.51,-360.31 745.01,-370.31 752.01,-370.31"/>
</g>
<!-- house&#45;&gt;temple -->
<g id="edge14" class="edge">
<title>house&#45;&gt;temple</title>
<path fill="none" stroke="#ebc72d" stroke-dasharray="1,5" d="M732.11,-491.34C719.86,-481.01 702.95,-466.75 689.24,-455.18"/>
<polygon fill="#ebc72d" stroke="#ebc72d" points="691.49,-452.5 681.59,-448.73 686.98,-457.85 691.49,-452.5"/>
</g>
<!-- house&#45;&gt;blacksmith -->
<g id="edge11" class="edge">
<title>house&#45;&gt;blacksmith</title>
<path fill="none" stroke="#ebc72d" stroke-dasharray="1,5" d="M698.92,-491.92C652.34,-479.47 583.01,-460.95 536.35,-448.48"/>
<polygon fill="#ebc72d" stroke="#ebc72d" points="537.03,-445.04 526.47,-445.84 535.22,-451.81 537.03,-445.04"/>
</g>
<!-- fakir -->
<g id="node18" class="node">
<title>fakir</title>
<g id="a_node18"><a xlink:href="persian_fakir_full.html" xlink:title="Fakir">
<ellipse fill="none" stroke="magenta" cx="810.51" cy="-434.17" rx="34.39" ry="18"/>
<text text-anchor="middle" x="810.51" y="-430.47" font-family="Times,serif" font-size="14.00" fill="#ebc72d">Fakir</text>
</a>
</g>
</g>
<!-- house&#45;&gt;fakir -->
<g id="edge12" class="edge">
<title>house&#45;&gt;fakir</title>
<path fill="none" stroke="#ebc72d" d="M760.75,-491.34C769.05,-481.97 780.21,-469.38 789.85,-458.48"/>
<polygon fill="#ebc72d" stroke="#ebc72d" points="792.54,-460.73 796.55,-450.92 787.3,-456.09 792.54,-460.73"/>
</g>
<!-- blacksmith&#45;&gt;swordman -->
<g id="edge4" class="edge">
<title>blacksmith&#45;&gt;swordman</title>
<path fill="none" stroke="#ebc72d" stroke-dasharray="1,5" d="M486.51,-419.5C486.51,-406.51 486.51,-386.61 486.51,-370.38"/>
<polygon fill="#ebc72d" stroke="#ebc72d" points="490.01,-370.36 486.51,-360.36 483.01,-370.36 490.01,-370.36"/>
</g>
<!-- blacksmith&#45;&gt;elephant_cage -->
<g id="edge1" class="edge">
<title>blacksmith&#45;&gt;elephant_cage</title>
<path fill="none" stroke="#ebc72d" stroke-dasharray="1,5" d="M563.78,-421.38C576.38,-419.56 589.3,-417.76 601.51,-416.17 742.11,-397.8 779.78,-409.51 918.51,-380.17 938.81,-375.87 960.61,-369.54 979.87,-363.33"/>
<polygon fill="#ebc72d" stroke="#ebc72d" points="980.99,-366.65 989.4,-360.2 978.81,-360 980.99,-366.65"/>
</g>
<!-- nails -->
<g id="node20" class="node">
<title>nails</title>
<g id="a_node20"><a xlink:href="persian_nails_full.html" xlink:title="Nails">
<polygon fill="none" stroke="green" points="101.02,-360.17 20.66,-360.17 -0.01,-324.17 80.35,-324.17 101.02,-360.17"/>
<text text-anchor="middle" x="50.51" y="-338.47" font-family="Times,serif" font-size="14.00" fill="#ebc72d">Nails</text>
</a>
</g>
</g>
<!-- blacksmith&#45;&gt;nails -->
<g id="edge2" class="edge">
<title>blacksmith&#45;&gt;nails</title>
<path fill="none" stroke="#ebc72d" d="M409.03,-431.48C331.41,-427.68 209.57,-415.91 110.51,-380.17 100.66,-376.61 90.7,-371.31 81.8,-365.82"/>
<polygon fill="#ebc72d" stroke="#ebc72d" points="83.59,-362.81 73.29,-360.32 79.79,-368.69 83.59,-362.81"/>
</g>
<!-- weapons -->
<g id="node23" class="node">
<title>weapons</title>
<g id="a_node23"><a xlink:href="persian_weapons_full.html" xlink:title="Weapons">
<polygon fill="none" stroke="green" points="271.98,-360.17 150.33,-360.17 119.03,-324.17 240.68,-324.17 271.98,-360.17"/>
<text text-anchor="middle" x="195.51" y="-338.47" font-family="Times,serif" font-size="14.00" fill="#ebc72d">Weapons</text>
</a>
</g>
</g>
<!-- blacksmith&#45;&gt;weapons -->
<g id="edge5" class="edge">
<title>blacksmith&#45;&gt;weapons</title>
<path fill="none" stroke="#ebc72d" d="M423.09,-419.6C381.95,-410.13 327.48,-396.32 280.51,-380.17 267.41,-375.66 253.51,-370.01 240.83,-364.48"/>
<polygon fill="#ebc72d" stroke="#ebc72d" points="241.96,-361.15 231.4,-360.3 239.13,-367.55 241.96,-361.15"/>
</g>
<!-- shield -->
<g id="node25" class="node">
<title>shield</title>
<g id="a_node25"><a xlink:href="persian_shield_full.html" xlink:title="Shield">
<polygon fill="none" stroke="green" points="407.67,-360.17 313.55,-360.17 289.34,-324.17 383.46,-324.17 407.67,-360.17"/>
<text text-anchor="middle" x="348.51" y="-338.47" font-family="Times,serif" font-size="14.00" fill="#ebc72d">Shield</text>
</a>
</g>
</g>
<!-- blacksmith&#45;&gt;shield -->
<g id="edge3" class="edge">
<title>blacksmith&#45;&gt;shield</title>
<path fill="none" stroke="#ebc72d" d="M465.55,-419.5C443.73,-405.27 409.2,-382.75 383.29,-365.85"/>
<polygon fill="#ebc72d" stroke="#ebc72d" points="385.15,-362.89 374.87,-360.36 381.33,-368.75 385.15,-362.89"/>
</g>
<!-- corn_and_wicker&#45;&gt;snake_basket -->
<g id="edge7" class="edge">
<title>corn_and_wicker&#45;&gt;snake_basket</title>
<path fill="none" stroke="#ebc72d" stroke-dasharray="1,5" d="M1327.02,-304.03C1328.22,-272.04 1325.45,-225.82 1304.51,-192.17 1261.02,-122.32 1173.93,-76.78 1117.76,-53.31"/>
<polygon fill="#ebc72d" stroke="#ebc72d" points="1118.91,-50 1108.33,-49.45 1116.26,-56.48 1118.91,-50"/>
</g>
<!-- corn_and_wicker&#45;&gt;elephant -->
<g id="edge6" class="edge">
<title>corn_and_wicker&#45;&gt;elephant</title>
<path fill="none" stroke="#ebc72d" stroke-dasharray="1,5" d="M1296.08,-303.93C1284.45,-288.13 1271.21,-270.15 1260.8,-256.01"/>
<polygon fill="#ebc72d" stroke="#ebc72d" points="1263.47,-253.74 1254.73,-247.76 1257.84,-257.89 1263.47,-253.74"/>
</g>
<!-- magic_level_2&#45;&gt;flying_carpet -->
<g id="edge16" class="edge">
<title>magic_level_2&#45;&gt;flying_carpet</title>
<path fill="none" stroke="#ebc72d" stroke-dasharray="1,5" d="M949.87,-192.07C946.39,-183.23 942.68,-173.83 939.23,-165.1"/>
<polygon fill="#ebc72d" stroke="#ebc72d" points="942.41,-163.61 935.48,-155.59 935.9,-166.18 942.41,-163.61"/>
</g>
<!-- magic_level_1&#45;&gt;magician -->
<g id="edge15" class="edge">
<title>magic_level_1&#45;&gt;magician</title>
<path fill="none" stroke="#ebc72d" stroke-dasharray="1,5" d="M783.51,-192.07C788.27,-180.32 793.42,-167.58 797.81,-156.74"/>
<polygon fill="#ebc72d" stroke="#ebc72d" points="801.08,-157.98 801.59,-147.4 794.59,-155.36 801.08,-157.98"/>
</g>
</g>
</svg>
