<?xml version="1.0" encoding="UTF-8" standalone="no"?>
<!DOCTYPE svg PUBLIC "-//W3C//DTD SVG 1.1//EN"
 "http://www.w3.org/Graphics/SVG/1.1/DTD/svg11.dtd">
<!-- Generated by graphviz version 2.50.0 (0)
 -->
<!-- Title: test Pages: 1 -->
<svg width="1234pt" height="411pt"
 viewBox="0.00 0.00 1233.94 410.59" xmlns="http://www.w3.org/2000/svg" xmlns:xlink="http://www.w3.org/1999/xlink">
<g id="graph0" class="graph" transform="scale(1 1) rotate(0) translate(4 406.59)">
<title>test</title>
<polygon fill="#151515" stroke="transparent" points="-4,4 -4,-406.59 1229.94,-406.59 1229.94,4 -4,4"/>
<!-- main_teepee -->
<g id="node1" class="node">
<title>main_teepee</title>
<g id="a_node1"><a xlink:href="indian_main_teepee_full.html" xlink:title="Main\nTeepee">
<polygon fill="none" stroke="red" points="651.07,-379.71 592.45,-402.81 533.83,-379.71 533.88,-342.34 651.02,-342.34 651.07,-379.71"/>
<text text-anchor="middle" x="592.45" y="-373.18" font-family="Times,serif" font-size="14.00" fill="#ebc72d">Main</text>
<text text-anchor="middle" x="592.45" y="-358.18" font-family="Times,serif" font-size="14.00" fill="#ebc72d">Teepee</text>
</a>
</g>
</g>
<!-- worker -->
<g id="node17" class="node">
<title>worker</title>
<g id="a_node17"><a xlink:href="indian_worker_full.html" xlink:title="Worker">
<ellipse fill="none" stroke="magenta" cx="592.45" cy="-282.17" rx="44.69" ry="18"/>
<text text-anchor="middle" x="592.45" y="-278.47" font-family="Times,serif" font-size="14.00" fill="#ebc72d">Worker</text>
</a>
</g>
</g>
<!-- main_teepee&#45;&gt;worker -->
<g id="edge9" class="edge">
<title>main_teepee&#45;&gt;worker</title>
<path fill="none" stroke="#ebc72d" d="M592.45,-331.66C592.45,-324.49 592.45,-317.09 592.45,-310.29"/>
<polygon fill="#ebc72d" stroke="#ebc72d" points="588.95,-331.88 592.45,-341.88 595.95,-331.88 588.95,-331.88"/>
<polygon fill="#ebc72d" stroke="#ebc72d" points="595.95,-310.24 592.45,-300.24 588.95,-310.24 595.95,-310.24"/>
</g>
<!-- beehive -->
<g id="node2" class="node">
<title>beehive</title>
<g id="a_node2"><a xlink:href="indian_beehive_full.html" xlink:title="Beehive">
<polygon fill="none" stroke="red" points="118.85,-23.56 59.45,-36 0.05,-23.56 0.11,-3.44 118.79,-3.44 118.85,-23.56"/>
<text text-anchor="middle" x="59.45" y="-14.3" font-family="Times,serif" font-size="14.00" fill="#ebc72d">Beehive</text>
</a>
</g>
</g>
<!-- reed -->
<g id="node3" class="node">
<title>reed</title>
<g id="a_node3"><a xlink:href="indian_reed_full.html" xlink:title="Reed">
<polygon fill="none" stroke="red" points="520.11,-200.52 477.45,-212.95 434.79,-200.52 434.83,-180.39 520.07,-180.39 520.11,-200.52"/>
<text text-anchor="middle" x="477.45" y="-191.25" font-family="Times,serif" font-size="14.00" fill="#ebc72d">Reed</text>
</a>
</g>
</g>
<!-- fire_archer -->
<g id="node4" class="node">
<title>fire_archer</title>
<g id="a_node4"><a xlink:href="indian_fire_archer_full.html" xlink:title="Fire\nArcher">
<ellipse fill="none" stroke="magenta" cx="350.45" cy="-98.87" rx="45.92" ry="26.74"/>
<text text-anchor="middle" x="350.45" y="-102.67" font-family="Times,serif" font-size="14.00" fill="#ebc72d">Fire</text>
<text text-anchor="middle" x="350.45" y="-87.67" font-family="Times,serif" font-size="14.00" fill="#ebc72d">Archer</text>
</a>
</g>
</g>
<!-- reed&#45;&gt;fire_archer -->
<g id="edge11" class="edge">
<title>reed&#45;&gt;fire_archer</title>
<path fill="none" stroke="#ebc72d" stroke-dasharray="1,5" d="M458.98,-180.27C440.03,-166.23 410.05,-144.02 386.39,-126.5"/>
<polygon fill="#ebc72d" stroke="#ebc72d" points="388.44,-123.66 378.32,-120.52 384.27,-129.28 388.44,-123.66"/>
</g>
<!-- fire_golem -->
<g id="node12" class="node">
<title>fire_golem</title>
<g id="a_node12"><a xlink:href="indian_fire_golem_full.html" xlink:title="Fire\nGolem">
<ellipse fill="none" stroke="magenta" cx="242.45" cy="-98.87" rx="43.68" ry="26.74"/>
<text text-anchor="middle" x="242.45" y="-102.67" font-family="Times,serif" font-size="14.00" fill="#ebc72d">Fire</text>
<text text-anchor="middle" x="242.45" y="-87.67" font-family="Times,serif" font-size="14.00" fill="#ebc72d">Golem</text>
</a>
</g>
</g>
<!-- reed&#45;&gt;fire_golem -->
<g id="edge12" class="edge">
<title>reed&#45;&gt;fire_golem</title>
<path fill="none" stroke="#ebc72d" stroke-dasharray="1,5" d="M458.82,-180.31C449.47,-173.97 437.75,-166.73 426.45,-161.74 371.21,-137.35 351.94,-147.08 295.45,-125.74 291.78,-124.36 288.03,-122.81 284.29,-121.17"/>
<polygon fill="#ebc72d" stroke="#ebc72d" points="285.66,-117.95 275.11,-116.98 282.76,-124.32 285.66,-117.95"/>
</g>
<!-- archer -->
<g id="node13" class="node">
<title>archer</title>
<g id="a_node13"><a xlink:href="indian_archer_full.html" xlink:title="Archer">
<ellipse fill="none" stroke="magenta" cx="822.45" cy="-98.87" rx="42.49" ry="18"/>
<text text-anchor="middle" x="822.45" y="-95.17" font-family="Times,serif" font-size="14.00" fill="#ebc72d">Archer</text>
</a>
</g>
</g>
<!-- reed&#45;&gt;archer -->
<g id="edge10" class="edge">
<title>reed&#45;&gt;archer</title>
<path fill="none" stroke="#ebc72d" stroke-dasharray="1,5" d="M495.28,-180.38C504.9,-173.72 517.28,-166.2 529.45,-161.74 631.55,-124.34 667.85,-158.76 771.45,-125.74 777.53,-123.8 783.78,-121.2 789.72,-118.4"/>
<polygon fill="#ebc72d" stroke="#ebc72d" points="791.36,-121.49 798.74,-113.89 788.23,-115.23 791.36,-121.49"/>
</g>
<!-- tent -->
<g id="node5" class="node">
<title>tent</title>
<g id="a_node5"><a xlink:href="indian_tent_full.html" xlink:title="Tent">
<polygon fill="none" stroke="red" points="742.07,-200.52 703.45,-212.95 664.83,-200.52 664.86,-180.39 742.04,-180.39 742.07,-200.52"/>
<text text-anchor="middle" x="703.45" y="-191.25" font-family="Times,serif" font-size="14.00" fill="#ebc72d">Tent</text>
</a>
</g>
</g>
<!-- tent&#45;&gt;fire_archer -->
<g id="edge22" class="edge">
<title>tent&#45;&gt;fire_archer</title>
<path fill="none" stroke="#ebc72d" stroke-dasharray="1,5" d="M687.16,-180.33C678.32,-173.66 666.88,-166.13 655.45,-161.74 550.67,-121.46 512.98,-157.98 405.45,-125.74 401.41,-124.53 397.3,-123.07 393.23,-121.46"/>
<polygon fill="#ebc72d" stroke="#ebc72d" points="394.44,-118.17 383.86,-117.5 391.71,-124.62 394.44,-118.17"/>
</g>
<!-- axe_indian -->
<g id="node6" class="node">
<title>axe_indian</title>
<g id="a_node6"><a xlink:href="indian_axe_indian_full.html" xlink:title="Axe\nIndian">
<ellipse fill="none" stroke="magenta" cx="458.45" cy="-98.87" rx="43.68" ry="26.74"/>
<text text-anchor="middle" x="458.45" y="-102.67" font-family="Times,serif" font-size="14.00" fill="#ebc72d">Axe</text>
<text text-anchor="middle" x="458.45" y="-87.67" font-family="Times,serif" font-size="14.00" fill="#ebc72d">Indian</text>
</a>
</g>
</g>
<!-- tent&#45;&gt;axe_indian -->
<g id="edge20" class="edge">
<title>tent&#45;&gt;axe_indian</title>
<path fill="none" stroke="#ebc72d" stroke-dasharray="1,5" d="M686.08,-180.15C677.32,-173.77 666.27,-166.55 655.45,-161.74 595.16,-134.96 573.43,-148.33 511.45,-125.74 507.77,-124.4 504,-122.88 500.26,-121.27"/>
<polygon fill="#ebc72d" stroke="#ebc72d" points="501.62,-118.04 491.06,-117.11 498.73,-124.42 501.62,-118.04"/>
</g>
<!-- stickfighter -->
<g id="node7" class="node">
<title>stickfighter</title>
<g id="a_node7"><a xlink:href="indian_stickfighter_full.html" xlink:title="Stickfighter">
<ellipse fill="none" stroke="magenta" cx="948.45" cy="-98.87" rx="65.79" ry="18"/>
<text text-anchor="middle" x="948.45" y="-95.17" font-family="Times,serif" font-size="14.00" fill="#ebc72d">Stickfighter</text>
</a>
</g>
</g>
<!-- tent&#45;&gt;stickfighter -->
<g id="edge24" class="edge">
<title>tent&#45;&gt;stickfighter</title>
<path fill="none" stroke="#ebc72d" d="M730.62,-180.27C742.94,-174.28 757.79,-167.34 771.45,-161.74 777.66,-159.19 849.39,-134.23 899.61,-116.8"/>
<polygon fill="#ebc72d" stroke="#ebc72d" points="901.04,-120.01 909.34,-113.42 898.74,-113.39 901.04,-120.01"/>
</g>
<!-- axe_thrower -->
<g id="node8" class="node">
<title>axe_thrower</title>
<g id="a_node8"><a xlink:href="indian_axe_thrower_full.html" xlink:title="Axe\nThrower">
<ellipse fill="none" stroke="magenta" cx="574.45" cy="-98.87" rx="54.39" ry="26.74"/>
<text text-anchor="middle" x="574.45" y="-102.67" font-family="Times,serif" font-size="14.00" fill="#ebc72d">Axe</text>
<text text-anchor="middle" x="574.45" y="-87.67" font-family="Times,serif" font-size="14.00" fill="#ebc72d">Thrower</text>
</a>
</g>
</g>
<!-- tent&#45;&gt;axe_thrower -->
<g id="edge21" class="edge">
<title>tent&#45;&gt;axe_thrower</title>
<path fill="none" stroke="#ebc72d" stroke-dasharray="1,5" d="M684.69,-180.27C665.81,-166.5 636.17,-144.88 612.37,-127.53"/>
<polygon fill="#ebc72d" stroke="#ebc72d" points="614.37,-124.65 604.22,-121.58 610.24,-130.31 614.37,-124.65"/>
</g>
<!-- tent&#45;&gt;archer -->
<g id="edge19" class="edge">
<title>tent&#45;&gt;archer</title>
<path fill="none" stroke="#ebc72d" stroke-dasharray="1,5" d="M720.75,-180.27C740.27,-164.84 772.28,-139.54 795.17,-121.44"/>
<polygon fill="#ebc72d" stroke="#ebc72d" points="797.48,-124.08 803.15,-115.13 793.14,-118.58 797.48,-124.08"/>
</g>
<!-- spearman -->
<g id="node14" class="node">
<title>spearman</title>
<g id="a_node14"><a xlink:href="indian_spearman_full.html" xlink:title="Spearman">
<ellipse fill="none" stroke="magenta" cx="704.45" cy="-98.87" rx="57.69" ry="18"/>
<text text-anchor="middle" x="704.45" y="-95.17" font-family="Times,serif" font-size="14.00" fill="#ebc72d">Spearman</text>
</a>
</g>
</g>
<!-- tent&#45;&gt;spearman -->
<g id="edge23" class="edge">
<title>tent&#45;&gt;spearman</title>
<path fill="none" stroke="#ebc72d" stroke-dasharray="1,5" d="M703.6,-180.07C703.74,-166.19 703.98,-144.46 704.16,-127.12"/>
<polygon fill="#ebc72d" stroke="#ebc72d" points="707.66,-127.04 704.27,-117 700.66,-126.97 707.66,-127.04"/>
</g>
<!-- totem -->
<g id="node9" class="node">
<title>totem</title>
<g id="a_node9"><a xlink:href="indian_totem_full.html" xlink:title="Totem">
<polygon fill="none" stroke="red" points="266.07,-200.52 216.45,-212.95 166.83,-200.52 166.88,-180.39 266.02,-180.39 266.07,-200.52"/>
<text text-anchor="middle" x="216.45" y="-191.25" font-family="Times,serif" font-size="14.00" fill="#ebc72d">Totem</text>
</a>
</g>
</g>
<!-- shaman -->
<g id="node10" class="node">
<title>shaman</title>
<g id="a_node10"><a xlink:href="indian_shaman_full.html" xlink:title="Shaman">
<ellipse fill="none" stroke="magenta" cx="132.45" cy="-98.87" rx="48.19" ry="18"/>
<text text-anchor="middle" x="132.45" y="-95.17" font-family="Times,serif" font-size="14.00" fill="#ebc72d">Shaman</text>
</a>
</g>
</g>
<!-- totem&#45;&gt;shaman -->
<g id="edge26" class="edge">
<title>totem&#45;&gt;shaman</title>
<path fill="none" stroke="#ebc72d" d="M204.06,-180.07C190.92,-165.35 169.91,-141.83 154.04,-124.06"/>
<polygon fill="#ebc72d" stroke="#ebc72d" points="156.43,-121.47 147.16,-116.35 151.21,-126.14 156.43,-121.47"/>
</g>
<!-- totem&#45;&gt;fire_golem -->
<g id="edge25" class="edge">
<title>totem&#45;&gt;fire_golem</title>
<path fill="none" stroke="#ebc72d" stroke-dasharray="1,5" d="M220.29,-180.07C223.53,-168.33 228.32,-150.98 232.62,-135.42"/>
<polygon fill="#ebc72d" stroke="#ebc72d" points="236.07,-136.1 235.36,-125.53 229.32,-134.24 236.07,-136.1"/>
</g>
<!-- shaman&#45;&gt;beehive -->
<g id="edge17" class="edge">
<title>shaman&#45;&gt;beehive</title>
<path fill="none" stroke="#ebc72d" stroke-width="2" d="M117.32,-81.53C106.46,-69.8 91.71,-53.85 79.81,-41"/>
<polygon fill="#ebc72d" stroke="#ebc72d" stroke-width="2" points="82.2,-38.43 72.84,-33.46 77.06,-43.18 82.2,-38.43"/>
</g>
<!-- thunderbird -->
<g id="node11" class="node">
<title>thunderbird</title>
<g id="a_node11"><a xlink:href="indian_thunderbird_full.html" xlink:title="Thunderbird">
<ellipse fill="none" stroke="magenta" cx="205.45" cy="-18" rx="68.79" ry="18"/>
<text text-anchor="middle" x="205.45" y="-14.3" font-family="Times,serif" font-size="14.00" fill="#ebc72d">Thunderbird</text>
</a>
</g>
</g>
<!-- shaman&#45;&gt;thunderbird -->
<g id="edge18" class="edge">
<title>shaman&#45;&gt;thunderbird</title>
<path fill="none" stroke="#ebc72d" d="M147.58,-81.53C157.88,-70.39 171.7,-55.47 183.25,-42.99"/>
<polygon fill="#ebc72d" stroke="#ebc72d" points="185.87,-45.31 190.09,-35.59 180.73,-40.55 185.87,-45.31"/>
</g>
<!-- big_tent -->
<g id="node15" class="node">
<title>big_tent</title>
<g id="a_node15"><a xlink:href="indian_big_tent_full.html" xlink:title="Big\nTent">
<polygon fill="none" stroke="red" points="864.36,-205.28 822.45,-228.38 780.54,-205.28 780.58,-167.91 864.32,-167.91 864.36,-205.28"/>
<text text-anchor="middle" x="822.45" y="-198.75" font-family="Times,serif" font-size="14.00" fill="#ebc72d">Big</text>
<text text-anchor="middle" x="822.45" y="-183.75" font-family="Times,serif" font-size="14.00" fill="#ebc72d">Tent</text>
</a>
</g>
</g>
<!-- big_tent&#45;&gt;stickfighter -->
<g id="edge2" class="edge">
<title>big_tent&#45;&gt;stickfighter</title>
<path fill="none" stroke="#ebc72d" d="M857.55,-167.75C876.87,-153.32 900.58,-135.61 918.94,-121.9"/>
<polygon fill="#ebc72d" stroke="#ebc72d" points="921.05,-124.7 926.97,-115.91 916.86,-119.09 921.05,-124.7"/>
</g>
<!-- big_tent&#45;&gt;archer -->
<g id="edge1" class="edge">
<title>big_tent&#45;&gt;archer</title>
<path fill="none" stroke="#ebc72d" d="M822.45,-167.75C822.45,-155.09 822.45,-139.91 822.45,-127.11"/>
<polygon fill="#ebc72d" stroke="#ebc72d" points="825.95,-127.04 822.45,-117.04 818.95,-127.04 825.95,-127.04"/>
</g>
<!-- campfire -->
<g id="node16" class="node">
<title>campfire</title>
<g id="a_node16"><a xlink:href="indian_campfire_full.html" xlink:title="Campfire">
<polygon fill="none" stroke="red" points="417.31,-200.52 350.45,-212.95 283.59,-200.52 283.65,-180.39 417.25,-180.39 417.31,-200.52"/>
<text text-anchor="middle" x="350.45" y="-191.25" font-family="Times,serif" font-size="14.00" fill="#ebc72d">Campfire</text>
</a>
</g>
</g>
<!-- campfire&#45;&gt;fire_archer -->
<g id="edge5" class="edge">
<title>campfire&#45;&gt;fire_archer</title>
<path fill="none" stroke="#ebc72d" stroke-dasharray="1,5" d="M350.45,-180.07C350.45,-168.53 350.45,-151.56 350.45,-136.2"/>
<polygon fill="#ebc72d" stroke="#ebc72d" points="353.95,-135.91 350.45,-125.91 346.95,-135.91 353.95,-135.91"/>
</g>
<!-- campfire&#45;&gt;axe_indian -->
<g id="edge3" class="edge">
<title>campfire&#45;&gt;axe_indian</title>
<path fill="none" stroke="#ebc72d" stroke-dasharray="1,5" d="M366.39,-180.07C382.03,-166.44 406.34,-145.26 426.06,-128.09"/>
<polygon fill="#ebc72d" stroke="#ebc72d" points="428.39,-130.7 433.63,-121.49 423.79,-125.42 428.39,-130.7"/>
</g>
<!-- campfire&#45;&gt;axe_thrower -->
<g id="edge4" class="edge">
<title>campfire&#45;&gt;axe_thrower</title>
<path fill="none" stroke="#ebc72d" stroke-dasharray="1,5" d="M381.8,-180.39C395.22,-174.61 411.09,-167.81 425.45,-161.74 458.25,-147.89 495.22,-132.53 524.13,-120.59"/>
<polygon fill="#ebc72d" stroke="#ebc72d" points="525.7,-123.73 533.6,-116.67 523.02,-117.26 525.7,-123.73"/>
</g>
<!-- campfire&#45;&gt;fire_golem -->
<g id="edge6" class="edge">
<title>campfire&#45;&gt;fire_golem</title>
<path fill="none" stroke="#ebc72d" d="M334.51,-180.07C318.87,-166.44 294.56,-145.26 274.84,-128.09"/>
<polygon fill="#ebc72d" stroke="#ebc72d" points="277.1,-125.42 267.27,-121.49 272.51,-130.7 277.1,-125.42"/>
</g>
<!-- worker&#45;&gt;reed -->
<g id="edge31" class="edge">
<title>worker&#45;&gt;reed</title>
<path fill="none" stroke="#ebc72d" stroke-width="2" d="M571.89,-265.93C552.36,-251.46 522.96,-229.68 502.16,-214.26"/>
<polygon fill="#ebc72d" stroke="#ebc72d" stroke-width="2" points="504.22,-211.43 494.1,-208.29 500.05,-217.06 504.22,-211.43"/>
</g>
<!-- worker&#45;&gt;tent -->
<g id="edge33" class="edge">
<title>worker&#45;&gt;tent</title>
<path fill="none" stroke="#ebc72d" stroke-width="2" d="M612.29,-265.93C631.17,-251.44 659.6,-229.62 679.68,-214.2"/>
<polygon fill="#ebc72d" stroke="#ebc72d" stroke-width="2" points="681.92,-216.89 687.72,-208.03 677.66,-211.34 681.92,-216.89"/>
</g>
<!-- worker&#45;&gt;totem -->
<g id="edge34" class="edge">
<title>worker&#45;&gt;totem</title>
<path fill="none" stroke="#ebc72d" stroke-width="2" d="M548.33,-278.57C485.83,-273.85 368.63,-261.07 274.45,-228.17 264.01,-224.52 253.24,-219.08 243.86,-213.7"/>
<polygon fill="#ebc72d" stroke="#ebc72d" stroke-width="2" points="245.39,-210.54 235.01,-208.41 241.8,-216.55 245.39,-210.54"/>
</g>
<!-- worker&#45;&gt;big_tent -->
<g id="edge27" class="edge">
<title>worker&#45;&gt;big_tent</title>
<path fill="none" stroke="#ebc72d" stroke-width="2" d="M627.25,-270.71C659.71,-260.7 709.33,-244.69 751.45,-228.17 761.38,-224.27 771.93,-219.72 781.77,-215.29"/>
<polygon fill="#ebc72d" stroke="#ebc72d" stroke-width="2" points="783.3,-218.44 790.94,-211.1 780.39,-212.07 783.3,-218.44"/>
</g>
<!-- worker&#45;&gt;campfire -->
<g id="edge28" class="edge">
<title>worker&#45;&gt;campfire</title>
<path fill="none" stroke="#ebc72d" stroke-width="2" d="M556.92,-271C522.87,-260.99 470.2,-244.83 425.45,-228.17 412.56,-223.37 398.66,-217.58 386.38,-212.24"/>
<polygon fill="#ebc72d" stroke="#ebc72d" stroke-width="2" points="387.48,-208.9 376.92,-208.08 384.66,-215.31 387.48,-208.9"/>
</g>
<!-- horse_farm -->
<g id="node19" class="node">
<title>horse_farm</title>
<g id="a_node19"><a xlink:href="indian_horse_farm_full.html" xlink:title="Horse\nFarm">
<polygon fill="none" stroke="red" points="1113.09,-205.28 1061.45,-228.38 1009.81,-205.28 1009.86,-167.91 1113.04,-167.91 1113.09,-205.28"/>
<text text-anchor="middle" x="1061.45" y="-198.75" font-family="Times,serif" font-size="14.00" fill="#ebc72d">Horse</text>
<text text-anchor="middle" x="1061.45" y="-183.75" font-family="Times,serif" font-size="14.00" fill="#ebc72d">Farm</text>
</a>
</g>
</g>
<!-- worker&#45;&gt;horse_farm -->
<g id="edge29" class="edge">
<title>worker&#45;&gt;horse_farm</title>
<path fill="none" stroke="#ebc72d" stroke-width="2" d="M632.44,-273.9C714.38,-259.01 901.85,-224.95 999.6,-207.19"/>
<polygon fill="#ebc72d" stroke="#ebc72d" stroke-width="2" points="1000.42,-210.6 1009.63,-205.37 999.16,-203.71 1000.42,-210.6"/>
</g>
<!-- round_tent -->
<g id="node21" class="node">
<title>round_tent</title>
<g id="a_node21"><a xlink:href="indian_round_tent_full.html" xlink:title="Round\nTent">
<polygon fill="none" stroke="red" points="646.83,-205.28 592.45,-228.38 538.07,-205.28 538.12,-167.91 646.78,-167.91 646.83,-205.28"/>
<text text-anchor="middle" x="592.45" y="-198.75" font-family="Times,serif" font-size="14.00" fill="#ebc72d">Round</text>
<text text-anchor="middle" x="592.45" y="-183.75" font-family="Times,serif" font-size="14.00" fill="#ebc72d">Tent</text>
</a>
</g>
</g>
<!-- worker&#45;&gt;round_tent -->
<g id="edge32" class="edge">
<title>worker&#45;&gt;round_tent</title>
<path fill="none" stroke="#ebc72d" stroke-width="2" d="M592.45,-263.92C592.45,-256.5 592.45,-247.47 592.45,-238.44"/>
<polygon fill="#ebc72d" stroke="#ebc72d" stroke-width="2" points="595.95,-238.34 592.45,-228.34 588.95,-238.34 595.95,-238.34"/>
</g>
<!-- bull -->
<g id="node18" class="node">
<title>bull</title>
<g id="a_node18"><a xlink:href="indian_bull_full.html" xlink:title="Bull">
<ellipse fill="none" stroke="magenta" cx="1061.45" cy="-98.87" rx="29.5" ry="18"/>
<text text-anchor="middle" x="1061.45" y="-95.17" font-family="Times,serif" font-size="14.00" fill="#ebc72d">Bull</text>
</a>
</g>
</g>
<!-- horse_farm&#45;&gt;bull -->
<g id="edge7" class="edge">
<title>horse_farm&#45;&gt;bull</title>
<path fill="none" stroke="#ebc72d" d="M1061.45,-167.75C1061.45,-155.09 1061.45,-139.91 1061.45,-127.11"/>
<polygon fill="#ebc72d" stroke="#ebc72d" points="1064.95,-127.04 1061.45,-117.04 1057.95,-127.04 1064.95,-127.04"/>
</g>
<!-- horseman -->
<g id="node20" class="node">
<title>horseman</title>
<g id="a_node20"><a xlink:href="indian_horseman_full.html" xlink:title="Horseman">
<ellipse fill="none" stroke="magenta" cx="1167.45" cy="-98.87" rx="58.49" ry="18"/>
<text text-anchor="middle" x="1167.45" y="-95.17" font-family="Times,serif" font-size="14.00" fill="#ebc72d">Horseman</text>
</a>
</g>
</g>
<!-- horse_farm&#45;&gt;horseman -->
<g id="edge8" class="edge">
<title>horse_farm&#45;&gt;horseman</title>
<path fill="none" stroke="#ebc72d" d="M1090.98,-167.75C1106.83,-153.67 1126.21,-136.48 1141.49,-122.92"/>
<polygon fill="#ebc72d" stroke="#ebc72d" points="1143.91,-125.45 1149.06,-116.19 1139.26,-120.21 1143.91,-125.45"/>
</g>
<!-- round_tent&#45;&gt;fire_archer -->
<g id="edge15" class="edge">
<title>round_tent&#45;&gt;fire_archer</title>
<path fill="none" stroke="#ebc72d" d="M543.69,-167.88C538.93,-165.69 534.13,-163.6 529.45,-161.74 476.11,-140.58 459.14,-146.02 405.45,-125.74 401.72,-124.33 397.9,-122.78 394.09,-121.15"/>
<polygon fill="#ebc72d" stroke="#ebc72d" points="395.27,-117.85 384.71,-117 392.44,-124.25 395.27,-117.85"/>
</g>
<!-- round_tent&#45;&gt;axe_indian -->
<g id="edge13" class="edge">
<title>round_tent&#45;&gt;axe_indian</title>
<path fill="none" stroke="#ebc72d" d="M555.12,-167.75C536.32,-154.54 513.61,-138.6 494.93,-125.48"/>
<polygon fill="#ebc72d" stroke="#ebc72d" points="496.85,-122.55 486.65,-119.67 492.83,-128.28 496.85,-122.55"/>
</g>
<!-- round_tent&#45;&gt;axe_thrower -->
<g id="edge14" class="edge">
<title>round_tent&#45;&gt;axe_thrower</title>
<path fill="none" stroke="#ebc72d" d="M587.44,-167.75C585.54,-157.86 583.36,-146.43 581.32,-135.8"/>
<polygon fill="#ebc72d" stroke="#ebc72d" points="584.75,-135.1 579.44,-125.94 577.88,-136.42 584.75,-135.1"/>
</g>
<!-- round_tent&#45;&gt;spearman -->
<g id="edge16" class="edge">
<title>round_tent&#45;&gt;spearman</title>
<path fill="none" stroke="#ebc72d" d="M623.65,-167.75C640.51,-153.58 661.14,-136.25 677.33,-122.65"/>
<polygon fill="#ebc72d" stroke="#ebc72d" points="679.95,-125.02 685.35,-115.91 675.44,-119.66 679.95,-125.02"/>
</g>
</g>
</svg>
