<?xml version="1.0" encoding="UTF-8" standalone="no"?>
<!DOCTYPE svg PUBLIC "-//W3C//DTD SVG 1.1//EN"
 "http://www.w3.org/Graphics/SVG/1.1/DTD/svg11.dtd">
<!-- Generated by graphviz version 2.50.0 (0)
 -->
<!-- Title: test Pages: 1 -->
<svg width="1266pt" height="707pt"
 viewBox="0.00 0.00 1266.03 706.59" xmlns="http://www.w3.org/2000/svg" xmlns:xlink="http://www.w3.org/1999/xlink">
<g id="graph0" class="graph" transform="scale(1 1) rotate(0) translate(4 702.59)">
<title>test</title>
<polygon fill="#151515" stroke="transparent" points="-4,4 -4,-702.59 1262.03,-702.59 1262.03,4 -4,4"/>
<!-- main_teepee -->
<g id="node1" class="node">
<title>main_teepee</title>
<g id="a_node1"><a xlink:href="indian_main_teepee_full.html" xlink:title="Main\nTeepee">
<polygon fill="none" stroke="red" points="407.94,-675.71 349.32,-698.81 290.7,-675.71 290.76,-638.34 407.89,-638.34 407.94,-675.71"/>
<text text-anchor="middle" x="349.32" y="-669.18" font-family="Times,serif" font-size="14.00" fill="#ebc72d">Main</text>
<text text-anchor="middle" x="349.32" y="-654.18" font-family="Times,serif" font-size="14.00" fill="#ebc72d">Teepee</text>
</a>
</g>
</g>
<!-- worker -->
<g id="node17" class="node">
<title>worker</title>
<g id="a_node17"><a xlink:href="indian_worker_full.html" xlink:title="Worker">
<ellipse fill="none" stroke="magenta" cx="349.32" cy="-578.17" rx="44.69" ry="18"/>
<text text-anchor="middle" x="349.32" y="-574.47" font-family="Times,serif" font-size="14.00" fill="#ebc72d">Worker</text>
</a>
</g>
</g>
<!-- main_teepee&#45;&gt;worker -->
<g id="edge15" class="edge">
<title>main_teepee&#45;&gt;worker</title>
<path fill="none" stroke="#ebc72d" d="M349.32,-627.66C349.32,-620.49 349.32,-613.09 349.32,-606.29"/>
<polygon fill="#ebc72d" stroke="#ebc72d" points="345.82,-627.88 349.32,-637.88 352.82,-627.88 345.82,-627.88"/>
<polygon fill="#ebc72d" stroke="#ebc72d" points="352.82,-606.24 349.32,-596.24 345.82,-606.24 352.82,-606.24"/>
</g>
<!-- beehive -->
<g id="node2" class="node">
<title>beehive</title>
<g id="a_node2"><a xlink:href="indian_beehive_full.html" xlink:title="Beehive">
<polygon fill="none" stroke="red" points="495.72,-23.56 436.32,-36 376.92,-23.56 376.98,-3.44 495.67,-3.44 495.72,-23.56"/>
<text text-anchor="middle" x="436.32" y="-14.3" font-family="Times,serif" font-size="14.00" fill="#ebc72d">Beehive</text>
</a>
</g>
</g>
<!-- reed -->
<g id="node3" class="node">
<title>reed</title>
<g id="a_node3"><a xlink:href="indian_reed_full.html" xlink:title="Reed">
<polygon fill="none" stroke="red" points="207.98,-424.52 165.32,-436.95 122.66,-424.52 122.7,-404.39 207.94,-404.39 207.98,-424.52"/>
<text text-anchor="middle" x="165.32" y="-415.25" font-family="Times,serif" font-size="14.00" fill="#ebc72d">Reed</text>
</a>
</g>
</g>
<!-- reed&#45;&gt;beehive -->
<g id="edge17" class="edge">
<title>reed&#45;&gt;beehive</title>
<path fill="none" stroke="#ebc72d" stroke-dasharray="1,5" d="M122.52,-409.86C74.18,-397.93 1.96,-370.47 0.32,-312.74"/>
<path fill="none" stroke="#ebc72d" stroke-dasharray="1,5" d="M0.32,-310.74C-4.83,-128.95 263.32,-53.26 381.55,-28.75"/>
<polygon fill="#ebc72d" stroke="#ebc72d" points="382.39,-32.15 391.5,-26.74 381,-25.29 382.39,-32.15"/>
</g>
<!-- fire_archer -->
<g id="node4" class="node">
<title>fire_archer</title>
<g id="a_node4"><a xlink:href="indian_fire_archer_full.html" xlink:title="Fire\nArcher">
<ellipse fill="none" stroke="magenta" cx="414.32" cy="-199.74" rx="45.92" ry="26.74"/>
<text text-anchor="middle" x="414.32" y="-203.54" font-family="Times,serif" font-size="14.00" fill="#ebc72d">Fire</text>
<text text-anchor="middle" x="414.32" y="-188.54" font-family="Times,serif" font-size="14.00" fill="#ebc72d">Archer</text>
</a>
</g>
</g>
<!-- reed&#45;&gt;fire_archer -->
<g id="edge19" class="edge">
<title>reed&#45;&gt;fire_archer</title>
<path fill="none" stroke="#ebc72d" stroke-dasharray="1,5" d="M0.32,-310.74C1.77,-292.31 4.08,-284.2 19.32,-273.74 81.04,-231.36 283.48,-261.99 354.32,-237.74 362.39,-234.98 370.52,-230.97 378.07,-226.61"/>
<polygon fill="#ebc72d" stroke="#ebc72d" points="379.93,-229.58 386.63,-221.38 376.28,-223.61 379.93,-229.58"/>
</g>
<!-- fire_golem -->
<g id="node12" class="node">
<title>fire_golem</title>
<g id="a_node12"><a xlink:href="indian_fire_golem_full.html" xlink:title="Fire\nGolem">
<ellipse fill="none" stroke="magenta" cx="718.32" cy="-98.87" rx="43.68" ry="26.74"/>
<text text-anchor="middle" x="718.32" y="-102.67" font-family="Times,serif" font-size="14.00" fill="#ebc72d">Fire</text>
<text text-anchor="middle" x="718.32" y="-87.67" font-family="Times,serif" font-size="14.00" fill="#ebc72d">Golem</text>
</a>
</g>
</g>
<!-- reed&#45;&gt;fire_golem -->
<g id="edge20" class="edge">
<title>reed&#45;&gt;fire_golem</title>
<path fill="none" stroke="#ebc72d" stroke-dasharray="1,5" d="M0.32,-310.74C22.97,-22.79 340.28,-183.32 623.32,-125.74 638.43,-122.67 654.68,-118.55 669.4,-114.5"/>
<polygon fill="#ebc72d" stroke="#ebc72d" points="670.62,-117.79 679.31,-111.73 668.74,-111.05 670.62,-117.79"/>
</g>
<!-- archer -->
<g id="node13" class="node">
<title>archer</title>
<g id="a_node13"><a xlink:href="indian_archer_full.html" xlink:title="Archer">
<ellipse fill="none" stroke="magenta" cx="194.32" cy="-311.74" rx="42.49" ry="18"/>
<text text-anchor="middle" x="194.32" y="-308.04" font-family="Times,serif" font-size="14.00" fill="#ebc72d">Archer</text>
</a>
</g>
</g>
<!-- reed&#45;&gt;archer -->
<g id="edge16" class="edge">
<title>reed&#45;&gt;archer</title>
<path fill="none" stroke="#ebc72d" stroke-dasharray="1,5" d="M169.11,-404.2C173.61,-387.9 181.2,-360.37 186.88,-339.76"/>
<polygon fill="#ebc72d" stroke="#ebc72d" points="190.28,-340.56 189.57,-329.99 183.54,-338.7 190.28,-340.56"/>
</g>
<!-- bull_food -->
<g id="node23" class="node">
<title>bull_food</title>
<g id="a_node23"><a xlink:href="indian_bull_food_full.html" xlink:title="Bull\nFood">
<polygon fill="none" stroke="green" points="134.07,-349.74 50.16,-349.74 28.57,-273.74 112.49,-273.74 134.07,-349.74"/>
<text text-anchor="middle" x="81.32" y="-315.54" font-family="Times,serif" font-size="14.00" fill="#ebc72d">Bull</text>
<text text-anchor="middle" x="81.32" y="-300.54" font-family="Times,serif" font-size="14.00" fill="#ebc72d">Food</text>
</a>
</g>
</g>
<!-- reed&#45;&gt;bull_food -->
<g id="edge18" class="edge">
<title>reed&#45;&gt;bull_food</title>
<path fill="none" stroke="#ebc72d" d="M154.34,-404.2C144.94,-392.42 130.85,-374.78 117.55,-358.12"/>
<polygon fill="#ebc72d" stroke="#ebc72d" points="120.09,-355.68 111.11,-350.05 114.62,-360.05 120.09,-355.68"/>
</g>
<!-- tent -->
<g id="node5" class="node">
<title>tent</title>
<g id="a_node5"><a xlink:href="indian_tent_full.html" xlink:title="Tent">
<polygon fill="none" stroke="red" points="387.95,-511.73 349.32,-524.17 310.7,-511.73 310.73,-491.6 387.91,-491.6 387.95,-511.73"/>
<text text-anchor="middle" x="349.32" y="-502.47" font-family="Times,serif" font-size="14.00" fill="#ebc72d">Tent</text>
</a>
</g>
</g>
<!-- stickfighter -->
<g id="node7" class="node">
<title>stickfighter</title>
<g id="a_node7"><a xlink:href="indian_stickfighter_full.html" xlink:title="Stickfighter">
<ellipse fill="none" stroke="magenta" cx="320.32" cy="-311.74" rx="65.79" ry="18"/>
<text text-anchor="middle" x="320.32" y="-308.04" font-family="Times,serif" font-size="14.00" fill="#ebc72d">Stickfighter</text>
</a>
</g>
</g>
<!-- tent&#45;&gt;stickfighter -->
<g id="edge33" class="edge">
<title>tent&#45;&gt;stickfighter</title>
<path fill="none" stroke="#ebc72d" d="M347.24,-491.33C342.47,-459.7 330.71,-381.64 324.43,-339.97"/>
<polygon fill="#ebc72d" stroke="#ebc72d" points="327.87,-339.34 322.92,-329.97 320.95,-340.38 327.87,-339.34"/>
</g>
<!-- big_tent -->
<g id="node15" class="node">
<title>big_tent</title>
<g id="a_node15"><a xlink:href="indian_big_tent_full.html" xlink:title="Big\nTent">
<polygon fill="none" stroke="red" points="321.23,-429.28 279.32,-452.38 237.42,-429.28 237.45,-391.91 321.19,-391.91 321.23,-429.28"/>
<text text-anchor="middle" x="279.32" y="-422.75" font-family="Times,serif" font-size="14.00" fill="#ebc72d">Big</text>
<text text-anchor="middle" x="279.32" y="-407.75" font-family="Times,serif" font-size="14.00" fill="#ebc72d">Tent</text>
</a>
</g>
</g>
<!-- tent&#45;&gt;big_tent -->
<g id="edge31" class="edge">
<title>tent&#45;&gt;big_tent</title>
<path fill="none" stroke="#ebc72d" stroke-dasharray="1,5" d="M338.08,-491.48C329.03,-480.46 315.98,-464.57 304.47,-450.56"/>
<polygon fill="#ebc72d" stroke="#ebc72d" points="306.97,-448.09 297.91,-442.59 301.56,-452.53 306.97,-448.09"/>
</g>
<!-- round_tent -->
<g id="node21" class="node">
<title>round_tent</title>
<g id="a_node21"><a xlink:href="indian_round_tent_full.html" xlink:title="Round\nTent">
<polygon fill="none" stroke="red" points="727.7,-429.28 673.32,-452.38 618.94,-429.28 618.99,-391.91 727.65,-391.91 727.7,-429.28"/>
<text text-anchor="middle" x="673.32" y="-422.75" font-family="Times,serif" font-size="14.00" fill="#ebc72d">Round</text>
<text text-anchor="middle" x="673.32" y="-407.75" font-family="Times,serif" font-size="14.00" fill="#ebc72d">Tent</text>
</a>
</g>
</g>
<!-- tent&#45;&gt;round_tent -->
<g id="edge32" class="edge">
<title>tent&#45;&gt;round_tent</title>
<path fill="none" stroke="#ebc72d" stroke-dasharray="1,5" d="M388.08,-494.97C444.8,-480.06 550.77,-452.18 616.36,-434.93"/>
<polygon fill="#ebc72d" stroke="#ebc72d" points="617.35,-438.29 626.13,-432.37 615.57,-431.52 617.35,-438.29"/>
</g>
<!-- axe_indian -->
<g id="node6" class="node">
<title>axe_indian</title>
<g id="a_node6"><a xlink:href="indian_axe_indian_full.html" xlink:title="Axe\nIndian">
<ellipse fill="none" stroke="magenta" cx="391.32" cy="-98.87" rx="43.68" ry="26.74"/>
<text text-anchor="middle" x="391.32" y="-102.67" font-family="Times,serif" font-size="14.00" fill="#ebc72d">Axe</text>
<text text-anchor="middle" x="391.32" y="-87.67" font-family="Times,serif" font-size="14.00" fill="#ebc72d">Indian</text>
</a>
</g>
</g>
<!-- axe_thrower -->
<g id="node8" class="node">
<title>axe_thrower</title>
<g id="a_node8"><a xlink:href="indian_axe_thrower_full.html" xlink:title="Axe\nThrower">
<ellipse fill="none" stroke="magenta" cx="560.32" cy="-98.87" rx="54.39" ry="26.74"/>
<text text-anchor="middle" x="560.32" y="-102.67" font-family="Times,serif" font-size="14.00" fill="#ebc72d">Axe</text>
<text text-anchor="middle" x="560.32" y="-87.67" font-family="Times,serif" font-size="14.00" fill="#ebc72d">Thrower</text>
</a>
</g>
</g>
<!-- totem -->
<g id="node9" class="node">
<title>totem</title>
<g id="a_node9"><a xlink:href="indian_totem_full.html" xlink:title="Totem">
<polygon fill="none" stroke="red" points="1067.94,-205.3 1018.32,-217.74 968.7,-205.3 968.75,-185.18 1067.89,-185.18 1067.94,-205.3"/>
<text text-anchor="middle" x="1018.32" y="-196.04" font-family="Times,serif" font-size="14.00" fill="#ebc72d">Totem</text>
</a>
</g>
</g>
<!-- shaman -->
<g id="node10" class="node">
<title>shaman</title>
<g id="a_node10"><a xlink:href="indian_shaman_full.html" xlink:title="Shaman">
<ellipse fill="none" stroke="magenta" cx="1018.32" cy="-98.87" rx="48.19" ry="18"/>
<text text-anchor="middle" x="1018.32" y="-95.17" font-family="Times,serif" font-size="14.00" fill="#ebc72d">Shaman</text>
</a>
</g>
</g>
<!-- totem&#45;&gt;shaman -->
<g id="edge36" class="edge">
<title>totem&#45;&gt;shaman</title>
<path fill="none" stroke="#ebc72d" d="M1018.32,-184.99C1018.32,-170.11 1018.32,-145.98 1018.32,-127.21"/>
<polygon fill="#ebc72d" stroke="#ebc72d" points="1021.82,-127.16 1018.32,-117.16 1014.82,-127.16 1021.82,-127.16"/>
</g>
<!-- totem&#45;&gt;fire_golem -->
<g id="edge34" class="edge">
<title>totem&#45;&gt;fire_golem</title>
<path fill="none" stroke="#ebc72d" stroke-dasharray="1,5" d="M998.71,-185.12C986.45,-177.2 970.06,-167.65 954.32,-161.74 876.72,-132.6 849.9,-152.14 771.32,-125.74 767.55,-124.47 763.71,-123 759.9,-121.4"/>
<polygon fill="#ebc72d" stroke="#ebc72d" points="761.12,-118.11 750.56,-117.25 758.27,-124.51 761.12,-118.11"/>
</g>
<!-- petroleum -->
<g id="node25" class="node">
<title>petroleum</title>
<g id="a_node25"><a xlink:href="indian_petroleum_full.html" xlink:title="Petroleum">
<polygon fill="none" stroke="green" points="951.85,-116.87 815.79,-116.87 780.79,-80.87 916.85,-80.87 951.85,-116.87"/>
<text text-anchor="middle" x="866.32" y="-95.17" font-family="Times,serif" font-size="14.00" fill="#ebc72d">Petroleum</text>
</a>
</g>
</g>
<!-- totem&#45;&gt;petroleum -->
<g id="edge35" class="edge">
<title>totem&#45;&gt;petroleum</title>
<path fill="none" stroke="#ebc72d" d="M997.19,-184.99C972.32,-168.81 930.66,-141.72 901.03,-122.44"/>
<polygon fill="#ebc72d" stroke="#ebc72d" points="902.92,-119.5 892.63,-116.98 899.1,-125.37 902.92,-119.5"/>
</g>
<!-- shaman&#45;&gt;beehive -->
<g id="edge28" class="edge">
<title>shaman&#45;&gt;beehive</title>
<path fill="none" stroke="#ebc72d" stroke-width="2" d="M992.02,-83.77C982.59,-79.3 971.71,-74.8 961.32,-72 802.27,-29.12 607.62,-20.33 505.86,-18.9"/>
<polygon fill="#ebc72d" stroke="#ebc72d" stroke-width="2" points="505.75,-15.39 495.71,-18.77 505.67,-22.39 505.75,-15.39"/>
</g>
<!-- thunderbird -->
<g id="node11" class="node">
<title>thunderbird</title>
<g id="a_node11"><a xlink:href="indian_thunderbird_full.html" xlink:title="Thunderbird">
<ellipse fill="none" stroke="magenta" cx="1018.32" cy="-18" rx="68.79" ry="18"/>
<text text-anchor="middle" x="1018.32" y="-14.3" font-family="Times,serif" font-size="14.00" fill="#ebc72d">Thunderbird</text>
</a>
</g>
</g>
<!-- shaman&#45;&gt;thunderbird -->
<g id="edge29" class="edge">
<title>shaman&#45;&gt;thunderbird</title>
<path fill="none" stroke="#ebc72d" d="M1018.32,-80.76C1018.32,-70.73 1018.32,-57.84 1018.32,-46.42"/>
<polygon fill="#ebc72d" stroke="#ebc72d" points="1021.82,-46.08 1018.32,-36.08 1014.82,-46.08 1021.82,-46.08"/>
</g>
<!-- spearman -->
<g id="node14" class="node">
<title>spearman</title>
<g id="a_node14"><a xlink:href="indian_spearman_full.html" xlink:title="Spearman">
<ellipse fill="none" stroke="magenta" cx="716.32" cy="-311.74" rx="57.69" ry="18"/>
<text text-anchor="middle" x="716.32" y="-308.04" font-family="Times,serif" font-size="14.00" fill="#ebc72d">Spearman</text>
</a>
</g>
</g>
<!-- big_tent&#45;&gt;stickfighter -->
<g id="edge2" class="edge">
<title>big_tent&#45;&gt;stickfighter</title>
<path fill="none" stroke="#ebc72d" d="M289.56,-391.67C295.81,-375.65 303.77,-355.22 310.02,-339.17"/>
<polygon fill="#ebc72d" stroke="#ebc72d" points="313.3,-340.4 313.67,-329.81 306.78,-337.86 313.3,-340.4"/>
</g>
<!-- big_tent&#45;&gt;archer -->
<g id="edge1" class="edge">
<title>big_tent&#45;&gt;archer</title>
<path fill="none" stroke="#ebc72d" d="M258.09,-391.67C244.53,-374.88 227.06,-353.27 213.84,-336.9"/>
<polygon fill="#ebc72d" stroke="#ebc72d" points="216.36,-334.45 207.36,-328.88 210.92,-338.85 216.36,-334.45"/>
</g>
<!-- campfire -->
<g id="node16" class="node">
<title>campfire</title>
<g id="a_node16"><a xlink:href="indian_campfire_full.html" xlink:title="Campfire">
<polygon fill="none" stroke="red" points="926.18,-317.3 859.32,-329.74 792.46,-317.3 792.52,-297.18 926.12,-297.18 926.18,-317.3"/>
<text text-anchor="middle" x="859.32" y="-308.04" font-family="Times,serif" font-size="14.00" fill="#ebc72d">Campfire</text>
</a>
</g>
</g>
<!-- campfire&#45;&gt;fire_archer -->
<g id="edge5" class="edge">
<title>campfire&#45;&gt;fire_archer</title>
<path fill="none" stroke="#ebc72d" stroke-dasharray="1,5" d="M836.12,-297.15C821.45,-289.14 801.82,-279.48 783.32,-273.74 680.31,-241.76 648.72,-260.66 543.32,-237.74 516.83,-231.98 487.76,-223.81 463.94,-216.61"/>
<polygon fill="#ebc72d" stroke="#ebc72d" points="464.66,-213.17 454.07,-213.6 462.61,-219.87 464.66,-213.17"/>
</g>
<!-- campfire&#45;&gt;totem -->
<g id="edge8" class="edge">
<title>campfire&#45;&gt;totem</title>
<path fill="none" stroke="#ebc72d" stroke-dasharray="1,5" d="M879.14,-297.03C907.6,-277.34 960.1,-241.02 991.86,-219.05"/>
<polygon fill="#ebc72d" stroke="#ebc72d" points="993.99,-221.83 1000.22,-213.26 990.01,-216.07 993.99,-221.83"/>
</g>
<!-- campfire&#45;&gt;fire_golem -->
<g id="edge6" class="edge">
<title>campfire&#45;&gt;fire_golem</title>
<path fill="none" stroke="#ebc72d" d="M876.22,-297.17C891.31,-283.87 912.38,-262.09 921.32,-237.74 932.97,-206.03 942.23,-188.27 921.32,-161.74 878.88,-107.9 835.85,-148.92 771.32,-125.74 767.63,-124.42 763.86,-122.91 760.12,-121.3"/>
<polygon fill="#ebc72d" stroke="#ebc72d" points="761.47,-118.08 750.92,-117.16 758.6,-124.46 761.47,-118.08"/>
</g>
<!-- advanced_iron -->
<g id="node26" class="node">
<title>advanced_iron</title>
<g id="a_node26"><a xlink:href="indian_advanced_iron_full.html" xlink:title="Advanced\nIron">
<polygon fill="none" stroke="green" points="912.64,-237.74 770.55,-237.74 734,-161.74 876.09,-161.74 912.64,-237.74"/>
<text text-anchor="middle" x="823.32" y="-203.54" font-family="Times,serif" font-size="14.00" fill="#ebc72d">Advanced</text>
<text text-anchor="middle" x="823.32" y="-188.54" font-family="Times,serif" font-size="14.00" fill="#ebc72d">Iron</text>
</a>
</g>
</g>
<!-- campfire&#45;&gt;advanced_iron -->
<g id="edge4" class="edge">
<title>campfire&#45;&gt;advanced_iron</title>
<path fill="none" stroke="#ebc72d" d="M854.76,-296.81C850.71,-284.42 844.54,-265.57 838.74,-247.84"/>
<polygon fill="#ebc72d" stroke="#ebc72d" points="842,-246.57 835.57,-238.15 835.35,-248.74 842,-246.57"/>
</g>
<!-- iron -->
<g id="node27" class="node">
<title>iron</title>
<g id="a_node27"><a xlink:href="indian_iron_full.html" xlink:title="Iron">
<polygon fill="none" stroke="green" points="639.99,-217.74 570.52,-217.74 552.65,-181.74 622.12,-181.74 639.99,-217.74"/>
<text text-anchor="middle" x="596.32" y="-196.04" font-family="Times,serif" font-size="14.00" fill="#ebc72d">Iron</text>
</a>
</g>
</g>
<!-- campfire&#45;&gt;iron -->
<g id="edge7" class="edge">
<title>campfire&#45;&gt;iron</title>
<path fill="none" stroke="#ebc72d" d="M834.52,-297.17C819.92,-289.57 800.92,-280.32 783.32,-273.74 725.56,-252.15 705.22,-263.78 649.32,-237.74 641.21,-233.96 633,-228.94 625.55,-223.83"/>
<polygon fill="#ebc72d" stroke="#ebc72d" points="627.37,-220.82 617.2,-217.84 623.29,-226.51 627.37,-220.82"/>
</g>
<!-- worker&#45;&gt;reed -->
<g id="edge41" class="edge">
<title>worker&#45;&gt;reed</title>
<path fill="none" stroke="#ebc72d" stroke-width="2" d="M331.54,-561.45C316.7,-547.87 295.43,-527.29 279.32,-507.17"/>
<path fill="none" stroke="#ebc72d" stroke-width="2" d="M279.32,-505.17C255.8,-475.79 219.92,-451.21 194.71,-436.11"/>
<polygon fill="#ebc72d" stroke="#ebc72d" stroke-width="2" points="196.35,-433.01 185.95,-430.99 192.81,-439.06 196.35,-433.01"/>
</g>
<!-- worker&#45;&gt;tent -->
<g id="edge43" class="edge">
<title>worker&#45;&gt;tent</title>
<path fill="none" stroke="#ebc72d" stroke-width="2" d="M349.32,-559.86C349.32,-552.15 349.32,-542.88 349.32,-534.28"/>
<polygon fill="#ebc72d" stroke="#ebc72d" stroke-width="2" points="352.82,-534.27 349.32,-524.27 345.82,-534.27 352.82,-534.27"/>
</g>
<!-- worker&#45;&gt;totem -->
<g id="edge44" class="edge">
<title>worker&#45;&gt;totem</title>
<path fill="none" stroke="#ebc72d" stroke-width="2" d="M1035.32,-417.95C1027.46,-387.22 1051.6,-381.11 1056.32,-349.74 1061.35,-316.34 1064.35,-306.55 1056.32,-273.74 1051.99,-256.04 1042.54,-237.85 1034.15,-224.06"/>
<polygon fill="#ebc72d" stroke="#ebc72d" stroke-width="2" points="1036.89,-221.85 1028.58,-215.27 1030.98,-225.59 1036.89,-221.85"/>
</g>
<!-- worker&#45;&gt;big_tent -->
<g id="edge37" class="edge">
<title>worker&#45;&gt;big_tent</title>
<path fill="none" stroke="#ebc72d" stroke-width="2" d="M279.32,-505.17C269.01,-492.28 267.68,-474.44 269.47,-458.42"/>
<polygon fill="#ebc72d" stroke="#ebc72d" stroke-width="2" points="272.98,-458.63 271.03,-448.22 266.06,-457.57 272.98,-458.63"/>
</g>
<!-- worker&#45;&gt;campfire -->
<g id="edge38" class="edge">
<title>worker&#45;&gt;campfire</title>
<path fill="none" stroke="#ebc72d" stroke-width="2" d="M1035.32,-505.17C1041.81,-467.85 1044.7,-456.65 1035.32,-419.95"/>
<path fill="none" stroke="#ebc72d" stroke-width="2" d="M1035.32,-417.95C1031.29,-402.2 943.35,-355.33 893.34,-329.79"/>
<polygon fill="#ebc72d" stroke="#ebc72d" stroke-width="2" points="894.67,-326.55 884.17,-325.14 891.5,-332.79 894.67,-326.55"/>
</g>
<!-- horse_farm -->
<g id="node19" class="node">
<title>horse_farm</title>
<g id="a_node19"><a xlink:href="indian_horse_farm_full.html" xlink:title="Horse\nFarm">
<polygon fill="none" stroke="red" points="1046.96,-322.07 995.32,-345.17 943.69,-322.07 943.73,-284.7 1046.91,-284.7 1046.96,-322.07"/>
<text text-anchor="middle" x="995.32" y="-315.54" font-family="Times,serif" font-size="14.00" fill="#ebc72d">Horse</text>
<text text-anchor="middle" x="995.32" y="-300.54" font-family="Times,serif" font-size="14.00" fill="#ebc72d">Farm</text>
</a>
</g>
</g>
<!-- worker&#45;&gt;horse_farm -->
<g id="edge39" class="edge">
<title>worker&#45;&gt;horse_farm</title>
<path fill="none" stroke="#ebc72d" stroke-width="2" d="M1035.32,-417.95C1029.33,-394.52 1019.79,-369.16 1011.52,-349.21"/>
<polygon fill="#ebc72d" stroke="#ebc72d" stroke-width="2" points="1014.7,-347.73 1007.59,-339.88 1008.25,-350.45 1014.7,-347.73"/>
</g>
<!-- worker&#45;&gt;round_tent -->
<g id="edge42" class="edge">
<title>worker&#45;&gt;round_tent</title>
<path fill="none" stroke="#ebc72d" stroke-width="2" d="M394.31,-577.24C545.16,-576.88 1024.26,-570.75 1035.32,-507.17"/>
<path fill="none" stroke="#ebc72d" stroke-width="2" d="M1035.32,-505.17C1045.75,-445.24 844.72,-427.37 737.86,-422.1"/>
<polygon fill="#ebc72d" stroke="#ebc72d" stroke-width="2" points="737.98,-418.61 727.82,-421.63 737.65,-425.6 737.98,-418.61"/>
</g>
<!-- bull -->
<g id="node18" class="node">
<title>bull</title>
<g id="a_node18"><a xlink:href="indian_bull_full.html" xlink:title="Bull">
<ellipse fill="none" stroke="magenta" cx="687.32" cy="-199.74" rx="29.5" ry="18"/>
<text text-anchor="middle" x="687.32" y="-196.04" font-family="Times,serif" font-size="14.00" fill="#ebc72d">Bull</text>
</a>
</g>
</g>
<!-- horse_farm&#45;&gt;bull -->
<g id="edge9" class="edge">
<title>horse_farm&#45;&gt;bull</title>
<path fill="none" stroke="#ebc72d" d="M957.72,-284.57C950.53,-280.44 942.88,-276.59 935.32,-273.74 846.74,-240.28 809.71,-280.7 725.32,-237.74 718.44,-234.24 711.99,-229.06 706.42,-223.68"/>
<polygon fill="#ebc72d" stroke="#ebc72d" points="708.87,-221.17 699.43,-216.35 703.8,-226 708.87,-221.17"/>
</g>
<!-- horseman -->
<g id="node20" class="node">
<title>horseman</title>
<g id="a_node20"><a xlink:href="indian_horseman_full.html" xlink:title="Horseman">
<ellipse fill="none" stroke="magenta" cx="1143.32" cy="-98.87" rx="58.49" ry="18"/>
<text text-anchor="middle" x="1143.32" y="-95.17" font-family="Times,serif" font-size="14.00" fill="#ebc72d">Horseman</text>
</a>
</g>
</g>
<!-- horse_farm&#45;&gt;horseman -->
<g id="edge10" class="edge">
<title>horse_farm&#45;&gt;horseman</title>
<path fill="none" stroke="#ebc72d" d="M1030.56,-284.64C1046.26,-271.77 1064.15,-255.26 1077.32,-237.74 1084.53,-228.15 1114.49,-163.31 1131.46,-126.06"/>
<polygon fill="#ebc72d" stroke="#ebc72d" points="1134.72,-127.35 1135.67,-116.8 1128.35,-124.45 1134.72,-127.35"/>
</g>
<!-- stables -->
<g id="node22" class="node">
<title>stables</title>
<g id="a_node22"><a xlink:href="indian_stables_full.html" xlink:title="Stables">
<polygon fill="none" stroke="green" points="1258.23,-217.74 1151.79,-217.74 1124.41,-181.74 1230.85,-181.74 1258.23,-217.74"/>
<text text-anchor="middle" x="1191.32" y="-196.04" font-family="Times,serif" font-size="14.00" fill="#ebc72d">Stables</text>
</a>
</g>
</g>
<!-- horse_farm&#45;&gt;stables -->
<g id="edge11" class="edge">
<title>horse_farm&#45;&gt;stables</title>
<path fill="none" stroke="#ebc72d" d="M1041.77,-284.67C1075.26,-265.88 1119.97,-240.79 1151.76,-222.95"/>
<polygon fill="#ebc72d" stroke="#ebc72d" points="1153.76,-225.83 1160.77,-217.89 1150.34,-219.73 1153.76,-225.83"/>
</g>
<!-- round_tent&#45;&gt;fire_archer -->
<g id="edge24" class="edge">
<title>round_tent&#45;&gt;fire_archer</title>
<path fill="none" stroke="#ebc72d" d="M414.32,-310.74C394.55,-292.32 396.63,-260.66 402.45,-236.02"/>
<polygon fill="#ebc72d" stroke="#ebc72d" points="405.86,-236.85 405.03,-226.29 399.09,-235.06 405.86,-236.85"/>
</g>
<!-- round_tent&#45;&gt;axe_indian -->
<g id="edge21" class="edge">
<title>round_tent&#45;&gt;axe_indian</title>
<path fill="none" stroke="#ebc72d" d="M619.01,-414.8C566.27,-409.14 486.59,-393.4 433.32,-349.74 419.03,-338.02 427.85,-325.34 414.32,-312.74"/>
<path fill="none" stroke="#ebc72d" d="M414.32,-310.74C400.79,-298.14 406.21,-288.68 395.32,-273.74 381.99,-255.46 367.98,-258.65 359.32,-237.74 346.4,-206.53 351.34,-194.56 359.32,-161.74 361.7,-151.97 365.91,-142.03 370.5,-133.04"/>
<polygon fill="#ebc72d" stroke="#ebc72d" points="373.67,-134.54 375.38,-124.08 367.52,-131.2 373.67,-134.54"/>
</g>
<!-- round_tent&#45;&gt;axe_thrower -->
<g id="edge22" class="edge">
<title>round_tent&#45;&gt;axe_thrower</title>
<path fill="none" stroke="#ebc72d" d="M664.46,-391.83C651.71,-355.39 627.9,-291.72 611.32,-273.74 588.14,-248.6 560.96,-267.04 543.32,-237.74 524.55,-206.55 533.82,-164.22 544.6,-134.72"/>
<polygon fill="#ebc72d" stroke="#ebc72d" points="547.92,-135.83 548.27,-125.24 541.39,-133.3 547.92,-135.83"/>
</g>
<!-- round_tent&#45;&gt;spearman -->
<g id="edge26" class="edge">
<title>round_tent&#45;&gt;spearman</title>
<path fill="none" stroke="#ebc72d" d="M684.06,-391.67C690.61,-375.65 698.96,-355.22 705.52,-339.17"/>
<polygon fill="#ebc72d" stroke="#ebc72d" points="708.8,-340.39 709.34,-329.81 702.32,-337.75 708.8,-340.39"/>
</g>
<!-- round_tent&#45;&gt;campfire -->
<g id="edge23" class="edge">
<title>round_tent&#45;&gt;campfire</title>
<path fill="none" stroke="#ebc72d" stroke-dasharray="1,5" d="M719.78,-391.67C753.37,-372.67 797.88,-347.49 827.51,-330.74"/>
<polygon fill="#ebc72d" stroke="#ebc72d" points="829.59,-333.58 836.57,-325.61 826.14,-327.49 829.59,-333.58"/>
</g>
<!-- round_tent&#45;&gt;horse_farm -->
<g id="edge25" class="edge">
<title>round_tent&#45;&gt;horse_farm</title>
<path fill="none" stroke="#ebc72d" stroke-dasharray="1,5" d="M727.55,-408.73C781.64,-398.42 866.38,-379.19 935.32,-349.74 942.92,-346.5 950.68,-342.39 957.99,-338.1"/>
<polygon fill="#ebc72d" stroke="#ebc72d" points="960.26,-340.82 966.97,-332.63 956.61,-334.85 960.26,-340.82"/>
</g>
<!-- training_field -->
<g id="node24" class="node">
<title>training_field</title>
<g id="a_node24"><a xlink:href="indian_training_field_full.html" xlink:title="Training\nField">
<polygon fill="none" stroke="green" points="601.98,-349.74 475.26,-349.74 442.66,-273.74 569.38,-273.74 601.98,-349.74"/>
<text text-anchor="middle" x="522.32" y="-315.54" font-family="Times,serif" font-size="14.00" fill="#ebc72d">Training</text>
<text text-anchor="middle" x="522.32" y="-300.54" font-family="Times,serif" font-size="14.00" fill="#ebc72d">Field</text>
</a>
</g>
</g>
<!-- round_tent&#45;&gt;training_field -->
<g id="edge27" class="edge">
<title>round_tent&#45;&gt;training_field</title>
<path fill="none" stroke="#ebc72d" d="M635.61,-391.67C619.99,-380.8 601.47,-367.89 583.98,-355.7"/>
<polygon fill="#ebc72d" stroke="#ebc72d" points="585.7,-352.63 575.49,-349.79 581.7,-358.38 585.7,-352.63"/>
</g>
<!-- stables&#45;&gt;horseman -->
<g id="edge30" class="edge">
<title>stables&#45;&gt;horseman</title>
<path fill="none" stroke="#ebc72d" stroke-dasharray="1,5" d="M1182.96,-181.52C1175.53,-166.21 1164.55,-143.59 1156.03,-126.04"/>
<polygon fill="#ebc72d" stroke="#ebc72d" points="1159.1,-124.36 1151.59,-116.89 1152.81,-127.42 1159.1,-124.36"/>
</g>
<!-- bull_food&#45;&gt;bull -->
<g id="edge3" class="edge">
<title>bull_food&#45;&gt;bull</title>
<path fill="none" stroke="#ebc72d" stroke-dasharray="1,5" d="M116.03,-286.2C124.6,-281.25 133.99,-276.67 143.32,-273.74 358.41,-206.14 443.6,-329.99 649.32,-237.74 656.48,-234.53 663.09,-229.35 668.72,-223.88"/>
<polygon fill="#ebc72d" stroke="#ebc72d" points="671.46,-226.07 675.74,-216.38 666.35,-221.28 671.46,-226.07"/>
</g>
<!-- iron&#45;&gt;axe_indian -->
<g id="edge12" class="edge">
<title>iron&#45;&gt;axe_indian</title>
<path fill="none" stroke="#ebc72d" stroke-dasharray="1,5" d="M560.61,-181.52C525.5,-164.59 471.88,-138.72 434.41,-120.65"/>
<polygon fill="#ebc72d" stroke="#ebc72d" points="435.79,-117.43 425.26,-116.24 432.75,-123.73 435.79,-117.43"/>
</g>
<!-- iron&#45;&gt;axe_thrower -->
<g id="edge13" class="edge">
<title>iron&#45;&gt;axe_thrower</title>
<path fill="none" stroke="#ebc72d" stroke-dasharray="1,5" d="M590.05,-181.52C585.38,-168.69 578.84,-150.73 573.09,-134.93"/>
<polygon fill="#ebc72d" stroke="#ebc72d" points="576.34,-133.63 569.63,-125.43 569.76,-136.02 576.34,-133.63"/>
</g>
<!-- iron&#45;&gt;horseman -->
<g id="edge14" class="edge">
<title>iron&#45;&gt;horseman</title>
<path fill="none" stroke="#ebc72d" stroke-dasharray="1,5" d="M615.55,-181.62C625.05,-174.18 637.08,-166.17 649.32,-161.74 828.01,-97.14 890.06,-167.93 1075.32,-125.74 1084.09,-123.74 1093.24,-120.86 1101.89,-117.73"/>
<polygon fill="#ebc72d" stroke="#ebc72d" points="1103.27,-120.95 1111.38,-114.13 1100.79,-114.4 1103.27,-120.95"/>
</g>
</g>
</svg>
